<svg xmlns="http://www.w3.org/2000/svg" viewBox="0 0 400 300" role="img" aria-label="">
<style>
  .g-out{fill:none;stroke:#20201b;stroke-width:1.5;stroke-linejoin:round;stroke-linecap:round}
  .g-med{fill:none;stroke:#20201b;stroke-width:1;stroke-linecap:round}
  .g-fine{fill:none;stroke:#20201b;stroke-width:.6;stroke-linecap:round}
  .g-hatch line{stroke:#20201b;stroke-width:.5}
  .g-hatch2 line{stroke:#514d44;stroke-width:.5}
  .g-sky line{stroke:#9c978a;stroke-width:.48}
  .g-acc{fill:none;stroke:#17533d;stroke-width:1.3}
  .g-accf{fill:#17533d}
  .g-brass{fill:none;stroke:#8a7338;stroke-width:1.6}
  .g-brass2{fill:none;stroke:#b39a5c;stroke-width:.8}
  .g-brassf{fill:#8a7338}
  .g-eng{fill:none;stroke:#20201b;stroke-width:.5;opacity:.5}
  .g-eng2{fill:none;stroke:#17533d;stroke-width:.45;opacity:.42}
  .g-fillc{fill:#efe9da}
  .g-cap{font-family:'IBM Plex Mono',ui-monospace,monospace;letter-spacing:.16em;fill:#5f5a4c;text-transform:uppercase}
</style>
<defs><clipPath id="win"><rect x="16" y="16" width="368" height="268"/></clipPath></defs>
<rect x="0" y="0" width="400" height="300" fill="#efe9da"/>
<g clip-path="url(#win)">
<g class="g-sky"><line x1="319.5" y1="16" x2="384" y2="20.5"/><line x1="190.5" y1="16" x2="384" y2="29.5"/><line x1="61.4" y1="16" x2="384" y2="38.6"/><line x1="16" y1="21.8" x2="384" y2="47.6"/><line x1="16" y1="30.9" x2="384" y2="56.6"/><line x1="16" y1="39.9" x2="384" y2="65.6"/><line x1="16" y1="48.9" x2="384" y2="74.6"/><line x1="16" y1="57.9" x2="384" y2="83.7"/><line x1="16" y1="67" x2="384" y2="92.7"/><line x1="16" y1="76" x2="384" y2="101.7"/><line x1="16" y1="85" x2="384" y2="110.7"/><line x1="16" y1="94" x2="384" y2="119.8"/><line x1="16" y1="103" x2="384" y2="128.8"/><line x1="16" y1="112.1" x2="384" y2="137.8"/><line x1="16" y1="121.1" x2="384" y2="146.8"/><line x1="16" y1="130.1" x2="384" y2="155.8"/><line x1="16" y1="139.1" x2="384" y2="164.9"/><line x1="16" y1="148.2" x2="384" y2="173.9"/><line x1="16" y1="157.2" x2="384" y2="182.9"/><line x1="16" y1="166.2" x2="384" y2="191.9"/><line x1="16" y1="175.2" x2="384" y2="201"/><line x1="16" y1="184.2" x2="384" y2="210"/><line x1="16" y1="193.3" x2="384" y2="219"/><line x1="16" y1="202.3" x2="384" y2="228"/><line x1="16" y1="211.3" x2="384" y2="237"/><line x1="16" y1="220.3" x2="384" y2="246.1"/><line x1="16" y1="229.3" x2="384" y2="255.1"/><line x1="16" y1="238.4" x2="384" y2="264.1"/><line x1="16" y1="247.4" x2="384" y2="273.1"/><line x1="16" y1="256.4" x2="384" y2="282.1"/><line x1="16" y1="265.4" x2="281.5" y2="284"/><line x1="16" y1="274.5" x2="152.4" y2="284"/><line x1="16" y1="283.5" x2="23.4" y2="284"/></g><path class="g-fillc" d="M 80 90 L 330 72 L 318 234 L 68 220 Z"/><g><line x1="80" y1="90" x2="330" y2="72" stroke="#3a382f" stroke-width="0.8"/><line x1="79.7" y1="92.8" x2="329.7" y2="75.5" stroke="#6f6a5c" stroke-width="0.4"/><line x1="79.5" y1="95.7" x2="329.5" y2="79" stroke="#6f6a5c" stroke-width="0.4"/><line x1="79.2" y1="98.5" x2="329.2" y2="82.6" stroke="#6f6a5c" stroke-width="0.4"/><line x1="79" y1="101.3" x2="329" y2="86.1" stroke="#6f6a5c" stroke-width="0.4"/><line x1="78.7" y1="104.1" x2="328.7" y2="89.6" stroke="#6f6a5c" stroke-width="0.4"/><line x1="78.4" y1="107" x2="328.4" y2="93.1" stroke="#3a382f" stroke-width="0.8"/><line x1="78.2" y1="109.8" x2="328.2" y2="96.7" stroke="#6f6a5c" stroke-width="0.4"/><line x1="77.9" y1="112.6" x2="327.9" y2="100.2" stroke="#6f6a5c" stroke-width="0.4"/><line x1="77.7" y1="115.4" x2="327.7" y2="103.7" stroke="#6f6a5c" stroke-width="0.4"/><line x1="77.4" y1="118.3" x2="327.4" y2="107.2" stroke="#6f6a5c" stroke-width="0.4"/><line x1="77.1" y1="121.1" x2="327.1" y2="110.7" stroke="#6f6a5c" stroke-width="0.4"/><line x1="76.9" y1="123.9" x2="326.9" y2="114.3" stroke="#3a382f" stroke-width="0.8"/><line x1="76.6" y1="126.7" x2="326.6" y2="117.8" stroke="#6f6a5c" stroke-width="0.4"/><line x1="76.3" y1="129.6" x2="326.3" y2="121.3" stroke="#6f6a5c" stroke-width="0.4"/><line x1="76.1" y1="132.4" x2="326.1" y2="124.8" stroke="#6f6a5c" stroke-width="0.4"/><line x1="75.8" y1="135.2" x2="325.8" y2="128.3" stroke="#6f6a5c" stroke-width="0.4"/><line x1="75.6" y1="138" x2="325.6" y2="131.9" stroke="#6f6a5c" stroke-width="0.4"/><line x1="75.3" y1="140.9" x2="325.3" y2="135.4" stroke="#3a382f" stroke-width="0.8"/><line x1="75" y1="143.7" x2="325" y2="138.9" stroke="#6f6a5c" stroke-width="0.4"/><line x1="74.8" y1="146.5" x2="324.8" y2="142.4" stroke="#6f6a5c" stroke-width="0.4"/><line x1="74.5" y1="149.3" x2="324.5" y2="146" stroke="#6f6a5c" stroke-width="0.4"/><line x1="74.3" y1="152.2" x2="324.3" y2="149.5" stroke="#6f6a5c" stroke-width="0.4"/><line x1="74" y1="155" x2="324" y2="153" stroke="#6f6a5c" stroke-width="0.4"/><line x1="73.7" y1="157.8" x2="323.7" y2="156.5" stroke="#3a382f" stroke-width="0.8"/><line x1="73.5" y1="160.7" x2="323.5" y2="160" stroke="#6f6a5c" stroke-width="0.4"/><line x1="73.2" y1="163.5" x2="323.2" y2="163.6" stroke="#6f6a5c" stroke-width="0.4"/><line x1="73" y1="166.3" x2="323" y2="167.1" stroke="#6f6a5c" stroke-width="0.4"/><line x1="72.7" y1="169.1" x2="322.7" y2="170.6" stroke="#6f6a5c" stroke-width="0.4"/><line x1="72.4" y1="172" x2="322.4" y2="174.1" stroke="#6f6a5c" stroke-width="0.4"/><line x1="72.2" y1="174.8" x2="322.2" y2="177.7" stroke="#3a382f" stroke-width="0.8"/><line x1="71.9" y1="177.6" x2="321.9" y2="181.2" stroke="#6f6a5c" stroke-width="0.4"/><line x1="71.7" y1="180.4" x2="321.7" y2="184.7" stroke="#6f6a5c" stroke-width="0.4"/><line x1="71.4" y1="183.3" x2="321.4" y2="188.2" stroke="#6f6a5c" stroke-width="0.4"/><line x1="71.1" y1="186.1" x2="321.1" y2="191.7" stroke="#6f6a5c" stroke-width="0.4"/><line x1="70.9" y1="188.9" x2="320.9" y2="195.3" stroke="#6f6a5c" stroke-width="0.4"/><line x1="70.6" y1="191.7" x2="320.6" y2="198.8" stroke="#3a382f" stroke-width="0.8"/><line x1="70.3" y1="194.6" x2="320.3" y2="202.3" stroke="#6f6a5c" stroke-width="0.4"/><line x1="70.1" y1="197.4" x2="320.1" y2="205.8" stroke="#6f6a5c" stroke-width="0.4"/><line x1="69.8" y1="200.2" x2="319.8" y2="209.3" stroke="#6f6a5c" stroke-width="0.4"/><line x1="69.6" y1="203" x2="319.6" y2="212.9" stroke="#6f6a5c" stroke-width="0.4"/><line x1="69.3" y1="205.9" x2="319.3" y2="216.4" stroke="#6f6a5c" stroke-width="0.4"/><line x1="69" y1="208.7" x2="319" y2="219.9" stroke="#3a382f" stroke-width="0.8"/><line x1="68.8" y1="211.5" x2="318.8" y2="223.4" stroke="#6f6a5c" stroke-width="0.4"/><line x1="68.5" y1="214.3" x2="318.5" y2="227" stroke="#6f6a5c" stroke-width="0.4"/><line x1="68.3" y1="217.2" x2="318.3" y2="230.5" stroke="#6f6a5c" stroke-width="0.4"/><line x1="68" y1="220" x2="318" y2="234" stroke="#6f6a5c" stroke-width="0.4"/></g><path class="g-out" d="M 80 90 L 330 72 L 318 234 L 68 220 Z"/><path class="g-med g-fillc" d="M 318 234 c -18 -6 -30 -20 -26 -40 c 10 16 26 22 40 22 Z"/><g class="g-hatch"><line x1="330.1" y1="216" x2="331.3" y2="216.9"/><line x1="325.9" y1="215.6" x2="329.8" y2="218.8"/><line x1="321.2" y1="214.8" x2="328.3" y2="220.7"/><line x1="315.5" y1="213.1" x2="326.8" y2="222.6"/><line x1="291.6" y1="196.2" x2="297.3" y2="200.9"/><line x1="306.6" y1="208.8" x2="325.4" y2="224.5"/><line x1="291.3" y1="199.1" x2="323.9" y2="226.4"/><line x1="291.3" y1="202.2" x2="322.4" y2="228.3"/><line x1="291.5" y1="205.5" x2="320.9" y2="230.2"/><line x1="292.1" y1="209.2" x2="319.5" y2="232.1"/><line x1="293.6" y1="213.6" x2="318" y2="234"/><line x1="296.9" y1="219.4" x2="310.4" y2="230.8"/></g><g class="g-brassf"><circle cx="94" cy="102" r="2.6"/><circle cx="316" cy="84" r="2.6"/></g><line class="g-acc" x1="74" y1="155" x2="324" y2="153"/>
</g>

  <rect class="g-brass" x="9" y="9" width="382" height="282"/>
  <rect class="g-brass2" x="12" y="12" width="376" height="276"/>
  <rect class="g-fine" x="15" y="15" width="370" height="270"/>
  <g class="g-brassf">
    <circle cx="15" cy="15" r="1.6"/><circle cx="385" cy="15" r="1.6"/><circle cx="15" cy="285" r="1.6"/><circle cx="385" cy="285" r="1.6"/>
  </g>
<text class="g-cap" x="200" y="278" text-anchor="middle" font-size="8.5">Plate III · Material</text>
</svg>