<svg xmlns="http://www.w3.org/2000/svg" viewBox="0 0 400 300" role="img" aria-label="">
<style>
  .g-out{fill:none;stroke:#20201b;stroke-width:1.5;stroke-linejoin:round;stroke-linecap:round}
  .g-med{fill:none;stroke:#20201b;stroke-width:1;stroke-linecap:round}
  .g-fine{fill:none;stroke:#20201b;stroke-width:.6;stroke-linecap:round}
  .g-hatch line{stroke:#20201b;stroke-width:.5}
  .g-hatch2 line{stroke:#514d44;stroke-width:.5}
  .g-sky line{stroke:#9c978a;stroke-width:.48}
  .g-acc{fill:none;stroke:#17533d;stroke-width:1.3}
  .g-accf{fill:#17533d}
  .g-brass{fill:none;stroke:#8a7338;stroke-width:1.6}
  .g-brass2{fill:none;stroke:#b39a5c;stroke-width:.8}
  .g-brassf{fill:#8a7338}
  .g-eng{fill:none;stroke:#20201b;stroke-width:.5;opacity:.5}
  .g-eng2{fill:none;stroke:#17533d;stroke-width:.45;opacity:.42}
  .g-fillc{fill:#efe9da}
  .g-cap{font-family:'IBM Plex Mono',ui-monospace,monospace;letter-spacing:.16em;fill:#5f5a4c;text-transform:uppercase}
</style>
<defs><clipPath id="win"><rect x="16" y="16" width="368" height="268"/></clipPath></defs>
<rect x="0" y="0" width="400" height="300" fill="#efe9da"/>
<g clip-path="url(#win)">
<g class="g-sky"><line x1="24" y1="34" x2="376" y2="34"/><line x1="24" y1="40" x2="376" y2="40"/><line x1="24" y1="46" x2="376" y2="46"/><line x1="24" y1="52" x2="376" y2="52"/><line x1="24" y1="58" x2="376" y2="58"/><line x1="24" y1="64" x2="376" y2="64"/><line x1="24" y1="70" x2="376" y2="70"/><line x1="24" y1="76" x2="376" y2="76"/><line x1="24" y1="82" x2="376" y2="82"/><line x1="24" y1="88" x2="376" y2="88"/><line x1="24" y1="94" x2="376" y2="94"/><line x1="24" y1="100" x2="376" y2="100"/><line x1="24" y1="106" x2="376" y2="106"/><line x1="24" y1="112" x2="376" y2="112"/></g><path class="g-out" d="M 66 120 L 200 44 L 334 120 Z"/><g class="g-hatch"><line x1="198.3" y1="45" x2="200" y2="48.3"/><line x1="194.8" y1="47" x2="200" y2="56.8"/><line x1="191.3" y1="48.9" x2="200" y2="65.3"/><line x1="187.8" y1="50.9" x2="200" y2="73.8"/><line x1="184.3" y1="52.9" x2="200" y2="82.3"/><line x1="180.9" y1="54.9" x2="200" y2="90.9"/><line x1="177.4" y1="56.8" x2="200" y2="99.4"/><line x1="173.9" y1="58.8" x2="200" y2="107.9"/><line x1="170.4" y1="60.8" x2="200" y2="116.4"/><line x1="166.9" y1="62.8" x2="197.4" y2="120"/><line x1="163.5" y1="64.7" x2="192.8" y2="120"/><line x1="160" y1="66.7" x2="188.3" y2="120"/><line x1="156.5" y1="68.7" x2="183.8" y2="120"/><line x1="153" y1="70.7" x2="179.3" y2="120"/><line x1="149.5" y1="72.6" x2="174.7" y2="120"/><line x1="146.1" y1="74.6" x2="170.2" y2="120"/><line x1="142.6" y1="76.6" x2="165.7" y2="120"/><line x1="139.1" y1="78.5" x2="161.1" y2="120"/><line x1="135.6" y1="80.5" x2="156.6" y2="120"/><line x1="132.1" y1="82.5" x2="152.1" y2="120"/><line x1="128.6" y1="84.5" x2="147.5" y2="120"/><line x1="125.2" y1="86.4" x2="143" y2="120"/><line x1="121.7" y1="88.4" x2="138.5" y2="120"/><line x1="118.2" y1="90.4" x2="133.9" y2="120"/><line x1="114.7" y1="92.4" x2="129.4" y2="120"/><line x1="111.2" y1="94.3" x2="124.9" y2="120"/><line x1="107.8" y1="96.3" x2="120.4" y2="120"/><line x1="104.3" y1="98.3" x2="115.8" y2="120"/><line x1="100.8" y1="100.3" x2="111.3" y2="120"/><line x1="97.3" y1="102.2" x2="106.8" y2="120"/><line x1="93.8" y1="104.2" x2="102.2" y2="120"/><line x1="90.4" y1="106.2" x2="97.7" y2="120"/><line x1="86.9" y1="108.2" x2="93.2" y2="120"/><line x1="83.4" y1="110.1" x2="88.6" y2="120"/><line x1="79.9" y1="112.1" x2="84.1" y2="120"/><line x1="76.4" y1="114.1" x2="79.6" y2="120"/><line x1="73" y1="116.1" x2="75.1" y2="120"/><line x1="69.5" y1="118" x2="70.5" y2="120"/></g><circle class="g-accf" cx="200" cy="88" r="4.5"/><rect class="g-out g-fillc" x="64" y="120" width="272" height="14"/><line class="g-fine" x1="64" y1="128" x2="336" y2="128"/><rect class="g-out g-fillc" x="80" y="134" width="16" height="116"/><rect class="g-med g-fillc" x="77" y="132" width="22" height="6"/><rect class="g-med g-fillc" x="77" y="244" width="22" height="6"/><line class="g-fine" x1="84" y1="138" x2="84" y2="242"/><line class="g-fine" x1="88" y1="138" x2="88" y2="242"/><line class="g-fine" x1="92" y1="138" x2="92" y2="242"/><g class="g-hatch"><line x1="95.1" y1="138" x2="96" y2="142.3"/><line x1="93.2" y1="138" x2="96" y2="151"/><line x1="91.4" y1="138" x2="96" y2="159.6"/><line x1="89.9" y1="139.7" x2="96" y2="168.3"/><line x1="89.9" y1="148.4" x2="96" y2="177"/><line x1="89.9" y1="157" x2="96" y2="185.6"/><line x1="89.9" y1="165.7" x2="96" y2="194.3"/><line x1="89.9" y1="174.3" x2="96" y2="202.9"/><line x1="89.9" y1="183" x2="96" y2="211.6"/><line x1="89.9" y1="191.6" x2="96" y2="220.2"/><line x1="89.9" y1="200.3" x2="96" y2="228.9"/><line x1="89.9" y1="209" x2="96" y2="237.6"/><line x1="89.9" y1="217.6" x2="95.1" y2="242"/><line x1="89.9" y1="226.3" x2="93.3" y2="242"/><line x1="89.9" y1="234.9" x2="91.4" y2="242"/></g><rect class="g-out g-fillc" x="124.8" y="134" width="16" height="116"/><rect class="g-med g-fillc" x="121.8" y="132" width="22" height="6"/><rect class="g-med g-fillc" x="121.8" y="244" width="22" height="6"/><line class="g-fine" x1="128.8" y1="138" x2="128.8" y2="242"/><line class="g-fine" x1="132.8" y1="138" x2="132.8" y2="242"/><line class="g-fine" x1="136.8" y1="138" x2="136.8" y2="242"/><g class="g-hatch"><line x1="139.9" y1="138" x2="140.8" y2="142.3"/><line x1="138" y1="138" x2="140.8" y2="151"/><line x1="136.2" y1="138" x2="140.8" y2="159.6"/><line x1="134.7" y1="139.7" x2="140.8" y2="168.3"/><line x1="134.7" y1="148.4" x2="140.8" y2="177"/><line x1="134.7" y1="157" x2="140.8" y2="185.6"/><line x1="134.7" y1="165.7" x2="140.8" y2="194.3"/><line x1="134.7" y1="174.3" x2="140.8" y2="202.9"/><line x1="134.7" y1="183" x2="140.8" y2="211.6"/><line x1="134.7" y1="191.6" x2="140.8" y2="220.2"/><line x1="134.7" y1="200.3" x2="140.8" y2="228.9"/><line x1="134.7" y1="209" x2="140.8" y2="237.6"/><line x1="134.7" y1="217.6" x2="139.9" y2="242"/><line x1="134.7" y1="226.3" x2="138.1" y2="242"/><line x1="134.7" y1="234.9" x2="136.2" y2="242"/></g><rect class="g-out g-fillc" x="169.6" y="134" width="16" height="116"/><rect class="g-med g-fillc" x="166.6" y="132" width="22" height="6"/><rect class="g-med g-fillc" x="166.6" y="244" width="22" height="6"/><line class="g-fine" x1="173.6" y1="138" x2="173.6" y2="242"/><line class="g-fine" x1="177.6" y1="138" x2="177.6" y2="242"/><line class="g-fine" x1="181.6" y1="138" x2="181.6" y2="242"/><g class="g-hatch"><line x1="184.7" y1="138" x2="185.6" y2="142.3"/><line x1="182.8" y1="138" x2="185.6" y2="151"/><line x1="181" y1="138" x2="185.6" y2="159.6"/><line x1="179.5" y1="139.7" x2="185.6" y2="168.3"/><line x1="179.5" y1="148.4" x2="185.6" y2="177"/><line x1="179.5" y1="157" x2="185.6" y2="185.6"/><line x1="179.5" y1="165.7" x2="185.6" y2="194.3"/><line x1="179.5" y1="174.3" x2="185.6" y2="202.9"/><line x1="179.5" y1="183" x2="185.6" y2="211.6"/><line x1="179.5" y1="191.6" x2="185.6" y2="220.2"/><line x1="179.5" y1="200.3" x2="185.6" y2="228.9"/><line x1="179.5" y1="209" x2="185.6" y2="237.6"/><line x1="179.5" y1="217.6" x2="184.7" y2="242"/><line x1="179.5" y1="226.3" x2="182.9" y2="242"/><line x1="179.5" y1="234.9" x2="181" y2="242"/></g><rect class="g-out g-fillc" x="214.4" y="134" width="16" height="116"/><rect class="g-med g-fillc" x="211.4" y="132" width="22" height="6"/><rect class="g-med g-fillc" x="211.4" y="244" width="22" height="6"/><line class="g-fine" x1="218.4" y1="138" x2="218.4" y2="242"/><line class="g-fine" x1="222.4" y1="138" x2="222.4" y2="242"/><line class="g-fine" x1="226.4" y1="138" x2="226.4" y2="242"/><g class="g-hatch"><line x1="229.5" y1="138" x2="230.4" y2="142.3"/><line x1="227.6" y1="138" x2="230.4" y2="151"/><line x1="225.8" y1="138" x2="230.4" y2="159.6"/><line x1="224.3" y1="139.7" x2="230.4" y2="168.3"/><line x1="224.3" y1="148.4" x2="230.4" y2="177"/><line x1="224.3" y1="157" x2="230.4" y2="185.6"/><line x1="224.3" y1="165.7" x2="230.4" y2="194.3"/><line x1="224.3" y1="174.3" x2="230.4" y2="202.9"/><line x1="224.3" y1="183" x2="230.4" y2="211.6"/><line x1="224.3" y1="191.6" x2="230.4" y2="220.2"/><line x1="224.3" y1="200.3" x2="230.4" y2="228.9"/><line x1="224.3" y1="209" x2="230.4" y2="237.6"/><line x1="224.3" y1="217.6" x2="229.5" y2="242"/><line x1="224.3" y1="226.3" x2="227.7" y2="242"/><line x1="224.3" y1="234.9" x2="225.8" y2="242"/></g><rect class="g-out g-fillc" x="259.2" y="134" width="16" height="116"/><rect class="g-med g-fillc" x="256.2" y="132" width="22" height="6"/><rect class="g-med g-fillc" x="256.2" y="244" width="22" height="6"/><line class="g-fine" x1="263.2" y1="138" x2="263.2" y2="242"/><line class="g-fine" x1="267.2" y1="138" x2="267.2" y2="242"/><line class="g-fine" x1="271.2" y1="138" x2="271.2" y2="242"/><g class="g-hatch"><line x1="274.3" y1="138" x2="275.2" y2="142.3"/><line x1="272.4" y1="138" x2="275.2" y2="151"/><line x1="270.6" y1="138" x2="275.2" y2="159.6"/><line x1="269.1" y1="139.7" x2="275.2" y2="168.3"/><line x1="269.1" y1="148.4" x2="275.2" y2="177"/><line x1="269.1" y1="157" x2="275.2" y2="185.6"/><line x1="269.1" y1="165.7" x2="275.2" y2="194.3"/><line x1="269.1" y1="174.3" x2="275.2" y2="202.9"/><line x1="269.1" y1="183" x2="275.2" y2="211.6"/><line x1="269.1" y1="191.6" x2="275.2" y2="220.2"/><line x1="269.1" y1="200.3" x2="275.2" y2="228.9"/><line x1="269.1" y1="209" x2="275.2" y2="237.6"/><line x1="269.1" y1="217.6" x2="274.3" y2="242"/><line x1="269.1" y1="226.3" x2="272.5" y2="242"/><line x1="269.1" y1="234.9" x2="270.6" y2="242"/></g><rect class="g-out g-fillc" x="304" y="134" width="16" height="116"/><rect class="g-med g-fillc" x="301" y="132" width="22" height="6"/><rect class="g-med g-fillc" x="301" y="244" width="22" height="6"/><line class="g-fine" x1="308" y1="138" x2="308" y2="242"/><line class="g-fine" x1="312" y1="138" x2="312" y2="242"/><line class="g-fine" x1="316" y1="138" x2="316" y2="242"/><g class="g-hatch"><line x1="319.1" y1="138" x2="320" y2="142.3"/><line x1="317.2" y1="138" x2="320" y2="151"/><line x1="315.4" y1="138" x2="320" y2="159.6"/><line x1="313.9" y1="139.7" x2="320" y2="168.3"/><line x1="313.9" y1="148.4" x2="320" y2="177"/><line x1="313.9" y1="157" x2="320" y2="185.6"/><line x1="313.9" y1="165.7" x2="320" y2="194.3"/><line x1="313.9" y1="174.3" x2="320" y2="202.9"/><line x1="313.9" y1="183" x2="320" y2="211.6"/><line x1="313.9" y1="191.6" x2="320" y2="220.2"/><line x1="313.9" y1="200.3" x2="320" y2="228.9"/><line x1="313.9" y1="209" x2="320" y2="237.6"/><line x1="313.9" y1="217.6" x2="319.1" y2="242"/><line x1="313.9" y1="226.3" x2="317.3" y2="242"/><line x1="313.9" y1="234.9" x2="315.4" y2="242"/></g><rect class="g-med g-fillc" x="54" y="250" width="292" height="8"/><rect class="g-med g-fillc" x="44" y="258" width="312" height="8"/><rect class="g-med g-fillc" x="34" y="266" width="332" height="8"/><g class="g-hatch2"><line x1="372" y1="276" x2="384" y2="278.6"/><line x1="347.9" y1="276" x2="384" y2="283.7"/><line x1="323.9" y1="276" x2="361.5" y2="284"/><line x1="299.8" y1="276" x2="337.5" y2="284"/><line x1="275.8" y1="276" x2="313.4" y2="284"/><line x1="251.7" y1="276" x2="289.4" y2="284"/><line x1="227.7" y1="276" x2="265.3" y2="284"/><line x1="203.6" y1="276" x2="241.3" y2="284"/><line x1="179.6" y1="276" x2="217.2" y2="284"/><line x1="155.5" y1="276" x2="193.2" y2="284"/><line x1="131.5" y1="276" x2="169.1" y2="284"/><line x1="107.4" y1="276" x2="145.1" y2="284"/><line x1="83.4" y1="276" x2="121" y2="284"/><line x1="59.3" y1="276" x2="97" y2="284"/><line x1="35.3" y1="276" x2="72.9" y2="284"/><line x1="16" y1="277" x2="48.9" y2="284"/><line x1="16" y1="282.1" x2="24.8" y2="284"/></g>
</g>

  <rect class="g-brass" x="9" y="9" width="382" height="282"/>
  <rect class="g-brass2" x="12" y="12" width="376" height="276"/>
  <rect class="g-fine" x="15" y="15" width="370" height="270"/>
  <g class="g-brassf">
    <circle cx="15" cy="15" r="1.6"/><circle cx="385" cy="15" r="1.6"/><circle cx="15" cy="285" r="1.6"/><circle cx="385" cy="285" r="1.6"/>
  </g>
<text class="g-cap" x="200" y="278" text-anchor="middle" font-size="8.5">Plate I · Façade</text>
</svg>