<svg xmlns="http://www.w3.org/2000/svg" viewBox="0 0 600 300" role="img" aria-label="">
<style>
  .g-out{fill:none;stroke:#20201b;stroke-width:1.5;stroke-linejoin:round;stroke-linecap:round}
  .g-med{fill:none;stroke:#20201b;stroke-width:1;stroke-linecap:round}
  .g-fine{fill:none;stroke:#20201b;stroke-width:.6;stroke-linecap:round}
  .g-hatch line{stroke:#20201b;stroke-width:.5}
  .g-hatch2 line{stroke:#514d44;stroke-width:.5}
  .g-sky line{stroke:#9c978a;stroke-width:.48}
  .g-acc{fill:none;stroke:#17533d;stroke-width:1.3}
  .g-accf{fill:#17533d}
  .g-brass{fill:none;stroke:#8a7338;stroke-width:1.6}
  .g-brass2{fill:none;stroke:#b39a5c;stroke-width:.8}
  .g-brassf{fill:#8a7338}
  .g-eng{fill:none;stroke:#20201b;stroke-width:.5;opacity:.5}
  .g-eng2{fill:none;stroke:#17533d;stroke-width:.45;opacity:.42}
  .g-fillc{fill:#efe9da}
  .g-cap{font-family:'IBM Plex Mono',ui-monospace,monospace;letter-spacing:.16em;fill:#5f5a4c;text-transform:uppercase}
</style>
<defs><clipPath id="win"><rect x="16" y="16" width="568" height="268"/></clipPath></defs>
<rect x="0" y="0" width="600" height="300" fill="#efe9da"/>
<g clip-path="url(#win)">
<g class="g-sky"><line x1="526.7" y1="16" x2="584" y2="19"/><line x1="412" y1="16" x2="584" y2="25"/><line x1="297.4" y1="16" x2="584" y2="31"/><line x1="182.7" y1="16" x2="584" y2="37"/><line x1="68.1" y1="16" x2="584" y2="43"/><line x1="16" y1="19.3" x2="584" y2="49"/><line x1="16" y1="25.3" x2="584" y2="55.1"/><line x1="16" y1="31.3" x2="584" y2="61.1"/><line x1="16" y1="37.3" x2="584" y2="67.1"/><line x1="16" y1="43.3" x2="584" y2="73.1"/><line x1="16" y1="49.3" x2="584" y2="79.1"/><line x1="16" y1="55.3" x2="584" y2="85.1"/><line x1="16" y1="61.3" x2="524.8" y2="88"/><line x1="16" y1="67.3" x2="410.1" y2="88"/><line x1="16" y1="73.4" x2="295.5" y2="88"/><line x1="16" y1="79.4" x2="180.9" y2="88"/><line x1="16" y1="85.4" x2="66.2" y2="88"/></g><polygon class="g-fillc" points="53,254 53,150 53,150 53.8,144 55.9,138.7 59.3,134.2 63.7,130.3 68.9,127.1 74.9,124.7 81.4,122.9 88.2,121.9 95.2,121.5 102.2,121.9 109,122.9 115.5,124.7 121.5,127.1 126.7,130.3 131.1,134.2 134.5,138.7 136.6,144 137.4,150 137.4,254"/><g class="g-hatch2"><line x1="134.8" y1="139.4" x2="137.4" y2="164.4"/><line x1="131.2" y1="134.3" x2="137.4" y2="193.1"/><line x1="127.9" y1="131.3" x2="137.4" y2="221.8"/><line x1="124.6" y1="129" x2="137.4" y2="250.5"/><line x1="121.4" y1="127.1" x2="134.8" y2="254"/><line x1="118.3" y1="125.8" x2="131.7" y2="254"/><line x1="115.1" y1="124.6" x2="128.7" y2="254"/><line x1="112" y1="123.7" x2="125.7" y2="254"/><line x1="108.9" y1="122.9" x2="122.7" y2="254"/><line x1="105.8" y1="122.4" x2="119.7" y2="254"/><line x1="102.8" y1="122" x2="116.7" y2="254"/><line x1="99.7" y1="121.7" x2="113.6" y2="254"/><line x1="96.7" y1="121.6" x2="110.6" y2="254"/><line x1="93.7" y1="121.6" x2="107.6" y2="254"/><line x1="90.7" y1="121.7" x2="104.6" y2="254"/><line x1="87.7" y1="121.9" x2="101.6" y2="254"/><line x1="84.7" y1="122.4" x2="98.6" y2="254"/><line x1="81.8" y1="122.9" x2="95.5" y2="254"/><line x1="78.8" y1="123.6" x2="92.5" y2="254"/><line x1="75.9" y1="124.4" x2="89.5" y2="254"/><line x1="73" y1="125.5" x2="86.5" y2="254"/><line x1="70.1" y1="126.7" x2="83.5" y2="254"/><line x1="67.2" y1="128.2" x2="80.5" y2="254"/><line x1="64.4" y1="129.9" x2="77.4" y2="254"/><line x1="61.6" y1="132.1" x2="74.4" y2="254"/><line x1="58.9" y1="134.7" x2="71.4" y2="254"/><line x1="56.2" y1="138.3" x2="68.4" y2="254"/><line x1="53.8" y1="143.9" x2="65.4" y2="254"/><line x1="53" y1="164.9" x2="62.4" y2="254"/><line x1="53" y1="193.6" x2="59.3" y2="254"/><line x1="53" y1="222.3" x2="56.3" y2="254"/><line x1="53" y1="251" x2="53.3" y2="254"/></g><path class="g-med" d="M 53 254 L 53 150 A 42.2 42.2 0 0 1 137.4 150 L 137.4 254"/><polygon class="g-fillc" points="155.4,254 155.4,150 155.4,150 156.2,144 158.3,138.7 161.7,134.2 166.1,130.3 171.3,127.1 177.3,124.7 183.8,122.9 190.6,121.9 197.6,121.5 204.6,121.9 211.4,122.9 217.9,124.7 223.9,127.1 229.1,130.3 233.5,134.2 236.9,138.7 239,144 239.8,150 239.8,254"/><g class="g-hatch2"><line x1="237.2" y1="139.4" x2="239.8" y2="164.4"/><line x1="233.6" y1="134.3" x2="239.8" y2="193.1"/><line x1="230.3" y1="131.3" x2="239.8" y2="221.8"/><line x1="227" y1="129" x2="239.8" y2="250.5"/><line x1="223.8" y1="127.1" x2="237.2" y2="254"/><line x1="220.7" y1="125.8" x2="234.1" y2="254"/><line x1="217.5" y1="124.6" x2="231.1" y2="254"/><line x1="214.4" y1="123.7" x2="228.1" y2="254"/><line x1="211.3" y1="122.9" x2="225.1" y2="254"/><line x1="208.2" y1="122.4" x2="222.1" y2="254"/><line x1="205.2" y1="122" x2="219.1" y2="254"/><line x1="202.1" y1="121.7" x2="216" y2="254"/><line x1="199.1" y1="121.6" x2="213" y2="254"/><line x1="196.1" y1="121.6" x2="210" y2="254"/><line x1="193.1" y1="121.7" x2="207" y2="254"/><line x1="190.1" y1="121.9" x2="204" y2="254"/><line x1="187.1" y1="122.4" x2="201" y2="254"/><line x1="184.2" y1="122.9" x2="197.9" y2="254"/><line x1="181.2" y1="123.6" x2="194.9" y2="254"/><line x1="178.3" y1="124.4" x2="191.9" y2="254"/><line x1="175.4" y1="125.5" x2="188.9" y2="254"/><line x1="172.5" y1="126.7" x2="185.9" y2="254"/><line x1="169.6" y1="128.2" x2="182.9" y2="254"/><line x1="166.8" y1="129.9" x2="179.8" y2="254"/><line x1="164" y1="132.1" x2="176.8" y2="254"/><line x1="161.3" y1="134.7" x2="173.8" y2="254"/><line x1="158.6" y1="138.3" x2="170.8" y2="254"/><line x1="156.2" y1="143.9" x2="167.8" y2="254"/><line x1="155.4" y1="164.9" x2="164.8" y2="254"/><line x1="155.4" y1="193.6" x2="161.7" y2="254"/><line x1="155.4" y1="222.3" x2="158.7" y2="254"/><line x1="155.4" y1="251" x2="155.7" y2="254"/></g><path class="g-med" d="M 155.4 254 L 155.4 150 A 42.2 42.2 0 0 1 239.8 150 L 239.8 254"/><polygon class="g-fillc" points="257.8,254 257.8,150 257.8,150 258.6,144 260.7,138.7 264.1,134.2 268.5,130.3 273.7,127.1 279.7,124.7 286.2,122.9 293,121.9 300,121.5 307,121.9 313.8,122.9 320.3,124.7 326.3,127.1 331.5,130.3 335.9,134.2 339.3,138.7 341.4,144 342.2,150 342.2,254"/><g class="g-hatch2"><line x1="339.6" y1="139.4" x2="342.2" y2="164.4"/><line x1="336" y1="134.3" x2="342.2" y2="193.1"/><line x1="332.7" y1="131.3" x2="342.2" y2="221.8"/><line x1="329.4" y1="129" x2="342.2" y2="250.5"/><line x1="326.2" y1="127.1" x2="339.6" y2="254"/><line x1="323.1" y1="125.8" x2="336.5" y2="254"/><line x1="319.9" y1="124.6" x2="333.5" y2="254"/><line x1="316.8" y1="123.7" x2="330.5" y2="254"/><line x1="313.7" y1="122.9" x2="327.5" y2="254"/><line x1="310.6" y1="122.4" x2="324.5" y2="254"/><line x1="307.6" y1="122" x2="321.5" y2="254"/><line x1="304.5" y1="121.7" x2="318.4" y2="254"/><line x1="301.5" y1="121.6" x2="315.4" y2="254"/><line x1="298.5" y1="121.6" x2="312.4" y2="254"/><line x1="295.5" y1="121.7" x2="309.4" y2="254"/><line x1="292.5" y1="121.9" x2="306.4" y2="254"/><line x1="289.5" y1="122.4" x2="303.4" y2="254"/><line x1="286.6" y1="122.9" x2="300.3" y2="254"/><line x1="283.6" y1="123.6" x2="297.3" y2="254"/><line x1="280.7" y1="124.4" x2="294.3" y2="254"/><line x1="277.8" y1="125.5" x2="291.3" y2="254"/><line x1="274.9" y1="126.7" x2="288.3" y2="254"/><line x1="272" y1="128.2" x2="285.3" y2="254"/><line x1="269.2" y1="129.9" x2="282.2" y2="254"/><line x1="266.4" y1="132.1" x2="279.2" y2="254"/><line x1="263.7" y1="134.7" x2="276.2" y2="254"/><line x1="261" y1="138.3" x2="273.2" y2="254"/><line x1="258.6" y1="143.9" x2="270.2" y2="254"/><line x1="257.8" y1="164.9" x2="267.2" y2="254"/><line x1="257.8" y1="193.6" x2="264.1" y2="254"/><line x1="257.8" y1="222.3" x2="261.1" y2="254"/><line x1="257.8" y1="251" x2="258.1" y2="254"/></g><path class="g-med" d="M 257.8 254 L 257.8 150 A 42.2 42.2 0 0 1 342.2 150 L 342.2 254"/><polygon class="g-fillc" points="360.2,254 360.2,150 360.2,150 361,144 363.1,138.7 366.5,134.2 370.9,130.3 376.1,127.1 382.1,124.7 388.6,122.9 395.4,121.9 402.4,121.5 409.4,121.9 416.2,122.9 422.7,124.7 428.7,127.1 433.9,130.3 438.3,134.2 441.7,138.7 443.8,144 444.6,150 444.6,254"/><g class="g-hatch2"><line x1="442" y1="139.4" x2="444.6" y2="164.4"/><line x1="438.4" y1="134.3" x2="444.6" y2="193.1"/><line x1="435.1" y1="131.3" x2="444.6" y2="221.8"/><line x1="431.8" y1="129" x2="444.6" y2="250.5"/><line x1="428.6" y1="127.1" x2="442" y2="254"/><line x1="425.5" y1="125.8" x2="438.9" y2="254"/><line x1="422.3" y1="124.6" x2="435.9" y2="254"/><line x1="419.2" y1="123.7" x2="432.9" y2="254"/><line x1="416.1" y1="122.9" x2="429.9" y2="254"/><line x1="413" y1="122.4" x2="426.9" y2="254"/><line x1="410" y1="122" x2="423.9" y2="254"/><line x1="406.9" y1="121.7" x2="420.8" y2="254"/><line x1="403.9" y1="121.6" x2="417.8" y2="254"/><line x1="400.9" y1="121.6" x2="414.8" y2="254"/><line x1="397.9" y1="121.7" x2="411.8" y2="254"/><line x1="394.9" y1="121.9" x2="408.8" y2="254"/><line x1="391.9" y1="122.4" x2="405.8" y2="254"/><line x1="389" y1="122.9" x2="402.7" y2="254"/><line x1="386" y1="123.6" x2="399.7" y2="254"/><line x1="383.1" y1="124.4" x2="396.7" y2="254"/><line x1="380.2" y1="125.5" x2="393.7" y2="254"/><line x1="377.3" y1="126.7" x2="390.7" y2="254"/><line x1="374.4" y1="128.2" x2="387.7" y2="254"/><line x1="371.6" y1="129.9" x2="384.6" y2="254"/><line x1="368.8" y1="132.1" x2="381.6" y2="254"/><line x1="366.1" y1="134.7" x2="378.6" y2="254"/><line x1="363.4" y1="138.3" x2="375.6" y2="254"/><line x1="361" y1="143.9" x2="372.6" y2="254"/><line x1="360.2" y1="164.9" x2="369.6" y2="254"/><line x1="360.2" y1="193.6" x2="366.5" y2="254"/><line x1="360.2" y1="222.3" x2="363.5" y2="254"/><line x1="360.2" y1="251" x2="360.5" y2="254"/></g><path class="g-med" d="M 360.2 254 L 360.2 150 A 42.2 42.2 0 0 1 444.6 150 L 444.6 254"/><polygon class="g-fillc" points="462.6,254 462.6,150 462.6,150 463.4,144 465.5,138.7 468.9,134.2 473.3,130.3 478.5,127.1 484.5,124.7 491,122.9 497.8,121.9 504.8,121.5 511.8,121.9 518.6,122.9 525.1,124.7 531.1,127.1 536.3,130.3 540.7,134.2 544.1,138.7 546.2,144 547,150 547,254"/><g class="g-hatch2"><line x1="544.4" y1="139.4" x2="547" y2="164.4"/><line x1="540.8" y1="134.3" x2="547" y2="193.1"/><line x1="537.5" y1="131.3" x2="547" y2="221.8"/><line x1="534.2" y1="129" x2="547" y2="250.5"/><line x1="531" y1="127.1" x2="544.4" y2="254"/><line x1="527.9" y1="125.8" x2="541.3" y2="254"/><line x1="524.7" y1="124.6" x2="538.3" y2="254"/><line x1="521.6" y1="123.7" x2="535.3" y2="254"/><line x1="518.5" y1="122.9" x2="532.3" y2="254"/><line x1="515.4" y1="122.4" x2="529.3" y2="254"/><line x1="512.4" y1="122" x2="526.3" y2="254"/><line x1="509.3" y1="121.7" x2="523.2" y2="254"/><line x1="506.3" y1="121.6" x2="520.2" y2="254"/><line x1="503.3" y1="121.6" x2="517.2" y2="254"/><line x1="500.3" y1="121.7" x2="514.2" y2="254"/><line x1="497.3" y1="121.9" x2="511.2" y2="254"/><line x1="494.3" y1="122.4" x2="508.2" y2="254"/><line x1="491.4" y1="122.9" x2="505.1" y2="254"/><line x1="488.4" y1="123.6" x2="502.1" y2="254"/><line x1="485.5" y1="124.4" x2="499.1" y2="254"/><line x1="482.6" y1="125.5" x2="496.1" y2="254"/><line x1="479.7" y1="126.7" x2="493.1" y2="254"/><line x1="476.8" y1="128.2" x2="490.1" y2="254"/><line x1="474" y1="129.9" x2="487" y2="254"/><line x1="471.2" y1="132.1" x2="484" y2="254"/><line x1="468.5" y1="134.7" x2="481" y2="254"/><line x1="465.8" y1="138.3" x2="478" y2="254"/><line x1="463.4" y1="143.9" x2="475" y2="254"/><line x1="462.6" y1="164.9" x2="472" y2="254"/><line x1="462.6" y1="193.6" x2="468.9" y2="254"/><line x1="462.6" y1="222.3" x2="465.9" y2="254"/><line x1="462.6" y1="251" x2="462.9" y2="254"/></g><path class="g-med" d="M 462.6 254 L 462.6 150 A 42.2 42.2 0 0 1 547 150 L 547 254"/><rect class="g-out g-fillc" x="35" y="104" width="18" height="150"/><g class="g-hatch"><line x1="51.8" y1="108" x2="53" y2="119.5"/><line x1="49.4" y1="108" x2="53" y2="142.4"/><line x1="47" y1="108" x2="53" y2="165.4"/><line x1="45.8" y1="119.9" x2="53" y2="188.4"/><line x1="45.8" y1="142.8" x2="53" y2="211.3"/><line x1="45.8" y1="165.8" x2="53" y2="234.3"/><line x1="45.8" y1="188.7" x2="52.2" y2="250"/><line x1="45.8" y1="211.7" x2="49.8" y2="250"/><line x1="45.8" y1="234.7" x2="47.4" y2="250"/></g><rect class="g-out g-fillc" x="137.4" y="104" width="18" height="150"/><g class="g-hatch"><line x1="154.2" y1="108" x2="155.4" y2="119.5"/><line x1="151.8" y1="108" x2="155.4" y2="142.4"/><line x1="149.4" y1="108" x2="155.4" y2="165.4"/><line x1="148.2" y1="119.9" x2="155.4" y2="188.4"/><line x1="148.2" y1="142.8" x2="155.4" y2="211.3"/><line x1="148.2" y1="165.8" x2="155.4" y2="234.3"/><line x1="148.2" y1="188.7" x2="154.6" y2="250"/><line x1="148.2" y1="211.7" x2="152.2" y2="250"/><line x1="148.2" y1="234.7" x2="149.8" y2="250"/></g><rect class="g-out g-fillc" x="239.8" y="104" width="18" height="150"/><g class="g-hatch"><line x1="256.6" y1="108" x2="257.8" y2="119.5"/><line x1="254.2" y1="108" x2="257.8" y2="142.4"/><line x1="251.8" y1="108" x2="257.8" y2="165.4"/><line x1="250.6" y1="119.9" x2="257.8" y2="188.4"/><line x1="250.6" y1="142.8" x2="257.8" y2="211.3"/><line x1="250.6" y1="165.8" x2="257.8" y2="234.3"/><line x1="250.6" y1="188.7" x2="257" y2="250"/><line x1="250.6" y1="211.7" x2="254.6" y2="250"/><line x1="250.6" y1="234.7" x2="252.2" y2="250"/></g><rect class="g-out g-fillc" x="342.2" y="104" width="18" height="150"/><g class="g-hatch"><line x1="359" y1="108" x2="360.2" y2="119.5"/><line x1="356.6" y1="108" x2="360.2" y2="142.4"/><line x1="354.2" y1="108" x2="360.2" y2="165.4"/><line x1="353" y1="119.9" x2="360.2" y2="188.4"/><line x1="353" y1="142.8" x2="360.2" y2="211.3"/><line x1="353" y1="165.8" x2="360.2" y2="234.3"/><line x1="353" y1="188.7" x2="359.4" y2="250"/><line x1="353" y1="211.7" x2="357" y2="250"/><line x1="353" y1="234.7" x2="354.6" y2="250"/></g><rect class="g-out g-fillc" x="444.6" y="104" width="18" height="150"/><g class="g-hatch"><line x1="461.4" y1="108" x2="462.6" y2="119.5"/><line x1="459" y1="108" x2="462.6" y2="142.4"/><line x1="456.6" y1="108" x2="462.6" y2="165.4"/><line x1="455.4" y1="119.9" x2="462.6" y2="188.4"/><line x1="455.4" y1="142.8" x2="462.6" y2="211.3"/><line x1="455.4" y1="165.8" x2="462.6" y2="234.3"/><line x1="455.4" y1="188.7" x2="461.8" y2="250"/><line x1="455.4" y1="211.7" x2="459.4" y2="250"/><line x1="455.4" y1="234.7" x2="457" y2="250"/></g><rect class="g-out g-fillc" x="547" y="104" width="18" height="150"/><g class="g-hatch"><line x1="563.8" y1="108" x2="565" y2="119.5"/><line x1="561.4" y1="108" x2="565" y2="142.4"/><line x1="559" y1="108" x2="565" y2="165.4"/><line x1="557.8" y1="119.9" x2="565" y2="188.4"/><line x1="557.8" y1="142.8" x2="565" y2="211.3"/><line x1="557.8" y1="165.8" x2="565" y2="234.3"/><line x1="557.8" y1="188.7" x2="564.2" y2="250"/><line x1="557.8" y1="211.7" x2="561.8" y2="250"/><line x1="557.8" y1="234.7" x2="559.4" y2="250"/></g><rect class="g-out g-fillc" x="32" y="90" width="536" height="14"/><line class="g-fine" x1="32" y1="97" x2="568" y2="97"/><rect class="g-out g-fillc" x="28" y="254" width="544" height="10"/><g class="g-hatch2"><line x1="568" y1="264" x2="584" y2="266.5"/><line x1="536.1" y1="264" x2="584" y2="271.6"/><line x1="504.1" y1="264" x2="584" y2="276.7"/><line x1="472.1" y1="264" x2="584" y2="281.7"/><line x1="440.2" y1="264" x2="566.4" y2="284"/><line x1="408.2" y1="264" x2="534.5" y2="284"/><line x1="376.2" y1="264" x2="502.5" y2="284"/><line x1="344.3" y1="264" x2="470.6" y2="284"/><line x1="312.3" y1="264" x2="438.6" y2="284"/><line x1="280.4" y1="264" x2="406.6" y2="284"/><line x1="248.4" y1="264" x2="374.7" y2="284"/><line x1="216.4" y1="264" x2="342.7" y2="284"/><line x1="184.5" y1="264" x2="310.7" y2="284"/><line x1="152.5" y1="264" x2="278.8" y2="284"/><line x1="120.5" y1="264" x2="246.8" y2="284"/><line x1="88.6" y1="264" x2="214.9" y2="284"/><line x1="56.6" y1="264" x2="182.9" y2="284"/><line x1="24.7" y1="264" x2="150.9" y2="284"/><line x1="16" y1="267.7" x2="119" y2="284"/><line x1="16" y1="272.8" x2="87" y2="284"/><line x1="16" y1="277.8" x2="55" y2="284"/><line x1="16" y1="282.9" x2="23.1" y2="284"/></g><path class="g-accf" d="M 295 107.8 l 10 0 l 3 10 l -16 0 z"/>
</g>

  <rect class="g-brass" x="9" y="9" width="582" height="282"/>
  <rect class="g-brass2" x="12" y="12" width="576" height="276"/>
  <rect class="g-fine" x="15" y="15" width="570" height="270"/>
  <g class="g-brassf">
    <circle cx="15" cy="15" r="1.6"/><circle cx="585" cy="15" r="1.6"/><circle cx="15" cy="285" r="1.6"/><circle cx="585" cy="285" r="1.6"/>
  </g>
<text class="g-cap" x="300" y="278" text-anchor="middle" font-size="8.5">Plate IV · Arcade</text>
</svg>