<svg xmlns="http://www.w3.org/2000/svg" viewBox="0 0 600 300" role="img" aria-label="">
<style>
  .g-out{fill:none;stroke:#20201b;stroke-width:1.5;stroke-linejoin:round;stroke-linecap:round}
  .g-med{fill:none;stroke:#20201b;stroke-width:1;stroke-linecap:round}
  .g-fine{fill:none;stroke:#20201b;stroke-width:.6;stroke-linecap:round}
  .g-hatch line{stroke:#20201b;stroke-width:.5}
  .g-hatch2 line{stroke:#514d44;stroke-width:.5}
  .g-sky line{stroke:#9c978a;stroke-width:.48}
  .g-acc{fill:none;stroke:#17533d;stroke-width:1.3}
  .g-accf{fill:#17533d}
  .g-brass{fill:none;stroke:#8a7338;stroke-width:1.6}
  .g-brass2{fill:none;stroke:#b39a5c;stroke-width:.8}
  .g-brassf{fill:#8a7338}
  .g-eng{fill:none;stroke:#20201b;stroke-width:.5;opacity:.5}
  .g-eng2{fill:none;stroke:#17533d;stroke-width:.45;opacity:.42}
  .g-fillc{fill:#efe9da}
  .g-cap{font-family:'IBM Plex Mono',ui-monospace,monospace;letter-spacing:.16em;fill:#5f5a4c;text-transform:uppercase}
</style>
<defs><clipPath id="win"><rect x="16" y="16" width="568" height="268"/></clipPath></defs>
<rect x="0" y="0" width="600" height="300" fill="#efe9da"/>
<g clip-path="url(#win)">
<g class="g-sky"><line x1="24" y1="26" x2="576" y2="26"/><line x1="24" y1="32" x2="576" y2="32"/><line x1="24" y1="38" x2="576" y2="38"/><line x1="24" y1="44" x2="576" y2="44"/><line x1="24" y1="50" x2="576" y2="50"/><line x1="24" y1="56" x2="576" y2="56"/><line x1="24" y1="62" x2="576" y2="62"/><line x1="24" y1="68" x2="576" y2="68"/><line x1="24" y1="74" x2="576" y2="74"/><line x1="24" y1="80" x2="576" y2="80"/><line x1="24" y1="86" x2="576" y2="86"/><line x1="24" y1="92" x2="576" y2="92"/><line x1="24" y1="98" x2="576" y2="98"/><line x1="24" y1="104" x2="576" y2="104"/><line x1="24" y1="110" x2="576" y2="110"/><line x1="24" y1="116" x2="576" y2="116"/><line x1="24" y1="122" x2="576" y2="122"/></g><circle class="g-med" cx="456" cy="138" r="5" fill="none"/><circle class="g-med" cx="456" cy="138" r="9" fill="none"/><circle class="g-med" cx="456" cy="138" r="13" fill="none"/><circle class="g-med" cx="456" cy="138" r="17" fill="none"/><circle class="g-med" cx="456" cy="138" r="21" fill="none"/><circle class="g-med" cx="456" cy="138" r="25" fill="none"/><circle class="g-med" cx="456" cy="138" r="29" fill="none"/><circle class="g-med" cx="456" cy="138" r="33" fill="none"/><circle class="g-med" cx="456" cy="138" r="37" fill="none"/><circle class="g-out" cx="456" cy="138" r="40" fill="none"/><circle class="g-med" cx="456" cy="138" r="3.5" fill="#20201b"/><polygon class="g-fillc" points="16,190 16,190 43.5,184.9 71.3,180.7 99.5,177.4 128,174.9 157,173 186.4,171.7 216.2,170.9 246.6,170.4 277.5,170.3 308.9,170.2 341,170.3 373.6,170.3 406.9,170.2 440.9,169.8 475.5,169.1 510.9,168 547.1,166.3 584,164 584,220 16,220"/><g class="g-sky"><line x1="567.8" y1="165" x2="584" y2="166.7"/><line x1="534.2" y1="166.9" x2="584" y2="172.1"/><line x1="497" y1="168.4" x2="584" y2="177.6"/><line x1="455.7" y1="169.5" x2="584" y2="183"/><line x1="410" y1="170.1" x2="584" y2="188.4"/><line x1="359.7" y1="170.3" x2="584" y2="193.9"/><line x1="307.5" y1="170.2" x2="584" y2="199.3"/><line x1="257.2" y1="170.4" x2="584" y2="204.7"/><line x1="211.6" y1="171" x2="584" y2="210.2"/><line x1="172.4" y1="172.3" x2="584" y2="215.6"/><line x1="138.4" y1="174.2" x2="574.4" y2="220"/><line x1="109.1" y1="176.5" x2="522.7" y2="220"/><line x1="83.4" y1="179.3" x2="471" y2="220"/><line x1="60.6" y1="182.3" x2="419.4" y2="220"/><line x1="39.8" y1="185.5" x2="367.7" y2="220"/><line x1="21.3" y1="189" x2="316.1" y2="220"/><line x1="16" y1="193.9" x2="264.4" y2="220"/><line x1="16" y1="199.3" x2="212.7" y2="220"/><line x1="16" y1="204.8" x2="161.1" y2="220"/><line x1="16" y1="210.2" x2="109.4" y2="220"/><line x1="16" y1="215.6" x2="57.8" y2="220"/></g><polyline class="g-med" points="16,190 16,190 43.5,184.9 71.3,180.7 99.5,177.4 128,174.9 157,173 186.4,171.7 216.2,170.9 246.6,170.4 277.5,170.3 308.9,170.2 341,170.3 373.6,170.3 406.9,170.2 440.9,169.8 475.5,169.1 510.9,168 547.1,166.3 584,164"/><polygon class="g-fillc" points="16,206 16,206 47,202.9 78.5,200.7 110.6,199.3 143,198.6 175.7,198.6 208.6,199 241.6,199.7 274.6,200.7 307.5,201.8 340.2,202.8 372.7,203.7 404.7,204.4 436.3,204.6 467.4,204.4 497.8,203.5 527.4,201.9 556.2,199.5 584,196 584,250 16,250"/><g class="g-hatch2"><line x1="574.9" y1="197.1" x2="584" y2="198.7"/><line x1="556.7" y1="199.4" x2="584" y2="204.2"/><line x1="535.8" y1="201.2" x2="584" y2="209.7"/><line x1="513.2" y1="202.7" x2="584" y2="215.2"/><line x1="488.4" y1="203.8" x2="584" y2="220.7"/><line x1="460.9" y1="204.5" x2="584" y2="226.2"/><line x1="430.6" y1="204.6" x2="584" y2="231.6"/><line x1="397.4" y1="204.2" x2="584" y2="237.1"/><line x1="361.7" y1="203.4" x2="584" y2="242.6"/><line x1="324.2" y1="202.3" x2="584" y2="248.1"/><line x1="286.1" y1="201.1" x2="563.7" y2="250"/><line x1="248.6" y1="199.9" x2="532.6" y2="250"/><line x1="212.6" y1="199.1" x2="501.5" y2="250"/><line x1="178.9" y1="198.6" x2="470.4" y2="250"/><line x1="148" y1="198.6" x2="439.3" y2="250"/><line x1="119.6" y1="199.1" x2="408.2" y2="250"/><line x1="93.6" y1="200" x2="377.1" y2="250"/><line x1="69.7" y1="201.3" x2="346" y2="250"/><line x1="47.4" y1="202.8" x2="314.9" y2="250"/><line x1="27.6" y1="204.8" x2="283.9" y2="250"/><line x1="16" y1="208.3" x2="252.8" y2="250"/><line x1="16" y1="213.7" x2="221.7" y2="250"/><line x1="16" y1="219.2" x2="190.6" y2="250"/><line x1="16" y1="224.7" x2="159.5" y2="250"/><line x1="16" y1="230.2" x2="128.4" y2="250"/><line x1="16" y1="235.7" x2="97.3" y2="250"/><line x1="16" y1="241.2" x2="66.2" y2="250"/><line x1="16" y1="246.6" x2="35.1" y2="250"/></g><polyline class="g-med" points="16,206 16,206 47,202.9 78.5,200.7 110.6,199.3 143,198.6 175.7,198.6 208.6,199 241.6,199.7 274.6,200.7 307.5,201.8 340.2,202.8 372.7,203.7 404.7,204.4 436.3,204.6 467.4,204.4 497.8,203.5 527.4,201.9 556.2,199.5 584,196"/><polygon class="g-fillc" points="16,234 16,234 50,231.5 84.1,230 118.2,229.3 152.2,229.2 186.1,229.8 219.7,230.7 253.1,232 286.1,233.5 318.8,235 350.9,236.4 382.6,237.7 413.6,238.6 444,239 473.7,238.9 502.6,238.1 530.7,236.4 557.8,233.7 584,230 584,284 16,284"/><g class="g-hatch"><line x1="576.9" y1="231" x2="584" y2="232.8"/><line x1="562.7" y1="233" x2="584" y2="238.3"/><line x1="547.3" y1="234.8" x2="584" y2="243.9"/><line x1="531.3" y1="236.3" x2="584" y2="249.5"/><line x1="513.4" y1="237.4" x2="584" y2="255"/><line x1="494.6" y1="238.3" x2="584" y2="260.6"/><line x1="474.6" y1="238.9" x2="584" y2="266.2"/><line x1="452.7" y1="239" x2="584" y2="271.7"/><line x1="429.7" y1="238.8" x2="584" y2="277.3"/><line x1="405.4" y1="238.4" x2="584" y2="282.9"/><line x1="380" y1="237.6" x2="566.2" y2="284"/><line x1="353.6" y1="236.5" x2="543.9" y2="284"/><line x1="326.4" y1="235.3" x2="521.6" y2="284"/><line x1="299" y1="234.1" x2="499.2" y2="284"/><line x1="271.8" y1="232.8" x2="476.9" y2="284"/><line x1="244.9" y1="231.7" x2="454.6" y2="284"/><line x1="218.5" y1="230.7" x2="432.3" y2="284"/><line x1="193.3" y1="230" x2="410" y2="284"/><line x1="169" y1="229.5" x2="387.6" y2="284"/><line x1="145.7" y1="229.2" x2="365.3" y2="284"/><line x1="123.4" y1="229.3" x2="343" y2="284"/><line x1="102.5" y1="229.6" x2="320.7" y2="284"/><line x1="82.1" y1="230.1" x2="298.4" y2="284"/><line x1="63.2" y1="230.9" x2="276" y2="284"/><line x1="44.8" y1="231.9" x2="253.7" y2="284"/><line x1="27.5" y1="233.2" x2="231.4" y2="284"/><line x1="16" y1="235.9" x2="209.1" y2="284"/><line x1="16" y1="241.4" x2="186.7" y2="284"/><line x1="16" y1="247" x2="164.4" y2="284"/><line x1="16" y1="252.6" x2="142.1" y2="284"/><line x1="16" y1="258.1" x2="119.8" y2="284"/><line x1="16" y1="263.7" x2="97.5" y2="284"/><line x1="16" y1="269.3" x2="75.1" y2="284"/><line x1="16" y1="274.8" x2="52.8" y2="284"/><line x1="16" y1="280.4" x2="30.5" y2="284"/></g><polyline class="g-med" points="16,234 16,234 50,231.5 84.1,230 118.2,229.3 152.2,229.2 186.1,229.8 219.7,230.7 253.1,232 286.1,233.5 318.8,235 350.9,236.4 382.6,237.7 413.6,238.6 444,239 473.7,238.9 502.6,238.1 530.7,236.4 557.8,233.7 584,230"/><path class="g-accf" d="M 150 144 C 138 170, 141 204, 150 210 C 159 204, 162 170, 150 144 Z"/><line class="g-med" x1="150" y1="210" x2="150" y2="218"/>
</g>

  <rect class="g-brass" x="9" y="9" width="582" height="282"/>
  <rect class="g-brass2" x="12" y="12" width="576" height="276"/>
  <rect class="g-fine" x="15" y="15" width="570" height="270"/>
  <g class="g-brassf">
    <circle cx="15" cy="15" r="1.6"/><circle cx="585" cy="15" r="1.6"/><circle cx="15" cy="285" r="1.6"/><circle cx="585" cy="285" r="1.6"/>
  </g>
<text class="g-cap" x="300" y="278" text-anchor="middle" font-size="8.5">Plate V · Prospect</text>
</svg>