<svg xmlns="http://www.w3.org/2000/svg" viewBox="0 0 300 400" role="img" aria-label="">
<style>
  .g-out{fill:none;stroke:#20201b;stroke-width:1.5;stroke-linejoin:round;stroke-linecap:round}
  .g-med{fill:none;stroke:#20201b;stroke-width:1;stroke-linecap:round}
  .g-fine{fill:none;stroke:#20201b;stroke-width:.6;stroke-linecap:round}
  .g-hatch line{stroke:#20201b;stroke-width:.5}
  .g-hatch2 line{stroke:#514d44;stroke-width:.5}
  .g-sky line{stroke:#9c978a;stroke-width:.48}
  .g-acc{fill:none;stroke:#17533d;stroke-width:1.3}
  .g-accf{fill:#17533d}
  .g-brass{fill:none;stroke:#8a7338;stroke-width:1.6}
  .g-brass2{fill:none;stroke:#b39a5c;stroke-width:.8}
  .g-brassf{fill:#8a7338}
  .g-eng{fill:none;stroke:#20201b;stroke-width:.5;opacity:.5}
  .g-eng2{fill:none;stroke:#17533d;stroke-width:.45;opacity:.42}
  .g-fillc{fill:#efe9da}
  .g-cap{font-family:'IBM Plex Mono',ui-monospace,monospace;letter-spacing:.16em;fill:#5f5a4c;text-transform:uppercase}
</style>
<defs><clipPath id="win"><rect x="16" y="16" width="268" height="368"/></clipPath></defs>
<rect x="0" y="0" width="300" height="400" fill="#efe9da"/>
<g clip-path="url(#win)">
<polyline class="g-eng2" points="190,200 190.9,201.4 190.6,202.8 189.4,204.1 188.6,205.4 189.1,206.9 189.9,208.5 189.7,209.9 188.4,211 187.1,212.1 187,213.5 187.5,215.2 187.5,216.7 186.2,217.7 184.6,218.4 183.9,219.6 184,221.3 184,222.9 182.8,223.9 181.1,224.3 179.9,225.1 179.6,226.6 179.4,228.4 178.4,229.4 176.6,229.6 175.1,229.9 174.3,231.1 173.9,232.8 172.9,234 171.3,234 169.6,233.9 168.4,234.6 167.7,236.2 166.7,237.5 165.2,237.5 163.5,237 162.1,237.1 161,238.4 159.9,239.7 158.5,239.9 156.9,239.1 155.4,238.6 154.1,239.4 152.8,240.6 151.4,240.9 150,240 148.6,239 147.3,239.2 145.8,240.2 144.3,240.6 143,239.7 141.8,238.4 140.5,237.9 139,238.5 137.3,238.9 136.1,238.2 135.2,236.7 134.1,235.6 132.6,235.7 130.9,236 129.6,235.4 128.9,233.8 128.2,232.4 126.8,231.9 125,231.9 123.7,231.4 123.1,229.9 122.8,228.2 121.8,227.2 120.1,226.9 118.6,226.3 118.1,225 118.1,223.2 117.6,221.8 116.2,221.1 114.6,220.4 114,219.1 114.3,217.4 114.4,215.9 113.3,214.8 111.8,213.9 111.1,212.7 111.5,211 112.1,209.5 111.6,208.2 110.3,207 109.4,205.7 109.8,204.2 110.8,202.7 111,201.4 110,200 109.1,198.6 109.4,197.2 110.6,195.9 111.4,194.6 110.9,193.1 110.1,191.5 110.3,190.1 111.6,189 112.9,187.9 113,186.5 112.5,184.8 112.5,183.3 113.8,182.3 115.4,181.6 116.1,180.4 116,178.7 116,177.1 117.2,176.1 118.9,175.7 120.1,174.9 120.4,173.4 120.6,171.6 121.6,170.6 123.4,170.4 124.9,170.1 125.7,168.9 126.1,167.2 127.1,166 128.7,166 130.4,166.1 131.6,165.4 132.3,163.8 133.3,162.5 134.8,162.5 136.5,163 137.9,162.9 139,161.6 140.1,160.3 141.5,160.1 143.1,160.9 144.6,161.4 145.9,160.6 147.2,159.4 148.6,159.1 150,160 151.4,161 152.7,160.8 154.2,159.8 155.7,159.4 157,160.3 158.2,161.6 159.5,162.1 161,161.5 162.7,161.1 163.9,161.8 164.8,163.3 165.9,164.4 167.4,164.3 169.1,164 170.4,164.6 171.1,166.2 171.8,167.6 173.2,168.1 175,168.1 176.3,168.6 176.9,170.1 177.2,171.8 178.2,172.8 179.9,173.1 181.4,173.7 181.9,175 181.9,176.8 182.4,178.2 183.8,178.9 185.4,179.6 186,180.9 185.7,182.6 185.6,184.1 186.7,185.2 188.2,186.1 188.9,187.3 188.5,189 187.9,190.5 188.4,191.8 189.7,193 190.6,194.3 190.2,195.8 189.2,197.3 189,198.6 190,200" fill="none"/><polyline class="g-eng2" points="197.7,200 199.4,201.7 197.8,203.3 194.9,204.7 194,206.2 196.1,208.1 198.1,210.2 197.2,211.8 194.1,212.6 192.1,213.7 193.1,215.7 195.2,218.2 194.9,220 192,220.5 189.2,220.9 189.1,222.6 190.7,225.4 191,227.6 188.5,228 185.4,227.6 184.2,228.7 185,231.5 185.5,234.3 183.6,234.8 180.5,233.9 178.5,234 178.5,236.4 178.8,239.6 177.4,240.6 174.6,239.3 172.2,238.4 171.3,240.1 171.2,243.4 170.1,245.1 167.7,243.8 165.3,242 163.8,242.6 163.1,245.7 161.9,247.9 160,247.1 157.9,244.6 156.2,244 154.9,246.3 153.4,249 151.7,248.8 150,246.1 148.5,244.3 146.8,245.6 144.9,248.3 143.1,248.8 141.9,246.2 140.7,243.5 139.1,243.7 136.8,246 134.7,247 133.7,244.9 133.1,241.7 131.9,240.7 129.4,242.2 126.9,243.5 125.7,242.1 125.8,238.8 125.2,236.7 122.9,237.3 119.9,238.5 118.4,237.6 118.8,234.6 119.2,231.9 117.4,231.5 114.2,232.2 112.2,231.7 112.6,229.2 113.8,226.3 112.9,225 109.9,225.1 107.3,224.7 107.4,222.7 109.2,219.9 109.5,218 107,217.4 103.9,216.8 103.5,215.1 105.6,212.7 107,210.7 105.4,209.5 102.3,208.4 101.2,206.9 103.1,204.9 105.5,203.1 105.1,201.6 102.3,200 100.6,198.3 102.2,196.7 105.1,195.3 106,193.8 103.9,191.9 101.9,189.8 102.8,188.2 105.9,187.4 107.9,186.3 106.9,184.3 104.8,181.8 105.1,180 108,179.5 110.8,179.1 110.9,177.4 109.3,174.6 109,172.4 111.5,172 114.6,172.4 115.8,171.3 115,168.5 114.5,165.7 116.4,165.2 119.5,166.1 121.5,166 121.5,163.6 121.2,160.4 122.6,159.4 125.4,160.7 127.8,161.6 128.7,159.9 128.8,156.6 129.9,154.9 132.3,156.2 134.7,158 136.2,157.4 136.9,154.3 138.1,152.1 140,152.9 142.1,155.4 143.8,156 145.1,153.7 146.6,151 148.3,151.2 150,153.9 151.5,155.7 153.2,154.4 155.1,151.7 156.9,151.2 158.1,153.8 159.3,156.5 160.9,156.3 163.2,154 165.3,153 166.3,155.1 166.9,158.3 168.1,159.3 170.6,157.8 173.1,156.5 174.3,157.9 174.2,161.2 174.8,163.3 177.1,162.7 180.1,161.5 181.6,162.4 181.2,165.4 180.8,168.1 182.6,168.5 185.8,167.8 187.8,168.3 187.4,170.8 186.2,173.7 187.1,175 190.1,174.9 192.7,175.3 192.6,177.3 190.8,180.1 190.5,182 193,182.6 196.1,183.2 196.5,184.9 194.4,187.3 193,189.3 194.6,190.5 197.7,191.6 198.8,193.1 196.9,195.1 194.5,196.9 194.9,198.4 197.7,200" fill="none"/><polyline class="g-eng2" points="206.1,200 207.6,202 204.1,203.8 199.9,205.2 200.1,207 204,209.5 206.5,212 203.9,213.4 199.1,214.1 197.4,215.4 200.3,218.3 203.2,221.5 201.8,223.1 197,222.9 193.9,223.3 195.1,226.1 198,230 197.6,232.1 193.4,231.5 189.4,230.8 189,232.7 191.2,237.1 191.5,240.1 188.2,239.6 183.9,237.7 182.2,238.4 183.3,242.6 183.8,246.6 181.5,246.7 177.4,243.9 174.9,243 174.7,246.5 175,251.2 173.3,252.2 169.9,249.2 167,246.8 165.9,248.9 165.4,253.7 164,256 161.3,253.3 158.7,249.6 157,249.9 155.7,254.3 154,257.6 151.9,255.8 150,251.3 148.3,249.8 146.3,253.1 144,256.9 142.1,256.3 140.9,251.8 139.7,248.6 137.5,250.3 134.5,254.2 132.2,254.7 131.5,250.7 131.2,246.4 129.4,246.4 125.8,249.6 122.9,251 122.3,247.9 123,243.1 122,241.4 118.4,243.5 114.6,245.3 113.7,243.3 115.2,238.7 115.5,235.7 112.3,236.4 107.8,238 106.1,236.8 107.9,232.9 109.7,229.3 107.6,228.6 102.8,229.5 100,228.9 101.6,225.7 104.6,222.1 104.1,220.4 99.6,220.3 95.8,219.7 96.7,217.3 100.5,214.2 101.7,212 98.2,211 93.8,209.9 93.5,207.9 97.5,205.5 100.4,203.5 98.4,201.8 93.9,200 92.4,198 95.9,196.2 100.1,194.8 99.9,193 96,190.5 93.5,188 96.1,186.6 100.9,185.9 102.6,184.6 99.7,181.7 96.8,178.5 98.2,176.9 103,177.1 106.1,176.7 104.9,173.9 102,170 102.4,167.9 106.6,168.5 110.6,169.2 111,167.3 108.8,162.9 108.5,159.9 111.8,160.4 116.1,162.3 117.8,161.6 116.7,157.4 116.2,153.4 118.5,153.3 122.6,156.1 125.1,157 125.3,153.5 125,148.8 126.7,147.8 130.1,150.8 133,153.2 134.1,151.1 134.6,146.3 136,144 138.7,146.7 141.3,150.4 143,150.1 144.3,145.7 146,142.4 148.1,144.2 150,148.7 151.7,150.2 153.7,146.9 156,143.1 157.9,143.7 159.1,148.2 160.3,151.4 162.5,149.7 165.5,145.8 167.8,145.3 168.5,149.3 168.8,153.6 170.6,153.6 174.2,150.4 177.1,149 177.7,152.1 177,156.9 178,158.6 181.6,156.5 185.4,154.7 186.3,156.7 184.8,161.3 184.5,164.3 187.7,163.6 192.2,162 193.9,163.2 192.1,167.1 190.3,170.7 192.4,171.4 197.2,170.5 200,171.1 198.4,174.3 195.4,177.9 195.9,179.6 200.4,179.7 204.2,180.3 203.3,182.7 199.5,185.8 198.3,188 201.8,189 206.2,190.1 206.5,192.1 202.5,194.5 199.6,196.5 201.6,198.2 206.1,200" fill="none"/><polyline class="g-eng2" points="215,200 215,202.3 209.4,204.2 205,205.8 207.1,208 212.7,211.1 214.4,213.7 209.6,214.9 203.8,215.4 203.5,217.4 208.2,221.2 211.1,224.7 207.7,225.7 201.4,225.1 199,226 202.1,230.1 205.4,234.6 203.6,236.1 197.6,234.6 193.5,234 194.7,237.5 197.7,243 197.2,245.6 192.1,243.6 187.2,241.3 186.5,243.5 188.6,249.4 188.8,253.3 184.9,251.8 180,248 177.9,248.2 178.6,253.7 178.8,259 176.1,258.5 171.8,253.9 168.9,251.9 168.2,256.1 167.8,262.2 165.8,263.3 162.5,258.6 159.6,254.5 158,256.8 156.6,263 154.6,265.7 152.2,261.7 150,256.2 148,256 145.7,261.4 143.1,265.5 141.2,262.9 140,256.6 138.5,254.1 135.5,258 132,262.6 130,261.7 129.8,255.6 129.3,251.2 126.4,253 122,257.5 119.2,258 119.5,252.9 120.4,247.3 118.4,246.9 113.4,250.4 109.4,252 109.6,248.1 111.9,242.3 111.4,240 106.5,242 101.3,243.8 100.7,241.4 103.9,236 105.3,232.5 101.4,232.8 95.3,234.2 93.3,232.7 96.8,228.3 100.1,224.3 97.9,223.2 91.6,223.6 88.1,222.5 90.9,219.2 95.8,215.5 95.8,213.5 90.1,212.7 85.2,211.4 86.8,208.9 92.5,206 94.9,203.9 90.7,202.1 85,200 85,197.7 90.6,195.8 95,194.2 92.9,192 87.3,188.9 85.6,186.3 90.4,185.1 96.2,184.6 96.5,182.6 91.8,178.8 88.9,175.3 92.3,174.3 98.6,174.9 101,174 97.9,169.9 94.6,165.4 96.4,163.9 102.4,165.4 106.5,166 105.3,162.5 102.3,157 102.8,154.4 107.9,156.4 112.8,158.7 113.5,156.5 111.4,150.6 111.2,146.7 115.1,148.2 120,152 122.1,151.8 121.4,146.3 121.2,141 123.9,141.5 128.2,146.1 131.1,148.1 131.8,143.9 132.2,137.8 134.2,136.7 137.5,141.4 140.4,145.5 142,143.2 143.4,137 145.4,134.3 147.8,138.3 150,143.8 152,144 154.3,138.6 156.9,134.5 158.8,137.1 160,143.4 161.5,145.9 164.5,142 168,137.4 170,138.3 170.2,144.4 170.7,148.8 173.6,147 178,142.5 180.8,142 180.5,147.1 179.6,152.7 181.6,153.1 186.6,149.6 190.6,148 190.4,151.9 188.1,157.7 188.6,160 193.5,158 198.7,156.2 199.3,158.6 196.1,164 194.7,167.5 198.6,167.2 204.7,165.8 206.7,167.3 203.2,171.7 199.9,175.7 202.1,176.8 208.4,176.4 211.9,177.5 209.1,180.8 204.2,184.5 204.2,186.5 209.9,187.3 214.8,188.6 213.2,191.1 207.5,194 205.1,196.1 209.3,197.9 215,200" fill="none"/><polyline class="g-eng2" points="223.6,200 221.4,202.5 214.1,204.5 210.7,206.4 215.1,209.2 221.5,212.6 221.4,215.2 214.4,216.1 208.7,216.8 210.6,219.7 216.7,224.3 218.4,227.6 212.7,227.9 205.7,227.2 204.9,229.2 209.7,234.5 212.6,239.1 208.6,239.6 201.4,237.3 198.2,237.7 201.1,242.9 204.3,248.9 202.1,250.3 195.5,247.1 190.8,245.3 191.5,249.4 194.1,256.5 193.2,259.5 187.9,256.1 182.6,252.2 181.4,254.3 182.8,261.6 182.4,266.4 178.4,263.9 173.5,258.2 171,257.8 170.9,264.3 170.3,270.6 167.4,269.7 163.4,263.2 160.6,260 159.1,264.7 157.6,271.9 155.1,273 152.3,266.8 150,261.2 147.8,263.3 145.1,270.4 142.3,273.4 140.4,268.4 139.2,261.3 137.1,260.5 133.4,266.4 129.7,270.9 128,267.6 128.2,260 127.1,256.6 123.1,260.5 118.1,265.5 115.9,264.2 117,257.1 117.7,251.8 114.1,253.2 108.1,257.7 104.6,258.1 106.2,252.2 108.7,245.9 106.6,244.9 100.1,248.2 95.1,249.4 96.1,245.2 100.2,238.9 100.4,236 94.3,237.5 87.8,238.8 87.5,236.1 92.5,230.6 95.2,226.7 90.7,226.4 83.2,227 81.1,225.1 86,220.8 91,216.9 88.8,215.3 81.3,214.6 77.2,212.8 81.2,209.7 87.8,206.5 88.5,204.3 82,202.4 76.4,200 78.6,197.5 85.9,195.5 89.3,193.6 84.9,190.8 78.5,187.4 78.6,184.8 85.6,183.9 91.3,183.2 89.4,180.3 83.3,175.7 81.6,172.4 87.3,172.1 94.3,172.8 95.1,170.8 90.3,165.5 87.4,160.9 91.4,160.4 98.6,162.7 101.8,162.3 98.9,157.1 95.7,151.1 97.9,149.7 104.5,152.9 109.2,154.7 108.5,150.6 105.9,143.5 106.8,140.5 112.1,143.9 117.4,147.8 118.6,145.7 117.2,138.4 117.6,133.6 121.6,136.1 126.5,141.8 129,142.2 129.1,135.7 129.7,129.4 132.6,130.3 136.6,136.8 139.4,140 140.9,135.3 142.4,128.1 144.9,127 147.7,133.2 150,138.8 152.2,136.7 154.9,129.6 157.7,126.6 159.6,131.6 160.8,138.7 162.9,139.5 166.6,133.6 170.3,129.1 172,132.4 171.8,140 172.9,143.4 176.9,139.5 181.9,134.5 184.1,135.8 183,142.9 182.3,148.2 185.9,146.8 191.9,142.3 195.4,141.9 193.8,147.8 191.3,154.1 193.4,155.1 199.9,151.8 204.9,150.6 203.9,154.8 199.8,161.1 199.6,164 205.7,162.5 212.2,161.2 212.5,163.9 207.5,169.4 204.8,173.3 209.3,173.6 216.8,173 218.9,174.9 214,179.2 209,183.1 211.2,184.7 218.7,185.4 222.8,187.2 218.8,190.3 212.2,193.5 211.5,195.7 218,197.6 223.6,200" fill="none"/><polyline class="g-eng2" points="231.6,200 226.8,202.7 218.7,204.8 217.3,207.1 224,210.4 230,214.1 227.3,216.4 218.8,217.2 214.4,218.5 218.7,222.3 225.2,227.4 224.8,230.2 217,229.8 210.4,229.5 211.8,232.8 217.7,239.1 219.1,243.2 212.9,242.4 205.2,240.1 203.7,242 208,248.7 210.5,254.5 206.2,254.3 198.6,250.4 195,249.9 197.1,256.1 199.6,263.5 197.1,264.8 190.4,259.9 185.5,256.8 185.4,261.3 187.1,269.7 185.6,273 180.4,268.4 175.4,262.8 173.5,264.7 173.7,273 172.5,278.4 168.7,275 164.4,267.7 161.7,266.5 160.3,273.5 158.5,280.6 155.5,279.2 152.5,271.3 150,267 147.5,271.7 144.4,279.5 141.5,280.4 139.7,273.1 138.3,266.3 135.5,268 131.2,275.4 127.5,278.4 126.4,272.6 126.6,264.4 124.6,263 119.4,268.8 114.3,273.1 113.1,269.4 114.8,261 114.5,256.9 109.3,260.3 102.8,265 100.5,263.3 103.2,255.8 105.1,249.9 101.1,250.6 93.5,254.6 89.5,254.5 92.3,248.4 96.4,241.9 94.6,240.3 86.8,242.6 80.8,243.2 82.7,238.9 88.5,232.7 89.5,229.5 82.6,230 75.1,230.3 75.1,227.3 81.7,222.2 85.6,218.5 80.8,217.2 72.4,216.5 70.2,214.1 76.4,210.3 82.8,207.1 81,204.8 72.8,202.7 68.4,200 73.2,197.3 81.3,195.2 82.7,192.9 76,189.6 70,185.9 72.7,183.6 81.2,182.8 85.6,181.5 81.3,177.7 74.8,172.6 75.2,169.8 83,170.2 89.6,170.5 88.2,167.2 82.3,160.9 80.9,156.8 87.1,157.6 94.8,159.9 96.3,158 92,151.3 89.5,145.5 93.8,145.7 101.4,149.6 105,150.1 102.9,143.9 100.4,136.5 102.9,135.2 109.6,140.1 114.5,143.2 114.6,138.7 112.9,130.3 114.4,127 119.6,131.6 124.6,137.2 126.5,135.3 126.3,127 127.5,121.6 131.3,125 135.6,132.3 138.3,133.5 139.7,126.5 141.5,119.4 144.5,120.8 147.5,128.7 150,133 152.5,128.3 155.6,120.5 158.5,119.6 160.3,126.9 161.7,133.7 164.5,132 168.8,124.6 172.5,121.6 173.6,127.4 173.4,135.6 175.4,137 180.6,131.2 185.7,126.9 186.9,130.6 185.2,139 185.5,143.1 190.7,139.7 197.2,135 199.5,136.7 196.8,144.2 194.9,150.1 198.9,149.4 206.5,145.4 210.5,145.5 207.7,151.6 203.6,158.1 205.4,159.7 213.2,157.4 219.2,156.8 217.3,161.1 211.5,167.3 210.5,170.5 217.4,170 224.9,169.7 224.9,172.7 218.3,177.8 214.4,181.5 219.2,182.8 227.6,183.5 229.8,185.9 223.6,189.7 217.2,192.9 219,195.2 227.2,197.3 231.6,200" fill="none"/><polyline class="g-eng2" points="238.5,200 231.4,202.8 223.8,205.2 225.1,207.9 233.3,211.7 237.6,215.4 232.2,217.5 223.3,218.3 221.1,220.4 227.4,225.2 233.2,230.3 230.1,232.4 221,231.6 215.9,232.1 219.5,237 225.5,243.6 224.7,246.7 216.6,244.9 209.6,243.3 210.1,247 215.2,254.7 216.1,259.5 209.7,257.7 202,253.8 199.9,255.4 203,263.2 204.7,270 200.3,269.2 192.9,263.6 188.9,262.3 189.9,269.1 191.2,277.5 188.3,278.6 182.2,272.4 177.5,268.1 176.4,272.6 176.6,281.8 174.4,285.2 169.8,279.5 165.4,272.6 163,274 161.6,282.7 159.3,288.5 155.9,284.4 152.6,275.9 150,273.8 147.2,280.8 143.8,288.1 140.9,286.3 139.1,277.4 137.3,272.2 133.7,276.5 129,284.2 125.7,284.9 125,276.9 124.8,269.3 121.6,270.4 115.6,277.3 111,279.9 110.8,273.8 112.4,265.1 110.7,263 104.2,267.9 97.9,271.7 97.1,267.7 100.4,259.2 100.9,254.5 94.9,257 87.1,260.8 84.8,258.7 88.9,251.3 92.1,245.2 87.9,245.1 79.1,247.8 74.7,247.1 78.6,241.3 84.2,235 82.8,232.8 74.1,233.8 67.6,233.3 70.1,229.1 77.4,223.6 79.2,220.3 72.1,219.4 63.9,218.3 64.2,215.1 72,211 77.1,207.7 72.5,205.4 63.7,203 61.5,200 68.6,197.2 76.2,194.8 74.9,192.1 66.7,188.3 62.4,184.6 67.8,182.5 76.7,181.7 78.9,179.6 72.6,174.8 66.8,169.7 69.9,167.6 79,168.4 84.1,167.9 80.5,163 74.5,156.4 75.3,153.3 83.4,155.1 90.4,156.7 89.9,153 84.8,145.3 83.9,140.5 90.3,142.3 98,146.2 100.1,144.6 97,136.8 95.3,130 99.7,130.8 107.1,136.4 111.1,137.7 110.1,130.9 108.8,122.5 111.7,121.4 117.8,127.6 122.5,131.9 123.6,127.4 123.4,118.2 125.6,114.8 130.2,120.5 134.6,127.4 137,126 138.4,117.3 140.7,111.5 144.1,115.6 147.4,124.1 150,126.2 152.8,119.2 156.2,111.9 159.1,113.7 160.9,122.6 162.7,127.8 166.3,123.5 171,115.8 174.3,115.1 175,123.1 175.2,130.7 178.4,129.6 184.4,122.7 189,120.1 189.2,126.2 187.6,134.9 189.3,137 195.8,132.1 202.1,128.3 202.9,132.3 199.6,140.8 199.1,145.5 205.1,143 212.9,139.2 215.2,141.3 211.1,148.7 207.9,154.8 212.1,154.9 220.9,152.2 225.3,152.9 221.4,158.7 215.8,165 217.2,167.2 225.9,166.2 232.4,166.7 229.9,170.9 222.6,176.4 220.8,179.7 227.9,180.6 236.1,181.7 235.8,184.9 228,189 222.9,192.3 227.5,194.6 236.3,197 238.5,200" fill="none"/><polyline class="g-eng2" points="244.3,200 235.7,203 229.8,205.6 233.8,208.8 242.3,213 244.1,216.6 236.6,218.4 228.4,219.5 228.9,222.6 236.3,228.1 240.2,232.8 234.6,234.2 225.3,233.5 222.4,235.3 227.7,241.3 232.6,247.7 229.3,249.6 220.2,247.4 214.7,247 217.2,252.5 222,260.4 220.7,263.7 212.9,260.7 205.8,257.8 205.5,261.6 209,270.3 209.1,275.6 203,272.9 195.7,267.7 193,268.8 194.6,277.2 195,284.6 190.6,283.3 184.1,276.5 180,274.3 179.5,281.2 179.3,290 176.1,290.9 170.9,283.7 166.7,278.4 164.6,282.5 162.9,291.8 160,295.2 156.2,288.8 152.8,281 150,281.7 146.9,290.2 143.3,295.7 140.4,291.2 138.5,282 136,279.2 131.8,285.6 127,292.4 124.1,290.3 123.7,281 122.6,275.2 118.2,278.6 111.9,285.5 108.2,285.7 108.7,277.7 109.7,269.8 106.3,269.9 98.9,275.7 93.6,277.7 94.2,271.5 97.3,262.8 95.9,260.1 88.4,263.7 81.2,266.4 80.8,262.3 85.5,254.1 86.9,249.3 80.6,250.5 71.8,252.8 69.5,250.3 74.8,243.4 79.2,237.7 75.1,236.5 65.7,237.5 61.1,235.9 65.8,230.7 72.6,225.1 71.8,222.4 63,221.7 56.2,219.9 59.2,216 67.6,211.6 70.2,208.4 63.3,206.1 55.1,203.3 55.7,200 64.3,197 70.2,194.4 66.2,191.2 57.7,187 55.9,183.4 63.4,181.6 71.6,180.5 71.1,177.4 63.7,171.9 59.8,167.2 65.4,165.8 74.7,166.5 77.6,164.7 72.3,158.7 67.4,152.3 70.7,150.4 79.8,152.6 85.3,153 82.8,147.5 78,139.6 79.3,136.3 87.1,139.3 94.2,142.2 94.5,138.4 91,129.7 90.9,124.4 97,127.1 104.3,132.3 107,131.2 105.4,122.8 105,115.4 109.4,116.7 115.9,123.5 120,125.7 120.5,118.8 120.7,110 123.9,109.1 129.1,116.3 133.3,121.6 135.4,117.5 137.1,108.2 140,104.8 143.8,111.2 147.2,119 150,118.3 153.1,109.8 156.7,104.3 159.6,108.8 161.5,118 164,120.8 168.2,114.4 173,107.6 175.9,109.7 176.3,119 177.4,124.8 181.8,121.4 188.1,114.5 191.8,114.3 191.3,122.3 190.3,130.2 193.7,130.1 201.1,124.3 206.4,122.3 205.8,128.5 202.7,137.2 204.1,139.9 211.6,136.3 218.8,133.6 219.2,137.7 214.5,145.9 213.1,150.7 219.4,149.5 228.2,147.2 230.5,149.7 225.2,156.6 220.8,162.3 224.9,163.5 234.3,162.5 238.9,164.1 234.2,169.3 227.4,174.9 228.2,177.6 237,178.3 243.8,180.1 240.8,184 232.4,188.4 229.8,191.6 236.7,193.9 244.9,196.7 244.3,200" fill="none"/><polyline class="g-eng2" points="249.2,200 240.4,203.2 237,206.1 243.1,209.8 250.6,214.1 249.6,217.6 240.8,219.3 234.5,221.1 237.5,225.1 244.9,230.8 246.2,235 238.6,235.8 230.3,235.8 229.9,239 236,245.7 238.9,251.3 233.3,252 224.2,250.1 220.8,251.5 224.6,258.3 228.2,265.6 224.6,267.2 216.1,263.8 210.5,262.6 211.6,268.4 214.6,277 212.8,280.4 205.5,276.4 198.9,272.5 197.5,276.1 199.2,285.2 198.2,290.6 192.6,287.4 186.1,281.1 183,281.6 182.8,290 181.6,297.4 177.5,295.7 172,288.2 168.1,285.2 166.2,291.6 164.1,300.3 160.6,300.9 156.5,293.2 153,287.1 150,290.6 146.5,299.2 142.9,302.2 140,295.6 137.7,287.3 134.6,287.2 129.9,294.7 125.2,299.6 122.8,294.9 122.2,285.6 120.1,282.1 114.7,287.3 108.6,293 105.8,290.6 106.6,281.5 106.5,275.4 101.5,277.6 94,283 89.9,282.7 91.5,274.9 93.6,267.2 90.3,266.4 82,270.4 76.1,271.3 77.4,265.4 81.7,257.3 80.9,254 73,256 65.2,257.2 65.2,253 70.9,245.7 73.1,240.9 66.8,240.6 57.8,241 55.7,238.1 61.7,232.1 67,227 63.4,224.8 54.1,223.9 49.6,221.3 54.8,216.8 62.4,212.3 62.2,209.2 53.9,206.7 47.5,203.6 50.8,200 59.6,196.8 63,193.9 56.9,190.2 49.4,185.9 50.4,182.4 59.2,180.7 65.5,178.9 62.5,174.9 55.1,169.2 53.8,165 61.4,164.2 69.7,164.2 70.1,161 64,154.3 61.1,148.7 66.7,148 75.8,149.9 79.2,148.5 75.4,141.7 71.8,134.4 75.4,132.8 83.9,136.2 89.5,137.4 88.4,131.6 85.4,123 87.2,119.6 94.5,123.6 101.1,127.5 102.5,123.9 100.8,114.8 101.8,109.4 107.4,112.6 113.9,118.9 117,118.4 117.2,110 118.4,102.6 122.5,104.3 128,111.8 131.9,114.8 133.8,108.4 135.9,99.7 139.4,99.1 143.5,106.8 147,112.9 150,109.4 153.5,100.8 157.1,97.8 160,104.4 162.3,112.7 165.4,112.8 170.1,105.3 174.8,100.4 177.2,105.1 177.8,114.4 179.9,117.9 185.3,112.7 191.4,107 194.2,109.4 193.4,118.5 193.5,124.6 198.5,122.4 206,117 210.1,117.3 208.5,125.1 206.4,132.8 209.7,133.6 218,129.6 223.9,128.7 222.6,134.6 218.3,142.7 219.1,146 227,144 234.8,142.8 234.8,147 229.1,154.3 226.9,159.1 233.2,159.4 242.2,159 244.3,161.9 238.3,167.9 233,173 236.6,175.2 245.9,176.1 250.4,178.7 245.2,183.2 237.6,187.7 237.8,190.8 246.1,193.3 252.5,196.4 249.2,200" fill="none"/><polyline class="g-eng2" points="253.6,200 245.8,203.3 245.2,206.7 252.3,210.8 257.8,215.1 254.3,218.4 245.6,220.3 241.7,222.9 246.4,227.7 252.6,233.3 251.2,236.8 242.8,237.5 236.3,238.4 238,242.9 243.7,249.8 244.2,254.4 237,254.4 229,253.3 227.7,256.4 231.8,263.9 233.5,270.1 228.1,270.3 219.7,267.3 215.9,268.2 217.8,275.3 219.6,283 215.9,284.4 208.2,280.2 202.8,278.3 202.4,283.8 203.4,292.6 200.9,295.7 194.5,291.3 188.6,286.7 186.2,289.7 185.8,298.5 183.7,303.7 178.7,300.1 173.3,293.3 169.8,293.1 167.8,300.8 165.1,307.6 161.1,305.7 156.8,297.9 153.3,294.4 150,299.8 146.2,307.5 142.5,307.7 139.5,300 136.8,293.7 133.1,296 128,303.4 123.7,305.7 121.6,299.1 120.5,290.9 117.3,290 111.3,295.8 105.7,299.5 103.8,294.8 104.3,285.9 102.7,282 96.6,285.5 89.5,289.6 86.9,286.9 88.7,278.5 89.3,272.3 84.2,273.1 76,276.6 71.9,275.5 74.1,268.3 77.2,261.1 74.1,259.3 65.6,261.3 59.6,261 61.3,255.4 66.4,248.3 66.1,244.6 58.5,244.6 50.8,244.1 51.1,240 57.3,233.7 60.2,229.2 54.5,227.4 46,225.9 44.1,222.5 50.5,217.6 56.2,213.2 53.4,210.2 45,207.3 41.1,203.8 46.4,200 54.2,196.7 54.8,193.3 47.7,189.2 42.2,184.9 45.7,181.6 54.4,179.7 58.3,177.1 53.6,172.3 47.4,166.7 48.8,163.2 57.2,162.5 63.7,161.6 62,157.1 56.3,150.2 55.8,145.6 63,145.6 71,146.7 72.3,143.6 68.2,136.1 66.5,129.9 71.9,129.7 80.3,132.7 84.1,131.8 82.2,124.7 80.4,117 84.1,115.6 91.8,119.8 97.2,121.7 97.6,116.2 96.6,107.4 99.1,104.3 105.5,108.7 111.4,113.3 113.8,110.3 114.2,101.5 116.3,96.3 121.3,99.9 126.7,106.7 130.2,106.9 132.2,99.2 134.9,92.4 138.9,94.3 143.2,102.1 146.7,105.6 150,100.2 153.8,92.5 157.5,92.3 160.5,100 163.2,106.3 166.9,104 172,96.6 176.3,94.3 178.4,100.9 179.5,109.1 182.7,110 188.7,104.2 194.3,100.5 196.2,105.2 195.7,114.1 197.3,118 203.4,114.5 210.5,110.4 213.1,113.1 211.3,121.5 210.7,127.7 215.8,126.9 224,123.4 228.1,124.5 225.9,131.7 222.8,138.9 225.9,140.7 234.4,138.7 240.4,139 238.7,144.6 233.6,151.7 233.9,155.4 241.5,155.4 249.2,155.9 248.9,160 242.7,166.3 239.8,170.8 245.5,172.6 254,174.1 255.9,177.5 249.5,182.4 243.8,186.8 246.6,189.8 255,192.7 258.9,196.2 253.6,200" fill="none"/><polyline class="g-eng2" points="258.2,200 252.4,203.6 254.1,207.3 260.9,211.7 263.9,216 258.7,219.2 251.3,221.5 249.9,224.9 255.2,230.2 259.2,235.5 255.7,238.5 247.5,239.4 243.4,241.6 246.3,247 250.6,253.5 248.7,257 241,256.9 234.7,257.2 235,261.8 238.5,269.1 238,273.8 231.4,273.3 224.1,271.6 221.8,274.4 223.8,282 223.9,288.1 218.8,288 211.4,284.5 207.3,284.9 207.3,291.6 207.2,299 203.3,300.2 196.7,295.7 191.5,293.3 189.7,298.2 188.7,306.2 185.4,309 179.9,304.4 174.8,299.6 171.6,301.7 169.3,309.4 166,313.9 161.6,310.2 157.2,303.6 153.6,302.7 150,308.9 146,314.6 142.1,312.5 139,305 135.8,301.1 131.5,305.1 126.4,311.1 122.4,310.8 120.3,303.6 118.4,297.3 114.2,298.4 108.1,303.8 103.2,305 101.8,298.9 101.5,291.2 98.4,289.3 91.8,293.2 85.7,295.3 84.1,290.7 85.5,282.6 84.3,278.3 78,280 70.7,282.1 68.2,279 70.6,271.5 71.8,265.7 66.9,264.9 58.8,266.2 54.9,264.2 57.5,257.8 61,251.4 58.4,248.7 50.5,248.5 44.9,246.8 46.8,241.7 52.2,235.6 52.5,231.7 45.7,229.9 38.9,227.7 39.4,223.5 45.6,218.4 48.9,214.2 44.3,211.1 36.9,207.9 35.6,204 41.8,200 47.6,196.4 45.9,192.7 39.1,188.3 36.1,184 41.3,180.8 48.7,178.5 50.1,175.1 44.8,169.8 40.8,164.5 44.3,161.5 52.5,160.6 56.6,158.4 53.7,153 49.4,146.5 51.3,143 59,143.1 65.3,142.8 65,138.2 61.5,130.9 62,126.2 68.6,126.7 75.9,128.4 78.2,125.6 76.2,118 76.1,111.9 81.2,112 88.6,115.5 92.7,115.1 92.7,108.4 92.8,101 96.7,99.8 103.3,104.3 108.5,106.7 110.3,101.8 111.3,93.8 114.6,91 120.1,95.6 125.2,100.4 128.4,98.3 130.7,90.6 134,86.1 138.4,89.8 142.8,96.4 146.4,97.3 150,91.1 154,85.4 157.9,87.5 161,95 164.2,98.9 168.5,94.9 173.6,88.9 177.6,89.2 179.7,96.4 181.6,102.7 185.8,101.6 191.9,96.2 196.8,95 198.2,101.1 198.5,108.8 201.6,110.7 208.2,106.8 214.3,104.7 215.9,109.3 214.5,117.4 215.7,121.7 222,120 229.3,117.9 231.8,121 229.4,128.5 228.2,134.3 233.1,135.1 241.2,133.8 245.1,135.8 242.5,142.2 239,148.6 241.6,151.3 249.5,151.5 255.1,153.2 253.2,158.3 247.8,164.4 247.5,168.3 254.3,170.1 261.1,172.3 260.6,176.5 254.4,181.6 251.1,185.8 255.7,188.9 263.1,192.1 264.4,196 258.2,200" fill="none"/><polyline class="g-eng2" points="263.4,200 260,203.8 263.1,207.9 268.6,212.5 269.2,216.7 263.5,220 258,223 258.5,227.1 263.2,232.5 264.9,237.3 260.1,240.1 253.2,241.7 251.1,245 254.2,250.8 256.5,256.6 252.8,259.4 245.6,259.8 241.3,261.6 242.3,267.1 244.4,273.7 241.9,277.1 235.1,276.6 229.3,276.5 228.1,280.9 229.2,288 227.6,292.4 221.7,291.7 215.2,289.7 212.1,292.1 211.8,299 210.4,304.6 205.5,304.3 199.2,300.8 194.8,300.7 193,306.5 191.1,312.9 186.9,313.7 181.4,309.4 176.6,306.8 173.5,310.6 170.7,317.2 166.8,319.3 162.1,315 157.7,310.3 153.9,311.5 150,317.4 145.8,320.7 141.8,317.2 138.3,311 134.6,309.4 129.9,313.8 125,317.8 121.2,315.5 118.8,308.7 116,304.7 111.1,306.9 105.2,310.8 101.1,309.8 99.6,303.3 98.2,297.4 93.9,297.1 87.4,300.1 82.5,300.1 81.4,294.5 81.6,287.6 78.7,284.9 72.2,286.5 66.2,286.8 64.8,282.3 66.4,275.2 65.6,270.8 59.8,270.5 52.9,270.5 50.7,267 53.2,260.5 54.6,255.1 50.5,252.9 43.3,252 39.8,249 42.4,243.5 46,237.9 44.1,234.4 37.5,232.3 32.8,229.2 34.8,224.5 39.8,219.4 40.7,215.4 35.4,212 30,208.4 30.8,204.2 36.6,200 40,196.2 36.9,192.1 31.4,187.5 30.8,183.3 36.5,180 42,177 41.5,172.9 36.8,167.5 35.1,162.7 39.9,159.9 46.8,158.3 48.9,155 45.8,149.2 43.5,143.4 47.2,140.6 54.4,140.2 58.7,138.4 57.7,132.9 55.6,126.3 58.1,122.9 64.9,123.4 70.7,123.5 71.9,119.1 70.8,112 72.4,107.6 78.3,108.3 84.8,110.3 87.9,107.9 88.2,101 89.6,95.4 94.5,95.7 100.8,99.2 105.2,99.3 107,93.5 108.9,87.1 113.1,86.3 118.6,90.6 123.4,93.2 126.5,89.4 129.3,82.8 133.2,80.7 137.9,85 142.3,89.7 146.1,88.5 150,82.6 154.2,79.3 158.2,82.8 161.7,89 165.4,90.6 170.1,86.2 175,82.2 178.8,84.5 181.2,91.3 184,95.3 188.9,93.1 194.8,89.2 198.9,90.2 200.4,96.7 201.8,102.6 206.1,102.9 212.6,99.9 217.5,99.9 218.6,105.5 218.4,112.4 221.3,115.1 227.8,113.5 233.8,113.2 235.2,117.7 233.6,124.8 234.4,129.2 240.2,129.5 247.1,129.5 249.3,133 246.8,139.5 245.4,144.9 249.5,147.1 256.7,148 260.2,151 257.6,156.5 254,162.1 255.9,165.6 262.5,167.7 267.2,170.8 265.2,175.5 260.2,180.6 259.3,184.6 264.6,188 270,191.6 269.2,195.8 263.4,200" fill="none"/><polyline class="g-eng2" points="269.7,200 268.4,204.1 271.7,208.5 275.2,213.2 274.1,217.4 269.1,221 265.7,224.6 267.1,229.2 270.2,234.5 269.9,238.9 264.9,241.8 259.9,244.4 259.2,248.6 261.4,254.3 261.5,259.3 257.1,261.8 251.2,263.2 248.4,266.4 249.2,272 249.4,277.7 245.7,280.3 239.5,280.6 235.1,282.2 234.2,287.2 234,293.2 230.9,296.4 224.9,295.9 219.6,295.8 217.1,299.4 215.9,305.5 213.1,309.3 207.8,308.7 202.1,306.9 198.4,308.7 196.1,314.2 193.2,318.6 188.4,318.3 183.1,315.3 178.6,314.9 175.3,319.1 171.8,323.9 167.5,324.2 162.7,320.5 158.3,318 154.2,320.3 150,324.9 145.6,326 141.5,322.3 137.6,318 133.4,318.1 128.5,321.8 123.7,323.6 120,320.2 117.1,314.9 113.4,312.7 108.2,314.9 102.8,316.9 99.1,314.3 97.1,308.4 94.5,304.4 89.5,304.7 83.6,306.2 79.6,304.4 78.3,298.7 77.1,293.3 73.1,291.7 66.9,292.3 62.3,290.9 61.2,285.7 61.5,279.7 59,276.4 53.2,275.6 47.9,274.2 46.7,269.7 48.1,263.7 47.5,259.2 42.8,257 37.1,255.1 35.2,251.1 37.4,245.5 38.8,240.5 35.7,237.1 30.2,234.4 27.5,230.5 29.8,225.5 33,220.6 32.1,216.6 27.3,212.9 24,208.8 25.9,204.3 30.3,200 31.6,195.9 28.3,191.5 24.8,186.8 25.9,182.6 30.9,179 34.3,175.4 32.9,170.8 29.8,165.5 30.1,161.1 35.1,158.2 40.1,155.6 40.8,151.4 38.6,145.7 38.5,140.7 42.9,138.2 48.8,136.8 51.6,133.6 50.8,128 50.6,122.3 54.3,119.7 60.5,119.4 64.9,117.8 65.8,112.8 66,106.8 69.1,103.6 75.1,104.1 80.4,104.2 82.9,100.6 84.1,94.5 86.9,90.7 92.2,91.3 97.9,93.1 101.6,91.3 103.9,85.8 106.8,81.4 111.6,81.7 116.9,84.7 121.4,85.1 124.7,80.9 128.2,76.1 132.5,75.8 137.3,79.5 141.7,82 145.8,79.7 150,75.1 154.4,74 158.5,77.7 162.4,82 166.6,81.9 171.5,78.2 176.3,76.4 180,79.8 182.9,85.1 186.6,87.3 191.8,85.1 197.2,83.1 200.9,85.7 202.9,91.6 205.5,95.6 210.5,95.3 216.4,93.8 220.4,95.6 221.7,101.3 222.9,106.7 226.9,108.3 233.1,107.7 237.7,109.1 238.8,114.3 238.5,120.3 241,123.6 246.8,124.4 252.1,125.8 253.3,130.3 251.9,136.3 252.5,140.8 257.2,143 262.9,144.9 264.8,148.9 262.6,154.5 261.2,159.5 264.3,162.9 269.8,165.6 272.5,169.5 270.2,174.5 267,179.4 267.9,183.4 272.7,187.1 276,191.2 274.1,195.7 269.7,200" fill="none"/><polyline class="g-eng2" points="277,200 277,204.4 279.5,209.1 281,213.8 279.1,218.1 275.6,222.1 273.9,226.3 275.1,231.2 276.3,236.2 274.7,240.5 270.6,243.9 267.4,247.4 267,252.1 267.6,257.4 266.1,261.8 261.9,264.6 257.5,267.2 255.5,271.2 255.3,276.5 253.8,281.1 249.7,283.6 244.6,285.2 241.2,288.1 239.8,293 238,297.8 234.1,300.2 228.8,300.9 224.4,302.4 221.8,306.4 219.5,311.2 215.7,313.8 210.5,313.8 205.5,313.9 201.9,316.6 198.9,320.9 195,323.7 190.1,323.4 185,322.1 180.7,323.2 176.9,326.8 172.9,329.6 168.2,329.3 163.3,327 158.8,326.3 154.5,328.6 150,331.3 145.4,331.1 141,328.2 136.8,325.9 132.2,326.6 127.3,328.7 122.6,328.7 118.7,325.6 115,322 110.7,321 105.6,322.1 100.7,322.1 97,319 94.1,314.5 90.5,311.9 85.5,311.8 80.3,311.5 76.8,308.6 74.7,303.7 72.1,299.8 67.6,298.2 62.3,297.3 58.7,294.6 57.2,289.6 55.8,284.8 52.4,281.9 47.3,280.2 43.5,277.4 42.3,272.6 42.2,267.4 40.1,263.4 35.7,260.8 31.7,257.7 30.6,253.2 31.5,247.9 31,243.3 27.8,239.7 23.9,236.2 22.6,231.8 24.1,226.8 25.3,222 23.5,217.8 20.1,213.6 18.7,209.2 20.5,204.5 23,200 23,195.6 20.5,190.9 19,186.2 20.9,181.9 24.4,177.9 26.1,173.7 24.9,168.8 23.7,163.8 25.3,159.5 29.4,156.1 32.6,152.6 33,147.9 32.4,142.6 33.9,138.2 38.1,135.4 42.5,132.8 44.5,128.8 44.7,123.5 46.2,118.9 50.3,116.4 55.4,114.8 58.8,111.9 60.2,107 62,102.2 65.9,99.8 71.2,99.1 75.6,97.6 78.2,93.6 80.5,88.8 84.3,86.2 89.5,86.2 94.5,86.1 98.1,83.4 101.1,79.1 105,76.3 109.9,76.6 115,77.9 119.3,76.8 123.1,73.2 127.1,70.4 131.8,70.7 136.7,73 141.2,73.7 145.5,71.4 150,68.7 154.6,68.9 159,71.8 163.2,74.1 167.8,73.4 172.7,71.3 177.4,71.3 181.3,74.4 185,78 189.3,79 194.4,77.9 199.3,77.9 203,81 205.9,85.5 209.5,88.1 214.5,88.2 219.7,88.5 223.2,91.4 225.3,96.3 227.9,100.2 232.4,101.8 237.7,102.7 241.3,105.4 242.8,110.4 244.2,115.2 247.6,118.1 252.7,119.8 256.5,122.6 257.7,127.4 257.8,132.6 259.9,136.6 264.3,139.2 268.3,142.3 269.4,146.8 268.5,152.1 269,156.7 272.2,160.3 276.1,163.8 277.4,168.2 275.9,173.2 274.7,178 276.5,182.2 279.9,186.4 281.3,190.8 279.5,195.5 277,200" fill="none"/><polyline class="g-eng2" points="285,200 285.3,204.7 286.2,209.5 286.2,214.3 284.9,219 283.1,223.5 282.2,228.1 282.2,233 281.7,237.8 279.8,242.2 277.2,246.3 275.2,250.6 274.1,255.3 273,260 270.8,264.2 267.5,267.9 264.5,271.5 262.4,275.8 260.6,280.3 257.9,284.3 254.2,287.5 250.4,290.4 247.3,294 244.7,298.1 241.7,301.8 237.7,304.5 233.3,306.6 229.4,309.3 226.1,312.8 222.6,316.1 218.3,318.4 213.7,319.7 209.2,321.3 205.2,323.9 201.2,326.8 196.8,328.6 192,329.3 187.2,329.8 182.7,331.3 178.4,333.5 173.8,334.9 169,334.9 164.1,334.5 159.4,334.8 154.8,336.1 150,337 145.2,336.5 140.6,335.1 135.9,334.3 131.1,334.5 126.2,334.8 121.6,333.8 117.2,331.7 112.8,329.8 108.1,328.8 103.3,328.4 98.7,327 94.6,324.4 90.8,321.5 86.5,319.4 81.9,318 77.4,316.2 73.7,313.1 70.4,309.5 66.9,306.4 62.6,304.1 58.4,301.7 55,298.4 52.4,294.2 49.7,290.3 46.1,287.2 42.3,284.2 39.2,280.5 37.3,276 35.5,271.6 32.8,267.7 29.6,264 26.9,260.1 25.5,255.5 24.6,250.7 23,246.2 20.6,242.1 18.4,237.7 17.4,233.1 17.4,228.2 17,223.4 15.6,218.9 14,214.3 13.5,209.5 14.2,204.7 15,200 14.7,195.3 13.8,190.5 13.8,185.7 15.1,181 16.9,176.5 17.8,171.9 17.8,167 18.3,162.2 20.2,157.8 22.8,153.7 24.8,149.4 25.9,144.7 27,140 29.2,135.8 32.5,132.1 35.5,128.5 37.6,124.2 39.4,119.7 42.1,115.7 45.8,112.5 49.6,109.6 52.7,106 55.3,101.9 58.3,98.2 62.3,95.5 66.7,93.4 70.6,90.7 73.9,87.2 77.4,83.9 81.7,81.6 86.3,80.3 90.8,78.7 94.8,76.1 98.8,73.2 103.2,71.4 108,70.7 112.8,70.2 117.3,68.7 121.6,66.5 126.2,65.1 131,65.1 135.9,65.5 140.6,65.2 145.2,63.9 150,63 154.8,63.5 159.4,64.9 164.1,65.7 168.9,65.5 173.8,65.2 178.4,66.2 182.8,68.3 187.2,70.2 191.9,71.2 196.7,71.6 201.3,73 205.4,75.6 209.2,78.5 213.5,80.6 218.1,82 222.6,83.8 226.3,86.9 229.6,90.5 233.1,93.6 237.4,95.9 241.6,98.3 245,101.6 247.6,105.8 250.3,109.7 253.9,112.8 257.7,115.8 260.8,119.5 262.7,124 264.5,128.4 267.2,132.3 270.4,136 273.1,139.9 274.5,144.5 275.4,149.3 277,153.8 279.4,157.9 281.6,162.3 282.6,166.9 282.6,171.8 283,176.6 284.4,181.1 286,185.7 286.5,190.5 285.8,195.3 285,200" fill="none"/><polyline class="g-eng" points="188,200 189.2,201.4 189.3,202.7 188.1,204 186.6,205.1 186,206.3 186.6,207.8 187.6,209.4 188,210.9 187,212 185.2,212.8 183.9,213.7 183.7,215 184.3,216.7 184.7,218.5 184,219.6 182.3,220.2 180.5,220.6 179.6,221.5 179.6,223.1 179.8,225 179.3,226.4 177.8,226.9 175.9,226.8 174.4,227.1 173.8,228.4 173.6,230.3 173.2,231.9 171.9,232.5 170.1,232.1 168.4,231.8 167.2,232.4 166.6,234 165.9,235.7 164.8,236.6 163.2,236.2 161.5,235.3 160.1,235.1 159,236.1 158,237.8 156.9,238.9 155.4,238.7 153.9,237.5 152.6,236.5 151.3,236.7 150,238 148.6,239.2 147.3,239.3 146,238.1 144.9,236.6 143.7,236 142.2,236.6 140.6,237.6 139.1,238 138,237 137.2,235.2 136.3,233.9 135,233.7 133.3,234.3 131.5,234.7 130.4,234 129.8,232.3 129.4,230.5 128.5,229.6 126.9,229.6 125,229.8 123.6,229.3 123.1,227.8 123.2,225.9 122.9,224.4 121.6,223.8 119.7,223.6 118.1,223.2 117.5,221.9 117.9,220.1 118.2,218.4 117.6,217.2 116,216.6 114.3,215.9 113.4,214.8 113.8,213.2 114.7,211.5 114.9,210.1 113.9,209 112.2,208 111.1,206.9 111.3,205.4 112.5,203.9 113.5,202.6 113.3,201.3 112,200 110.8,198.6 110.7,197.3 111.9,196 113.4,194.9 114,193.7 113.4,192.2 112.4,190.6 112,189.1 113,188 114.8,187.2 116.1,186.3 116.3,185 115.7,183.3 115.3,181.5 116,180.4 117.7,179.8 119.5,179.4 120.4,178.5 120.4,176.9 120.2,175 120.7,173.6 122.2,173.1 124.1,173.2 125.6,172.9 126.2,171.6 126.4,169.7 126.8,168.1 128.1,167.5 129.9,167.9 131.6,168.2 132.8,167.6 133.4,166 134.1,164.3 135.2,163.4 136.8,163.8 138.5,164.7 139.9,164.9 141,163.9 142,162.2 143.1,161.1 144.6,161.3 146.1,162.5 147.4,163.5 148.7,163.3 150,162 151.4,160.8 152.7,160.7 154,161.9 155.1,163.4 156.3,164 157.8,163.4 159.4,162.4 160.9,162 162,163 162.8,164.8 163.7,166.1 165,166.3 166.7,165.7 168.5,165.3 169.6,166 170.2,167.7 170.6,169.5 171.5,170.4 173.1,170.4 175,170.2 176.4,170.7 176.9,172.2 176.8,174.1 177.1,175.6 178.4,176.2 180.3,176.4 181.9,176.8 182.5,178.1 182.1,179.9 181.8,181.6 182.4,182.8 184,183.4 185.7,184.1 186.6,185.2 186.2,186.8 185.3,188.5 185.1,189.9 186.1,191 187.8,192 188.9,193.1 188.7,194.6 187.5,196.1 186.5,197.4 186.7,198.7 188,200" fill="none"/><polyline class="g-eng" points="191.3,200 193.7,201.5 194.4,203.1 192.9,204.5 190.4,205.7 188.8,206.8 189.5,208.4 191.5,210.3 192.7,212.3 191.8,213.6 189.3,214.3 186.9,214.9 186.3,216.2 187.5,218.3 188.8,220.6 188.5,222.2 186.3,222.7 183.5,222.6 181.9,223.2 182.1,225 183,227.7 183.1,229.8 181.5,230.4 178.8,229.8 176.5,229.4 175.6,230.6 175.9,233.1 176,235.7 174.8,236.8 172.5,236 170.1,234.8 168.5,234.9 168,236.9 167.7,239.6 166.7,241.3 164.9,240.8 162.7,239.1 160.9,238 159.7,238.9 158.8,241.5 157.7,243.7 156.2,243.8 154.4,241.9 152.8,239.9 151.4,239.6 150,241.3 148.5,243.7 146.9,244.4 145.5,242.9 144.3,240.4 143.2,238.8 141.6,239.5 139.7,241.5 137.7,242.7 136.4,241.8 135.7,239.3 135.1,236.9 133.8,236.3 131.7,237.5 129.4,238.8 127.8,238.5 127.3,236.3 127.4,233.5 126.8,231.9 125,232.1 122.3,233 120.2,233.1 119.6,231.5 120.2,228.8 120.6,226.5 119.4,225.6 116.9,225.9 114.3,226 113.2,224.8 114,222.5 115.2,220.1 115.1,218.5 113.1,218 110.4,217.7 108.7,216.7 109.2,214.9 110.9,212.7 112,210.9 111.1,209.7 108.5,208.8 106.3,207.7 106.2,206.2 108.1,204.4 110.1,202.8 110.4,201.4 108.7,200 106.3,198.5 105.6,196.9 107.1,195.5 109.6,194.3 111.2,193.2 110.5,191.6 108.5,189.7 107.3,187.7 108.2,186.4 110.7,185.7 113.1,185.1 113.7,183.8 112.5,181.7 111.2,179.4 111.5,177.8 113.7,177.3 116.5,177.4 118.1,176.8 117.9,175 117,172.3 116.9,170.2 118.5,169.6 121.2,170.2 123.5,170.6 124.4,169.4 124.1,166.9 124,164.3 125.2,163.2 127.5,164 129.9,165.2 131.5,165.1 132,163.1 132.3,160.4 133.3,158.7 135.1,159.2 137.3,160.9 139.1,162 140.3,161.1 141.2,158.5 142.3,156.3 143.8,156.2 145.6,158.1 147.2,160.1 148.6,160.4 150,158.7 151.5,156.3 153.1,155.6 154.5,157.1 155.7,159.6 156.8,161.2 158.4,160.5 160.3,158.5 162.3,157.3 163.6,158.2 164.3,160.7 164.9,163.1 166.2,163.7 168.3,162.5 170.6,161.2 172.2,161.5 172.7,163.7 172.6,166.5 173.2,168.1 175,167.9 177.7,167 179.8,166.9 180.4,168.5 179.8,171.2 179.4,173.5 180.6,174.4 183.1,174.1 185.7,174 186.8,175.2 186,177.5 184.8,179.9 184.9,181.5 186.9,182 189.6,182.3 191.3,183.3 190.8,185.1 189.1,187.3 188,189.1 188.9,190.3 191.5,191.2 193.7,192.3 193.8,193.8 191.9,195.6 189.9,197.2 189.6,198.6 191.3,200" fill="none"/><polyline class="g-eng" points="194.2,200 197.6,201.7 199.5,203.5 198.1,205.1 194.7,206.3 192,207.4 192.1,209 194.8,211.2 197.2,213.5 196.9,215.2 193.8,215.9 190.2,216.3 188.8,217.3 190.1,219.6 192.4,222.5 193,224.8 190.7,225.4 187,225 184.4,225 184.2,226.7 185.7,230 186.6,233 185.3,234.1 182,233.2 178.8,232 177.4,232.6 177.8,235.6 178.5,239.2 177.7,241.1 175.2,240.3 172.1,238.3 169.9,237.4 169.2,239.4 169.2,243.1 168.5,245.9 166.7,245.8 164.1,243.4 161.8,241.1 160.4,241.5 159.5,244.6 158.5,248 156.9,249 154.9,246.8 153.1,243.7 151.5,242.4 150,244.2 148.3,247.6 146.5,249.5 144.9,248.1 143.7,244.7 142.6,242 141,242.1 138.8,244.8 136.5,247.2 134.8,246.9 134.1,243.8 133.7,240.2 132.7,238.8 130.4,240.1 127.5,242.4 125.2,243 124.6,240.7 125,237 125,234.4 123.3,234.2 120,235.7 117,236.6 115.9,235.3 116.8,232 118,228.8 117.4,227.4 114.4,227.8 110.8,228.5 108.9,227.7 109.7,225.2 111.7,222.1 112.6,219.9 110.6,219.2 106.9,219.2 104.1,218.5 104.2,216.7 106.6,214.1 108.9,211.8 108.5,210.4 105.4,209.5 102,208.5 101,206.9 103.2,204.9 106.3,203.1 107.6,201.5 105.8,200 102.4,198.3 100.5,196.5 101.9,194.9 105.3,193.7 108,192.6 107.9,191 105.2,188.8 102.8,186.5 103.1,184.8 106.2,184.1 109.8,183.7 111.2,182.7 109.9,180.4 107.6,177.5 107,175.2 109.3,174.6 113,175 115.6,175 115.8,173.3 114.3,170 113.4,167 114.7,165.9 118,166.8 121.2,168 122.6,167.4 122.2,164.4 121.5,160.8 122.3,158.9 124.8,159.7 127.9,161.7 130.1,162.6 130.8,160.6 130.8,156.9 131.5,154.1 133.3,154.2 135.9,156.6 138.2,158.9 139.6,158.5 140.5,155.4 141.5,152 143.1,151 145.1,153.2 146.9,156.3 148.5,157.6 150,155.8 151.7,152.4 153.5,150.5 155.1,151.9 156.3,155.3 157.4,158 159,157.9 161.2,155.2 163.5,152.8 165.2,153.1 165.9,156.2 166.3,159.8 167.3,161.2 169.6,159.9 172.5,157.6 174.8,157 175.4,159.3 175,163 175,165.6 176.7,165.8 180,164.3 183,163.4 184.1,164.7 183.2,168 182,171.2 182.6,172.6 185.6,172.2 189.2,171.5 191.1,172.3 190.3,174.8 188.3,177.9 187.4,180.1 189.4,180.8 193.1,180.8 195.9,181.5 195.8,183.3 193.4,185.9 191.1,188.2 191.5,189.6 194.6,190.5 198,191.5 199,193.1 196.8,195.1 193.7,196.9 192.4,198.5 194.2,200" fill="none"/><polyline class="g-eng" points="196.7,200 200.9,201.8 204.1,203.8 203.6,205.6 199.6,207 195.5,208 194.7,209.5 197.5,211.9 201.1,214.7 201.9,216.9 198.8,217.8 194.1,217.8 191.5,218.5 192.5,220.7 195.5,224.2 197.2,227.2 195.4,228.3 191,227.6 187.1,227 186.2,228.3 188,231.9 189.8,235.9 189.1,237.8 185.7,236.9 181.5,235 179.2,234.8 179.4,237.6 180.6,242.2 180.5,245.3 178.1,245 174.4,242.2 171.4,240.3 170.3,241.6 170.4,245.9 170.2,250.1 168.5,250.9 165.7,248.2 162.8,244.8 161,244.1 160.1,247.3 159.1,251.9 157.6,254.1 155.5,252.2 153.4,248.1 151.6,245.4 150,246.7 148.2,250.9 146.2,254.1 144.4,253.6 143,249.6 142,245.5 140.5,244.7 138.1,247.5 135.3,251.1 133.1,251.9 132.2,248.8 132.2,244.1 131.5,241.5 129.3,242.5 125.8,245.5 122.8,247.2 121.7,245.4 122.4,241 123,237.1 121.7,236.2 118.1,238 114.1,239.8 112.2,239.1 113.1,235.7 115,231.5 115.2,229.2 112.4,229.4 107.8,230.6 104.7,230.5 105,228.1 107.8,224.4 109.7,221.4 108.4,220.3 104.1,220.4 99.9,220.2 99.1,218.5 101.8,215.7 105.2,212.8 105.9,211 102.7,210.1 98.1,209.1 95.9,207.6 97.8,205.5 101.9,203.4 104.6,201.6 103.3,200 99.1,198.2 95.9,196.2 96.4,194.4 100.4,193 104.5,192 105.3,190.5 102.5,188.1 98.9,185.3 98.1,183.1 101.2,182.2 105.9,182.2 108.5,181.5 107.5,179.3 104.5,175.8 102.8,172.8 104.6,171.7 109,172.4 112.9,173 113.8,171.7 112,168.1 110.2,164.1 110.9,162.2 114.3,163.1 118.5,165 120.8,165.2 120.6,162.4 119.4,157.8 119.5,154.7 121.9,155 125.6,157.8 128.6,159.7 129.7,158.4 129.6,154.1 129.8,149.9 131.5,149.1 134.3,151.8 137.2,155.2 139,155.9 139.9,152.7 140.9,148.1 142.4,145.9 144.5,147.8 146.6,151.9 148.4,154.6 150,153.3 151.8,149.1 153.8,145.9 155.6,146.4 157,150.4 158,154.5 159.5,155.3 161.9,152.5 164.7,148.9 166.9,148.1 167.8,151.2 167.8,155.9 168.5,158.5 170.7,157.5 174.2,154.5 177.2,152.8 178.3,154.6 177.6,159 177,162.9 178.3,163.8 181.9,162 185.9,160.2 187.8,160.9 186.9,164.3 185,168.5 184.8,170.8 187.6,170.6 192.2,169.4 195.3,169.5 195,171.9 192.2,175.6 190.3,178.6 191.6,179.7 195.9,179.6 200.1,179.8 200.9,181.5 198.2,184.3 194.8,187.2 194.1,189 197.3,189.9 201.9,190.9 204.1,192.4 202.2,194.5 198.1,196.6 195.4,198.4 196.7,200" fill="none"/><polyline class="g-eng" points="199.2,200 203.6,201.9 208.3,204.1 209,206.2 205,207.7 199.6,208.7 197.4,210.1 199.9,212.4 204.5,215.6 206.7,218.4 204.1,219.7 198.6,219.6 194.5,219.8 194.6,221.8 198.1,225.6 201,229.4 200,231.3 195.4,230.6 190.3,229.3 188.3,229.9 189.9,233.5 192.6,238.4 192.9,241.4 189.5,241 184.6,238.4 181.2,237.1 180.9,239.5 182.4,244.7 183.1,249.1 181.1,249.7 177,246.7 173.2,243.6 171.4,243.9 171.5,248.3 171.7,253.7 170.4,255.9 167.4,253.5 164.1,249 161.7,247 160.6,249.6 159.7,255.1 158.3,258.9 156.1,257.8 153.7,253.1 151.7,248.9 150,249.2 148.1,253.6 145.9,258.3 143.8,259 142.3,255 141.3,249.6 139.9,247.4 137.6,249.9 134.4,254.5 131.6,256.7 130.3,254.1 130.4,248.6 130.2,244.5 128.2,244.6 124.4,248.1 120.6,251 118.7,250 119.4,245.4 120.7,240.3 120.1,238.3 116.5,239.9 111.6,242.6 108.6,242.9 109,239.5 111.6,234.6 112.9,231.2 110.5,230.9 105.3,232.4 100.9,233.1 100.3,231.1 103.3,227 106.4,223.2 106.1,221.4 101.7,221.5 96.3,221.7 94.1,220.4 96.5,217.4 101,214.1 103,211.7 100.4,210.6 94.9,209.7 91.1,208.3 92.2,206.1 96.9,203.7 101.1,201.7 100.8,200 96.4,198.1 91.7,195.9 91,193.8 95,192.3 100.4,191.3 102.6,189.9 100.1,187.6 95.5,184.4 93.3,181.6 95.9,180.3 101.4,180.4 105.5,180.2 105.4,178.2 101.9,174.4 99,170.6 100,168.7 104.6,169.4 109.7,170.7 111.7,170.1 110.1,166.5 107.4,161.6 107.1,158.6 110.5,159 115.4,161.6 118.8,162.9 119.1,160.5 117.6,155.3 116.9,150.9 118.9,150.3 123,153.3 126.8,156.4 128.6,156.1 128.5,151.7 128.3,146.3 129.6,144.1 132.6,146.5 135.9,151 138.3,153 139.4,150.4 140.3,144.9 141.7,141.1 143.9,142.2 146.3,146.9 148.3,151.1 150,150.8 151.9,146.4 154.1,141.7 156.2,141 157.7,145 158.7,150.4 160.1,152.6 162.4,150.1 165.6,145.5 168.4,143.3 169.7,145.9 169.6,151.4 169.8,155.5 171.8,155.4 175.6,151.9 179.4,149 181.3,150 180.6,154.6 179.3,159.7 179.9,161.7 183.5,160.1 188.4,157.4 191.4,157.1 191,160.5 188.4,165.4 187.1,168.8 189.5,169.1 194.7,167.6 199.1,166.9 199.7,168.9 196.7,173 193.6,176.8 193.9,178.6 198.3,178.5 203.7,178.3 205.9,179.6 203.5,182.6 199,185.9 197,188.3 199.6,189.4 205.1,190.3 208.9,191.7 207.8,193.9 203.1,196.3 198.9,198.3 199.2,200" fill="none"/><polyline class="g-eng" points="201.7,200 205.9,202 211.8,204.3 214.1,206.7 210.7,208.5 204.4,209.6 200.4,210.7 202,213 207.2,216.4 210.9,219.8 209.5,221.6 203.6,221.7 198,221.4 196.8,222.8 200.2,226.7 204.2,231.3 204.6,234.1 200.1,233.8 194,232 190.6,231.7 191.6,234.9 194.9,240.4 196.3,244.7 193.6,245.1 188.1,242.3 183.5,239.9 182.3,241.3 183.9,246.7 185.4,252.4 184,254.4 179.8,251.6 175.2,247.4 172.6,246.3 172.4,250.3 172.9,256.7 172.1,260.6 169.2,259 165.4,253.9 162.5,250.2 161,251.8 160.2,257.7 158.9,263.1 156.7,263.4 154.1,258.6 151.9,253 150,251.7 148,255.9 145.7,261.8 143.3,264.1 141.5,260.7 140.4,254.4 139.3,250.4 137,252 133.6,257.2 130.2,260.9 128.4,259.5 128.3,253.6 128.6,248 127.2,246.8 123.3,250.2 118.7,254.2 115.9,254.6 116.2,250.1 118,244 118.3,240.6 115.1,241.6 109.6,244.9 105.3,246.3 104.9,243.6 107.7,238.1 110.1,233.5 108.7,232.3 103.3,233.9 97.6,235.4 95.6,234 98.4,229.8 102.6,225.2 103.7,222.6 99.7,222.4 93.3,222.9 89.4,222.1 91,219.2 96.1,215.4 99.8,212.5 98.2,211 92.3,210.2 86.9,208.9 86.6,206.7 91.4,204.1 97,201.9 98.3,200 94.1,198 88.2,195.7 85.9,193.3 89.3,191.5 95.6,190.4 99.6,189.3 98,187 92.8,183.6 89.1,180.2 90.5,178.4 96.4,178.3 102,178.6 103.2,177.2 99.8,173.3 95.8,168.7 95.4,165.9 99.9,166.2 106,168 109.4,168.3 108.4,165.1 105.1,159.6 103.7,155.3 106.4,154.9 111.9,157.7 116.5,160.1 117.7,158.7 116.1,153.3 114.6,147.6 116,145.6 120.2,148.4 124.8,152.6 127.4,153.7 127.6,149.7 127.1,143.3 127.9,139.4 130.8,141 134.6,146.1 137.5,149.8 139,148.2 139.8,142.3 141.1,136.9 143.3,136.6 145.9,141.4 148.1,147 150,148.3 152,144.1 154.3,138.2 156.7,135.9 158.5,139.3 159.6,145.6 160.7,149.6 163,148 166.4,142.8 169.8,139.1 171.6,140.5 171.7,146.4 171.4,152 172.8,153.2 176.7,149.8 181.3,145.8 184.1,145.4 183.8,149.9 182,156 181.7,159.4 184.9,158.4 190.4,155.1 194.7,153.7 195.1,156.4 192.3,161.9 189.9,166.5 191.3,167.7 196.7,166.1 202.4,164.6 204.4,166 201.6,170.2 197.4,174.8 196.3,177.4 200.3,177.6 206.7,177.1 210.6,177.9 209,180.8 203.9,184.6 200.2,187.5 201.8,189 207.7,189.8 213.1,191.1 213.4,193.3 208.6,195.9 203,198.1 201.7,200" fill="none"/><polyline class="g-eng" points="204.7,200 207.9,202 214.7,204.5 218.8,207.2 216.6,209.4 209.7,210.5 204.1,211.5 204.2,213.5 209.4,217 214.6,221 214.7,223.5 209.1,223.9 202.1,223.2 199.2,224 202,227.6 206.9,232.9 208.8,236.7 205.1,237.2 198.3,235.1 193.3,233.8 193.2,236.3 196.7,242.1 199.3,247.6 197.5,249.2 191.9,246.6 186.2,243.2 183.9,243.3 185.2,248.4 187.2,255.2 186.7,258.8 182.8,256.8 177.6,251.8 174,249.2 173.2,252.2 173.9,259.2 173.6,264.7 171,264.6 167,259.3 163.5,254.1 161.5,254.1 160.6,259.9 159.4,266.7 157.2,268.8 154.5,264.5 152,257.8 150,254.7 148,257.9 145.5,264.7 142.8,268.8 140.6,266.6 139.5,259.7 138.5,254.1 136.5,254.2 133,259.4 129,264.6 126.5,264.7 126.1,259.1 126.8,252.1 126,249.2 122.4,252 117.1,256.9 113.3,258.8 112.8,255.1 114.9,248.3 116.2,243.3 113.7,243.2 107.9,246.7 102.4,249.3 100.8,247.5 103.4,241.9 106.8,236.2 106.7,233.9 101.6,235.2 94.8,237.2 91.2,236.7 93.2,232.8 98.2,227.6 100.8,224 97.8,223.2 90.8,223.9 85.3,223.6 85.4,221 90.7,217 95.9,213.5 95.9,211.5 90.1,210.6 83.3,209.4 81.2,207.2 85.5,204.5 92.2,202 95.3,200 92.1,198 85.3,195.5 81.2,192.8 83.4,190.6 90.3,189.5 95.9,188.5 95.8,186.5 90.6,183 85.4,179 85.3,176.5 90.9,176.1 97.9,176.8 100.8,176 98,172.4 93.1,167.1 91.2,163.3 94.9,162.8 101.7,164.9 106.7,166.2 106.8,163.7 103.3,157.9 100.7,152.4 102.5,150.8 108.1,153.4 113.8,156.8 116.1,156.7 114.8,151.6 112.8,144.8 113.3,141.2 117.2,143.2 122.4,148.2 126,150.8 126.8,147.8 126.1,140.8 126.4,135.3 129,135.4 133,140.7 136.5,145.9 138.5,145.9 139.4,140.1 140.6,133.3 142.8,131.2 145.5,135.5 148,142.2 150,145.3 152,142.1 154.5,135.3 157.2,131.2 159.4,133.4 160.5,140.3 161.5,145.9 163.5,145.8 167,140.6 171,135.4 173.5,135.3 173.9,140.9 173.2,147.9 174,150.8 177.6,148 182.9,143.1 186.7,141.2 187.2,144.9 185.1,151.7 183.8,156.7 186.3,156.8 192.1,153.3 197.6,150.7 199.2,152.5 196.6,158.1 193.2,163.8 193.3,166.1 198.4,164.8 205.2,162.8 208.8,163.3 206.8,167.2 201.8,172.4 199.2,176 202.2,176.8 209.2,176.1 214.7,176.4 214.6,179 209.3,183 204.1,186.5 204.1,188.5 209.9,189.4 216.7,190.6 218.8,192.8 214.5,195.5 207.8,198 204.7,200" fill="none"/><polyline class="g-eng" points="208.2,200 210,202.1 216.9,204.7 222.8,207.7 222.3,210.2 215.6,211.6 208.4,212.4 206.6,214.1 211.3,217.6 217.7,222 219.5,225.3 214.7,226.2 206.9,225.3 202.1,225.4 203.7,228.5 209,234.1 212.5,239 210,240.5 203,238.5 196.5,236.4 195,237.8 198.2,243.4 201.8,250 201.3,253.1 196,251.1 189.4,247 185.7,245.7 186.3,249.9 188.7,257.4 189.2,262.7 185.8,262 180.2,256.8 175.7,252.6 174.1,254.2 174.7,261.2 174.8,268.3 172.7,269.9 168.7,265.1 164.6,258.6 162.1,256.8 160.9,261.7 159.8,269.5 157.7,273.6 154.9,270.6 152.2,263.2 150,258.2 147.9,260 145.3,266.9 142.3,272.8 139.8,272.3 138.4,265.6 137.6,258.4 135.9,256.6 132.4,261.3 128,267.7 124.7,269.5 123.8,264.7 124.7,256.9 124.6,252.1 121.5,253.7 115.9,259 111,262.5 109.5,260 111.5,253 113.6,246.5 112.2,245 106.6,248.2 100,251.8 96.9,251.3 98.9,246 103,239.4 104.3,235.7 100.1,236.3 92.6,238.7 87.3,239.2 88,235.8 93.2,230.2 97.4,225.7 95.8,224.1 88.8,224.7 81.7,224.8 80.1,222.7 84.9,218.7 91.4,214.6 93.2,212.1 88.3,210.9 80.5,209.8 76.4,207.7 79.4,204.9 86.8,202.2 91.8,200 90,197.9 83.1,195.3 77.2,192.3 77.7,189.8 84.4,188.4 91.6,187.6 93.4,185.9 88.7,182.4 82.3,178 80.5,174.7 85.3,173.8 93.1,174.7 97.9,174.6 96.3,171.5 91,165.9 87.5,161 90,159.5 97,161.5 103.5,163.6 105,162.2 101.8,156.6 98.2,150 98.7,146.9 104,148.9 110.6,153 114.3,154.3 113.7,150.1 111.3,142.6 110.8,137.3 114.2,138 119.8,143.2 124.3,147.4 125.9,145.8 125.3,138.8 125.2,131.7 127.3,130.1 131.3,134.9 135.4,141.4 137.9,143.2 139.1,138.3 140.2,130.5 142.3,126.4 145.1,129.4 147.8,136.8 150,141.8 152.1,140 154.7,133.1 157.7,127.2 160.2,127.7 161.6,134.4 162.4,141.6 164.1,143.4 167.6,138.7 172,132.3 175.3,130.5 176.2,135.3 175.3,143.1 175.4,147.9 178.5,146.3 184.1,141 189,137.5 190.5,140 188.5,147 186.4,153.5 187.8,155 193.4,151.8 200,148.2 203.1,148.7 201.1,154 197,160.6 195.7,164.3 199.9,163.7 207.4,161.3 212.7,160.8 212,164.2 206.8,169.8 202.6,174.3 204.2,175.9 211.2,175.3 218.3,175.2 219.9,177.3 215.1,181.3 208.6,185.4 206.8,187.9 211.7,189.1 219.5,190.2 223.6,192.3 220.6,195.1 213.2,197.8 208.2,200" fill="none"/><polyline class="g-eng" points="212.4,200 212.2,202.2 218.7,204.8 226.1,208 227.6,210.9 221.7,212.7 213.4,213.5 209.5,214.8 213,218.1 220,222.8 223.8,226.9 220.4,228.4 212.2,227.7 205.6,227.1 205.5,229.5 210.7,235.1 215.5,240.9 214.7,243.6 208,242.1 200.3,239.3 197.1,239.5 199.5,244.6 203.7,251.9 204.7,256.6 200.2,255.7 193,251.3 187.9,248.5 187.4,251.5 189.9,259.1 191.3,266 188.7,267.1 183.1,262.2 177.7,256.7 175.1,256.4 175.4,262.8 175.9,271.1 174.3,274.8 170.4,271.1 165.9,263.9 162.8,260 161.2,263.5 160.1,271.8 158.2,277.9 155.4,276.6 152.4,269.2 150,262.4 147.8,262.2 145.2,268.7 142,276.1 139.1,277.6 137.3,271.7 136.5,263.4 135.2,259.5 131.9,263 127.2,270 123.1,273.8 121.6,270.4 122.3,262.2 122.9,255.6 120.5,255.5 114.9,260.7 109.1,265.5 106.4,264.7 107.9,258 110.7,250.3 110.5,247.1 105.4,249.5 98.1,253.7 93.4,254.7 94.3,250.2 98.7,243 101.5,237.9 98.5,237.4 90.9,239.9 84,241.3 82.9,238.7 87.8,233.1 93.3,227.7 93.6,225.1 87.2,225.4 78.9,225.9 75.2,224.3 78.9,220.4 86.1,215.9 90,212.8 86.5,211.2 78.2,210.1 72.1,208.2 73.4,205.4 80.8,202.4 87.6,200 87.8,197.8 81.3,195.2 73.9,192 72.4,189.1 78.3,187.3 86.6,186.5 90.5,185.2 87,181.9 80,177.2 76.2,173.1 79.6,171.6 87.8,172.3 94.4,172.9 94.5,170.5 89.3,164.9 84.5,159.1 85.3,156.4 92,157.9 99.7,160.7 102.9,160.5 100.5,155.4 96.3,148.1 95.3,143.4 99.8,144.3 107,148.7 112.1,151.5 112.6,148.5 110.1,140.9 108.7,134 111.3,132.9 116.9,137.8 122.3,143.3 124.9,143.6 124.6,137.2 124.1,128.9 125.7,125.2 129.6,128.9 134.1,136.1 137.2,140 138.8,136.5 139.9,128.2 141.8,122.1 144.6,123.4 147.6,130.8 150,137.6 152.2,137.8 154.8,131.3 158,123.9 160.9,122.4 162.7,128.3 163.5,136.6 164.8,140.5 168.1,137 172.8,130 176.9,126.2 178.4,129.6 177.7,137.8 177.1,144.4 179.5,144.5 185.1,139.3 190.9,134.5 193.6,135.3 192.1,142 189.3,149.7 189.5,152.9 194.6,150.5 201.9,146.3 206.6,145.3 205.7,149.8 201.3,157 198.5,162.1 201.5,162.6 209.1,160.1 216,158.7 217.1,161.3 212.2,166.9 206.7,172.3 206.4,174.9 212.8,174.6 221.1,174.1 224.8,175.7 221.1,179.6 213.9,184.1 210,187.2 213.5,188.8 221.8,189.9 227.9,191.8 226.6,194.6 219.2,197.6 212.4,200" fill="none"/><polyline class="g-eng" points="217.4,200 215,202.3 220.4,204.9 228.7,208.3 232.4,211.6 227.9,213.7 219,214.7 213.1,215.7 214.8,218.6 221.9,223.4 227.4,228.2 225.8,230.6 217.9,230.2 209.8,229.2 207.7,230.7 212.2,235.9 218,242.5 218.9,246.5 213.1,245.9 204.7,242.7 199.7,241.7 200.8,245.7 205.3,253.4 207.5,259.6 204.2,260.2 197,256 190.6,251.9 188.7,253.3 190.8,260.5 192.9,268.7 191.4,271.7 186.1,267.9 180,261.4 176.4,259.2 176,264.3 176.7,273.3 175.7,279 172.1,277.1 167.4,269.7 163.6,263.9 161.6,265.5 160.3,273.6 158.5,281.3 155.7,282.2 152.6,275.6 150,267.4 147.7,265 145.1,270.4 141.7,278.7 138.4,282.4 136.3,277.9 135.3,269 134.3,263.1 131.4,264.8 126.6,271.9 121.8,277.4 119.4,275.8 119.8,267.9 120.8,259.8 119.3,257.7 114.1,262.2 107.5,268 103.5,268.9 104.1,263.1 107.3,254.7 108.3,249.7 104.3,250.8 96.6,255.3 90.4,257.5 89.8,254.2 94,247 98.1,240.6 96.7,238.7 89.5,240.8 81.3,242.9 78.3,241.4 82.1,236.1 88.6,230 90.8,226.4 85.7,226 76.7,226.7 71,225.7 72.9,222.1 80.3,217.4 86.1,213.6 84.5,211.6 76.4,210.3 68.7,208.5 67.8,205.7 74.4,202.6 82.6,200 85,197.7 79.6,195.1 71.3,191.7 67.6,188.4 72.1,186.3 81,185.3 86.9,184.3 85.2,181.4 78.1,176.6 72.6,171.8 74.2,169.4 82.1,169.8 90.2,170.8 92.3,169.3 87.8,164.1 82,157.5 81.1,153.5 86.9,154.1 95.3,157.3 100.3,158.3 99.2,154.3 94.7,146.6 92.5,140.4 95.8,139.8 103,144 109.4,148.1 111.3,146.7 109.2,139.5 107.1,131.3 108.6,128.3 113.9,132.1 120,138.6 123.6,140.8 124,135.7 123.3,126.7 124.3,121 127.9,122.9 132.6,130.3 136.4,136.1 138.4,134.5 139.7,126.4 141.5,118.7 144.3,117.8 147.4,124.4 150,132.6 152.3,135 154.9,129.6 158.3,121.3 161.6,117.6 163.7,122.1 164.7,131 165.7,136.9 168.6,135.2 173.4,128.1 178.2,122.6 180.6,124.2 180.2,132.1 179.2,140.2 180.7,142.3 185.9,137.8 192.5,132 196.5,131.1 195.9,136.9 192.7,145.3 191.7,150.3 195.7,149.2 203.4,144.7 209.6,142.5 210.2,145.8 206,153 201.9,159.4 203.3,161.3 210.5,159.2 218.7,157.1 221.7,158.6 217.9,163.9 211.4,170 209.2,173.6 214.3,174 223.3,173.3 229,174.3 227.1,177.9 219.7,182.6 213.9,186.4 215.5,188.4 223.6,189.7 231.3,191.5 232.2,194.3 225.6,197.4 217.4,200" fill="none"/><polyline class="g-eng" points="223.1,200 218.4,202.4 222.1,205 230.7,208.5 236.4,212.1 233.9,214.8 225.1,216 217.4,216.8 216.9,219.2 223.4,223.8 230.3,229.2 230.8,232.7 223.8,232.9 214.7,231.5 210.4,232.1 213.5,236.7 219.8,243.6 222.6,248.9 218.2,249.5 209.5,246.5 202.8,244.3 202.3,247.1 206.5,254.5 209.9,262 208,264.4 201.1,260.9 193.7,255.9 190.4,255.5 191.7,261.8 194.2,270.8 193.8,275.8 189.1,273.5 182.5,266.7 177.9,262.7 176.7,266 177.3,275 176.8,282.6 173.7,282.7 168.9,275.8 164.6,268.6 162,268 160.6,275.1 158.8,284.1 156.1,287.3 152.9,282 150,273.1 147.6,268.4 145,272.1 141.5,280.7 137.9,286.4 135.2,283.9 134,275.1 133.2,267.4 130.8,266.9 126.2,273.4 120.8,280.3 117.3,280.8 117.1,273.8 118.5,264.7 117.9,260.4 113.3,263.5 106.4,269.8 101.1,272.6 100.5,268.2 103.5,259.5 105.7,252.8 102.9,252.3 95.5,256.5 88,259.9 85.6,258 89.1,251.1 94.1,243.7 94.5,240.4 88.2,241.7 79.2,244.2 74.2,243.8 76.5,239.1 83.3,232.5 87.3,227.9 84,226.7 75,227.3 67.4,226.8 67.3,223.7 74.2,218.9 81.4,214.6 82,212 74.9,210.6 65.9,208.8 62.7,206.1 68,202.9 76.9,200 81.6,197.6 77.9,195 69.3,191.5 63.6,187.9 66.1,185.2 74.9,184 82.6,183.2 83.1,180.8 76.6,176.2 69.7,170.8 69.2,167.3 76.2,167.1 85.3,168.5 89.6,167.9 86.5,163.3 80.2,156.4 77.4,151.1 81.8,150.5 90.5,153.5 97.2,155.7 97.7,152.9 93.5,145.5 90.1,138 92,135.6 98.9,139.1 106.3,144.1 109.6,144.5 108.3,138.2 105.8,129.2 106.2,124.2 110.9,126.5 117.5,133.3 122.1,137.3 123.3,134 122.7,125 123.2,117.4 126.3,117.3 131.1,124.2 135.4,131.4 138,132 139.4,124.9 141.2,115.9 143.9,112.7 147.1,118 150,126.9 152.4,131.6 155,127.9 158.5,119.3 162.1,113.6 164.8,116.1 166,124.9 166.8,132.6 169.2,133.1 173.8,126.6 179.2,119.7 182.7,119.2 182.9,126.2 181.5,135.3 182.1,139.6 186.7,136.5 193.6,130.2 198.9,127.4 199.5,131.8 196.5,140.5 194.3,147.2 197.1,147.7 204.5,143.5 212,140.1 214.4,142 210.9,148.9 205.9,156.3 205.5,159.6 211.8,158.3 220.8,155.8 225.8,156.2 223.5,160.9 216.7,167.5 212.7,172.1 216,173.3 225,172.7 232.6,173.2 232.7,176.3 225.8,181.1 218.6,185.4 218,188 225.1,189.4 234.1,191.2 237.3,193.9 232,197.1 223.1,200" fill="none"/><polyline class="g-eng" points="229.3,200 222.6,202.5 224.1,205.2 232.3,208.6 239.7,212.6 239.5,215.8 231.5,217.3 222.4,218.1 219.6,220 224.8,224.3 232.5,230 235.2,234.4 229.7,235.5 220.1,234.2 213.8,233.9 215.1,237.6 221.3,244.6 225.6,251 222.9,253 214.6,250.5 206.6,247.5 204.2,248.8 207.5,255.6 211.7,263.9 211.4,268.1 205.3,265.9 197.3,260.5 192.4,258.4 192.6,263.2 195.2,272.4 195.8,279.3 191.9,278.9 185.3,272.4 179.7,266.8 177.5,268.1 177.8,276.4 177.7,285.4 175.2,287.8 170.5,282.2 165.7,274 162.5,271.1 160.8,276.6 159.1,286.2 156.4,291.6 153.1,288.3 150,279.3 147.5,272.6 144.8,274.1 141.4,282.3 137.4,289.7 134.2,289.5 132.7,281.5 131.9,272.4 130,269.6 125.7,274.8 120,282.5 115.6,285.2 114.5,279.7 115.8,270.1 116.1,263.8 112.4,265.1 105.4,271.3 99,275.6 97,272.9 99.5,264.6 102.5,256.6 101.2,254.2 94.4,257.5 86.1,261.7 81.9,261.4 84.1,255.3 89.5,247.3 91.6,242.4 86.8,242.6 77.6,245.2 70.7,245.8 71.1,241.9 77.6,235.3 83.2,229.7 81.9,227.5 73.6,227.8 64.6,227.7 62.2,225.2 67.8,220.5 76,215.7 78.9,212.5 73.4,210.8 63.8,209.1 58.4,206.4 61.7,203.1 70.7,200 77.4,197.5 75.9,194.8 67.7,191.4 60.3,187.4 60.5,184.2 68.5,182.7 77.6,181.9 80.4,180 75.2,175.7 67.5,170 64.8,165.6 70.3,164.5 79.9,165.8 86.2,166.1 84.9,162.4 78.7,155.4 74.4,149 77.1,147 85.4,149.5 93.4,152.5 95.8,151.2 92.5,144.4 88.3,136.1 88.6,131.9 94.7,134.1 102.7,139.5 107.6,141.6 107.4,136.8 104.8,127.6 104.2,120.7 108.1,121.1 114.7,127.6 120.3,133.2 122.5,131.9 122.2,123.6 122.3,114.6 124.8,112.2 129.5,117.8 134.3,126 137.5,128.9 139.2,123.4 140.9,113.8 143.6,108.4 146.9,111.7 150,120.7 152.5,127.4 155.2,125.9 158.6,117.7 162.6,110.3 165.8,110.5 167.3,118.5 168.1,127.6 170,130.4 174.3,125.2 180,117.5 184.4,114.8 185.5,120.3 184.2,129.9 183.9,136.2 187.6,134.9 194.6,128.7 201,124.4 203,127.1 200.5,135.4 197.5,143.4 198.8,145.8 205.6,142.5 213.9,138.3 218.1,138.6 215.9,144.7 210.5,152.7 208.4,157.6 213.2,157.4 222.4,154.8 229.3,154.2 228.9,158.1 222.4,164.7 216.8,170.3 218.1,172.5 226.4,172.2 235.4,172.3 237.8,174.8 232.2,179.5 224,184.3 221.1,187.5 226.6,189.2 236.2,190.9 241.6,193.6 238.3,196.9 229.3,200" fill="none"/><polyline class="g-eng" points="235.8,200 227.6,202.7 226.6,205.4 233.7,208.8 242.2,213 244.3,216.6 237.9,218.7 228.1,219.5 223.1,221 226.4,224.8 234.2,230.7 238.8,235.9 235.2,237.9 225.9,237 217.9,236.1 217.1,238.7 222.5,245.3 227.9,252.6 227.2,256.1 219.8,254.5 210.8,251 206.6,250.9 208.6,256.6 213.1,265.4 214.2,271.3 209.3,270.7 201.1,265.4 194.9,261.8 193.8,264.9 196.1,273.7 197.4,282.1 194.5,283.8 188.2,278.4 181.9,271.7 178.6,270.8 178.3,277.8 178.4,287.5 176.5,292.2 172,288.4 167,280 163.2,275 161,278.5 159.2,287.8 156.7,295.1 153.3,294.1 150,285.8 147.3,277.6 144.6,276.6 141.2,283.7 137,292.2 133.4,294.3 131.3,287.9 130.5,278.1 129,273.1 125.2,276.4 119.3,284.2 114.1,288.8 112.1,285.2 113,275.9 113.9,267.9 111.3,267.1 104.7,272.5 97.4,277.9 93.9,277.2 95.5,269.8 99,260.8 99.1,256.6 93.4,258.6 84.6,263.1 78.7,264.2 79.3,259.3 84.6,251.1 88.2,244.9 85.1,243.8 76.3,246.1 67.9,247.4 66.2,244.5 71.6,238.2 78.3,231.9 79.2,228.6 72.2,228.3 62.5,228.4 57.8,226.5 61.6,222 70,217 75,213.2 71.5,211 62.2,209.2 54.9,206.7 55.9,203.3 64.2,200 72.4,197.3 73.4,194.6 66.3,191.2 57.8,187 55.7,183.4 62.1,181.3 71.9,180.5 76.9,179 73.6,175.2 65.8,169.3 61.2,164.1 64.8,162.1 74.1,163 82.1,163.9 82.9,161.3 77.5,154.7 72.1,147.4 72.8,143.9 80.2,145.5 89.2,149 93.4,149.1 91.4,143.4 86.9,134.6 85.8,128.7 90.7,129.3 98.9,134.6 105.1,138.2 106.2,135.1 103.9,126.3 102.6,117.9 105.5,116.2 111.8,121.6 118.1,128.3 121.4,129.2 121.7,122.2 121.6,112.5 123.5,107.8 128,111.6 133,120 136.8,125 139,121.5 140.8,112.2 143.3,104.9 146.7,105.9 150,114.2 152.7,122.4 155.4,123.4 158.8,116.3 163,107.8 166.6,105.7 168.7,112.1 169.5,121.9 171,126.9 174.8,123.6 180.7,115.8 185.9,111.2 187.9,114.8 187,124.1 186.1,132.1 188.7,132.9 195.3,127.5 202.6,122.1 206.1,122.8 204.5,130.2 201,139.2 200.9,143.4 206.6,141.4 215.4,136.9 221.3,135.8 220.7,140.7 215.4,148.9 211.8,155.1 214.9,156.2 223.7,153.9 232.1,152.6 233.8,155.5 228.4,161.8 221.7,168.1 220.8,171.4 227.8,171.7 237.5,171.6 242.2,173.5 238.4,178 230,183 225,186.8 228.5,189 237.8,190.8 245.1,193.3 244.1,196.7 235.8,200" fill="none"/><polyline class="g-eng" points="242.4,200 233.2,202.9 229.9,205.6 235.2,209 244.1,213.2 248.4,217.4 244,220 234.3,221 227.3,222.2 228.4,225.5 235.6,231.2 241.6,237 240.2,240.2 231.8,239.9 222.7,238.6 219.6,240.2 223.8,246.1 229.7,253.8 230.9,258.8 224.8,258.5 215.6,255 209.5,253.6 210,257.9 214.2,266.5 216.5,273.9 213,275.1 205.2,270.6 197.9,265.9 195.2,267.1 196.8,274.9 198.6,284.2 196.8,288.1 191.1,284.2 184.3,277.1 180,274.2 178.9,279.4 179,289.2 177.5,295.9 173.5,294.3 168.3,286.3 164,279.6 161.4,280.8 159.4,289.2 156.8,297.9 153.5,299.3 150,292.4 147.1,283.2 144.4,279.9 141,285.2 136.8,294.1 132.6,298.4 130,294 129,284.3 127.8,277.3 124.5,278.4 118.8,285.6 113,291.6 109.8,290.2 110.1,281.8 111.4,272.7 109.8,269.6 103.9,273.8 96.2,279.7 91.2,280.9 91.5,274.8 95,265.6 96.4,259.5 92.1,260 83.5,264.2 76.1,266.5 74.9,263 79.4,255.2 84.1,247.9 82.9,245.2 75.1,246.8 65.8,248.6 61.9,246.8 65.8,241.1 72.9,234.3 75.8,230 70.6,228.9 60.8,229 54.1,227.5 55.7,223.5 63.7,218.3 70.4,214 69.2,211.4 60.8,209.4 52.1,206.8 50.7,203.5 57.6,200 66.8,197.1 70.1,194.4 64.8,191 55.9,186.8 51.6,182.6 56,180 65.7,179 72.7,177.8 71.6,174.5 64.4,168.8 58.4,163 59.8,159.8 68.2,160.1 77.3,161.4 80.4,159.8 76.2,153.9 70.3,146.2 69.1,141.2 75.2,141.5 84.4,145 90.5,146.4 90,142.1 85.8,133.5 83.5,126.1 87,124.9 94.8,129.4 102.1,134.1 104.8,132.9 103.2,125.1 101.4,115.8 103.2,111.9 108.9,115.8 115.7,122.9 120,125.8 121.1,120.6 121,110.8 122.5,104.1 126.5,105.7 131.7,113.7 136,120.4 138.6,119.2 140.6,110.8 143.2,102.1 146.5,100.7 150,107.6 152.9,116.8 155.6,120.1 159,114.8 163.2,105.9 167.4,101.6 170,106 171,115.7 172.2,122.7 175.5,121.6 181.2,114.4 187,108.4 190.2,109.8 189.9,118.2 188.6,127.3 190.2,130.4 196.1,126.2 203.8,120.3 208.8,119.1 208.5,125.2 205,134.4 203.6,140.5 207.9,140 216.5,135.8 223.9,133.5 225.1,137 220.6,144.8 215.9,152.1 217.1,154.8 224.9,153.2 234.2,151.4 238.1,153.2 234.2,158.9 227.1,165.7 224.2,170 229.4,171.1 239.2,171 245.9,172.5 244.3,176.5 236.3,181.7 229.6,186 230.8,188.6 239.2,190.6 247.9,193.2 249.3,196.5 242.4,200" fill="none"/><polyline class="g-eng" points="248.7,200 239.4,203.1 234,205.9 237.1,209.2 245.7,213.4 251.8,217.9 249.6,221.2 240.6,222.6 232.2,223.6 230.9,226.3 237,231.6 243.9,237.9 244.6,242.1 237.6,242.7 228,241.4 222.9,242.1 225.2,247 231.2,254.8 233.9,260.9 229.5,262.1 220.5,259.2 213.1,256.8 211.7,259.6 215.2,267.5 218.3,275.9 216.3,279 209.2,275.8 201.3,270.6 197.1,269.9 197.6,276.2 199.6,285.9 198.7,291.7 193.8,289.8 186.9,282.9 181.6,278.3 179.6,281.4 179.4,290.6 178.3,298.8 174.8,299.5 169.7,292.7 165,285 161.8,283.8 159.5,290.7 157,300 153.6,303.7 150,298.7 146.9,289.4 144.1,284 140.8,287.1 136.6,295.7 132.1,301.8 128.8,299.6 127.4,290.6 126.4,282.2 123.7,280.9 118.4,287 112.1,293.9 107.9,294.6 107.3,287.6 108.6,278 107.9,272.9 103,275.2 95.2,281.2 89.1,283.9 87.9,279.5 90.8,270.5 93.2,263.1 90.4,261.7 82.5,265.2 74.1,268.3 71,266.3 74.2,259.2 79.4,251.3 80.1,247.1 73.8,247.6 64.1,249.6 58.3,248.7 60.2,243.8 67.1,236.9 71.7,231.6 68.6,229.6 59.4,229.4 51.2,228.3 50.5,224.8 57.3,219.7 65,215 66.2,211.8 59.3,209.5 50,207 46.3,203.6 51.3,200 60.6,196.9 66,194.1 62.9,190.8 54.3,186.6 48.2,182.1 50.4,178.8 59.4,177.4 67.8,176.4 69.1,173.7 63,168.4 56.1,162.1 55.4,157.9 62.4,157.3 72,158.6 77.1,157.9 74.8,153 68.8,145.2 66.1,139.1 70.5,137.9 79.5,140.8 86.9,143.2 88.3,140.4 84.8,132.5 81.7,124.1 83.7,121 90.8,124.2 98.7,129.4 102.9,130.1 102.4,123.8 100.4,114.1 101.3,108.3 106.2,110.2 113.1,117.1 118.4,121.7 120.4,118.6 120.6,109.4 121.7,101.2 125.2,100.5 130.3,107.3 135,115 138.2,116.2 140.5,109.3 143,100 146.4,96.3 150,101.3 153.1,110.6 155.9,116 159.2,112.9 163.4,104.3 167.9,98.2 171.2,100.4 172.6,109.4 173.6,117.8 176.3,119.1 181.6,113 187.9,106.1 192.1,105.4 192.7,112.4 191.4,122 192.1,127.1 197,124.8 204.8,118.8 210.9,116.1 212.1,120.5 209.2,129.5 206.8,136.9 209.6,138.3 217.5,134.8 225.9,131.7 229,133.7 225.8,140.8 220.6,148.7 219.9,152.9 226.2,152.4 235.9,150.4 241.7,151.3 239.8,156.2 232.9,163.1 228.3,168.4 231.4,170.4 240.6,170.6 248.8,171.7 249.5,175.2 242.7,180.3 235,185 233.8,188.2 240.7,190.5 250,193 253.7,196.4 248.7,200" fill="none"/><polyline class="g-eng" points="254.6,200 245.9,203.3 238.9,206.2 239.6,209.4 247.1,213.7 254.4,218.4 254.5,222.2 246.9,224.2 237.7,225.2 234.2,227.4 238.5,232.2 245.6,238.6 248.3,243.8 243.1,245.4 233.6,244.4 226.8,244.3 227.1,248.2 232.4,255.6 236.3,262.7 233.7,265.4 225.5,263.4 217.2,260.5 214,261.8 216.3,268.7 219.7,277.5 219.1,282.4 213.1,280.7 204.9,275.6 199.5,273.3 198.7,277.9 200.4,287.2 200.3,294.6 196.2,294.8 189.6,288.8 183.6,283.1 180.6,284 179.9,292 179,301.1 176,304.1 171,299 166,290.9 162.3,287.6 159.7,292.5 157.1,301.7 153.8,307.4 150,304.6 146.7,295.9 143.8,288.9 140.6,289.6 136.3,297.1 131.6,304.4 127.8,304.5 125.8,296.9 124.8,287.7 122.6,284.2 117.8,288.5 111.4,295.6 106.2,298.3 104.6,293.1 105.6,283.6 105.7,276.8 101.8,277.1 94.4,282.4 87.3,286.3 84.6,283.7 86.6,275.5 89.5,267.2 88.2,264 81.3,266.3 72.5,269.7 67.6,269.1 69.3,263.1 74.4,254.9 76.7,249.5 72.1,248.7 62.8,250.4 55.4,250.3 55.2,246.2 61.2,239.6 66.9,233.6 66,230.6 58,229.9 48.9,229 45.9,226 51,221 59.1,216 62.4,212.3 57.5,209.7 48.3,207.1 42.6,203.8 45.4,200 54.1,196.7 61.1,193.8 60.4,190.6 52.9,186.3 45.6,181.6 45.5,177.8 53.1,175.8 62.3,174.8 65.8,172.6 61.5,167.8 54.4,161.4 51.7,156.2 56.9,154.6 66.4,155.6 73.2,155.7 72.9,151.8 67.6,144.4 63.7,137.3 66.3,134.6 74.5,136.6 82.8,139.5 86,138.2 83.7,131.3 80.3,122.5 80.9,117.6 86.9,119.3 95.1,124.4 100.5,126.7 101.3,122.1 99.6,112.8 99.7,105.4 103.8,105.2 110.4,111.2 116.4,116.9 119.4,116 120.1,108 121,98.9 124,95.9 129,101 134,109.1 137.7,112.4 140.3,107.5 142.9,98.3 146.2,92.6 150,95.4 153.3,104.1 156.2,111.1 159.4,110.4 163.7,102.9 168.4,95.6 172.2,95.5 174.2,103.1 175.2,112.3 177.4,115.8 182.2,111.5 188.6,104.4 193.8,101.7 195.4,106.9 194.4,116.4 194.3,123.2 198.2,122.9 205.6,117.6 212.7,113.7 215.4,116.3 213.4,124.5 210.5,132.8 211.8,136 218.7,133.7 227.5,130.3 232.4,130.9 230.7,136.9 225.6,145.1 223.3,150.5 227.9,151.3 237.2,149.6 244.6,149.7 244.8,153.8 238.8,160.4 233.1,166.4 234,169.4 242,170.1 251.1,171 254.1,174 249,179 240.9,184 237.6,187.7 242.5,190.3 251.7,192.9 257.4,196.2 254.6,200" fill="none"/><polyline class="g-eng" points="259.8,200 252.3,203.6 244.4,206.6 242.8,209.8 248.8,213.9 256.5,218.8 258.7,223.1 252.9,225.7 243.7,226.9 238.3,228.7 240.5,232.9 247.2,239.3 251.2,245.1 248,247.8 239.3,247.5 231.3,247 229.6,249.7 233.7,256.5 238.2,264.1 237.4,268.2 230.4,267.4 221.6,264.5 216.8,264.5 217.6,270 220.9,278.8 221.4,285.1 216.6,285.3 208.7,280.8 202.2,277.4 200.1,280.2 201.1,288.6 201.5,296.9 198.4,299.2 192.2,294.7 185.7,288.5 181.8,287.4 180.4,293.7 179.5,302.9 176.9,307.9 172.3,304.8 167.1,297.1 162.9,292.1 160,294.8 157.2,303.3 153.9,310.3 150,309.8 146.4,302.3 143.4,294.4 140.2,292.8 136.1,298.8 131.2,306.5 126.9,308.7 124.3,302.9 123.1,293.7 121.3,288.3 117.1,290.5 110.7,297.2 104.9,301.2 102.2,298 102.5,289.3 103,281.3 100.3,279.6 93.5,283.7 85.9,288.2 81.8,287.4 82.6,280.4 85.5,271.6 85.5,266.8 80,267.6 71.2,270.9 64.9,271.4 64.7,266.6 69.2,258.7 72.6,252.2 69.8,250.1 61.4,251.1 53.1,251.5 50.8,248.4 55.3,242.2 61.5,235.7 62.6,231.8 56.3,230.4 47.1,229.5 42.1,226.9 45.2,222.3 52.9,217.1 57.9,212.9 55.2,210 46.7,207.2 39.7,203.9 40.2,200 47.7,196.4 55.6,193.4 57.2,190.2 51.2,186.1 43.5,181.2 41.3,176.9 47.1,174.3 56.3,173.1 61.7,171.3 59.5,167.1 52.8,160.7 48.8,154.9 52,152.2 60.7,152.5 68.7,153 70.4,150.3 66.3,143.5 61.8,135.9 62.6,131.8 69.6,132.6 78.4,135.5 83.2,135.5 82.4,130 79.1,121.2 78.6,114.9 83.4,114.7 91.3,119.2 97.8,122.6 99.9,119.8 98.9,111.4 98.5,103.1 101.6,100.8 107.8,105.3 114.3,111.5 118.2,112.6 119.6,106.3 120.5,97.1 123.1,92.1 127.7,95.2 132.9,102.9 137.1,107.9 140,105.2 142.8,96.7 146.1,89.7 150,90.2 153.6,97.7 156.6,105.6 159.8,107.2 163.9,101.2 168.8,93.5 173.1,91.3 175.7,97.1 176.9,106.3 178.7,111.7 182.9,109.5 189.3,102.8 195.1,98.8 197.8,102 197.5,110.7 197,118.7 199.7,120.4 206.5,116.3 214.1,111.8 218.2,112.6 217.4,119.6 214.5,128.4 214.5,133.2 220,132.4 228.8,129.1 235.1,128.6 235.3,133.4 230.8,141.3 227.4,147.8 230.2,149.9 238.6,148.9 246.9,148.5 249.2,151.6 244.7,157.8 238.5,164.3 237.4,168.2 243.7,169.6 252.9,170.5 257.9,173.1 254.8,177.7 247.1,182.9 242.1,187.1 244.8,190 253.3,192.8 260.3,196.1 259.8,200" fill="none"/><polyline class="g-eng" points="264.3,200 258.5,203.8 250.3,207 246.8,210.2 250.8,214.2 258.2,219.1 262.1,223.8 258.4,227 249.8,228.6 243,230.2 243.1,233.9 248.7,239.9 253.6,246.1 252.4,249.9 244.8,250.4 236.3,249.8 232.7,251.7 235.3,257.5 239.8,265.2 240.4,270.6 234.8,271.2 226.3,268.7 220.1,267.7 219.4,271.8 222,280 223.3,287.3 219.8,289.3 212.4,285.9 205.3,282 201.9,283 202,290.1 202.5,298.8 200.2,303 194.6,300.2 188,294.2 183.3,291.5 181.1,295.8 180,304.6 177.7,311 173.4,310.1 168.2,303.4 163.7,297.3 160.3,297.9 157.3,305 153.9,312.7 150,314.3 146.2,308.5 143,300.3 139.8,296.8 135.8,300.8 130.9,308.2 126.2,312.1 123,308.4 121.4,299.8 119.8,293 116.1,293.1 110.1,298.7 103.9,303.6 100.1,302.4 99.6,294.8 100.2,286.3 98.3,282.7 92.5,285.3 84.8,289.8 79.4,290.4 78.8,284.8 81.3,276.3 82.3,270.1 78.2,269.4 70,272 62.7,273.3 60.7,269.8 64.1,262.4 68,255.3 67,251.9 59.9,252 51.2,252.5 47,250.2 49.8,244.6 55.8,238 58.5,233.3 54.2,231.1 45.4,230 39,227.7 39.9,223.4 46.6,218.2 52.7,213.7 52.1,210.3 45,207.3 37.3,203.9 35.7,200 41.5,196.2 49.7,193 53.2,189.8 49.2,185.8 41.8,180.9 37.9,176.2 41.6,173 50.2,171.4 57,169.8 56.9,166.1 51.3,160.1 46.4,153.9 47.6,150.1 55.2,149.6 63.7,150.2 67.3,148.3 64.7,142.5 60.2,134.8 59.6,129.4 65.2,128.8 73.7,131.3 79.9,132.3 80.6,128.2 78,120 76.7,112.7 80.2,110.7 87.6,114.1 94.7,118 98.1,117 98,109.9 97.5,101.2 99.8,97 105.4,99.8 112,105.8 116.7,108.5 118.9,104.2 120,95.4 122.3,89 126.6,89.9 131.8,96.6 136.3,102.7 139.7,102.1 142.7,95 146.1,87.3 150,85.7 153.8,91.5 157,99.7 160.2,103.2 164.2,99.2 169.1,91.8 173.8,87.9 177,91.6 178.6,100.2 180.2,107 183.9,106.9 189.9,101.3 196.1,96.4 199.9,97.6 200.4,105.2 199.8,113.7 201.7,117.3 207.5,114.7 215.2,110.2 220.6,109.6 221.2,115.2 218.7,123.7 217.7,129.9 221.8,130.6 230,128 237.3,126.7 239.3,130.2 235.9,137.6 232,144.7 233,148.1 240.1,148 248.8,147.5 253,149.8 250.2,155.4 244.2,162 241.5,166.7 245.8,168.9 254.6,170 261,172.3 260.1,176.6 253.4,181.8 247.3,186.3 247.9,189.7 255,192.7 262.7,196.1 264.3,200" fill="none"/><polyline class="g-eng" points="268,200 264.2,204 256.5,207.4 251.5,210.7 253.4,214.5 260,219.4 264.9,224.4 263.2,228.2 255.8,230.3 248.3,231.9 246.3,235.1 250.4,240.6 255.6,247 256,251.7 250,253.2 241.6,252.9 236.5,254 237.3,258.9 241.2,266.3 242.8,272.5 238.9,274.6 230.9,272.9 223.9,271.4 221.6,274.1 223.2,281.3 224.8,289.1 222.4,292.7 216,290.8 208.6,286.9 204,286.5 203.1,292 203.4,300.4 201.7,306.1 196.9,305.2 190.4,300 185,296.2 182,298.6 180.5,306.3 178.3,313.5 174.4,314.7 169.3,309.5 164.5,303 160.7,301.6 157.5,307 154,314.6 150,318 146,314.2 142.6,306.5 139.3,301.5 135.5,303.4 130.6,310 125.6,314.9 121.8,313.2 119.7,305.8 118.1,298.3 114.9,296.3 109.4,300.4 103,305.6 98.3,306 96.8,300 97.1,291.6 96,286.5 91.1,287.3 83.7,291.2 77.5,292.8 75.4,288.9 77.1,280.9 78.6,273.9 75.9,271.6 68.7,273.2 60.9,274.8 57.3,272.4 59.2,266 63.1,258.6 63.5,254 58,253.1 49.6,253.4 43.9,251.7 44.8,246.9 50,240.4 53.8,235 51.4,232 43.7,230.5 36.5,228.3 35.3,224.4 40.5,219.3 47,214.5 48.4,210.7 43,207.5 35.4,204 32,200 35.8,196 43.5,192.6 48.5,189.3 46.6,185.5 40,180.6 35.1,175.6 36.8,171.8 44.2,169.7 51.7,168.1 53.7,164.9 49.6,159.4 44.4,153 44,148.3 50,146.8 58.4,147.1 63.5,146 62.7,141.1 58.8,133.7 57.2,127.5 61.1,125.4 69.1,127.1 76.1,128.6 78.4,125.9 76.8,118.7 75.2,110.9 77.6,107.3 84,109.2 91.4,113.1 96,113.5 96.9,108 96.6,99.6 98.3,93.9 103.1,94.8 109.6,100 115,103.8 118,101.4 119.5,93.7 121.7,86.5 125.6,85.3 130.7,90.5 135.5,97 139.3,98.4 142.5,93 146,85.4 150,82 154,85.8 157.4,93.5 160.7,98.5 164.5,96.6 169.4,90 174.4,85.1 178.2,86.8 180.3,94.2 181.9,101.7 185.1,103.7 190.6,99.6 197,94.4 201.7,94 203.2,100 202.9,108.4 204,113.5 208.9,112.7 216.3,108.8 222.5,107.2 224.6,111.1 222.9,119.1 221.4,126.1 224.1,128.4 231.3,126.8 239.1,125.2 242.7,127.6 240.8,134 236.9,141.4 236.5,146 242,146.9 250.4,146.6 256.1,148.3 255.2,153.1 250,159.6 246.2,165 248.6,168 256.3,169.5 263.5,171.7 264.7,175.6 259.5,180.7 253,185.5 251.6,189.3 257,192.5 264.6,196 268,200" fill="none"/><polyline class="g-eng" points="271.1,200 269.3,204.2 262.6,207.9 256.8,211.2 256.7,215 261.9,219.7 267.2,224.9 267.3,229.3 261.4,231.9 253.9,233.7 250.3,236.5 252.6,241.5 257.4,247.8 259,253.2 254.7,255.7 246.9,255.9 240.7,256.7 239.8,260.6 242.7,267.4 244.9,274.1 242.3,277.5 235.4,276.9 228,275.4 224.3,276.9 224.7,282.9 226.1,290.7 224.7,295.6 219.2,295.3 212,292 206.6,290.5 204.5,294.4 204.3,302.1 203,308.6 198.8,309.6 192.7,305.6 186.9,301.4 183.1,302 181,308.2 178.8,315.6 175.2,318.5 170.3,315.1 165.3,308.9 161.2,306.1 157.7,309.5 154.1,316.5 150,321.1 145.8,319.3 142.1,312.6 138.8,306.8 135,306.7 130.3,311.9 125.1,317.2 120.7,317.3 118.1,311.4 116.3,303.9 113.5,300.3 108.5,302.6 102.2,307.4 96.8,309 94.3,304.7 94.1,296.9 93.3,290.7 89.4,289.8 82.6,292.7 75.9,294.9 72.5,292.3 73.1,285.4 74.6,278 73.1,274.3 67.1,274.7 59.3,276.1 54.4,274.7 54.7,269.2 58,262 59.5,256.6 55.6,254.5 47.9,254.3 41.4,253 40.4,248.8 44.4,242.7 48.6,236.9 48,233.1 41.8,231 34.4,228.8 31.5,225.2 34.9,220.3 41.1,215.3 43.9,211.2 40.5,207.7 33.5,204.1 28.9,200 30.7,195.8 37.4,192.1 43.2,188.8 43.3,185 38.1,180.3 32.8,175.1 32.7,170.7 38.6,168.1 46.1,166.3 49.7,163.5 47.4,158.5 42.6,152.2 41,146.8 45.3,144.3 53.1,144.1 59.3,143.3 60.2,139.4 57.3,132.6 55.1,125.9 57.7,122.5 64.6,123.1 72,124.6 75.7,123.1 75.3,117.1 73.9,109.3 75.3,104.4 80.8,104.7 88,108 93.4,109.5 95.5,105.6 95.7,97.9 97,91.4 101.2,90.4 107.3,94.4 113.1,98.6 116.9,98 119,91.8 121.2,84.4 124.8,81.5 129.7,84.9 134.7,91.1 138.8,93.9 142.3,90.5 145.9,83.5 150,78.9 154.2,80.7 157.9,87.4 161.2,93.2 165,93.3 169.7,88.1 174.9,82.8 179.3,82.7 181.9,88.6 183.7,96.1 186.5,99.7 191.5,97.4 197.8,92.6 203.2,91 205.7,95.3 205.9,103.1 206.7,109.3 210.6,110.2 217.4,107.3 224.1,105.1 227.5,107.7 226.9,114.6 225.4,122 226.9,125.7 232.9,125.3 240.7,123.9 245.6,125.3 245.3,130.8 242,138 240.5,143.4 244.4,145.5 252.1,145.7 258.6,147 259.6,151.2 255.6,157.3 251.4,163.1 252,166.9 258.2,169 265.6,171.2 268.5,174.8 265.1,179.7 258.9,184.7 256.1,188.8 259.5,192.3 266.5,195.9 271.1,200" fill="none"/><polyline class="g-eng" points="273.7,200 273.7,204.3 268.4,208.3 262.4,211.8 260.7,215.6 264.2,220.1 269.3,225.4 270.8,230.1 266.5,233.4 259.5,235.6 254.8,238.2 255.4,242.6 259.2,248.6 261.5,254.4 258.8,257.9 252,258.9 245.4,259.6 242.9,262.7 244.6,268.7 246.7,275.5 245.3,279.9 239.5,280.6 232.3,279.4 227.5,280.2 226.5,285 227.4,292.3 226.6,298 222.1,299.2 215.4,296.9 209.4,295 206.2,297.4 205.3,304 204,310.8 200.5,313.4 194.8,310.9 188.9,306.8 184.5,306.1 181.7,310.7 179.3,317.7 175.9,321.8 171.2,320.1 166.1,314.9 161.7,311.1 157.9,312.8 154.1,318.6 150,323.7 145.7,323.7 141.7,318.4 138.2,312.4 134.4,310.7 129.9,314.2 124.6,319.3 119.9,320.8 116.6,316.5 114.4,309.5 111.8,304.8 107.4,305.4 101.4,309.2 95.6,311.5 92.1,308.8 91.1,302 90.4,295.4 87.3,292.9 81.3,294.6 74.5,296.7 70.1,295.3 69.4,289.5 70.6,282.3 69.8,277.5 65,276.5 57.7,277.4 52,276.6 50.8,272.1 53.1,265.4 55,259.4 52.6,256.2 46,255.3 39.2,254 36.6,250.5 39.1,244.8 43.2,238.9 43.9,234.5 39.3,231.7 32.3,229.3 28.2,225.9 29.9,221.2 35.1,216.1 38.9,211.7 37.2,207.9 31.4,204.1 26.3,200 26.3,195.7 31.6,191.7 37.6,188.2 39.3,184.4 35.8,179.9 30.7,174.6 29.2,169.9 33.5,166.6 40.5,164.4 45.2,161.8 44.6,157.4 40.8,151.4 38.5,145.6 41.2,142.1 48,141.1 54.6,140.4 57.1,137.3 55.4,131.3 53.3,124.5 54.7,120.1 60.5,119.4 67.7,120.6 72.5,119.8 73.5,115 72.6,107.7 73.4,102 77.9,100.8 84.6,103.1 90.6,105 93.8,102.6 94.7,96 96,89.2 99.5,86.6 105.2,89.1 111.1,93.2 115.5,93.9 118.3,89.3 120.7,82.3 124.1,78.2 128.8,79.9 133.9,85.1 138.3,88.9 142.1,87.2 145.9,81.4 150,76.3 154.3,76.3 158.3,81.6 161.8,87.6 165.6,89.3 170.1,85.8 175.4,80.7 180.1,79.2 183.4,83.5 185.6,90.5 188.2,95.2 192.6,94.6 198.6,90.8 204.4,88.5 207.9,91.2 208.9,98 209.6,104.6 212.7,107.1 218.7,105.4 225.5,103.3 229.9,104.7 230.6,110.5 229.4,117.7 230.2,122.5 235,123.5 242.3,122.6 248,123.4 249.2,127.9 246.9,134.6 245,140.6 247.4,143.8 254,144.7 260.8,146 263.4,149.5 260.9,155.2 256.8,161.1 256.1,165.5 260.7,168.3 267.7,170.7 271.8,174.1 270.1,178.8 264.9,183.9 261.1,188.3 262.8,192.1 268.6,195.9 273.7,200" fill="none"/><polyline class="g-eng" points="276.1,200 277.4,204.4 273.7,208.6 268.1,212.4 265.3,216.2 267.2,220.7 271.5,225.8 273.7,230.8 271.1,234.7 265,237.4 259.8,240 258.8,243.9 261.4,249.6 263.8,255.5 262.3,259.7 256.7,261.6 250.2,262.6 246.6,265.1 246.8,270.3 248.4,276.9 247.7,282 243.2,283.9 236.4,283.5 231,283.9 228.8,287.5 228.9,294 228.2,300.1 224.6,302.7 218.5,301.5 212.3,299.8 208.3,301 206.5,306.3 205,312.8 201.9,316.5 196.7,315.6 190.9,312.2 186,310.7 182.6,313.8 179.9,319.8 176.5,324.5 172,324.5 166.9,320.5 162.3,316.6 158.2,316.7 154.2,321.1 150,326.1 145.6,327.4 141.4,323.7 137.6,318.1 133.8,315.3 129.3,317.2 124.2,321.5 119.2,323.7 115.3,321.1 112.6,315 110,309.8 106.1,308.8 100.4,311.4 94.5,313.8 90.3,312.3 88.4,306.7 87.4,300.2 84.9,296.6 79.7,296.8 73.1,298.4 68,297.7 66.1,293.2 66.5,286.4 66.1,281 62.5,278.8 56,278.9 49.9,278.2 47.3,274.6 48.5,268.5 50.2,262.3 49,258.3 43.7,256.5 37.2,255 33.5,251.9 34.4,246.7 37.8,240.9 39.3,236 36.2,232.6 30.2,229.9 25.5,226.5 25.5,222 29.5,216.9 33.4,212.3 33.3,208.2 28.9,204.2 23.9,200 22.6,195.6 26.3,191.4 31.9,187.6 34.7,183.8 32.8,179.3 28.5,174.2 26.3,169.2 28.9,165.3 35,162.6 40.2,160 41.2,156.1 38.6,150.4 36.2,144.5 37.7,140.3 43.3,138.4 49.8,137.4 53.4,134.9 53.2,129.7 51.6,123.1 52.3,118 56.8,116.1 63.6,116.5 69,116.1 71.2,112.5 71.1,106 71.8,99.9 75.4,97.3 81.5,98.5 87.7,100.2 91.7,99 93.5,93.7 95,87.2 98.1,83.5 103.3,84.4 109.1,87.8 114,89.3 117.4,86.2 120.1,80.2 123.5,75.5 128,75.5 133.1,79.5 137.7,83.4 141.8,83.3 145.8,78.9 150,73.9 154.4,72.6 158.6,76.3 162.4,81.9 166.2,84.7 170.7,82.8 175.8,78.5 180.8,76.3 184.7,78.9 187.4,85 190,90.2 193.9,91.2 199.6,88.6 205.5,86.2 209.7,87.7 211.6,93.3 212.6,99.8 215.1,103.4 220.3,103.2 226.9,101.6 232,102.3 233.9,106.8 233.5,113.6 233.9,119 237.5,121.2 244,121.1 250.1,121.8 252.7,125.4 251.5,131.5 249.8,137.7 251,141.7 256.3,143.5 262.8,145 266.5,148.1 265.6,153.3 262.2,159.1 260.7,164 263.8,167.4 269.8,170.1 274.5,173.5 274.5,178 270.5,183.1 266.6,187.7 266.7,191.8 271.1,195.8 276.1,200" fill="none"/><polyline class="g-eng" points="278.5,200 280.5,204.6 278.4,209 273.7,213 270.3,216.9 270.7,221.3 273.9,226.3 276.3,231.5 275,235.8 270.1,239 265,241.8 262.7,245.6 264,250.7 265.9,256.5 265.3,261.3 261,264.1 255,265.6 250.6,267.9 249.5,272.3 250.3,278.4 249.9,283.8 246.3,286.7 240.4,287.3 234.7,287.7 231.5,290.6 230.6,296 229.7,302 226.7,305.6 221.3,305.8 215.3,304.5 210.7,305.1 208,309.1 206.1,315 203.1,319.3 198.4,319.8 192.8,317.5 187.6,315.7 183.7,317.4 180.5,322.3 177,327 172.6,328.3 167.7,325.7 162.8,322.1 158.5,321.1 154.3,324.1 150,328.5 145.4,330.5 141,328.4 137,323.7 133.1,320.3 128.7,320.7 123.7,323.9 118.5,326.3 114.2,325 111,320.1 108.2,315 104.4,312.7 99.3,314 93.5,315.9 88.7,315.3 85.9,311 84.4,305 82.1,300.6 77.7,299.5 71.6,300.3 66.2,299.9 63.3,296.3 62.7,290.4 62.3,284.7 59.4,281.5 54,280.6 48,279.7 44.4,276.7 44.2,271.3 45.5,265.3 44.9,260.7 40.9,258 35,256.1 30.7,253.1 30.2,248.4 32.5,242.8 34.3,237.6 32.6,233.7 27.7,230.5 23,227 21.7,222.6 24.3,217.7 27.9,212.8 28.9,208.5 25.9,204.3 21.5,200 19.5,195.4 21.6,191 26.3,187 29.7,183.1 29.3,178.7 26.1,173.7 23.7,168.5 25,164.2 29.9,161 35,158.2 37.3,154.4 36,149.3 34.1,143.5 34.7,138.7 39,135.9 45,134.4 49.4,132.1 50.5,127.7 49.7,121.6 50.1,116.2 53.7,113.3 59.6,112.7 65.3,112.3 68.5,109.4 69.4,104 70.3,98 73.3,94.4 78.7,94.2 84.7,95.5 89.3,94.9 92,90.9 93.9,85 96.9,80.7 101.6,80.2 107.2,82.5 112.4,84.3 116.3,82.6 119.5,77.7 123,73 127.4,71.7 132.3,74.3 137.2,77.9 141.5,78.9 145.7,75.9 150,71.5 154.6,69.5 159,71.6 163,76.3 166.9,79.7 171.3,79.3 176.3,76.1 181.5,73.7 185.8,75 189,79.9 191.8,85 195.6,87.3 200.7,86 206.5,84.1 211.3,84.7 214.1,89 215.6,95 217.9,99.4 222.3,100.5 228.4,99.7 233.8,100.1 236.7,103.7 237.3,109.6 237.7,115.3 240.6,118.5 246,119.4 252,120.3 255.6,123.3 255.8,128.7 254.5,134.7 255.1,139.3 259.1,142 265,143.9 269.3,146.9 269.8,151.6 267.5,157.2 265.7,162.4 267.4,166.3 272.3,169.5 277,173 278.3,177.4 275.7,182.3 272.1,187.2 271.1,191.5 274.1,195.7 278.5,200" fill="none"/><polyline class="g-eng" points="281.1,200 283.4,204.7 282.5,209.3 279,213.6 275.6,217.7 274.9,222 276.8,226.9 278.8,232.1 278.3,236.8 274.7,240.5 270.1,243.7 267.2,247.3 267.1,252.1 268.2,257.7 267.9,262.7 264.7,266.2 259.5,268.4 255,270.8 252.8,274.7 252.5,280.1 251.9,285.5 249.1,289.2 244,290.8 238.5,291.7 234.6,294 232.7,298.5 231.3,304 228.5,308.1 223.8,309.5 218.2,309.1 213.2,309.5 209.8,312.5 207.2,317.4 204.2,321.8 199.9,323.4 194.5,322.3 189.3,320.9 184.9,321.7 181.2,325.3 177.5,329.5 173.2,331.6 168.3,330.3 163.4,327.5 158.8,326.1 154.5,327.7 150,331.1 145.3,333.4 140.7,332.5 136.4,329 132.3,325.6 128,324.9 123.1,326.8 117.9,328.8 113.2,328.3 109.5,324.7 106.3,320.1 102.7,317.2 97.9,317.1 92.3,318.2 87.3,317.9 83.8,314.7 81.6,309.5 79.2,305 75.3,302.8 69.9,302.5 64.5,301.9 60.8,299.1 59.2,294 58.3,288.5 56,284.6 51.5,282.7 46,281.3 41.9,278.5 40.5,273.8 40.9,268.2 40.5,263.2 37.5,259.8 32.6,257.2 28.2,254.2 26.6,249.9 27.7,244.5 29.1,239.3 28.3,234.9 24.7,231.2 20.5,227.5 18.4,223.2 19.7,218.3 22.5,213.4 23.9,208.8 22.3,204.5 18.9,200 16.6,195.3 17.5,190.7 21,186.4 24.4,182.3 25.1,178 23.2,173.1 21.2,167.9 21.7,163.2 25.3,159.5 29.9,156.3 32.8,152.7 32.9,147.9 31.8,142.3 32.1,137.3 35.3,133.8 40.5,131.6 45,129.2 47.2,125.3 47.5,119.9 48.1,114.5 50.9,110.8 56,109.2 61.5,108.3 65.4,106 67.3,101.5 68.7,96 71.5,91.9 76.2,90.5 81.8,90.9 86.8,90.5 90.2,87.5 92.8,82.6 95.8,78.2 100.1,76.6 105.5,77.7 110.7,79.1 115.1,78.3 118.8,74.7 122.5,70.5 126.8,68.4 131.7,69.7 136.6,72.5 141.2,73.9 145.5,72.3 150,68.9 154.7,66.6 159.3,67.5 163.6,71 167.7,74.4 172,75.1 176.9,73.2 182.1,71.2 186.8,71.7 190.5,75.3 193.7,79.9 197.3,82.8 202.1,82.9 207.7,81.8 212.7,82.1 216.2,85.3 218.4,90.5 220.8,95 224.7,97.2 230.1,97.5 235.5,98.1 239.2,100.9 240.8,106 241.7,111.5 244,115.4 248.5,117.3 254,118.7 258.1,121.5 259.5,126.2 259.1,131.8 259.5,136.8 262.5,140.2 267.4,142.8 271.8,145.8 273.4,150.1 272.3,155.5 270.9,160.7 271.7,165.1 275.3,168.8 279.5,172.5 281.6,176.8 280.3,181.7 277.5,186.6 276.1,191.2 277.7,195.5 281.1,200" fill="none"/><polyline class="g-eng" points="284.1,200 286.1,204.8 286,209.5 283.7,214.1 280.9,218.4 279.5,222.8 280.2,227.7 281.4,232.8 281.3,237.6 278.8,241.8 275,245.5 271.9,249.3 270.7,253.8 270.9,258.9 270.4,264 267.9,268.1 263.7,271 259.4,273.8 256.5,277.4 255.1,282.1 254,287.2 251.5,291.4 247.2,293.9 242.2,295.5 238,297.7 235.1,301.5 233,306.2 230.2,310.4 226,312.7 220.9,313.4 215.9,314.1 211.9,316.3 208.6,320.2 205.3,324.2 201.1,326.5 196.1,326.6 190.9,325.9 186.2,326.4 182.1,328.8 178.1,332.2 173.7,334.5 168.9,334.4 163.9,332.6 159.2,331.3 154.6,331.9 150,334.1 145.2,336.1 140.5,336 135.9,333.7 131.6,330.9 127.2,329.5 122.3,330.2 117.2,331.4 112.4,331.3 108.2,328.8 104.5,325 100.7,321.9 96.2,320.7 91.1,320.9 86,320.4 81.9,317.9 79,313.7 76.2,309.4 72.6,306.5 67.9,305.1 62.8,304 58.6,301.5 56.1,297.2 54.5,292.2 52.3,288 48.5,285.1 43.8,283 39.6,280.2 37.3,276 36.6,270.9 35.9,265.9 33.7,261.9 29.8,258.6 25.8,255.3 23.5,251.1 23.4,246.1 24.1,240.9 23.6,236.2 21.2,232.1 17.8,228.1 15.5,223.7 15.6,218.9 17.4,213.9 18.7,209.2 18.1,204.6 15.9,200 13.9,195.2 14,190.5 16.3,185.9 19.1,181.6 20.5,177.2 19.8,172.3 18.6,167.2 18.7,162.4 21.2,158.2 25,154.5 28.1,150.7 29.3,146.2 29.1,141.1 29.6,136 32.1,131.9 36.3,129 40.6,126.2 43.5,122.6 44.9,117.9 46,112.8 48.5,108.6 52.8,106.1 57.8,104.5 62,102.3 64.9,98.5 67,93.8 69.8,89.6 74,87.3 79.1,86.6 84.1,85.9 88.1,83.7 91.4,79.8 94.7,75.8 98.9,73.5 103.9,73.4 109.1,74.1 113.8,73.6 117.9,71.2 121.9,67.8 126.3,65.5 131.1,65.6 136.1,67.4 140.8,68.7 145.4,68.1 150,65.9 154.8,63.9 159.5,64 164.1,66.3 168.4,69.1 172.8,70.5 177.7,69.8 182.8,68.6 187.6,68.7 191.8,71.2 195.5,75 199.3,78.1 203.8,79.3 208.9,79.1 214,79.6 218.1,82.1 221,86.3 223.8,90.6 227.4,93.5 232.1,94.9 237.2,96 241.4,98.5 243.9,102.8 245.5,107.8 247.7,112 251.5,114.9 256.2,117 260.4,119.8 262.7,124 263.4,129.1 264.1,134.1 266.3,138.1 270.2,141.4 274.2,144.7 276.5,148.9 276.6,153.9 275.9,159.1 276.4,163.8 278.8,167.9 282.2,171.9 284.5,176.3 284.4,181.1 282.6,186.1 281.3,190.8 281.9,195.4 284.1,200" fill="none"/><polyline class="g-eng" points="287.7,200 288.9,204.9 289.1,209.7 287.9,214.5 285.9,219.1 284.4,223.7 284.1,228.5 284.4,233.5 284.1,238.4 282.3,243 279.5,247.1 276.7,251.2 274.9,255.6 273.9,260.4 272.9,265.3 270.7,269.7 267.4,273.4 263.6,276.6 260.4,280.2 258.2,284.5 256.2,289.2 253.7,293.3 250,296.5 245.6,299 241.4,301.5 237.9,304.8 235,308.8 231.9,312.7 227.9,315.5 223.2,317.2 218.4,318.6 214.1,320.6 210.3,323.6 206.5,326.9 202.3,329.3 197.5,330.4 192.5,330.7 187.6,331.2 183.1,332.9 178.8,335.3 174.2,337.3 169.4,337.9 164.4,337.3 159.5,336.4 154.8,336.5 150,337.7 145.1,338.9 140.3,339.1 135.5,337.9 130.9,335.9 126.3,334.4 121.5,334.1 116.5,334.4 111.6,334.1 107,332.3 102.9,329.5 98.8,326.7 94.4,324.9 89.6,323.9 84.7,322.9 80.3,320.7 76.6,317.4 73.4,313.6 69.8,310.4 65.5,308.2 60.8,306.2 56.7,303.7 53.5,300 51,295.6 48.5,291.4 45.2,287.9 41.2,285 37.3,281.9 34.5,277.9 32.8,273.2 31.4,268.4 29.4,264.1 26.4,260.3 23.1,256.5 20.7,252.3 19.6,247.5 19.3,242.5 18.8,237.6 17.1,233.1 14.7,228.8 12.7,224.2 12.1,219.4 12.7,214.4 13.6,209.5 13.5,204.8 12.3,200 11.1,195.1 10.9,190.3 12.1,185.5 14.1,180.9 15.6,176.3 15.9,171.5 15.6,166.5 15.9,161.6 17.7,157 20.5,152.9 23.3,148.8 25.1,144.4 26.1,139.6 27.1,134.7 29.3,130.3 32.6,126.6 36.4,123.4 39.6,119.8 41.8,115.5 43.8,110.8 46.3,106.7 50,103.5 54.4,101 58.6,98.5 62.1,95.2 65,91.2 68.1,87.3 72.1,84.5 76.8,82.8 81.6,81.4 85.9,79.4 89.7,76.4 93.5,73.1 97.7,70.7 102.5,69.6 107.5,69.3 112.4,68.8 116.9,67.1 121.2,64.7 125.8,62.7 130.6,62.1 135.6,62.7 140.5,63.6 145.2,63.5 150,62.3 154.9,61.1 159.7,60.9 164.5,62.1 169.1,64.1 173.7,65.6 178.5,65.9 183.5,65.6 188.4,65.9 193,67.7 197.1,70.5 201.2,73.3 205.6,75.1 210.4,76.1 215.3,77.1 219.7,79.3 223.4,82.6 226.6,86.4 230.2,89.6 234.5,91.8 239.2,93.8 243.3,96.3 246.5,100 249,104.4 251.5,108.6 254.8,112.1 258.8,115 262.7,118.1 265.5,122.1 267.2,126.8 268.6,131.6 270.6,135.9 273.6,139.7 276.9,143.5 279.3,147.7 280.4,152.5 280.7,157.5 281.2,162.4 282.9,166.9 285.3,171.2 287.3,175.8 287.9,180.6 287.3,185.6 286.4,190.5 286.5,195.2 287.7,200" fill="none"/><circle cx="150" cy="200" r="40" fill="#efe9da"/><polyline class="g-eng" points="181.2,200 182.5,201 182.9,202.1 182.5,203.1 181.1,203.9 179.4,204.7 177.7,205.3 176.5,205.9 176.2,206.7 176.8,207.8 177.9,209.1 179.2,210.5 180.1,211.9 180.3,213.1 179.6,213.9 178.1,214.3 176.2,214.4 174.4,214.4 173,214.6 172.4,215.2 172.4,216.3 173,217.9 173.7,219.6 174.2,221.3 174,222.6 173.2,223.2 171.7,223.1 169.9,222.6 168.2,222 166.8,221.6 165.9,221.9 165.5,222.8 165.5,224.5 165.6,226.4 165.5,228.1 164.9,229.3 164,229.7 162.7,229.2 161.2,228.2 159.7,227 158.5,226.1 157.5,225.9 156.8,226.6 156.3,228.1 155.7,229.9 155,231.6 154.1,232.6 153.1,232.7 152,231.9 151,230.5 150,228.8 149.1,227.5 148.3,226.9 147.4,227.3 146.4,228.4 145.3,229.9 144,231.3 142.8,232 141.8,231.9 141,230.9 140.5,229.2 140.2,227.3 139.8,225.7 139.3,224.8 138.4,224.7 137.1,225.4 135.5,226.3 133.9,227.3 132.5,227.6 131.5,227.3 131,226.1 131.1,224.4 131.4,222.5 131.6,220.8 131.5,219.7 130.7,219.3 129.4,219.4 127.6,219.8 125.7,220.1 124.2,220 123.3,219.4 123.2,218.2 123.8,216.6 124.7,215 125.6,213.4 125.9,212.3 125.4,211.6 124.2,211.2 122.4,210.9 120.5,210.6 119,210.1 118.3,209.2 118.5,208.1 119.5,206.8 121,205.5 122.3,204.4 123.1,203.4 123,202.6 122.1,201.8 120.5,200.9 118.8,200 117.5,199 117.1,197.9 117.5,196.9 118.9,196.1 120.6,195.3 122.3,194.7 123.5,194.1 123.8,193.3 123.2,192.2 122.1,190.9 120.8,189.5 119.9,188.1 119.7,186.9 120.4,186.1 121.9,185.7 123.8,185.6 125.6,185.6 127,185.4 127.6,184.8 127.6,183.7 127,182.1 126.3,180.4 125.8,178.7 126,177.4 126.8,176.8 128.3,176.9 130.1,177.4 131.8,178 133.2,178.4 134.1,178.1 134.5,177.2 134.5,175.5 134.4,173.6 134.5,171.9 135.1,170.7 136,170.3 137.3,170.8 138.8,171.8 140.3,173 141.5,173.9 142.5,174.1 143.2,173.4 143.7,171.9 144.3,170.1 145,168.4 145.9,167.4 146.9,167.3 148,168.1 149,169.5 150,171.2 150.9,172.5 151.7,173.1 152.6,172.7 153.6,171.6 154.7,170.1 156,168.7 157.2,168 158.2,168.1 159,169.1 159.5,170.8 159.8,172.7 160.2,174.3 160.7,175.2 161.6,175.3 162.9,174.6 164.5,173.7 166.1,172.7 167.5,172.4 168.5,172.7 169,173.9 168.9,175.6 168.6,177.5 168.4,179.2 168.5,180.3 169.3,180.7 170.6,180.6 172.4,180.2 174.3,179.9 175.8,180 176.7,180.6 176.8,181.8 176.2,183.4 175.3,185 174.4,186.6 174.1,187.7 174.6,188.4 175.8,188.8 177.6,189.1 179.5,189.4 181,189.9 181.7,190.8 181.5,191.9 180.5,193.2 179,194.5 177.7,195.6 176.9,196.6 177,197.4 177.9,198.2 179.5,199.1 181.2,200" fill="none"/><circle class="g-brass" cx="150" cy="200" r="38" fill="none"/><circle class="g-brass2" cx="150" cy="200" r="34" fill="none"/><circle class="g-accf" cx="150" cy="200" r="4.5"/><text class="g-cap" x="150" y="52" text-anchor="middle" font-size="8" fill="#5f5a4c">· SPECIMEN ·</text><text class="g-cap" x="150" y="360" text-anchor="middle" font-size="8" fill="#5f5a4c">SERIES · MMXXVI</text>
</g>

  <rect class="g-brass" x="9" y="9" width="282" height="382"/>
  <rect class="g-brass2" x="12" y="12" width="276" height="376"/>
  <rect class="g-fine" x="15" y="15" width="270" height="370"/>
  <g class="g-brassf">
    <circle cx="15" cy="15" r="1.6"/><circle cx="285" cy="15" r="1.6"/><circle cx="15" cy="385" r="1.6"/><circle cx="285" cy="385" r="1.6"/>
  </g>
<text class="g-cap" x="150" y="378" text-anchor="middle" font-size="8.5">Plate VII · Security print</text>
</svg>