<svg xmlns="http://www.w3.org/2000/svg" viewBox="0 0 400 300" role="img" aria-label="">
<style>
  .g-out{fill:none;stroke:#20201b;stroke-width:1.5;stroke-linejoin:round;stroke-linecap:round}
  .g-med{fill:none;stroke:#20201b;stroke-width:1;stroke-linecap:round}
  .g-fine{fill:none;stroke:#20201b;stroke-width:.6;stroke-linecap:round}
  .g-hatch line{stroke:#20201b;stroke-width:.5}
  .g-hatch2 line{stroke:#514d44;stroke-width:.5}
  .g-sky line{stroke:#9c978a;stroke-width:.48}
  .g-acc{fill:none;stroke:#17533d;stroke-width:1.3}
  .g-accf{fill:#17533d}
  .g-brass{fill:none;stroke:#8a7338;stroke-width:1.6}
  .g-brass2{fill:none;stroke:#b39a5c;stroke-width:.8}
  .g-brassf{fill:#8a7338}
  .g-eng{fill:none;stroke:#20201b;stroke-width:.5;opacity:.5}
  .g-eng2{fill:none;stroke:#17533d;stroke-width:.45;opacity:.42}
  .g-fillc{fill:#efe9da}
  .g-cap{font-family:'IBM Plex Mono',ui-monospace,monospace;letter-spacing:.16em;fill:#5f5a4c;text-transform:uppercase}
</style>
<defs><clipPath id="win"><rect x="16" y="16" width="368" height="268"/></clipPath></defs>
<rect x="0" y="0" width="400" height="300" fill="#efe9da"/>
<g clip-path="url(#win)">
<g class="g-sky"><line x1="305.2" y1="16" x2="384" y2="21.5"/><line x1="147.5" y1="16" x2="384" y2="32.5"/><line x1="16" y1="17.8" x2="384" y2="43.6"/><line x1="16" y1="28.9" x2="384" y2="54.6"/><line x1="16" y1="39.9" x2="384" y2="65.6"/><line x1="16" y1="50.9" x2="384" y2="76.6"/><line x1="16" y1="61.9" x2="384" y2="87.7"/><line x1="16" y1="73" x2="384" y2="98.7"/><line x1="16" y1="84" x2="384" y2="109.7"/><line x1="16" y1="95" x2="384" y2="120.8"/><line x1="16" y1="106" x2="384" y2="131.8"/><line x1="16" y1="117.1" x2="384" y2="142.8"/><line x1="16" y1="128.1" x2="384" y2="153.8"/><line x1="16" y1="139.1" x2="384" y2="164.9"/><line x1="16" y1="150.2" x2="384" y2="175.9"/><line x1="16" y1="161.2" x2="384" y2="186.9"/><line x1="16" y1="172.2" x2="384" y2="197.9"/><line x1="16" y1="183.2" x2="384" y2="209"/><line x1="16" y1="194.3" x2="384" y2="220"/><line x1="16" y1="205.3" x2="384" y2="231"/><line x1="16" y1="216.3" x2="384" y2="242.1"/><line x1="16" y1="227.3" x2="384" y2="253.1"/><line x1="16" y1="238.4" x2="384" y2="264.1"/><line x1="16" y1="249.4" x2="384" y2="275.1"/><line x1="16" y1="260.4" x2="353.1" y2="284"/><line x1="16" y1="271.5" x2="195.4" y2="284"/><line x1="16" y1="282.5" x2="37.8" y2="284"/></g><path class="g-fine" d="M 120 250 A 150 150 0 0 1 320 96" fill="none"/><polygon class="g-fillc" points="70,232 316,150 322,168 76,250"/><g class="g-sky"><line x1="313.8" y1="150.7" x2="316.6" y2="151.9"/><line x1="309.4" y1="152.2" x2="317.9" y2="155.6"/><line x1="305" y1="153.7" x2="319.1" y2="159.3"/><line x1="300.6" y1="155.1" x2="320.4" y2="163.1"/><line x1="296.3" y1="156.6" x2="321.6" y2="166.8"/><line x1="291.9" y1="158" x2="319" y2="169"/><line x1="287.5" y1="159.5" x2="314.6" y2="170.5"/><line x1="283.1" y1="161" x2="310.2" y2="171.9"/><line x1="278.7" y1="162.4" x2="305.8" y2="173.4"/><line x1="274.3" y1="163.9" x2="301.4" y2="174.9"/><line x1="269.9" y1="165.4" x2="297" y2="176.3"/><line x1="265.5" y1="166.8" x2="292.7" y2="177.8"/><line x1="261.1" y1="168.3" x2="288.3" y2="179.2"/><line x1="256.8" y1="169.7" x2="283.9" y2="180.7"/><line x1="252.4" y1="171.2" x2="279.5" y2="182.2"/><line x1="248" y1="172.7" x2="275.1" y2="183.6"/><line x1="243.6" y1="174.1" x2="270.7" y2="185.1"/><line x1="239.2" y1="175.6" x2="266.3" y2="186.6"/><line x1="234.8" y1="177.1" x2="261.9" y2="188"/><line x1="230.4" y1="178.5" x2="257.6" y2="189.5"/><line x1="226" y1="180" x2="253.2" y2="190.9"/><line x1="221.7" y1="181.4" x2="248.8" y2="192.4"/><line x1="217.3" y1="182.9" x2="244.4" y2="193.9"/><line x1="212.9" y1="184.4" x2="240" y2="195.3"/><line x1="208.5" y1="185.8" x2="235.6" y2="196.8"/><line x1="204.1" y1="187.3" x2="231.2" y2="198.3"/><line x1="199.7" y1="188.8" x2="226.8" y2="199.7"/><line x1="195.3" y1="190.2" x2="222.5" y2="201.2"/><line x1="190.9" y1="191.7" x2="218.1" y2="202.6"/><line x1="186.6" y1="193.1" x2="213.7" y2="204.1"/><line x1="182.2" y1="194.6" x2="209.3" y2="205.6"/><line x1="177.8" y1="196.1" x2="204.9" y2="207"/><line x1="173.4" y1="197.5" x2="200.5" y2="208.5"/><line x1="169" y1="199" x2="196.1" y2="210"/><line x1="164.6" y1="200.5" x2="191.7" y2="211.4"/><line x1="160.2" y1="201.9" x2="187.3" y2="212.9"/><line x1="155.8" y1="203.4" x2="183" y2="214.3"/><line x1="151.4" y1="204.9" x2="178.6" y2="215.8"/><line x1="147.1" y1="206.3" x2="174.2" y2="217.3"/><line x1="142.7" y1="207.8" x2="169.8" y2="218.7"/><line x1="138.3" y1="209.2" x2="165.4" y2="220.2"/><line x1="133.9" y1="210.7" x2="161" y2="221.7"/><line x1="129.5" y1="212.2" x2="156.6" y2="223.1"/><line x1="125.1" y1="213.6" x2="152.2" y2="224.6"/><line x1="120.7" y1="215.1" x2="147.9" y2="226"/><line x1="116.3" y1="216.6" x2="143.5" y2="227.5"/><line x1="112" y1="218" x2="139.1" y2="229"/><line x1="107.6" y1="219.5" x2="134.7" y2="230.4"/><line x1="103.2" y1="220.9" x2="130.3" y2="231.9"/><line x1="98.8" y1="222.4" x2="125.9" y2="233.4"/><line x1="94.4" y1="223.9" x2="121.5" y2="234.8"/><line x1="90" y1="225.3" x2="117.1" y2="236.3"/><line x1="85.6" y1="226.8" x2="112.7" y2="237.8"/><line x1="81.2" y1="228.3" x2="108.4" y2="239.2"/><line x1="76.8" y1="229.7" x2="104" y2="240.7"/><line x1="72.5" y1="231.2" x2="99.6" y2="242.1"/><line x1="70.5" y1="233.6" x2="95.2" y2="243.6"/><line x1="71.8" y1="237.4" x2="90.8" y2="245.1"/><line x1="73" y1="241.1" x2="86.4" y2="246.5"/><line x1="74.3" y1="244.9" x2="82" y2="248"/><line x1="75.5" y1="248.6" x2="77.6" y2="249.5"/></g><polygon class="g-out" points="70,232 316,150 322,168 76,250"/><line class="g-fine" x1="83.7" y1="227.4" x2="85.3" y2="231"/><line class="g-fine" x1="97.3" y1="222.9" x2="98.9" y2="226.5"/><line class="g-fine" x1="111" y1="218.3" x2="114.2" y2="225.5"/><line class="g-fine" x1="124.7" y1="213.8" x2="126.3" y2="217.4"/><line class="g-fine" x1="138.3" y1="209.2" x2="139.9" y2="212.8"/><line class="g-fine" x1="152" y1="204.7" x2="155.2" y2="211.9"/><line class="g-fine" x1="165.7" y1="200.1" x2="167.3" y2="203.7"/><line class="g-fine" x1="179.3" y1="195.6" x2="180.9" y2="199.2"/><line class="g-fine" x1="193" y1="191" x2="196.2" y2="198.2"/><line class="g-fine" x1="206.7" y1="186.4" x2="208.3" y2="190"/><line class="g-fine" x1="220.3" y1="181.9" x2="221.9" y2="185.5"/><line class="g-fine" x1="234" y1="177.3" x2="237.2" y2="184.5"/><line class="g-fine" x1="247.7" y1="172.8" x2="249.3" y2="176.4"/><line class="g-fine" x1="261.3" y1="168.2" x2="262.9" y2="171.8"/><line class="g-fine" x1="275" y1="163.7" x2="278.2" y2="170.9"/><line class="g-fine" x1="288.7" y1="159.1" x2="290.3" y2="162.7"/><line class="g-fine" x1="302.3" y1="154.6" x2="303.9" y2="158.2"/><polygon class="g-fillc" points="236,250 356,250 356,150"/><polygon class="g-out" points="236,250 356,250 356,150"/><polygon class="g-fine g-fillc" points="276,250 340,250 340,197"/><polygon class="g-fillc" points="188,74 150,240 158,244 191,80"/><g class="g-hatch"><line x1="187.8" y1="74.8" x2="190.5" y2="82.3"/><line x1="186.8" y1="79.1" x2="189.6" y2="86.8"/><line x1="185.8" y1="83.4" x2="188.7" y2="91.3"/><line x1="184.9" y1="87.7" x2="187.8" y2="95.8"/><line x1="183.9" y1="92" x2="186.9" y2="100.3"/><line x1="182.9" y1="96.3" x2="186" y2="104.9"/><line x1="181.9" y1="100.6" x2="185.1" y2="109.4"/><line x1="180.9" y1="104.9" x2="184.2" y2="113.9"/><line x1="179.9" y1="109.2" x2="183.3" y2="118.4"/><line x1="178.9" y1="113.5" x2="182.4" y2="122.9"/><line x1="178" y1="117.9" x2="181.5" y2="127.4"/><line x1="177" y1="122.2" x2="180.5" y2="132"/><line x1="176" y1="126.5" x2="179.6" y2="136.5"/><line x1="175" y1="130.8" x2="178.7" y2="141"/><line x1="174" y1="135.1" x2="177.8" y2="145.5"/><line x1="173" y1="139.4" x2="176.9" y2="150"/><line x1="172" y1="143.7" x2="176" y2="154.6"/><line x1="171.1" y1="148" x2="175.1" y2="159.1"/><line x1="170.1" y1="152.3" x2="174.2" y2="163.6"/><line x1="169.1" y1="156.6" x2="173.3" y2="168.1"/><line x1="168.1" y1="160.9" x2="172.4" y2="172.6"/><line x1="167.1" y1="165.2" x2="171.5" y2="177.2"/><line x1="166.1" y1="169.5" x2="170.5" y2="181.7"/><line x1="165.1" y1="173.9" x2="169.6" y2="186.2"/><line x1="164.2" y1="178.2" x2="168.7" y2="190.7"/><line x1="163.2" y1="182.5" x2="167.8" y2="195.2"/><line x1="162.2" y1="186.8" x2="166.9" y2="199.8"/><line x1="161.2" y1="191.1" x2="166" y2="204.3"/><line x1="160.2" y1="195.4" x2="165.1" y2="208.8"/><line x1="159.2" y1="199.7" x2="164.2" y2="213.3"/><line x1="158.2" y1="204" x2="163.3" y2="217.8"/><line x1="157.3" y1="208.3" x2="162.4" y2="222.3"/><line x1="156.3" y1="212.6" x2="161.4" y2="226.9"/><line x1="155.3" y1="216.9" x2="160.5" y2="231.4"/><line x1="154.3" y1="221.2" x2="159.6" y2="235.9"/><line x1="153.3" y1="225.5" x2="158.7" y2="240.4"/><line x1="152.3" y1="229.9" x2="157.4" y2="243.7"/><line x1="151.3" y1="234.2" x2="154.2" y2="242.1"/><line x1="150.3" y1="238.5" x2="151.1" y2="240.6"/></g><polygon class="g-out" points="188,74 150,240 158,244 191,80"/><polygon class="g-fillc" points="188,74 232,232 240,226 185,80"/><g class="g-sky"><line x1="187.3" y1="75.5" x2="192.2" y2="88.9"/><line x1="185.8" y1="78.4" x2="200.5" y2="118.8"/><line x1="225" y1="186.2" x2="239.6" y2="226.3"/><line x1="208.8" y1="148.7" x2="237.6" y2="227.8"/><line x1="217.1" y1="178.6" x2="235.6" y2="229.3"/><line x1="225.4" y1="208.4" x2="233.6" y2="230.8"/></g><polygon class="g-out" points="188,74 232,232 240,226 185,80"/><path class="g-out" d="M 150 240 l -4 8 l 8 0 z"/><path class="g-out" d="M 232 232 l -1 9 l 8 -3 z"/><circle class="g-brassf" cx="188" cy="74" r="8"/><circle class="g-fillc" cx="188" cy="74" r="4"/><circle class="g-accf" cx="188" cy="74" r="2.3"/>
</g>

  <rect class="g-brass" x="9" y="9" width="382" height="282"/>
  <rect class="g-brass2" x="12" y="12" width="376" height="276"/>
  <rect class="g-fine" x="15" y="15" width="370" height="270"/>
  <g class="g-brassf">
    <circle cx="15" cy="15" r="1.6"/><circle cx="385" cy="15" r="1.6"/><circle cx="15" cy="285" r="1.6"/><circle cx="385" cy="285" r="1.6"/>
  </g>
<text class="g-cap" x="200" y="278" text-anchor="middle" font-size="8.5">Plate VI · Instruments</text>
</svg>