<svg xmlns="http://www.w3.org/2000/svg" viewBox="0 0 400 300" role="img" aria-label="">
<style>
  .g-out{fill:none;stroke:#20201b;stroke-width:1.5;stroke-linejoin:round;stroke-linecap:round}
  .g-med{fill:none;stroke:#20201b;stroke-width:1;stroke-linecap:round}
  .g-fine{fill:none;stroke:#20201b;stroke-width:.6;stroke-linecap:round}
  .g-hatch line{stroke:#20201b;stroke-width:.5}
  .g-hatch2 line{stroke:#514d44;stroke-width:.5}
  .g-sky line{stroke:#9c978a;stroke-width:.48}
  .g-acc{fill:none;stroke:#17533d;stroke-width:1.3}
  .g-accf{fill:#17533d}
  .g-brass{fill:none;stroke:#8a7338;stroke-width:1.6}
  .g-brass2{fill:none;stroke:#b39a5c;stroke-width:.8}
  .g-brassf{fill:#8a7338}
  .g-eng{fill:none;stroke:#20201b;stroke-width:.5;opacity:.5}
  .g-eng2{fill:none;stroke:#17533d;stroke-width:.45;opacity:.42}
  .g-fillc{fill:#efe9da}
  .g-cap{font-family:'IBM Plex Mono',ui-monospace,monospace;letter-spacing:.16em;fill:#5f5a4c;text-transform:uppercase}
</style>
<defs><clipPath id="win"><rect x="16" y="16" width="368" height="268"/></clipPath></defs>
<rect x="0" y="0" width="400" height="300" fill="#efe9da"/>
<g clip-path="url(#win)">
<g class="g-sky"><line x1="333.8" y1="16" x2="384" y2="19.5"/><line x1="233.5" y1="16" x2="384" y2="26.5"/><line x1="133.1" y1="16" x2="384" y2="33.5"/><line x1="32.8" y1="16" x2="384" y2="40.6"/><line x1="16" y1="21.8" x2="384" y2="47.6"/><line x1="16" y1="28.9" x2="384" y2="54.6"/><line x1="16" y1="35.9" x2="384" y2="61.6"/><line x1="16" y1="42.9" x2="384" y2="68.6"/><line x1="16" y1="49.9" x2="384" y2="75.6"/><line x1="16" y1="56.9" x2="384" y2="82.7"/><line x1="16" y1="63.9" x2="384" y2="89.7"/><line x1="16" y1="71" x2="384" y2="96.7"/><line x1="16" y1="78" x2="384" y2="103.7"/><line x1="16" y1="85" x2="384" y2="110.7"/><line x1="16" y1="92" x2="384" y2="117.7"/><line x1="16" y1="99" x2="384" y2="124.8"/><line x1="16" y1="106" x2="384" y2="131.8"/><line x1="16" y1="113.1" x2="384" y2="138.8"/><line x1="16" y1="120.1" x2="384" y2="145.8"/><line x1="16" y1="127.1" x2="343.5" y2="150"/><line x1="16" y1="134.1" x2="243.1" y2="150"/><line x1="16" y1="141.1" x2="142.8" y2="150"/><line x1="16" y1="148.2" x2="42.4" y2="150"/></g><line class="g-out" x1="20" y1="244" x2="380" y2="244"/><g class="g-hatch2"><line x1="364.2" y1="244" x2="380" y2="246.2"/><line x1="332.6" y1="244" x2="380" y2="250.7"/><line x1="301" y1="244" x2="380" y2="255.1"/><line x1="269.3" y1="244" x2="380" y2="259.6"/><line x1="237.7" y1="244" x2="380" y2="264"/><line x1="206.1" y1="244" x2="380" y2="268.4"/><line x1="174.5" y1="244" x2="380" y2="272.9"/><line x1="142.9" y1="244" x2="356.3" y2="274"/><line x1="111.3" y1="244" x2="324.7" y2="274"/><line x1="79.7" y1="244" x2="293.1" y2="274"/><line x1="48" y1="244" x2="261.5" y2="274"/><line x1="20" y1="244.5" x2="229.9" y2="274"/><line x1="20" y1="248.9" x2="198.3" y2="274"/><line x1="20" y1="253.4" x2="166.7" y2="274"/><line x1="20" y1="257.8" x2="135" y2="274"/><line x1="20" y1="262.3" x2="103.4" y2="274"/><line x1="20" y1="266.7" x2="71.8" y2="274"/><line x1="20" y1="271.2" x2="40.2" y2="274"/></g><polygon class="g-fillc" points="145,92 145.7,93.6 146.6,95.1 147.8,96.7 149.1,98.3 149.8,99.8 150.7,101.4 151.7,102.9 152.7,104.5 153.7,106.1 154.6,107.6 155.3,109.2 155.8,110.8 156,112.3 156.1,113.9 156.1,115.4 155.9,117 155.5,118.6 154.7,120.1 153.6,121.7 152,123.3 150.4,124.8 149.2,126.4 147.7,127.9 146.1,129.5 144.3,131.1 142.3,132.6 140.3,134.2 138.3,135.8 136.2,137.3 134.2,138.9 132.2,140.4 130.2,142 128.4,143.6 126.8,145.1 125.3,146.7 124.1,148.3 123.1,149.8 122.3,151.4 121.7,152.9 121.2,154.5 121,156.1 120.8,157.6 120.8,159.2 120.9,160.8 121.1,162.3 121.4,163.9 121.7,165.4 122.1,167 122.5,168.6 123,170.1 123.4,171.7 123.8,173.3 124.2,174.8 124.7,176.4 125.2,177.9 125.8,179.5 126.5,181.1 127.2,182.6 127.9,184.2 128.7,185.8 129.5,187.3 130.3,188.9 131.1,190.4 131.9,192 132.8,193.6 133.6,195.1 134.4,196.7 135.1,198.3 136.1,199.8 137,201.4 138,202.9 139,204.5 140,206.1 141,207.6 141.9,209.2 142.9,210.8 143.8,212.3 144.8,213.9 145.7,215.4 146.5,217 147.5,218.6 148.8,220.1 150.1,221.7 151.3,223.3 152.5,224.8 153.4,226.4 154.3,227.9 154.9,229.5 155.3,231.1 154.7,232.6 153.6,234.2 152.4,235.8 150.6,237.3 148.8,238.9 147.7,240.4 148,242 188,242 188.3,240.4 187.2,238.9 185.4,237.3 183.6,235.8 182.4,234.2 181.3,232.6 180.7,231.1 181.1,229.5 181.7,227.9 182.6,226.4 183.5,224.8 184.7,223.3 185.9,221.7 187.2,220.1 188.5,218.6 189.5,217 190.3,215.4 191.2,213.9 192.2,212.3 193.1,210.8 194.1,209.2 195,207.6 196,206.1 197,204.5 198,202.9 199,201.4 199.9,199.8 200.9,198.3 201.6,196.7 202.4,195.1 203.2,193.6 204.1,192 204.9,190.4 205.7,188.9 206.5,187.3 207.3,185.8 208.1,184.2 208.8,182.6 209.5,181.1 210.2,179.5 210.8,177.9 211.3,176.4 211.8,174.8 212.2,173.3 212.6,171.7 213,170.1 213.5,168.6 213.9,167 214.3,165.4 214.6,163.9 214.9,162.3 215.1,160.8 215.2,159.2 215.2,157.6 215,156.1 214.8,154.5 214.3,152.9 213.7,151.4 212.9,149.8 211.9,148.3 210.7,146.7 209.2,145.1 207.6,143.6 205.8,142 203.8,140.4 201.8,138.9 199.8,137.3 197.7,135.8 195.7,134.2 193.7,132.6 191.7,131.1 189.9,129.5 188.3,127.9 186.8,126.4 185.6,124.8 184,123.3 182.4,121.7 181.3,120.1 180.5,118.6 180.1,117 179.9,115.4 179.9,113.9 180,112.3 180.2,110.8 180.7,109.2 181.4,107.6 182.3,106.1 183.3,104.5 184.3,102.9 185.3,101.4 186.2,99.8 186.9,98.3 188.2,96.7 189.4,95.1 190.3,93.6 191,92"/><g class="g-sky"><line x1="212.6" y1="149.4" x2="214.3" y2="165.4"/><line x1="208.7" y1="144.6" x2="211.8" y2="174.6"/><line x1="204.9" y1="141.3" x2="209.2" y2="181.8"/><line x1="201.2" y1="138.4" x2="206.4" y2="187.6"/><line x1="197.5" y1="135.6" x2="203.5" y2="193"/><line x1="189.5" y1="92" x2="189.8" y2="94.5"/><line x1="193.8" y1="132.7" x2="200.7" y2="198.5"/><line x1="186.1" y1="92" x2="186.8" y2="98.5"/><line x1="190" y1="129.6" x2="197.8" y2="203.3"/><line x1="182.7" y1="92" x2="183.9" y2="103.6"/><line x1="186.2" y1="125.6" x2="194.8" y2="207.9"/><line x1="179.2" y1="92" x2="181" y2="108.5"/><line x1="182.4" y1="121.6" x2="191.9" y2="212.7"/><line x1="175.8" y1="92" x2="189" y2="217.8"/><line x1="172.4" y1="92" x2="186" y2="221.6"/><line x1="187.9" y1="239.9" x2="188.1" y2="241.5"/><line x1="169" y1="92" x2="183" y2="225.6"/><line x1="184.1" y1="236.2" x2="184.7" y2="242"/><line x1="165.6" y1="92" x2="181.3" y2="242"/><line x1="162.1" y1="92" x2="177.9" y2="242"/><line x1="158.7" y1="92" x2="174.5" y2="242"/><line x1="155.3" y1="92" x2="171.1" y2="242"/><line x1="151.9" y1="92" x2="153.3" y2="105.4"/><line x1="154.8" y1="119.9" x2="167.7" y2="242"/><line x1="148.5" y1="92" x2="149.1" y2="98.3"/><line x1="151.8" y1="123.4" x2="164.2" y2="242"/><line x1="145.1" y1="92" x2="145.1" y2="92.2"/><line x1="148.7" y1="126.9" x2="160.8" y2="242"/><line x1="145.6" y1="129.9" x2="157.4" y2="242"/><line x1="142.5" y1="132.5" x2="152.1" y2="224.4"/><line x1="153.2" y1="234.7" x2="154" y2="242"/><line x1="139.3" y1="135" x2="148.2" y2="219.4"/><line x1="150.1" y1="237.7" x2="150.6" y2="242"/><line x1="136.1" y1="137.4" x2="144.1" y2="212.7"/><line x1="133" y1="139.8" x2="139.9" y2="206"/><line x1="129.8" y1="142.3" x2="135.8" y2="199.4"/><line x1="126.7" y1="145.2" x2="131.6" y2="191.3"/><line x1="123.7" y1="148.9" x2="127.2" y2="182.8"/><line x1="121" y1="155.9" x2="122.2" y2="167.4"/></g><g class="g-hatch"><line x1="213.2" y1="150.5" x2="214.6" y2="163.8"/><line x1="210.4" y1="146.4" x2="212.9" y2="170.5"/><line x1="207.7" y1="143.7" x2="211.2" y2="176.8"/><line x1="205" y1="141.4" x2="209.3" y2="181.6"/><line x1="202.4" y1="139.3" x2="207.3" y2="185.8"/><line x1="199.8" y1="137.3" x2="205.3" y2="189.7"/><line x1="197.2" y1="135.3" x2="203.3" y2="193.5"/><line x1="190.2" y1="92" x2="190.4" y2="93.5"/><line x1="194.5" y1="133.3" x2="201.3" y2="197.4"/><line x1="187.8" y1="92" x2="188.3" y2="96.5"/><line x1="191.9" y1="131.2" x2="199.2" y2="201"/><line x1="185.4" y1="92" x2="186.2" y2="99.7"/><line x1="189.2" y1="128.9" x2="197.2" y2="204.3"/><line x1="183" y1="92" x2="184.1" y2="103.2"/><line x1="186.5" y1="126" x2="195.1" y2="207.5"/><line x1="180.5" y1="92" x2="182.1" y2="106.4"/><line x1="183.8" y1="123" x2="193" y2="210.8"/><line x1="178.1" y1="92" x2="180.1" y2="111.1"/><line x1="181" y1="119.7" x2="191" y2="214.3"/><line x1="175.7" y1="92" x2="189" y2="217.9"/><line x1="173.3" y1="92" x2="186.8" y2="220.6"/><line x1="170.9" y1="92" x2="184.7" y2="223.2"/><line x1="186.2" y1="238.1" x2="186.7" y2="242"/><line x1="168.5" y1="92" x2="182.6" y2="226.3"/><line x1="183.6" y1="235.7" x2="184.2" y2="242"/><line x1="168" y1="110.4" x2="181.8" y2="242"/><line x1="168" y1="133.3" x2="179.4" y2="242"/><line x1="168" y1="156.3" x2="177" y2="242"/><line x1="168" y1="179.3" x2="174.6" y2="242"/><line x1="168" y1="202.2" x2="172.2" y2="242"/><line x1="168" y1="225.2" x2="169.8" y2="242"/></g><polygon class="g-out" points="145,92 145.7,93.6 146.6,95.1 147.8,96.7 149.1,98.3 149.8,99.8 150.7,101.4 151.7,102.9 152.7,104.5 153.7,106.1 154.6,107.6 155.3,109.2 155.8,110.8 156,112.3 156.1,113.9 156.1,115.4 155.9,117 155.5,118.6 154.7,120.1 153.6,121.7 152,123.3 150.4,124.8 149.2,126.4 147.7,127.9 146.1,129.5 144.3,131.1 142.3,132.6 140.3,134.2 138.3,135.8 136.2,137.3 134.2,138.9 132.2,140.4 130.2,142 128.4,143.6 126.8,145.1 125.3,146.7 124.1,148.3 123.1,149.8 122.3,151.4 121.7,152.9 121.2,154.5 121,156.1 120.8,157.6 120.8,159.2 120.9,160.8 121.1,162.3 121.4,163.9 121.7,165.4 122.1,167 122.5,168.6 123,170.1 123.4,171.7 123.8,173.3 124.2,174.8 124.7,176.4 125.2,177.9 125.8,179.5 126.5,181.1 127.2,182.6 127.9,184.2 128.7,185.8 129.5,187.3 130.3,188.9 131.1,190.4 131.9,192 132.8,193.6 133.6,195.1 134.4,196.7 135.1,198.3 136.1,199.8 137,201.4 138,202.9 139,204.5 140,206.1 141,207.6 141.9,209.2 142.9,210.8 143.8,212.3 144.8,213.9 145.7,215.4 146.5,217 147.5,218.6 148.8,220.1 150.1,221.7 151.3,223.3 152.5,224.8 153.4,226.4 154.3,227.9 154.9,229.5 155.3,231.1 154.7,232.6 153.6,234.2 152.4,235.8 150.6,237.3 148.8,238.9 147.7,240.4 148,242 188,242 188.3,240.4 187.2,238.9 185.4,237.3 183.6,235.8 182.4,234.2 181.3,232.6 180.7,231.1 181.1,229.5 181.7,227.9 182.6,226.4 183.5,224.8 184.7,223.3 185.9,221.7 187.2,220.1 188.5,218.6 189.5,217 190.3,215.4 191.2,213.9 192.2,212.3 193.1,210.8 194.1,209.2 195,207.6 196,206.1 197,204.5 198,202.9 199,201.4 199.9,199.8 200.9,198.3 201.6,196.7 202.4,195.1 203.2,193.6 204.1,192 204.9,190.4 205.7,188.9 206.5,187.3 207.3,185.8 208.1,184.2 208.8,182.6 209.5,181.1 210.2,179.5 210.8,177.9 211.3,176.4 211.8,174.8 212.2,173.3 212.6,171.7 213,170.1 213.5,168.6 213.9,167 214.3,165.4 214.6,163.9 214.9,162.3 215.1,160.8 215.2,159.2 215.2,157.6 215,156.1 214.8,154.5 214.3,152.9 213.7,151.4 212.9,149.8 211.9,148.3 210.7,146.7 209.2,145.1 207.6,143.6 205.8,142 203.8,140.4 201.8,138.9 199.8,137.3 197.7,135.8 195.7,134.2 193.7,132.6 191.7,131.1 189.9,129.5 188.3,127.9 186.8,126.4 185.6,124.8 184,123.3 182.4,121.7 181.3,120.1 180.5,118.6 180.1,117 179.9,115.4 179.9,113.9 180,112.3 180.2,110.8 180.7,109.2 181.4,107.6 182.3,106.1 183.3,104.5 184.3,102.9 185.3,101.4 186.2,99.8 186.9,98.3 188.2,96.7 189.4,95.1 190.3,93.6 191,92"/><ellipse class="g-med g-fillc" cx="168" cy="92" rx="23" ry="6"/><ellipse class="g-fine" cx="168" cy="92" rx="14" ry="3.5"/><path class="g-med" d="M 154 120 C 116 118, 116 156, 128 158"/><path class="g-med" d="M 182 120 C 220 118, 220 156, 208 158"/><rect class="g-med g-fillc" x="148" y="242" width="40" height="8"/><path class="g-acc" d="M 125 156 Q 168 168 211 156"/><circle class="g-fillc" cx="300" cy="222" r="26"/><g class="g-hatch"><line x1="307.5" y1="197.2" x2="320.8" y2="206.4"/><line x1="301.5" y1="196.1" x2="323.9" y2="211.8"/><line x1="297.1" y1="196.2" x2="325.3" y2="215.9"/><line x1="293.5" y1="196.9" x2="325.9" y2="219.5"/><line x1="290.4" y1="197.9" x2="326" y2="222.8"/><line x1="287.7" y1="199.1" x2="325.7" y2="225.7"/><line x1="285.3" y1="200.6" x2="325.1" y2="228.5"/><line x1="283.1" y1="202.3" x2="324.3" y2="231.1"/><line x1="281.2" y1="204.1" x2="323.3" y2="233.6"/><line x1="279.5" y1="206.1" x2="322" y2="235.9"/><line x1="278" y1="208.2" x2="320.5" y2="238"/><line x1="276.7" y1="210.5" x2="318.8" y2="239.9"/><line x1="275.7" y1="212.9" x2="316.8" y2="241.8"/><line x1="274.8" y1="215.5" x2="314.7" y2="243.4"/><line x1="274.3" y1="218.3" x2="312.2" y2="244.9"/><line x1="274" y1="221.3" x2="309.5" y2="246.2"/><line x1="274.1" y1="224.6" x2="306.4" y2="247.2"/><line x1="274.8" y1="228.2" x2="302.8" y2="247.8"/><line x1="276.2" y1="232.3" x2="298.4" y2="247.9"/><line x1="279.3" y1="237.7" x2="292.3" y2="246.8"/></g><g class="g-hatch"><line x1="278.5" y1="207.4" x2="293.7" y2="196.8"/><line x1="275.4" y1="213.8" x2="300.7" y2="196"/><line x1="274.2" y1="218.7" x2="305.8" y2="196.6"/><line x1="274.1" y1="223" x2="309.8" y2="198"/><line x1="274.5" y1="226.8" x2="313.3" y2="199.7"/><line x1="275.4" y1="230.4" x2="316.3" y2="201.7"/><line x1="276.7" y1="233.6" x2="318.8" y2="204.1"/><line x1="278.5" y1="236.5" x2="321" y2="206.7"/><line x1="280.6" y1="239.2" x2="322.8" y2="209.6"/><line x1="283" y1="241.6" x2="324.3" y2="212.7"/><line x1="285.8" y1="243.8" x2="325.3" y2="216.1"/><line x1="289.2" y1="245.6" x2="325.9" y2="219.9"/><line x1="293.1" y1="247" x2="325.9" y2="224.1"/><line x1="297.8" y1="247.9" x2="325.1" y2="228.8"/><line x1="304.1" y1="247.6" x2="322.7" y2="234.6"/></g><circle class="g-out" cx="300" cy="222" r="26"/><path class="g-fine" d="M 298 196 q 6 -8 -2 -12"/><ellipse class="g-fine" cx="308" cy="253" rx="22" ry="4"/><path class="g-fillc" d="M 44 224 C 48 244, 108 244, 112 224 Z"/><g class="g-hatch"><line x1="110.5" y1="224" x2="110.8" y2="227.2"/><line x1="107.5" y1="224" x2="108.2" y2="230.4"/><line x1="104.5" y1="224" x2="105.4" y2="232.6"/><line x1="101.4" y1="224" x2="102.5" y2="234.2"/><line x1="98.4" y1="224" x2="99.6" y2="235.4"/><line x1="95.4" y1="224" x2="96.7" y2="236.4"/><line x1="92.4" y1="224" x2="93.8" y2="237.2"/><line x1="89.4" y1="224" x2="90.8" y2="237.8"/><line x1="86.4" y1="224" x2="87.9" y2="238.3"/><line x1="83.3" y1="224" x2="84.9" y2="238.6"/><line x1="80.3" y1="224" x2="81.9" y2="238.9"/><line x1="77.3" y1="224" x2="78.9" y2="239"/><line x1="74.3" y1="224" x2="75.9" y2="238.9"/><line x1="71.3" y1="224" x2="72.8" y2="238.8"/><line x1="68.3" y1="224" x2="69.8" y2="238.5"/><line x1="65.2" y1="224" x2="66.7" y2="238.1"/><line x1="62.2" y1="224" x2="63.7" y2="237.5"/><line x1="59.2" y1="224" x2="60.6" y2="236.8"/><line x1="56.2" y1="224" x2="57.4" y2="235.9"/><line x1="53.2" y1="224" x2="54.3" y2="234.6"/><line x1="50.2" y1="224" x2="51.1" y2="232.9"/><line x1="47.1" y1="224" x2="47.8" y2="230.4"/><line x1="44.1" y1="224" x2="44.2" y2="224.5"/></g><path class="g-out" d="M 44 224 C 48 244, 108 244, 112 224"/><ellipse class="g-med g-fillc" cx="78" cy="224" rx="34" ry="6.5"/><ellipse class="g-fine" cx="78" cy="224" rx="26" ry="4.5"/>
</g>

  <rect class="g-brass" x="9" y="9" width="382" height="282"/>
  <rect class="g-brass2" x="12" y="12" width="376" height="276"/>
  <rect class="g-fine" x="15" y="15" width="370" height="270"/>
  <g class="g-brassf">
    <circle cx="15" cy="15" r="1.6"/><circle cx="385" cy="15" r="1.6"/><circle cx="15" cy="285" r="1.6"/><circle cx="385" cy="285" r="1.6"/>
  </g>
<text class="g-cap" x="200" y="278" text-anchor="middle" font-size="8.5">Plate II · Still life</text>
</svg>