<svg xmlns="http://www.w3.org/2000/svg" width="360" height="380" viewBox="0 0 360 380"><defs><linearGradient id="mvsky" x1="0" y1="0" x2="0" y2="1"><stop offset="0" stop-color="#8f7bb0"/><stop offset="0.55" stop-color="#d69a9a"/><stop offset="1" stop-color="#f0c79a"/></linearGradient></defs><rect width="360" height="380" fill="url(#mvsky)"/><circle cx="270" cy="66" r="26" fill="#f7e6c8" opacity="0.9"/><polygon points="180.0,14.0 211.2,32.0 180.0,50.0 148.8,32.0" fill="#9679b5" stroke="none" stroke-width="0" stroke-linejoin="round"/><polygon points="180.0,102.0 148.8,120.0 148.8,32.0 180.0,14.0" fill="#5a486c" stroke="none" stroke-width="0" stroke-linejoin="round"/><polygon points="148.8,120.0 180.0,138.0 180.0,50.0 148.8,32.0" fill="#705a87" stroke="none" stroke-width="0" stroke-linejoin="round"/><polygon points="180.0,2.0 218.1,24.0 180.0,46.0 141.9,24.0" fill="#bb97e1" stroke="none" stroke-width="0" stroke-linejoin="round"/><polygon points="180.0,10.0 141.9,32.0 141.9,24.0 180.0,2.0" fill="#705a87" stroke="none" stroke-width="0" stroke-linejoin="round"/><polygon points="141.9,32.0 180.0,54.0 180.0,46.0 141.9,24.0" fill="#8c71a9" stroke="none" stroke-width="0" stroke-linejoin="round"/><polygon points="128.0,34.0 145.4,44.0 128.0,54.0 110.7,44.0" fill="#85d0be" stroke="none" stroke-width="0" stroke-linejoin="round"/><polygon points="128.0,52.0 110.7,62.0 110.7,44.0 128.0,34.0" fill="#4f7d72" stroke="none" stroke-width="0" stroke-linejoin="round"/><polygon points="110.7,62.0 128.0,72.0 128.0,54.0 110.7,44.0" fill="#639c8f" stroke="none" stroke-width="0" stroke-linejoin="round"/><polygon points="112.5,59.0 129.8,69.0 112.5,79.0 95.1,69.0" fill="#85d0be" stroke="none" stroke-width="0" stroke-linejoin="round"/><polygon points="112.5,77.0 95.1,87.0 95.1,69.0 112.5,59.0" fill="#4f7d72" stroke="none" stroke-width="0" stroke-linejoin="round"/><polygon points="95.1,87.0 112.5,97.0 112.5,79.0 95.1,69.0" fill="#639c8f" stroke="none" stroke-width="0" stroke-linejoin="round"/><polygon points="96.9,84.0 114.2,94.0 96.9,104.0 79.5,94.0" fill="#85d0be" stroke="none" stroke-width="0" stroke-linejoin="round"/><polygon points="96.9,102.0 79.5,112.0 79.5,94.0 96.9,84.0" fill="#4f7d72" stroke="none" stroke-width="0" stroke-linejoin="round"/><polygon points="79.5,112.0 96.9,122.0 96.9,104.0 79.5,94.0" fill="#639c8f" stroke="none" stroke-width="0" stroke-linejoin="round"/><polygon points="81.3,109.0 98.6,119.0 81.3,129.0 64.0,119.0" fill="#85d0be" stroke="none" stroke-width="0" stroke-linejoin="round"/><polygon points="81.3,127.0 64.0,137.0 64.0,119.0 81.3,109.0" fill="#4f7d72" stroke="none" stroke-width="0" stroke-linejoin="round"/><polygon points="64.0,137.0 81.3,147.0 81.3,129.0 64.0,119.0" fill="#639c8f" stroke="none" stroke-width="0" stroke-linejoin="round"/><polygon points="180.0,90.0 225.0,116.0 180.0,142.0 135.0,116.0" fill="#ffa6a6" stroke="none" stroke-width="0" stroke-linejoin="round"/><polygon points="180.0,138.0 135.0,164.0 135.0,116.0 180.0,90.0" fill="#9c6464" stroke="none" stroke-width="0" stroke-linejoin="round"/><polygon points="135.0,164.0 180.0,190.0 180.0,142.0 135.0,116.0" fill="#c37d7d" stroke="none" stroke-width="0" stroke-linejoin="round"/><polygon points="180.0,79.0 232.0,109.0 180.0,139.0 128.0,109.0" fill="#ffcaca" stroke="none" stroke-width="0" stroke-linejoin="round"/><polygon points="180.0,86.0 128.0,116.0 128.0,109.0 180.0,79.0" fill="#b77979" stroke="none" stroke-width="0" stroke-linejoin="round"/><polygon points="128.0,116.0 180.0,146.0 180.0,139.0 128.0,109.0" fill="#e59898" stroke="none" stroke-width="0" stroke-linejoin="round"/><polygon points="207.7,127.0 242.4,147.0 230.2,154.0 195.6,134.0" fill="#fffcc7" stroke="none" stroke-width="0" stroke-linejoin="round"/><polygon points="207.7,134.0 195.6,141.0 195.6,134.0 207.7,127.0" fill="#a99777" stroke="none" stroke-width="0" stroke-linejoin="round"/><polygon points="195.6,141.0 230.2,161.0 230.2,154.0 195.6,134.0" fill="#d4bd95" stroke="none" stroke-width="0" stroke-linejoin="round"/><polygon points="245.8,124.0 268.3,137.0 245.8,150.0 223.3,137.0" fill="#fffcc7" stroke="none" stroke-width="0" stroke-linejoin="round"/><polygon points="245.8,184.0 223.3,197.0 223.3,137.0 245.8,124.0" fill="#a99777" stroke="none" stroke-width="0" stroke-linejoin="round"/><polygon points="223.3,197.0 245.8,210.0 245.8,150.0 223.3,137.0" fill="#d4bd95" stroke="none" stroke-width="0" stroke-linejoin="round"/><polygon points="245.8,115.0 271.8,130.0 245.8,145.0 219.8,130.0" fill="#ffffee" stroke="none" stroke-width="0" stroke-linejoin="round"/><polygon points="245.8,122.0 219.8,137.0 219.8,130.0 245.8,115.0" fill="#b7b58f" stroke="none" stroke-width="0" stroke-linejoin="round"/><polygon points="219.8,137.0 245.8,152.0 245.8,145.0 219.8,130.0" fill="#e5e2b3" stroke="none" stroke-width="0" stroke-linejoin="round"/><path d="M160.0 109.0 q0 -26 20 -26 q20 0 20 26" fill="none" stroke="#f4efe4" stroke-width="6"/><ellipse cx="180.0" cy="94.0" rx="4.4" ry="5" fill="#fbf7ef"/><polygon points="175.5,107.0 184.5,107.0 180.0,95.0" fill="#fbf7ef"/><circle cx="180.0" cy="92.0" r="2.4" fill="#e2624a"/><text x="180" y="366" text-anchor="middle" font-family="Georgia, serif" font-weight="700" font-size="13" letter-spacing="3" fill="#3a2f45">MONUMENT · impossible architecture</text></svg>