<svg xmlns="http://www.w3.org/2000/svg" width="360" height="410" viewBox="0 0 360 410"><rect width="360" height="410" fill="#efe2c2"/><circle cx="250" cy="96" r="52" fill="#1d2b3a"/><circle cx="250" cy="96" r="43" fill="none" stroke="#efe2c2" stroke-width="2.2"/><circle cx="250" cy="96" r="33" fill="none" stroke="#efe2c2" stroke-width="2.2"/><circle cx="250" cy="96" r="23" fill="none" stroke="#efe2c2" stroke-width="2.2"/><ellipse cx="170" cy="250" rx="128" ry="34" fill="#1d2b3a"/><path d="M170 250 q-20 46 -8 76 q14 -10 14 -34 q0 24 14 34 q12 -30 -8 -76 Z" fill="#1d2b3a"/><rect x="120" y="228" width="16" height="16" fill="#33506a"/><polygon points="117,228 128.0,216 139,228" fill="#33506a"/><rect x="196" y="228" width="14" height="16" fill="#33506a"/><polygon points="193,228 203.0,216 213,228" fill="#33506a"/><rect x="148.5" y="230" width="3" height="12" fill="#33506a"/><circle cx="150" cy="226" r="9" fill="#33506a"/><rect x="212.5" y="230" width="3" height="12" fill="#33506a"/><circle cx="214" cy="226" r="9" fill="#33506a"/><text x="180" y="384" text-anchor="middle" font-family="Georgia, serif" font-weight="700" font-size="26" letter-spacing="3" fill="#1d2b3a">A LITTLE WORLD</text></svg>