<svg xmlns="http://www.w3.org/2000/svg" width="300" height="420" viewBox="0 0 300 420"><defs><clipPath id="m1c"><circle cx="206" cy="150" r="94"/></clipPath></defs><rect width="300" height="420" fill="#141019"/><circle cx="43.6" cy="106.6" r="0.9" fill="#efe7d6" opacity="0.85"/><circle cx="175.6" cy="195.6" r="0.7" fill="#efe7d6" opacity="0.85"/><circle cx="86.0" cy="35.2" r="1.6" fill="#efe7d6" opacity="0.85"/><circle cx="217.9" cy="140.5" r="0.8" fill="#efe7d6" opacity="0.85"/><circle cx="265.2" cy="144.8" r="1.0" fill="#efe7d6" opacity="0.85"/><circle cx="104.8" cy="213.0" r="0.6" fill="#efe7d6" opacity="0.85"/><circle cx="272.7" cy="75.8" r="0.6" fill="#efe7d6" opacity="0.85"/><circle cx="33.5" cy="25.7" r="1.2" fill="#efe7d6" opacity="0.85"/><circle cx="201.4" cy="141.4" r="0.6" fill="#efe7d6" opacity="0.85"/><circle cx="145.4" cy="218.8" r="1.5" fill="#efe7d6" opacity="0.85"/><circle cx="220.5" cy="102.5" r="1.6" fill="#efe7d6" opacity="0.85"/><circle cx="257.4" cy="166.0" r="1.1" fill="#efe7d6" opacity="0.85"/><circle cx="232.7" cy="175.0" r="1.4" fill="#efe7d6" opacity="0.85"/><circle cx="204.6" cy="208.4" r="0.9" fill="#efe7d6" opacity="0.85"/><circle cx="217.1" cy="205.8" r="0.9" fill="#efe7d6" opacity="0.85"/><circle cx="82.2" cy="137.0" r="0.8" fill="#efe7d6" opacity="0.85"/><circle cx="252.4" cy="155.3" r="1.3" fill="#efe7d6" opacity="0.85"/><circle cx="66.6" cy="133.0" r="1.0" fill="#efe7d6" opacity="0.85"/><circle cx="34.9" cy="60.8" r="1.1" fill="#efe7d6" opacity="0.85"/><circle cx="74.1" cy="161.4" r="1.5" fill="#efe7d6" opacity="0.85"/><circle cx="135.3" cy="40.5" r="0.7" fill="#efe7d6" opacity="0.85"/><circle cx="220.8" cy="226.9" r="1.0" fill="#efe7d6" opacity="0.85"/><circle cx="84.8" cy="293.9" r="0.7" fill="#efe7d6" opacity="0.85"/><circle cx="68.3" cy="171.8" r="1.0" fill="#efe7d6" opacity="0.85"/><circle cx="194.4" cy="39.3" r="0.5" fill="#efe7d6" opacity="0.85"/><circle cx="215.0" cy="12.3" r="0.8" fill="#efe7d6" opacity="0.85"/><circle cx="79.0" cy="253.3" r="0.9" fill="#efe7d6" opacity="0.85"/><circle cx="231.8" cy="247.2" r="0.7" fill="#efe7d6" opacity="0.85"/><circle cx="98.2" cy="24.2" r="1.0" fill="#efe7d6" opacity="0.85"/><circle cx="297.4" cy="217.6" r="0.7" fill="#efe7d6" opacity="0.85"/><circle cx="159.1" cy="61.9" r="0.9" fill="#efe7d6" opacity="0.85"/><circle cx="31.2" cy="148.6" r="1.1" fill="#efe7d6" opacity="0.85"/><circle cx="69.2" cy="234.2" r="0.7" fill="#efe7d6" opacity="0.85"/><circle cx="87.4" cy="51.8" r="1.3" fill="#efe7d6" opacity="0.85"/><circle cx="188.1" cy="253.3" r="1.0" fill="#efe7d6" opacity="0.85"/><circle cx="264.3" cy="45.4" r="0.5" fill="#efe7d6" opacity="0.85"/><circle cx="19.3" cy="98.5" r="1.4" fill="#efe7d6" opacity="0.85"/><circle cx="72.3" cy="213.0" r="1.1" fill="#efe7d6" opacity="0.85"/><circle cx="12.9" cy="226.6" r="0.9" fill="#efe7d6" opacity="0.85"/><circle cx="77.6" cy="141.7" r="1.0" fill="#efe7d6" opacity="0.85"/><circle cx="189.8" cy="106.6" r="0.7" fill="#efe7d6" opacity="0.85"/><circle cx="284.6" cy="186.3" r="1.2" fill="#efe7d6" opacity="0.85"/><circle cx="81.3" cy="285.8" r="1.1" fill="#efe7d6" opacity="0.85"/><circle cx="150.7" cy="256.5" r="0.6" fill="#efe7d6" opacity="0.85"/><circle cx="158.5" cy="119.3" r="0.6" fill="#efe7d6" opacity="0.85"/><circle cx="283.5" cy="257.1" r="1.4" fill="#efe7d6" opacity="0.85"/><circle cx="206" cy="150" r="94" fill="#c1502e"/><g clip-path="url(#m1c)"><circle cx="252" cy="182" r="104" fill="#7f3320" opacity="0.55"/><ellipse cx="176" cy="120" rx="26" ry="12" fill="#7f3320" opacity="0.35"/><ellipse cx="206" cy="66" rx="30" ry="13" fill="#e9ddc9" opacity="0.85"/></g><path d="M20 372 Q 60 250 150 214 T 206 150" fill="none" stroke="#efe7d6" stroke-width="1.4" stroke-dasharray="2 5" opacity="0.8"/><g transform="translate(150 214) rotate(-32)"><path d="M0 -7 L3 4 L0 2 L-3 4 Z" fill="#efe7d6"/><circle cx="0" cy="-2" r="1.3" fill="#d98a5a"/></g><text x="28" y="352" text-anchor="start" font-family="Helvetica, Arial, sans-serif" font-weight="700" font-size="52" letter-spacing="2" fill="#efe7d6">MARS</text><text x="30" y="374" text-anchor="start" font-family="Helvetica, Arial, sans-serif" font-weight="700" font-size="10.5" letter-spacing="3" fill="#d98a5a">NASA · TO THE RED PLANET</text><line x1="30" y1="360" x2="252" y2="360" stroke="#c1502e" stroke-width="1.5"/></svg>