<svg xmlns="http://www.w3.org/2000/svg" width="300" height="420" viewBox="0 0 300 420"><defs><filter id="m2g" x="0" y="0" width="100%" height="100%"><feTurbulence type="fractalNoise" baseFrequency="0.85" numOctaves="2" stitchTiles="stitch" result="n"/><feColorMatrix in="n" type="matrix" values="0 0 0 0 0 0 0 0 0 0 0 0 0 0 0 0 0 0 0.6 0"/></filter></defs><rect width="300" height="420" fill="#161a33"/><circle cx="234.0" cy="171.6" r="1.4" fill="#f0c159" opacity="0.85"/><circle cx="289.7" cy="218.6" r="0.5" fill="#f0c159" opacity="0.85"/><circle cx="174.1" cy="236.2" r="1.3" fill="#f0c159" opacity="0.85"/><circle cx="153.6" cy="221.8" r="1.5" fill="#f0c159" opacity="0.85"/><circle cx="264.2" cy="295.8" r="1.3" fill="#f0c159" opacity="0.85"/><circle cx="64.6" cy="161.0" r="1.7" fill="#f0c159" opacity="0.85"/><circle cx="110.2" cy="194.0" r="0.9" fill="#f0c159" opacity="0.85"/><circle cx="92.0" cy="230.8" r="1.5" fill="#f0c159" opacity="0.85"/><circle cx="216.1" cy="258.6" r="1.5" fill="#f0c159" opacity="0.85"/><circle cx="148.6" cy="318.5" r="0.9" fill="#f0c159" opacity="0.85"/><circle cx="133.8" cy="151.8" r="1.5" fill="#f0c159" opacity="0.85"/><circle cx="171.6" cy="32.4" r="1.4" fill="#f0c159" opacity="0.85"/><circle cx="38.0" cy="34.6" r="1.4" fill="#f0c159" opacity="0.85"/><circle cx="194.5" cy="291.6" r="0.9" fill="#f0c159" opacity="0.85"/><circle cx="179.7" cy="48.1" r="1.5" fill="#f0c159" opacity="0.85"/><circle cx="65.2" cy="148.9" r="1.6" fill="#f0c159" opacity="0.85"/><circle cx="77.2" cy="256.1" r="0.7" fill="#f0c159" opacity="0.85"/><circle cx="244.9" cy="98.3" r="1.5" fill="#f0c159" opacity="0.85"/><circle cx="133.8" cy="297.7" r="1.5" fill="#f0c159" opacity="0.85"/><circle cx="111.1" cy="137.4" r="1.3" fill="#f0c159" opacity="0.85"/><circle cx="98.5" cy="321.4" r="1.5" fill="#f0c159" opacity="0.85"/><circle cx="181.1" cy="155.9" r="1.6" fill="#f0c159" opacity="0.85"/><circle cx="190.9" cy="76.2" r="1.6" fill="#f0c159" opacity="0.85"/><circle cx="116.7" cy="105.4" r="1.4" fill="#f0c159" opacity="0.85"/><circle cx="243.0" cy="169.0" r="1.2" fill="#f0c159" opacity="0.85"/><circle cx="224.8" cy="93.2" r="0.8" fill="#f0c159" opacity="0.85"/><circle cx="91.2" cy="267.0" r="1.6" fill="#f0c159" opacity="0.85"/><circle cx="97.6" cy="201.4" r="1.4" fill="#f0c159" opacity="0.85"/><circle cx="145.5" cy="288.1" r="0.6" fill="#f0c159" opacity="0.85"/><circle cx="288.6" cy="145.7" r="0.6" fill="#f0c159" opacity="0.85"/><circle cx="110.2" cy="104.4" r="0.9" fill="#f0c159" opacity="0.85"/><circle cx="224.2" cy="31.1" r="1.0" fill="#f0c159" opacity="0.85"/><circle cx="14.5" cy="179.3" r="1.0" fill="#f0c159" opacity="0.85"/><circle cx="231.5" cy="31.8" r="0.8" fill="#f0c159" opacity="0.85"/><circle cx="59.8" cy="243.9" r="1.1" fill="#f0c159" opacity="0.85"/><circle cx="178.3" cy="65.7" r="1.4" fill="#f0c159" opacity="0.85"/><circle cx="203.8" cy="280.4" r="0.9" fill="#f0c159" opacity="0.85"/><circle cx="210.2" cy="63.8" r="1.4" fill="#f0c159" opacity="0.85"/><circle cx="83.4" cy="242.6" r="0.5" fill="#f0c159" opacity="0.85"/><circle cx="269.0" cy="28.6" r="1.4" fill="#f0c159" opacity="0.85"/><circle cx="214" cy="104" r="46" fill="#f0c159"/><circle cx="214" cy="104" r="38" fill="none" stroke="#161a33" stroke-width="2.2"/><circle cx="214" cy="104" r="29" fill="none" stroke="#161a33" stroke-width="2.2"/><circle cx="214" cy="104" r="20" fill="none" stroke="#161a33" stroke-width="2.2"/><path d="M110 120 q14 26 14 74 l-28 0 q0 -48 14 -74 Z" fill="#f0c159"/><circle cx="110" cy="176" r="7" fill="#161a33"/><path d="M96 194 l-12 20 l16 -6 l10 0 Z" fill="#f0c159"/><path d="M124 194 l12 20 l-16 -6 l-10 0 Z" fill="#f0c159"/><path d="M101 214 q9 22 9 22 q0 0 9 -22 Z" fill="#f0c159"/><path d="M110 120 q6 12 8 30 M110 120 q-6 12 -8 30" stroke="#161a33" stroke-width="1.6" fill="none"/><rect y="344" width="300" height="76" fill="#161a33"/><rect x="24" y="355" width="252" height="2" fill="#d3a53c"/><text x="150" y="390" text-anchor="middle" font-family="Georgia, serif" font-weight="700" font-size="44" letter-spacing="6" fill="#f0c159">MARS</text><text x="150" y="409" text-anchor="middle" font-family="Georgia, serif" font-weight="400" font-size="10.5" letter-spacing="4" fill="#d3a53c">NASA · JOURNEY TO MARS</text><rect width="300" height="344" filter="url(#m2g)" opacity="0.1"/></svg>