<svg xmlns="http://www.w3.org/2000/svg" width="300" height="420" viewBox="0 0 300 420"><defs><linearGradient id="m3sky" x1="0" y1="0" x2="0" y2="1"><stop offset="0" stop-color="#7a3b4e"/><stop offset="0.6" stop-color="#c56a44"/><stop offset="1" stop-color="#e39a5e"/></linearGradient></defs><rect width="300" height="248" fill="url(#m3sky)"/><circle cx="70" cy="70" r="18" fill="#d9c3a8"/><circle cx="242" cy="52" r="10" fill="#d9c3a8" opacity="0.8"/><circle cx="86.7" cy="114.6" r="0.7" fill="#f0e6d2" opacity="0.85"/><circle cx="250.0" cy="78.0" r="1.2" fill="#f0e6d2" opacity="0.85"/><circle cx="87.3" cy="73.4" r="1.0" fill="#f0e6d2" opacity="0.85"/><circle cx="190.0" cy="33.5" r="0.7" fill="#f0e6d2" opacity="0.85"/><circle cx="161.8" cy="139.8" r="1.0" fill="#f0e6d2" opacity="0.85"/><circle cx="161.5" cy="29.3" r="0.6" fill="#f0e6d2" opacity="0.85"/><circle cx="151.1" cy="62.8" r="1.4" fill="#f0e6d2" opacity="0.85"/><circle cx="283.0" cy="18.4" r="1.3" fill="#f0e6d2" opacity="0.85"/><circle cx="44.2" cy="50.7" r="1.3" fill="#f0e6d2" opacity="0.85"/><circle cx="46.1" cy="143.0" r="0.6" fill="#f0e6d2" opacity="0.85"/><circle cx="253.0" cy="116.0" r="0.6" fill="#f0e6d2" opacity="0.85"/><circle cx="48.9" cy="48.1" r="0.5" fill="#f0e6d2" opacity="0.85"/><circle cx="38.6" cy="99.5" r="1.3" fill="#f0e6d2" opacity="0.85"/><circle cx="248.8" cy="116.7" r="1.0" fill="#f0e6d2" opacity="0.85"/><circle cx="225.0" cy="52.7" r="1.2" fill="#f0e6d2" opacity="0.85"/><circle cx="177.7" cy="141.6" r="0.7" fill="#f0e6d2" opacity="0.85"/><circle cx="138.2" cy="82.1" r="0.5" fill="#f0e6d2" opacity="0.85"/><circle cx="23.7" cy="149.7" r="1.0" fill="#f0e6d2" opacity="0.85"/><circle cx="33.5" cy="148.5" r="0.8" fill="#f0e6d2" opacity="0.85"/><circle cx="143.0" cy="67.1" r="1.0" fill="#f0e6d2" opacity="0.85"/><circle cx="188.6" cy="13.2" r="1.3" fill="#f0e6d2" opacity="0.85"/><circle cx="89.8" cy="89.8" r="0.5" fill="#f0e6d2" opacity="0.85"/><circle cx="27.9" cy="106.5" r="0.8" fill="#f0e6d2" opacity="0.85"/><circle cx="271.8" cy="36.3" r="1.3" fill="#f0e6d2" opacity="0.85"/><circle cx="209.9" cy="41.8" r="0.5" fill="#f0e6d2" opacity="0.85"/><circle cx="108.8" cy="63.5" r="1.0" fill="#f0e6d2" opacity="0.85"/><path d="M0 210 C 70 190 150 214 300 196 L300 260 L0 260 Z" fill="#bd5a34"/><path d="M0 236 C 90 220 210 246 300 230 L300 300 L0 300 Z" fill="#a6432b"/><rect x="96" y="232" width="60" height="8" fill="#c9bfa7"/><ellipse cx="84" cy="238" rx="30" ry="8" fill="#c9bfa7"/><path d="M54 238 A 30 30 0 0 1 114 238 Z" fill="#6fa0b3" opacity="0.55"/><path d="M54 238 A 30 30 0 0 1 114 238" fill="none" stroke="#e7ddc9" stroke-width="2.4"/><line x1="84" y1="208" x2="84" y2="238" stroke="#e7ddc9" stroke-width="1.2" opacity="0.7"/><ellipse cx="168" cy="240" rx="22" ry="6" fill="#c9bfa7"/><path d="M146 240 A 22 22 0 0 1 190 240 Z" fill="#6fa0b3" opacity="0.55"/><path d="M146 240 A 22 22 0 0 1 190 240" fill="none" stroke="#e7ddc9" stroke-width="2.4"/><line x1="168" y1="218" x2="168" y2="240" stroke="#e7ddc9" stroke-width="1.2" opacity="0.7"/><rect x="232" y="228" width="22" height="9" rx="2" fill="#7a2f1c"/><circle cx="237" cy="238" r="3.2" fill="#7a2f1c"/><circle cx="249" cy="238" r="3.2" fill="#7a2f1c"/><rect x="239" y="222" width="9" height="6" fill="#7a2f1c"/><line x1="120" y1="232" x2="120" y2="204" stroke="#e7ddc9" stroke-width="1.6"/><circle cx="120" cy="203" r="2.4" fill="#f0e6d2"/><rect y="300" width="300" height="120" fill="#7a2f1c"/><rect x="26" y="316" width="248" height="1.5" fill="#e7ddc9"/><rect x="26" y="360" width="248" height="1.5" fill="#e7ddc9"/><text x="150" y="352" text-anchor="middle" font-family="Georgia, serif" font-weight="700" font-size="50" letter-spacing="10" fill="#f0e6d2">MARS</text><text x="150" y="386" text-anchor="middle" font-family="Georgia, serif" font-weight="400" font-size="10.5" letter-spacing="2" fill="#d9c3a8">NASA · EXPLORE THE RED PLANET</text></svg>