<svg xmlns="http://www.w3.org/2000/svg" width="300" height="420" viewBox="0 0 300 420"><rect width="300" height="420" fill="#0e2947"/><line x1="0" y1="0" x2="0" y2="345" stroke="#183a5e" stroke-width="0.6"/><line x1="24" y1="0" x2="24" y2="345" stroke="#183a5e" stroke-width="0.6"/><line x1="48" y1="0" x2="48" y2="345" stroke="#183a5e" stroke-width="0.6"/><line x1="72" y1="0" x2="72" y2="345" stroke="#183a5e" stroke-width="0.6"/><line x1="96" y1="0" x2="96" y2="345" stroke="#183a5e" stroke-width="0.6"/><line x1="120" y1="0" x2="120" y2="345" stroke="#183a5e" stroke-width="0.6"/><line x1="144" y1="0" x2="144" y2="345" stroke="#183a5e" stroke-width="0.6"/><line x1="168" y1="0" x2="168" y2="345" stroke="#183a5e" stroke-width="0.6"/><line x1="192" y1="0" x2="192" y2="345" stroke="#183a5e" stroke-width="0.6"/><line x1="216" y1="0" x2="216" y2="345" stroke="#183a5e" stroke-width="0.6"/><line x1="240" y1="0" x2="240" y2="345" stroke="#183a5e" stroke-width="0.6"/><line x1="264" y1="0" x2="264" y2="345" stroke="#183a5e" stroke-width="0.6"/><line x1="288" y1="0" x2="288" y2="345" stroke="#183a5e" stroke-width="0.6"/><line x1="0" y1="0" x2="300" y2="0" stroke="#183a5e" stroke-width="0.6"/><line x1="0" y1="24" x2="300" y2="24" stroke="#183a5e" stroke-width="0.6"/><line x1="0" y1="48" x2="300" y2="48" stroke="#183a5e" stroke-width="0.6"/><line x1="0" y1="72" x2="300" y2="72" stroke="#183a5e" stroke-width="0.6"/><line x1="0" y1="96" x2="300" y2="96" stroke="#183a5e" stroke-width="0.6"/><line x1="0" y1="120" x2="300" y2="120" stroke="#183a5e" stroke-width="0.6"/><line x1="0" y1="144" x2="300" y2="144" stroke="#183a5e" stroke-width="0.6"/><line x1="0" y1="168" x2="300" y2="168" stroke="#183a5e" stroke-width="0.6"/><line x1="0" y1="192" x2="300" y2="192" stroke="#183a5e" stroke-width="0.6"/><line x1="0" y1="216" x2="300" y2="216" stroke="#183a5e" stroke-width="0.6"/><line x1="0" y1="240" x2="300" y2="240" stroke="#183a5e" stroke-width="0.6"/><line x1="0" y1="264" x2="300" y2="264" stroke="#183a5e" stroke-width="0.6"/><line x1="0" y1="288" x2="300" y2="288" stroke="#183a5e" stroke-width="0.6"/><line x1="0" y1="312" x2="300" y2="312" stroke="#183a5e" stroke-width="0.6"/><line x1="0" y1="336" x2="300" y2="336" stroke="#183a5e" stroke-width="0.6"/><circle cx="150" cy="210" r="66" fill="none" stroke="#cfe6ff" stroke-width="1" opacity="0.55"/><circle cx="150" cy="210" r="120" fill="none" stroke="#cfe6ff" stroke-width="1" opacity="0.4"/><ellipse cx="177.0" cy="210" rx="93.0" ry="89.0" fill="none" stroke="#e6f1ff" stroke-width="1.6" stroke-dasharray="5 4"/><circle cx="150" cy="210" r="9" fill="#f0c95a"/><circle cx="84" cy="210" r="6" fill="#4a8fd0"/><circle cx="270" cy="210" r="8" fill="#d0714a"/><g transform="translate(177.0 121.0) rotate(90)"><path d="M0 -6 L3 4 L-3 4 Z" fill="#e6f1ff"/></g><line x1="136" y1="210" x2="164" y2="210" stroke="#cfe6ff" stroke-width="0.7" opacity="0.6"/><line x1="150" y1="196" x2="150" y2="224" stroke="#cfe6ff" stroke-width="0.7" opacity="0.6"/><text x="84" y="230" text-anchor="middle" font-family="ui-monospace, 'DejaVu Sans Mono', monospace" font-weight="400" font-size="9" letter-spacing="1" fill="#4a8fd0">EARTH</text><text x="270" y="196" text-anchor="middle" font-family="ui-monospace, 'DejaVu Sans Mono', monospace" font-weight="400" font-size="9" letter-spacing="1" fill="#d0714a">MARS</text><text x="150" y="232" text-anchor="middle" font-family="ui-monospace, 'DejaVu Sans Mono', monospace" font-weight="400" font-size="8" letter-spacing="1" fill="#f0c95a">SUN</text><text x="177.0" y="113.00561815485204" text-anchor="middle" font-family="ui-monospace, 'DejaVu Sans Mono', monospace" font-weight="400" font-size="8" letter-spacing="0.5" fill="#e6f1ff">HOHMANN TRANSFER · ~259 d</text><text x="20" y="26" text-anchor="start" font-family="ui-monospace, 'DejaVu Sans Mono', monospace" font-weight="400" font-size="8" letter-spacing="0.5" fill="#bacfe5">FIG. 1 — EARTH→MARS TRANSFER ORBIT</text><rect y="345" width="300" height="75" fill="#0a1e35"/><rect x="24" y="356" width="252" height="1.5" fill="#d0714a"/><text x="150" y="388" text-anchor="middle" font-family="ui-monospace, 'DejaVu Sans Mono', monospace" font-weight="700" font-size="26" letter-spacing="1" fill="#e6f1ff">MARS TRANSFER</text><text x="150" y="406" text-anchor="middle" font-family="ui-monospace, 'DejaVu Sans Mono', monospace" font-weight="400" font-size="8.5" letter-spacing="3" fill="#afc3d8">NASA · MISSION TRAJECTORY</text></svg>