<svg xmlns="http://www.w3.org/2000/svg" width="300" height="420" viewBox="0 0 300 420"><defs><linearGradient id="m5sky" x1="0" y1="0" x2="0" y2="1"><stop offset="0" stop-color="#5a2b34"/><stop offset="1" stop-color="#c96b41"/></linearGradient></defs><rect width="300" height="345" fill="#2a1119"/><rect width="300" height="248" fill="url(#m5sky)"/><circle cx="240" cy="58" r="14" fill="#d9c3a8"/><circle cx="278.2" cy="129.5" r="0.9" fill="#f0e6d2" opacity="0.85"/><circle cx="89.8" cy="29.0" r="0.6" fill="#f0e6d2" opacity="0.85"/><circle cx="178.0" cy="19.5" r="1.2" fill="#f0e6d2" opacity="0.85"/><circle cx="231.5" cy="59.4" r="0.7" fill="#f0e6d2" opacity="0.85"/><circle cx="169.6" cy="10.4" r="1.1" fill="#f0e6d2" opacity="0.85"/><circle cx="223.1" cy="128.3" r="0.9" fill="#f0e6d2" opacity="0.85"/><circle cx="96.2" cy="104.2" r="1.1" fill="#f0e6d2" opacity="0.85"/><circle cx="62.4" cy="100.5" r="0.5" fill="#f0e6d2" opacity="0.85"/><circle cx="65.4" cy="90.0" r="1.1" fill="#f0e6d2" opacity="0.85"/><circle cx="235.4" cy="119.5" r="1.0" fill="#f0e6d2" opacity="0.85"/><circle cx="173.5" cy="124.5" r="0.8" fill="#f0e6d2" opacity="0.85"/><circle cx="70.2" cy="114.5" r="0.6" fill="#f0e6d2" opacity="0.85"/><circle cx="131.5" cy="74.9" r="1.1" fill="#f0e6d2" opacity="0.85"/><circle cx="245.5" cy="134.5" r="0.6" fill="#f0e6d2" opacity="0.85"/><circle cx="194.8" cy="61.6" r="0.7" fill="#f0e6d2" opacity="0.85"/><circle cx="163.2" cy="131.7" r="1.2" fill="#f0e6d2" opacity="0.85"/><circle cx="251.4" cy="27.6" r="0.9" fill="#f0e6d2" opacity="0.85"/><circle cx="204.0" cy="120.5" r="0.8" fill="#f0e6d2" opacity="0.85"/><circle cx="133.2" cy="102.7" r="1.0" fill="#f0e6d2" opacity="0.85"/><circle cx="280.8" cy="46.9" r="0.7" fill="#f0e6d2" opacity="0.85"/><circle cx="254.7" cy="80.1" r="0.9" fill="#f0e6d2" opacity="0.85"/><circle cx="57.3" cy="130.4" r="1.3" fill="#f0e6d2" opacity="0.85"/><polygon points="150.0,86.0 340.5,196.0 150.0,306.0 -40.5,196.0" fill="#b4552f"/><line x1="169.1" y1="97.0" x2="-21.5" y2="207.0" stroke="#8f3f22" stroke-width="0.6" opacity="0.5"/><line x1="130.9" y1="97.0" x2="321.5" y2="207.0" stroke="#8f3f22" stroke-width="0.6" opacity="0.5"/><line x1="188.1" y1="108.0" x2="-2.4" y2="218.0" stroke="#8f3f22" stroke-width="0.6" opacity="0.5"/><line x1="111.9" y1="108.0" x2="302.4" y2="218.0" stroke="#8f3f22" stroke-width="0.6" opacity="0.5"/><line x1="207.2" y1="119.0" x2="16.6" y2="229.0" stroke="#8f3f22" stroke-width="0.6" opacity="0.5"/><line x1="92.8" y1="119.0" x2="283.4" y2="229.0" stroke="#8f3f22" stroke-width="0.6" opacity="0.5"/><line x1="226.2" y1="130.0" x2="35.7" y2="240.0" stroke="#8f3f22" stroke-width="0.6" opacity="0.5"/><line x1="73.8" y1="130.0" x2="264.3" y2="240.0" stroke="#8f3f22" stroke-width="0.6" opacity="0.5"/><line x1="245.3" y1="141.0" x2="54.7" y2="251.0" stroke="#8f3f22" stroke-width="0.6" opacity="0.5"/><line x1="54.7" y1="141.0" x2="245.3" y2="251.0" stroke="#8f3f22" stroke-width="0.6" opacity="0.5"/><line x1="264.3" y1="152.0" x2="73.8" y2="262.0" stroke="#8f3f22" stroke-width="0.6" opacity="0.5"/><line x1="35.7" y1="152.0" x2="226.2" y2="262.0" stroke="#8f3f22" stroke-width="0.6" opacity="0.5"/><line x1="283.4" y1="163.0" x2="92.8" y2="273.0" stroke="#8f3f22" stroke-width="0.6" opacity="0.5"/><line x1="16.6" y1="163.0" x2="207.2" y2="273.0" stroke="#8f3f22" stroke-width="0.6" opacity="0.5"/><line x1="302.4" y1="174.0" x2="111.9" y2="284.0" stroke="#8f3f22" stroke-width="0.6" opacity="0.5"/><line x1="-2.4" y1="174.0" x2="188.1" y2="284.0" stroke="#8f3f22" stroke-width="0.6" opacity="0.5"/><line x1="321.5" y1="185.0" x2="130.9" y2="295.0" stroke="#8f3f22" stroke-width="0.6" opacity="0.5"/><line x1="-21.5" y1="185.0" x2="169.1" y2="295.0" stroke="#8f3f22" stroke-width="0.6" opacity="0.5"/><polygon points="142.4,103.6 167.1,117.9 144.3,120.1 119.5,105.8" fill="#2f3b63"/><polygon points="172.9,121.2 197.6,135.5 174.8,137.7 150.0,123.4" fill="#2f3b63"/><polygon points="138.6,156.4 199.5,191.6 190.0,197.1 129.0,161.9" fill="#fff8e6"/><polygon points="138.6,167.4 129.0,172.9 129.0,161.9 138.6,156.4" fill="#908b81"/><polygon points="138.6,167.4 199.5,202.6 199.5,191.6 138.6,156.4" fill="#b8b2a5"/><ellipse cx="130.9" cy="154.2" rx="37.9" ry="19.1" fill="#7fa6b5"/><path d="M93.0 154.2 A 37.9 37.9 0 0 1 168.9 154.2 Z" fill="#dfe6ea" opacity="0.9"/><path d="M93.0 154.2 A 37.9 37.9 0 0 1 168.9 154.2" fill="none" stroke="#7fa6b5" stroke-width="1.6"/><ellipse cx="184.3" cy="215.8" rx="27.8" ry="14.0" fill="#7fa6b5"/><path d="M156.5 215.8 A 27.8 27.8 0 0 1 212.1 215.8 Z" fill="#dfe6ea" opacity="0.9"/><path d="M156.5 215.8 A 27.8 27.8 0 0 1 212.1 215.8" fill="none" stroke="#7fa6b5" stroke-width="1.6"/><polygon points="150.0,213.6 176.7,229.0 150.0,244.4 123.3,229.0" fill="#c5bca8"/><polygon points="150.0,244.4 123.3,259.8 123.3,229.0 150.0,213.6" fill="#6e695f"/><polygon points="150.0,244.4 176.7,259.8 176.7,229.0 150.0,213.6" fill="#8d8779"/><path d="M144.0 259.8 l-7 12 M156.0 259.8 l7 12" stroke="#9a9384" stroke-width="2" fill="none"/><path d="M146.0 257.8 l8 0 l-2 6 l-4 0 Z" fill="#7a2f1c"/><line x1="16.6" y1="196.0" x2="16.6" y2="166.0" stroke="#c9c2b4" stroke-width="1.6"/><rect x="16.6" y="166.0" width="14" height="9" fill="#7a2f1c"/><rect y="345" width="300" height="75" fill="#1c1220"/><rect x="24" y="356" width="252" height="2" fill="#c96b41"/><text x="150" y="390" text-anchor="middle" font-family="Georgia, serif" font-weight="700" font-size="40" letter-spacing="3" fill="#f0e6d2">MARS BASE</text><text x="150" y="409" text-anchor="middle" font-family="Georgia, serif" font-weight="400" font-size="10" letter-spacing="4" fill="#c96b41">NASA · FIRST SETTLEMENT</text></svg>