<svg xmlns="http://www.w3.org/2000/svg" width="340" height="360" viewBox="0 0 340 360"><defs><linearGradient id="isk" x1="0" y1="0" x2="0" y2="1"><stop offset="0" stop-color="#cfe0ea"/><stop offset="1" stop-color="#eef2ee"/></linearGradient></defs><rect width="340" height="360" fill="url(#isk)"/><circle cx="256" cy="72" r="22" fill="#f4c95d" opacity="0.9"/><polygon points="170.0,148.0 315.5,232.0 170.0,316.0 24.5,232.0" fill="#8ea77e" stroke="none" stroke-width="0" stroke-linejoin="round"/><polygon points="170.0,148.0 315.5,232.0 170.0,316.0 24.5,232.0" fill="none" stroke="#788d6b" stroke-width="1" stroke-linejoin="round"/><polygon points="135.4,140.0 79.9,224.0 107.6,240.0" fill="#7d8fa8" stroke="none" stroke-width="0" stroke-linejoin="round"/><polygon points="135.4,140.0 107.6,240.0 135.4,256.0" fill="#74859c" stroke="none" stroke-width="0" stroke-linejoin="round"/><polygon points="135.4,140.0 135.4,256.0 163.1,240.0" fill="#4d5a6f" stroke="none" stroke-width="0" stroke-linejoin="round"/><polygon points="135.4,140.0 163.1,240.0 190.8,224.0" fill="#455163" stroke="none" stroke-width="0" stroke-linejoin="round"/><polygon points="135.4,140.0 116.5,168.6 135.4,179.4" fill="#f2f6fa" stroke="none" stroke-width="0" stroke-linejoin="round"/><polygon points="135.4,140.0 135.4,179.4 154.2,168.6" fill="#d6e0ea" stroke="none" stroke-width="0" stroke-linejoin="round"/><polygon points="187.3,90.0 93.8,234.0 140.6,261.0" fill="#7789a0" stroke="none" stroke-width="0" stroke-linejoin="round"/><polygon points="187.3,90.0 140.6,261.0 187.3,288.0" fill="#6f7f95" stroke="none" stroke-width="0" stroke-linejoin="round"/><polygon points="187.3,90.0 187.3,288.0 234.1,261.0" fill="#4a566a" stroke="none" stroke-width="0" stroke-linejoin="round"/><polygon points="187.3,90.0 234.1,261.0 280.9,234.0" fill="#424d5f" stroke="none" stroke-width="0" stroke-linejoin="round"/><polygon points="187.3,90.0 155.5,139.0 187.3,157.3" fill="#f2f6fa" stroke="none" stroke-width="0" stroke-linejoin="round"/><polygon points="187.3,90.0 187.3,157.3 219.1,139.0" fill="#d6e0ea" stroke="none" stroke-width="0" stroke-linejoin="round"/><text x="170" y="344" text-anchor="middle" font-family="Helvetica, Arial, sans-serif" font-weight="700" font-size="13" letter-spacing="2" fill="#3a4356">ISOMETRIC · faceted</text></svg>