<svg xmlns="http://www.w3.org/2000/svg" width="340" height="360" viewBox="0 0 340 360"><defs><filter id="mg" x="0" y="0" width="100%" height="100%"><feTurbulence type="fractalNoise" baseFrequency="0.8" numOctaves="2" stitchTiles="stitch" result="n"/><feColorMatrix in="n" type="matrix" values="0 0 0 0 0 0 0 0 0 0 0 0 0 0 0 0 0 0 0.5 0"/></filter></defs><rect width="340" height="360" fill="#f0e2c0"/><circle cx="238" cy="96" r="40" fill="#d9673a"/><circle cx="238" cy="96" r="32" fill="none" stroke="#f0e2c0" stroke-width="2"/><circle cx="238" cy="96" r="24" fill="none" stroke="#f0e2c0" stroke-width="2"/><circle cx="238" cy="96" r="16" fill="none" stroke="#f0e2c0" stroke-width="2"/><polygon points="30.0,262.0 140.0,110.0 250.0,262.0" fill="#d9673a" stroke="none" stroke-width="0" stroke-linejoin="round"/><polygon points="96.0,262.0 190.0,120.0 300.0,262.0" fill="#1b2740" stroke="none" stroke-width="0" stroke-linejoin="round"/><polygon points="168.0,150.0 190.0,120.0 212.0,150.0 198.0,158.0 190.0,146.0 182.0,158.0" fill="#f0e2c0" stroke="none" stroke-width="0" stroke-linejoin="round"/><path d="M147 180 L190 166 L233 180" fill="none" stroke="#f0e2c0" stroke-width="1.4" opacity="0.6"/><path d="M125 210 L190 196 L255 210" fill="none" stroke="#f0e2c0" stroke-width="1.4" opacity="0.6"/><path d="M104 240 L190 226 L276 240" fill="none" stroke="#f0e2c0" stroke-width="1.4" opacity="0.6"/><rect width="340" height="300" filter="url(#mg)" opacity="0.1"/><text x="170" y="344" text-anchor="middle" font-family="Georgia, serif" font-weight="700" font-size="13" letter-spacing="2" fill="#1b2740">DUOTONE · blockprint</text></svg>