<svg xmlns="http://www.w3.org/2000/svg" width="340" height="360" viewBox="0 0 340 360"><defs><linearGradient id="fsky" x1="0" y1="0" x2="0" y2="1"><stop offset="0" stop-color="#f6c88f"/><stop offset="0.5" stop-color="#f0dcc0"/><stop offset="1" stop-color="#eef1f2"/></linearGradient></defs><rect width="340" height="360" fill="url(#fsky)"/><circle cx="180" cy="108" r="34" fill="#f7ead0"/><path d="M0 168 C 70 150 120 176 180 158 S 300 150 340 172 L340 300 L0 300 Z" fill="#b9c6cf"/><ellipse cx="120" cy="178" rx="80" ry="9" fill="#ffffff" opacity="0.18"/><path d="M0 196 C 60 178 130 206 190 190 S 300 182 340 200 L340 300 L0 300 Z" fill="#8ba0af"/><ellipse cx="160" cy="206" rx="80" ry="9" fill="#ffffff" opacity="0.18"/><path d="M0 224 Q 90 196 170 222 T 340 224 L340 300 L0 300 Z" fill="#5f7788"/><path d="M150 216 L170 200 L190 216 L182 220 L170 210 L158 220 Z" fill="#e8eef2"/><ellipse cx="200" cy="234" rx="80" ry="9" fill="#ffffff" opacity="0.18"/><path d="M0 252 C 80 236 150 262 210 248 S 320 250 340 258 L340 300 L0 300 Z" fill="#3a5060"/><ellipse cx="240" cy="262" rx="80" ry="9" fill="#ffffff" opacity="0.18"/><text x="170" y="344" text-anchor="middle" font-family="Helvetica, Arial, sans-serif" font-weight="700" font-size="13" letter-spacing="2" fill="#2a3742">FLAT VECTOR · layered</text></svg>