<svg xmlns="http://www.w3.org/2000/svg" width="340" height="360" viewBox="0 0 340 360"><defs>
     <linearGradient id="dsky" x1="0" y1="0" x2="0" y2="1"><stop offset="0" stop-color="#2a2350"/><stop offset="0.45" stop-color="#7b3b78"/><stop offset="0.8" stop-color="#e0714e"/><stop offset="1" stop-color="#f4b26a"/></linearGradient>
     <radialGradient id="glow" cx="0.5" cy="0.5" r="0.5"><stop offset="0" stop-color="#ffe6b0"/><stop offset="1" stop-color="#ffe6b0" stop-opacity="0"/></radialGradient>
     <linearGradient id="mfar" x1="0" y1="0" x2="0" y2="1"><stop offset="0" stop-color="#8a5a86"/><stop offset="1" stop-color="#a86a72"/></linearGradient>
     <linearGradient id="mnear" x1="0" y1="0" x2="0" y2="1"><stop offset="0" stop-color="#3a2a52"/><stop offset="1" stop-color="#241a3a"/></linearGradient>
     <filter id="soft"><feGaussianBlur stdDeviation="1.4"/></filter></defs><rect width="340" height="360" fill="url(#dsky)"/><circle cx="180" cy="150" r="120" fill="url(#glow)"/><circle cx="180" cy="150" r="30" fill="#ffe9c4"/><path d="M0 176 C 80 150 140 186 200 164 S 320 156 340 180 L340 300 L0 300 Z" fill="url(#mfar)" opacity="0.9" filter="url(#soft)"/><path d="M0 226 C 70 196 150 236 210 214 S 320 214 340 232 L340 300 L0 300 Z" fill="url(#mnear)" filter="url(#soft)"/><path d="M150 212 L172 190 L196 214 L184 218 L172 204 L160 218 Z" fill="#efe0f0" opacity="0.85"/><ellipse cx="170" cy="250" rx="150" ry="16" fill="#e0714e" opacity="0.15"/><text x="170" y="344" text-anchor="middle" font-family="Georgia, serif" font-weight="700" font-size="13" letter-spacing="2" fill="#f4e3c8">GRADIENT · painterly</text></svg>