<svg xmlns="http://www.w3.org/2000/svg" width="560" height="460" viewBox="0 0 560 460"><defs><clipPath id="mwus"><path d="M48.4 72.3 L52.4 123.1 L54.0 147.5 L66.8 172.0 L81.2 203.0 L109.2 221.8 L128.4 219.9 L158.0 233.1 L180.4 233.1 L194.0 228.4 L222.0 254.7 L250.0 268.8 L266.8 283.8 L286.0 254.7 L295.6 248.1 L326.0 252.8 L342.0 242.5 L371.6 245.3 L383.6 266.0 L397.2 290.4 L405.2 284.8 L401.2 260.3 L394.8 238.7 L412.4 215.2 L438.8 180.4 L442.0 166.3 L454.0 146.6 L477.2 137.2 L486.0 135.3 L479.6 122.2 L510.0 105.2 L492.4 81.7 L474.0 104.3 L434.0 117.5 L414.0 120.3 L386.0 135.3 L382.0 129.7 L386.0 104.3 L368.4 95.8 L350.0 103.4 L342.0 86.4 L318.8 87.4 L284.4 66.7 L214.0 66.7 L118.0 66.7 L62.0 66.7 Z"/></clipPath><filter id="mwsoft"><feGaussianBlur stdDeviation="3.5"/></filter></defs><rect width="560" height="460" fill="#efe7d6"/><text x="46.0" y="36.0" text-anchor="start" font-family="Georgia, serif" font-weight="700" font-size="19" letter-spacing="0" fill="#26241f">Where the sun is now</text><text x="514.0" y="34.0" text-anchor="end" font-family="Helvetica, Arial, sans-serif" font-weight="400" font-size="10" letter-spacing="0.5" fill="#8a8168">US · sunset, daylight</text><line x1="46" y1="48" x2="514" y2="48" stroke="#d6ccb8" stroke-width="1"/><path d="M48.4 72.3 L52.4 123.1 L54.0 147.5 L66.8 172.0 L81.2 203.0 L109.2 221.8 L128.4 219.9 L158.0 233.1 L180.4 233.1 L194.0 228.4 L222.0 254.7 L250.0 268.8 L266.8 283.8 L286.0 254.7 L295.6 248.1 L326.0 252.8 L342.0 242.5 L371.6 245.3 L383.6 266.0 L397.2 290.4 L405.2 284.8 L401.2 260.3 L394.8 238.7 L412.4 215.2 L438.8 180.4 L442.0 166.3 L454.0 146.6 L477.2 137.2 L486.0 135.3 L479.6 122.2 L510.0 105.2 L492.4 81.7 L474.0 104.3 L434.0 117.5 L414.0 120.3 L386.0 135.3 L382.0 129.7 L386.0 104.3 L368.4 95.8 L350.0 103.4 L342.0 86.4 L318.8 87.4 L284.4 66.7 L214.0 66.7 L118.0 66.7 L62.0 66.7 Z" fill="#ddd3c0"/><g clip-path="url(#mwus)"><line x1="130.0" y1="56" x2="130.0" y2="300" stroke="#b8ad95" stroke-width="0.8" stroke-dasharray="3 4" opacity="0.5"/><line x1="234.0" y1="56" x2="234.0" y2="300" stroke="#b8ad95" stroke-width="0.8" stroke-dasharray="3 4" opacity="0.5"/><line x1="366.0" y1="56" x2="366.0" y2="300" stroke="#b8ad95" stroke-width="0.8" stroke-dasharray="3 4" opacity="0.5"/><polygon points="303.4,297.0 305.6,292.3 307.7,287.6 309.8,282.9 312.0,278.2 314.2,273.5 316.4,268.8 318.6,264.1 320.9,259.4 323.1,254.7 325.4,250.0 327.8,245.3 330.1,240.6 332.5,235.9 334.9,231.2 337.3,226.5 339.8,221.8 342.3,217.1 344.9,212.4 347.4,207.7 350.0,203.0 352.7,198.3 355.3,193.6 358.1,188.9 360.8,184.2 363.6,179.5 366.4,174.8 369.3,170.1 372.3,165.4 375.2,160.7 378.3,156.0 381.3,151.3 384.5,146.6 387.7,141.9 390.9,137.2 394.2,132.5 397.6,127.8 401.0,123.1 404.5,118.4 408.1,113.7 411.7,109.0 415.4,104.3 419.2,99.6 423.1,94.9 427.1,90.2 431.2,85.5 435.3,80.8 439.6,76.1 443.9,71.4 448.4,66.7 453.0,62.0 566.0,62.0 566.0,297.0" fill="#8f9ca3" opacity="0.4"/></g><g clip-path="url(#mwus)"><path d="M303.4 297.0 L305.6 292.3 L307.7 287.6 L309.8 282.9 L312.0 278.2 L314.2 273.5 L316.4 268.8 L318.6 264.1 L320.9 259.4 L323.1 254.7 L325.4 250.0 L327.8 245.3 L330.1 240.6 L332.5 235.9 L334.9 231.2 L337.3 226.5 L339.8 221.8 L342.3 217.1 L344.9 212.4 L347.4 207.7 L350.0 203.0 L352.7 198.3 L355.3 193.6 L358.1 188.9 L360.8 184.2 L363.6 179.5 L366.4 174.8 L369.3 170.1 L372.3 165.4 L375.2 160.7 L378.3 156.0 L381.3 151.3 L384.5 146.6 L387.7 141.9 L390.9 137.2 L394.2 132.5 L397.6 127.8 L401.0 123.1 L404.5 118.4 L408.1 113.7 L411.7 109.0 L415.4 104.3 L419.2 99.6 L423.1 94.9 L427.1 90.2 L431.2 85.5 L435.3 80.8 L439.6 76.1 L443.9 71.4 L448.4 66.7 L453.0 62.0" fill="none" stroke="#d8702f" stroke-width="2.2"/></g><path d="M48.4 72.3 L52.4 123.1 L54.0 147.5 L66.8 172.0 L81.2 203.0 L109.2 221.8 L128.4 219.9 L158.0 233.1 L180.4 233.1 L194.0 228.4 L222.0 254.7 L250.0 268.8 L266.8 283.8 L286.0 254.7 L295.6 248.1 L326.0 252.8 L342.0 242.5 L371.6 245.3 L383.6 266.0 L397.2 290.4 L405.2 284.8 L401.2 260.3 L394.8 238.7 L412.4 215.2 L438.8 180.4 L442.0 166.3 L454.0 146.6 L477.2 137.2 L486.0 135.3 L479.6 122.2 L510.0 105.2 L492.4 81.7 L474.0 104.3 L434.0 117.5 L414.0 120.3 L386.0 135.3 L382.0 129.7 L386.0 104.3 L368.4 95.8 L350.0 103.4 L342.0 86.4 L318.8 87.4 L284.4 66.7 L214.0 66.7 L118.0 66.7 L62.0 66.7 Z" fill="none" stroke="#26241f" stroke-width="1.0" opacity="0.9"/><text x="88.0" y="72.0" text-anchor="middle" font-family="Helvetica, Arial, sans-serif" font-weight="700" font-size="10.5" letter-spacing="1" fill="#26241f">PT</text><text x="88.0" y="84.0" text-anchor="middle" font-family="Helvetica, Arial, sans-serif" font-weight="400" font-size="8.5" letter-spacing="0" fill="#c2622f">6:00 PM</text><text x="182.0" y="72.0" text-anchor="middle" font-family="Helvetica, Arial, sans-serif" font-weight="700" font-size="10.5" letter-spacing="1" fill="#26241f">MT</text><text x="182.0" y="84.0" text-anchor="middle" font-family="Helvetica, Arial, sans-serif" font-weight="400" font-size="8.5" letter-spacing="0" fill="#c2622f">7:00 PM</text><text x="300.0" y="72.0" text-anchor="middle" font-family="Helvetica, Arial, sans-serif" font-weight="700" font-size="10.5" letter-spacing="1" fill="#26241f">CT</text><text x="300.0" y="84.0" text-anchor="middle" font-family="Helvetica, Arial, sans-serif" font-weight="400" font-size="8.5" letter-spacing="0" fill="#c2622f">8:00 PM</text><text x="440.0" y="72.0" text-anchor="middle" font-family="Helvetica, Arial, sans-serif" font-weight="700" font-size="10.5" letter-spacing="1" fill="#26241f">ET</text><text x="440.0" y="84.0" text-anchor="middle" font-family="Helvetica, Arial, sans-serif" font-weight="400" font-size="8.5" letter-spacing="0" fill="#c2622f">9:00 PM</text><circle cx="67.4" cy="79.8" r="2.4" fill="#26241f" stroke="#efe7d6" stroke-width="0.7"/><text x="60.4" y="82.8" text-anchor="end" font-family="Helvetica, Arial, sans-serif" font-weight="400" font-size="8.2" letter-spacing="0" fill="#26241f">Seattle</text><text x="60.4" y="91.8" text-anchor="end" font-family="Helvetica, Arial, sans-serif" font-weight="400" font-size="7.8" letter-spacing="0" fill="#c2622f">↓ 9:11p</text><circle cx="66.6" cy="172.3" r="2.4" fill="#26241f" stroke="#efe7d6" stroke-width="0.7"/><text x="59.6" y="175.3" text-anchor="end" font-family="Helvetica, Arial, sans-serif" font-weight="400" font-size="8.2" letter-spacing="0" fill="#26241f">San Francisco</text><text x="59.6" y="184.3" text-anchor="end" font-family="Helvetica, Arial, sans-serif" font-weight="400" font-size="7.8" letter-spacing="0" fill="#c2622f">↓ 8:36p</text><circle cx="100.1" cy="207.2" r="2.4" fill="#26241f" stroke="#efe7d6" stroke-width="0.7"/><text x="93.1" y="210.2" text-anchor="end" font-family="Helvetica, Arial, sans-serif" font-weight="400" font-size="8.2" letter-spacing="0" fill="#26241f">Los Angeles</text><text x="93.1" y="219.2" text-anchor="end" font-family="Helvetica, Arial, sans-serif" font-weight="400" font-size="7.8" letter-spacing="0" fill="#c2622f">↓ 8:08p</text><circle cx="149.4" cy="212.9" r="2.4" fill="#26241f" stroke="#efe7d6" stroke-width="0.7"/><text x="149.4" y="206.9" text-anchor="middle" font-family="Helvetica, Arial, sans-serif" font-weight="400" font-size="8.2" letter-spacing="0" fill="#26241f">Phoenix</text><text x="149.4" y="215.9" text-anchor="middle" font-family="Helvetica, Arial, sans-serif" font-weight="400" font-size="7.8" letter-spacing="0" fill="#c2622f">↓ 7:42p</text><circle cx="206.1" cy="153.7" r="2.4" fill="#26241f" stroke="#efe7d6" stroke-width="0.7"/><text x="213.1" y="156.7" text-anchor="start" font-family="Helvetica, Arial, sans-serif" font-weight="400" font-size="8.2" letter-spacing="0" fill="#26241f">Denver</text><text x="213.1" y="165.7" text-anchor="start" font-family="Helvetica, Arial, sans-serif" font-weight="400" font-size="7.8" letter-spacing="0" fill="#c2622f">↓ 8:32p</text><circle cx="150.9" cy="144.2" r="2.4" fill="#26241f" stroke="#efe7d6" stroke-width="0.7"/><text x="143.9" y="147.2" text-anchor="end" font-family="Helvetica, Arial, sans-serif" font-weight="400" font-size="8.2" letter-spacing="0" fill="#26241f">Salt Lake City</text><text x="143.9" y="156.2" text-anchor="end" font-family="Helvetica, Arial, sans-serif" font-weight="400" font-size="7.8" letter-spacing="0" fill="#c2622f">↓ 9:03p</text><circle cx="271.6" cy="219.2" r="2.4" fill="#26241f" stroke="#efe7d6" stroke-width="0.7"/><text x="271.6" y="213.2" text-anchor="middle" font-family="Helvetica, Arial, sans-serif" font-weight="400" font-size="8.2" letter-spacing="0" fill="#26241f">Dallas</text><text x="271.6" y="222.2" text-anchor="middle" font-family="Helvetica, Arial, sans-serif" font-weight="400" font-size="7.8" letter-spacing="0" fill="#c2622f">↓ 8:39p</text><circle cx="345.0" cy="133.6" r="2.4" fill="#26241f" stroke="#efe7d6" stroke-width="0.7"/><text x="352.0" y="136.6" text-anchor="start" font-family="Helvetica, Arial, sans-serif" font-weight="400" font-size="8.2" letter-spacing="0" fill="#26241f">Chicago</text><text x="352.0" y="145.6" text-anchor="start" font-family="Helvetica, Arial, sans-serif" font-weight="400" font-size="7.8" letter-spacing="0" fill="#c2622f">↓ 8:30p</text><circle cx="299.8" cy="104.5" r="2.4" fill="#26241f" stroke="#efe7d6" stroke-width="0.7"/><text x="306.8" y="107.5" text-anchor="start" font-family="Helvetica, Arial, sans-serif" font-weight="400" font-size="8.2" letter-spacing="0" fill="#26241f">Minneapolis</text><text x="306.8" y="116.5" text-anchor="start" font-family="Helvetica, Arial, sans-serif" font-weight="400" font-size="7.8" letter-spacing="0" fill="#c2622f">↓ 9:04p</text><circle cx="325.4" cy="245.8" r="2.4" fill="#26241f" stroke="#efe7d6" stroke-width="0.7"/><text x="325.4" y="239.8" text-anchor="middle" font-family="Helvetica, Arial, sans-serif" font-weight="400" font-size="8.2" letter-spacing="0" fill="#26241f">New Orleans</text><text x="325.4" y="248.8" text-anchor="middle" font-family="Helvetica, Arial, sans-serif" font-weight="400" font-size="7.8" letter-spacing="0" fill="#c2622f">↓ 8:05p</text><circle cx="404.5" cy="285.2" r="2.4" fill="#8a8168" stroke="#efe7d6" stroke-width="0.7"/><text x="411.5" y="288.2" text-anchor="start" font-family="Helvetica, Arial, sans-serif" font-weight="400" font-size="8.2" letter-spacing="0" fill="#26241f">Miami</text><text x="411.5" y="297.2" text-anchor="start" font-family="Helvetica, Arial, sans-serif" font-weight="400" font-size="7.8" letter-spacing="0" fill="#c2622f">↓ 8:16p</text><circle cx="370.9" cy="210.1" r="2.4" fill="#8a8168" stroke="#efe7d6" stroke-width="0.7"/><text x="377.9" y="213.1" text-anchor="start" font-family="Helvetica, Arial, sans-serif" font-weight="400" font-size="8.2" letter-spacing="0" fill="#26241f">Atlanta</text><text x="377.9" y="222.1" text-anchor="start" font-family="Helvetica, Arial, sans-serif" font-weight="400" font-size="7.8" letter-spacing="0" fill="#c2622f">↓ 8:52p</text><circle cx="453.9" cy="144.6" r="2.4" fill="#8a8168" stroke="#efe7d6" stroke-width="0.7"/><text x="460.9" y="147.6" text-anchor="start" font-family="Helvetica, Arial, sans-serif" font-weight="400" font-size="8.2" letter-spacing="0" fill="#26241f">New York</text><text x="460.9" y="156.6" text-anchor="start" font-family="Helvetica, Arial, sans-serif" font-weight="400" font-size="7.8" letter-spacing="0" fill="#c2622f">↓ 8:31p</text><circle cx="477.5" cy="129.1" r="2.4" fill="#8a8168" stroke="#efe7d6" stroke-width="0.7"/><text x="484.5" y="132.1" text-anchor="start" font-family="Helvetica, Arial, sans-serif" font-weight="400" font-size="8.2" letter-spacing="0" fill="#26241f">Boston</text><text x="484.5" y="141.1" text-anchor="start" font-family="Helvetica, Arial, sans-serif" font-weight="400" font-size="7.8" letter-spacing="0" fill="#c2622f">↓ 8:25p</text><line x1="46" y1="316" x2="514" y2="316" stroke="#d6ccb8" stroke-width="1"/><rect x="46" y="330" width="13" height="11" rx="2" fill="#ddd3c0" opacity="1.0"/><text x="65.0" y="339.0" text-anchor="start" font-family="Helvetica, Arial, sans-serif" font-weight="400" font-size="9.5" letter-spacing="0" fill="#26241f">daylight now</text><rect x="152.2" y="330" width="13" height="11" rx="2" fill="#8f9ca3" opacity="0.9"/><text x="171.2" y="339.0" text-anchor="start" font-family="Helvetica, Arial, sans-serif" font-weight="400" font-size="9.5" letter-spacing="0" fill="#26241f">night now</text><line x1="241.6" y1="336" x2="256.6" y2="336" stroke="#d8702f" stroke-width="2.4"/><text x="262.6" y="339.0" text-anchor="start" font-family="Helvetica, Arial, sans-serif" font-weight="400" font-size="9.5" letter-spacing="0" fill="#26241f">sunset line (now)</text><text x="46.0" y="362.0" text-anchor="start" font-family="Helvetica, Arial, sans-serif" font-weight="400" font-size="8.2" letter-spacing="0" fill="#8a8168">Sunset times: NOAA solar equations, 2026-07-01 (±1 min). Zones show current local clock time.</text><text x="46.0" y="376.0" text-anchor="start" font-family="Helvetica, Arial, sans-serif" font-weight="400" font-size="8.2" letter-spacing="0" fill="#8a8168">Daylight for 2026-07-02 01:00 UTC (9 PM EDT). Zone bands approximate — real ones follow state lines.</text></svg>