<svg xmlns="http://www.w3.org/2000/svg" width="300" height="420" viewBox="0 0 300 420"><defs><linearGradient id="s1sky" x1="0" y1="0" x2="0" y2="1"><stop offset="0" stop-color="#bfe0e6"/><stop offset="1" stop-color="#e9eef0"/></linearGradient></defs><rect width="300" height="345" fill="url(#s1sky)"/><circle cx="248" cy="60" r="24" fill="#f4c95d"/><line x1="278.0" y1="60.0" x2="288.0" y2="60.0" stroke="#f4c95d" stroke-width="2.4" stroke-linecap="round"/><line x1="272.3" y1="77.6" x2="280.4" y2="83.5" stroke="#f4c95d" stroke-width="2.4" stroke-linecap="round"/><line x1="257.3" y1="88.5" x2="260.4" y2="98.0" stroke="#f4c95d" stroke-width="2.4" stroke-linecap="round"/><line x1="238.7" y1="88.5" x2="235.6" y2="98.0" stroke="#f4c95d" stroke-width="2.4" stroke-linecap="round"/><line x1="223.7" y1="77.6" x2="215.6" y2="83.5" stroke="#f4c95d" stroke-width="2.4" stroke-linecap="round"/><line x1="218.0" y1="60.0" x2="208.0" y2="60.0" stroke="#f4c95d" stroke-width="2.4" stroke-linecap="round"/><line x1="223.7" y1="42.4" x2="215.6" y2="36.5" stroke="#f4c95d" stroke-width="2.4" stroke-linecap="round"/><line x1="238.7" y1="31.5" x2="235.6" y2="22.0" stroke="#f4c95d" stroke-width="2.4" stroke-linecap="round"/><line x1="257.3" y1="31.5" x2="260.4" y2="22.0" stroke="#f4c95d" stroke-width="2.4" stroke-linecap="round"/><line x1="272.3" y1="42.4" x2="280.4" y2="36.5" stroke="#f4c95d" stroke-width="2.4" stroke-linecap="round"/><polygon points="150.0,60.4 357.2,180.0 150.0,299.6 -57.2,180.0" fill="#8bab5a" opacity="1.0"/><polygon points="109.5,239.8 177.0,278.8 150.0,294.4 82.5,255.4" fill="#63813f" opacity="1.0"/><polygon points="150.0,122.8 91.5,156.6 91.5,104.6 150.0,70.8" fill="#aaa292" opacity="1.0"/><polygon points="91.5,156.6 163.5,198.2 163.5,146.2 91.5,104.6" fill="#d4cab6" opacity="1.0"/><polygon points="100.1,109.6 114.5,117.9 114.5,146.5 100.1,138.2" fill="#a6432b" opacity="1.0"/><polygon points="131.1,158.7 140.5,164.1 140.5,148.5 131.1,143.1" fill="#3a4a74" opacity="1.0"/><polygon points="149.1,169.1 158.5,174.5 158.5,158.9 149.1,153.5" fill="#3a4a74" opacity="1.0"/><polygon points="91.5,104.6 163.5,146.2 192.8,92.9 120.7,51.3" fill="#6d4234" opacity="1.0"/><polygon points="150.0,70.8 222.1,112.4 192.8,92.9 120.7,51.3" fill="#8c5542" opacity="1.0"/><polygon points="150.0,70.8 91.5,104.6 120.7,51.3" fill="#7a4a3a" opacity="1.0"/><polygon points="152.8,72.0 168.7,81.2 159.9,75.3 144.0,66.2" fill="#26314f" opacity="1.0"/><polygon points="152.8,72.0 168.7,81.2 159.9,75.3 144.0,66.2" fill="none" stroke="#3a4a74" stroke-width="0.7"/><polygon points="141.1,64.2 157.0,73.4 148.2,67.5 132.3,58.4" fill="#26314f" opacity="1.0"/><polygon points="141.1,64.2 157.0,73.4 148.2,67.5 132.3,58.4" fill="none" stroke="#3a4a74" stroke-width="0.7"/><polygon points="173.0,83.7 188.8,92.8 180.1,87.0 164.2,77.8" fill="#26314f" opacity="1.0"/><polygon points="173.0,83.7 188.8,92.8 180.1,87.0 164.2,77.8" fill="none" stroke="#3a4a74" stroke-width="0.7"/><polygon points="161.3,75.9 177.1,85.0 168.4,79.2 152.5,70.0" fill="#26314f" opacity="1.0"/><polygon points="161.3,75.9 177.1,85.0 168.4,79.2 152.5,70.0" fill="none" stroke="#3a4a74" stroke-width="0.7"/><polygon points="193.2,95.3 209.0,104.5 200.2,98.6 184.4,89.5" fill="#26314f" opacity="1.0"/><polygon points="193.2,95.3 209.0,104.5 200.2,98.6 184.4,89.5" fill="none" stroke="#3a4a74" stroke-width="0.7"/><polygon points="181.5,87.5 197.3,96.7 188.5,90.8 172.7,81.7" fill="#26314f" opacity="1.0"/><polygon points="181.5,87.5 197.3,96.7 188.5,90.8 172.7,81.7" fill="none" stroke="#3a4a74" stroke-width="0.7"/><polygon points="64.4,107.2 75.7,113.7 55.4,125.4 44.2,118.9" fill="#ffa749" opacity="1.0"/><polygon points="64.4,135.8 44.2,147.5 44.2,118.9 64.4,107.2" fill="#9f622a" opacity="1.0"/><polygon points="44.2,147.5 55.4,154.0 55.4,125.4 44.2,118.9" fill="#c67a35" opacity="1.0"/><polygon points="123.0,239.8 156.8,259.3 138.7,269.7 105.0,250.2" fill="#4b8ab4" opacity="1.0"/><polygon points="123.0,252.8 105.0,263.2 105.0,250.2 123.0,239.8" fill="#2c5169" opacity="1.0"/><polygon points="105.0,263.2 138.7,282.7 138.7,269.7 105.0,250.2" fill="#376583" opacity="1.0"/><polygon points="126.4,236.5 146.6,248.2 135.4,254.7 115.1,243.0" fill="#549ac9" opacity="1.0"/><polygon points="126.4,258.6 115.1,265.1 115.1,243.0 126.4,236.5" fill="#315b76" opacity="1.0"/><polygon points="115.1,265.1 135.4,276.8 135.4,254.7 115.1,243.0" fill="#3d7193" opacity="1.0"/><rect x="107.5" y="225.6" width="4" height="22" fill="#4e5c38"/><rect x="106.5" y="221.6" width="6" height="6" fill="#d8853a"/><line x1="248.0" y1="60.0" x2="171.4" y2="81.8" stroke="#f0b84e" stroke-width="1.5" stroke-dasharray="2 4" opacity="0.75"/><line x1="171.4" y1="81.8" x2="59.9" y2="116.3" stroke="#f0b84e" stroke-width="1.5" stroke-dasharray="2 4" opacity="0.75"/><line x1="59.9" y1="131.9" x2="120.7" y2="118.9" stroke="#f0b84e" stroke-width="1.5" stroke-dasharray="2 4" opacity="0.75"/><line x1="177.0" y1="180.0" x2="132.0" y2="250.2" stroke="#f0b84e" stroke-width="1.5" stroke-dasharray="2 4" opacity="0.75"/><rect x="301" y="169" width="4" height="18" fill="#6b4a2f"/><circle cx="303" cy="165" r="13" fill="#6f9047"/><circle cx="294" cy="171" r="9" fill="#6f9047"/><circle cx="312" cy="171" r="9" fill="#6f9047"/><rect y="345" width="300" height="75" fill="#26281f"/><rect x="24" y="356" width="252" height="2" fill="#f4c95d"/><text x="150" y="390" text-anchor="middle" font-family="Georgia, serif" font-weight="700" font-size="34" letter-spacing="2" fill="#f0e6d2">SMART HOME</text><text x="150" y="409" text-anchor="middle" font-family="Georgia, serif" font-weight="400" font-size="10" letter-spacing="3" fill="#3a4a74">SOLAR · STORED · CONNECTED</text></svg>