<svg xmlns="http://www.w3.org/2000/svg" width="300" height="420" viewBox="0 0 300 420"><rect width="300" height="420" fill="#0e2947"/><line x1="0" y1="0" x2="0" y2="345" stroke="#183a5e" stroke-width="0.6"/><line x1="24" y1="0" x2="24" y2="345" stroke="#183a5e" stroke-width="0.6"/><line x1="48" y1="0" x2="48" y2="345" stroke="#183a5e" stroke-width="0.6"/><line x1="72" y1="0" x2="72" y2="345" stroke="#183a5e" stroke-width="0.6"/><line x1="96" y1="0" x2="96" y2="345" stroke="#183a5e" stroke-width="0.6"/><line x1="120" y1="0" x2="120" y2="345" stroke="#183a5e" stroke-width="0.6"/><line x1="144" y1="0" x2="144" y2="345" stroke="#183a5e" stroke-width="0.6"/><line x1="168" y1="0" x2="168" y2="345" stroke="#183a5e" stroke-width="0.6"/><line x1="192" y1="0" x2="192" y2="345" stroke="#183a5e" stroke-width="0.6"/><line x1="216" y1="0" x2="216" y2="345" stroke="#183a5e" stroke-width="0.6"/><line x1="240" y1="0" x2="240" y2="345" stroke="#183a5e" stroke-width="0.6"/><line x1="264" y1="0" x2="264" y2="345" stroke="#183a5e" stroke-width="0.6"/><line x1="288" y1="0" x2="288" y2="345" stroke="#183a5e" stroke-width="0.6"/><line x1="0" y1="0" x2="300" y2="0" stroke="#183a5e" stroke-width="0.6"/><line x1="0" y1="24" x2="300" y2="24" stroke="#183a5e" stroke-width="0.6"/><line x1="0" y1="48" x2="300" y2="48" stroke="#183a5e" stroke-width="0.6"/><line x1="0" y1="72" x2="300" y2="72" stroke="#183a5e" stroke-width="0.6"/><line x1="0" y1="96" x2="300" y2="96" stroke="#183a5e" stroke-width="0.6"/><line x1="0" y1="120" x2="300" y2="120" stroke="#183a5e" stroke-width="0.6"/><line x1="0" y1="144" x2="300" y2="144" stroke="#183a5e" stroke-width="0.6"/><line x1="0" y1="168" x2="300" y2="168" stroke="#183a5e" stroke-width="0.6"/><line x1="0" y1="192" x2="300" y2="192" stroke="#183a5e" stroke-width="0.6"/><line x1="0" y1="216" x2="300" y2="216" stroke="#183a5e" stroke-width="0.6"/><line x1="0" y1="240" x2="300" y2="240" stroke="#183a5e" stroke-width="0.6"/><line x1="0" y1="264" x2="300" y2="264" stroke="#183a5e" stroke-width="0.6"/><line x1="0" y1="288" x2="300" y2="288" stroke="#183a5e" stroke-width="0.6"/><line x1="0" y1="312" x2="300" y2="312" stroke="#183a5e" stroke-width="0.6"/><line x1="0" y1="336" x2="300" y2="336" stroke="#183a5e" stroke-width="0.6"/><circle cx="150" cy="70" r="18" fill="none" stroke="#f0c95a" stroke-width="1.6"/><circle cx="150" cy="70" r="13" fill="#f0c95a" opacity="0.25"/><text x="150" y="100" text-anchor="middle" font-family="ui-monospace, 'DejaVu Sans Mono', monospace" font-weight="400" font-size="8" letter-spacing="0.5" fill="#f0c95a">SUN</text><circle cx="150" cy="150" r="16" fill="none" stroke="#7fb0e0" stroke-width="1.6"/><circle cx="150" cy="150" r="11" fill="#7fb0e0" opacity="0.25"/><text x="150" y="178" text-anchor="middle" font-family="ui-monospace, 'DejaVu Sans Mono', monospace" font-weight="400" font-size="8" letter-spacing="0.5" fill="#7fb0e0">PV ARRAY</text><circle cx="74" cy="240" r="15" fill="none" stroke="#e0a54a" stroke-width="1.6"/><circle cx="74" cy="240" r="10" fill="#e0a54a" opacity="0.25"/><text x="74" y="267" text-anchor="middle" font-family="ui-monospace, 'DejaVu Sans Mono', monospace" font-weight="400" font-size="8" letter-spacing="0.5" fill="#e0a54a">BATTERY</text><circle cx="226" cy="240" r="15" fill="none" stroke="#9fd0a0" stroke-width="1.6"/><circle cx="226" cy="240" r="10" fill="#9fd0a0" opacity="0.25"/><text x="226" y="267" text-anchor="middle" font-family="ui-monospace, 'DejaVu Sans Mono', monospace" font-weight="400" font-size="8" letter-spacing="0.5" fill="#9fd0a0">HOME LOADS</text><circle cx="150" cy="315" r="14" fill="none" stroke="#e08a6a" stroke-width="1.6"/><circle cx="150" cy="315" r="9" fill="#e08a6a" opacity="0.25"/><text x="150" y="341" text-anchor="middle" font-family="ui-monospace, 'DejaVu Sans Mono', monospace" font-weight="400" font-size="8" letter-spacing="0.5" fill="#e08a6a">EV</text><line x1="150" y1="88" x2="150" y2="134" stroke="#e6f1ff" stroke-width="1.3" stroke-dasharray="4 3"/><text x="150.0" y="107.0" text-anchor="middle" font-family="ui-monospace, 'DejaVu Sans Mono', monospace" font-weight="400" font-size="7.5" letter-spacing="0" fill="#bacfe5">~7 kW</text><line x1="138" y1="160" x2="86" y2="228" stroke="#e6f1ff" stroke-width="1.3" stroke-dasharray="4 3"/><text x="112.0" y="190.0" text-anchor="middle" font-family="ui-monospace, 'DejaVu Sans Mono', monospace" font-weight="400" font-size="7.5" letter-spacing="0" fill="#bacfe5">charge</text><line x1="162" y1="160" x2="214" y2="228" stroke="#e6f1ff" stroke-width="1.3" stroke-dasharray="4 3"/><text x="188.0" y="190.0" text-anchor="middle" font-family="ui-monospace, 'DejaVu Sans Mono', monospace" font-weight="400" font-size="7.5" letter-spacing="0" fill="#bacfe5">5 kW</text><line x1="80" y1="254" x2="140" y2="305" stroke="#e6f1ff" stroke-width="1.3" stroke-dasharray="4 3"/><text x="110.0" y="275.5" text-anchor="middle" font-family="ui-monospace, 'DejaVu Sans Mono', monospace" font-weight="400" font-size="7.5" letter-spacing="0" fill="#bacfe5">night</text><line x1="216" y1="254" x2="162" y2="308" stroke="#e6f1ff" stroke-width="1.3" stroke-dasharray="4 3"/><text x="189.0" y="277.0" text-anchor="middle" font-family="ui-monospace, 'DejaVu Sans Mono', monospace" font-weight="400" font-size="7.5" letter-spacing="0" fill="#bacfe5">L2 22 kW</text><text x="20" y="26" text-anchor="start" font-family="ui-monospace, 'DejaVu Sans Mono', monospace" font-weight="400" font-size="8" letter-spacing="0.5" fill="#bacfe5">FIG. 2 — RESIDENTIAL SOLAR + STORAGE FLOW</text><rect y="345" width="300" height="75" fill="#0a1e35"/><rect x="24" y="356" width="252" height="1.5" fill="#f0c95a"/><text x="150" y="388" text-anchor="middle" font-family="ui-monospace, 'DejaVu Sans Mono', monospace" font-weight="700" font-size="26" letter-spacing="1" fill="#e6f1ff">SMART HOME</text><text x="150" y="406" text-anchor="middle" font-family="ui-monospace, 'DejaVu Sans Mono', monospace" font-weight="400" font-size="8.5" letter-spacing="3" fill="#afc3d8">ENERGY SYSTEM · SCHEMATIC</text></svg>