<svg xmlns="http://www.w3.org/2000/svg" width="300" height="420" viewBox="0 0 300 420"><rect width="300" height="345" fill="#f2ece0"/><circle cx="56" cy="60" r="22" fill="#e8a53a"/><line x1="83.0" y1="60.0" x2="92.0" y2="60.0" stroke="#e8a53a" stroke-width="2.6" stroke-linecap="round"/><line x1="75.1" y1="79.1" x2="81.5" y2="85.5" stroke="#e8a53a" stroke-width="2.6" stroke-linecap="round"/><line x1="56.0" y1="87.0" x2="56.0" y2="96.0" stroke="#e8a53a" stroke-width="2.6" stroke-linecap="round"/><line x1="36.9" y1="79.1" x2="30.5" y2="85.5" stroke="#e8a53a" stroke-width="2.6" stroke-linecap="round"/><line x1="29.0" y1="60.0" x2="20.0" y2="60.0" stroke="#e8a53a" stroke-width="2.6" stroke-linecap="round"/><line x1="36.9" y1="40.9" x2="30.5" y2="34.5" stroke="#e8a53a" stroke-width="2.6" stroke-linecap="round"/><line x1="56.0" y1="33.0" x2="56.0" y2="24.0" stroke="#e8a53a" stroke-width="2.6" stroke-linecap="round"/><line x1="75.1" y1="40.9" x2="81.5" y2="34.5" stroke="#e8a53a" stroke-width="2.6" stroke-linecap="round"/><rect x="118" y="150" width="88" height="66" fill="#c9b79a"/><polygon points="112,150 162,116 212,150" fill="#a6432b"/><polygon points="126,144 160,121 164,127 132,149" fill="#3a4a74"/><polygon points="166,128 198,149 168,149" fill="#3a4a74" opacity="0.85"/><rect x="154" y="184" width="18" height="32" fill="#a6432b"/><rect x="132" y="164" width="16" height="14" fill="#e8a53a" opacity="0.55"/><rect x="178" y="164" width="16" height="14" fill="#e8a53a" opacity="0.55"/><rect x="70" y="176" width="26" height="40" rx="3" fill="#4e8a5a"/><rect x="76" y="184" width="14" height="4" fill="#f2ece0"/><rect x="76" y="192" width="14" height="4" fill="#f2ece0"/><rect x="228" y="196" width="46" height="16" rx="4" fill="#3c6e8f"/><rect x="236" y="186" width="28" height="12" rx="3" fill="#3c6e8f"/><circle cx="240" cy="214" r="5" fill="#33302a"/><circle cx="262" cy="214" r="5" fill="#33302a"/><line x1="70" y1="74" x2="120" y2="116" stroke="#e8a53a" stroke-width="2.6"/><polygon points="120,116 111.4,113.4 115.9,108.0" fill="#e8a53a"/><text x="95.0" y="89.0" text-anchor="middle" font-family="Helvetica, Arial, sans-serif" font-weight="700" font-size="8.5" letter-spacing="0" fill="#33302a">sunlight</text><line x1="96" y1="196" x2="110" y2="196" stroke="#e8a53a" stroke-width="2.6"/><polygon points="110,196 101.7,199.5 101.7,192.5" fill="#e8a53a"/><text x="103.0" y="190.0" text-anchor="middle" font-family="Helvetica, Arial, sans-serif" font-weight="700" font-size="8.5" letter-spacing="0" fill="#33302a">store</text><line x1="206" y1="196" x2="226" y2="204" stroke="#e8a53a" stroke-width="2.6"/><polygon points="226,204 217.0,204.2 219.6,197.7" fill="#e8a53a"/><text x="216.0" y="194.0" text-anchor="middle" font-family="Helvetica, Arial, sans-serif" font-weight="700" font-size="8.5" letter-spacing="0" fill="#33302a">charge</text><text x="150" y="250" text-anchor="middle" font-family="Helvetica, Arial, sans-serif" font-weight="400" font-size="10" letter-spacing="0.5" fill="#33302a">① solar → ② battery → ③ home + car</text><rect y="345" width="300" height="75" fill="#33302a"/><rect x="24" y="356" width="252" height="2" fill="#e8a53a"/><text x="150" y="388" text-anchor="middle" font-family="Helvetica, Arial, sans-serif" font-weight="700" font-size="30" letter-spacing="1" fill="#f2ece0">SMART HOME</text><text x="150" y="407" text-anchor="middle" font-family="Helvetica, Arial, sans-serif" font-weight="400" font-size="9.5" letter-spacing="2" fill="#e8a53a">HOW YOUR SOLAR HOME WORKS</text></svg>