<svg xmlns="http://www.w3.org/2000/svg" width="340" height="480" viewBox="0 0 340 480"><rect width="340" height="480" fill="#e6ddc9"/><rect x="244" y="20" width="84" height="16" rx="8" fill="#d8cfbc"/><rect x="244" y="54" width="84" height="44" rx="8" fill="#dcd4c0"/><rect x="244" y="110" width="84" height="44" rx="8" fill="#dcd4c0"/><rect x="244" y="166" width="84" height="44" rx="8" fill="#dcd4c0"/><rect x="0" y="0" width="232" height="480" fill="#efe7d6"/><line x1="232" y1="0" x2="232" y2="480" stroke="#ddd2ba" stroke-width="1"/><rect x="18" y="22" width="24" height="24" rx="6" fill="#a65733"/><g transform="translate(21 25) scale(0.750)"><path d="M4 4 H10 V10 H4 Z M14 4 H20 V10 H14 Z M4 14 H10 V20 H4 Z M14 14 H20 V20 H14 Z" fill="none" stroke="#efe7d6" stroke-width="2.67" stroke-linecap="round" stroke-linejoin="round"/></g><text x="52" y="39" text-anchor="start" font-family="Georgia, 'Times New Roman', serif" font-weight="700" font-size="15.5" letter-spacing="0.5" fill="#2b2a26">Nimbus</text><rect x="16" y="60" width="200" height="30" rx="8" fill="#e8dfca" stroke="#d8cdb2" stroke-width="1"/><g transform="translate(26 68) scale(0.625)"><path d="M10 10 m-6 0 a6 6 0 1 0 12 0 a6 6 0 1 0 -12 0 M15 15 L19.5 19.5" fill="none" stroke="#8a8168" stroke-width="2.56" stroke-linecap="round" stroke-linejoin="round"/></g><text x="48" y="79" text-anchor="start" font-family="'Plus Jakarta Sans', Helvetica, Arial, sans-serif" font-weight="400" font-size="11.5" letter-spacing="0" fill="#8a8168">Search…</text><text x="20" y="116" text-anchor="start" font-family="'Plus Jakarta Sans', Helvetica, Arial, sans-serif" font-weight="700" font-size="9.5" letter-spacing="1.5" fill="#b3a88f">MENU</text><rect x="12" y="130" width="208" height="30" rx="8" fill="#e6dcc4"/><rect x="12" y="130" width="3.5" height="30" fill="#a65733"/><g transform="translate(24 134) scale(0.792)"><path d="M3 12 L12 3.5 L21 12 M5.5 10 V20 H18.5 V10" fill="none" stroke="#a65733" stroke-width="2.15" stroke-linecap="round" stroke-linejoin="round"/></g><text x="52" y="150" text-anchor="start" font-family="'Plus Jakarta Sans', Helvetica, Arial, sans-serif" font-weight="600" font-size="13" letter-spacing="0" fill="#2b2a26">Dashboard</text><g transform="translate(24 168) scale(0.792)"><path d="M4 20 H20 M7.5 20 V13 M12 20 V6 M16.5 20 V10" fill="none" stroke="#9a8f74" stroke-width="2.15" stroke-linecap="round" stroke-linejoin="round"/></g><text x="52" y="184" text-anchor="start" font-family="'Plus Jakarta Sans', Helvetica, Arial, sans-serif" font-weight="500" font-size="13" letter-spacing="0" fill="#6b6450">Analytics</text><g transform="translate(24 202) scale(0.792)"><path d="M4 4 H10 V10 H4 Z M14 4 H20 V10 H14 Z M4 14 H10 V20 H4 Z M14 14 H20 V20 H14 Z" fill="none" stroke="#9a8f74" stroke-width="2.15" stroke-linecap="round" stroke-linejoin="round"/></g><text x="52" y="218" text-anchor="start" font-family="'Plus Jakarta Sans', Helvetica, Arial, sans-serif" font-weight="500" font-size="13" letter-spacing="0" fill="#6b6450">Projects</text><g transform="translate(24 236) scale(0.792)"><path d="M4 5 H20 V15 H9.5 L6 19 V15 H4 Z" fill="none" stroke="#9a8f74" stroke-width="2.15" stroke-linecap="round" stroke-linejoin="round"/></g><text x="52" y="252" text-anchor="start" font-family="'Plus Jakarta Sans', Helvetica, Arial, sans-serif" font-weight="500" font-size="13" letter-spacing="0" fill="#6b6450">Messages</text><rect x="196" y="237" width="20" height="16" rx="8" fill="#a65733"/><text x="206" y="249" text-anchor="middle" font-family="'Plus Jakarta Sans', Helvetica, Arial, sans-serif" font-weight="700" font-size="10" letter-spacing="0" fill="#efe7d6">3</text><g transform="translate(24 270) scale(0.792)"><path d="M4 6 H20 V20 H4 Z M4 10.5 H20 M8.5 4 V8 M15.5 4 V8" fill="none" stroke="#9a8f74" stroke-width="2.15" stroke-linecap="round" stroke-linejoin="round"/></g><text x="52" y="286" text-anchor="start" font-family="'Plus Jakarta Sans', Helvetica, Arial, sans-serif" font-weight="500" font-size="13" letter-spacing="0" fill="#6b6450">Calendar</text><text x="20" y="310" text-anchor="start" font-family="'Plus Jakarta Sans', Helvetica, Arial, sans-serif" font-weight="700" font-size="9.5" letter-spacing="1.5" fill="#b3a88f">WORKSPACE</text><g transform="translate(24 328) scale(0.792)"><path d="M8.5 11 a3 3 0 1 0 0 -6 a3 3 0 0 0 0 6 M3 20 c0.5 -4 3 -5.5 5.5 -5.5 s5 1.5 5.5 5.5 M16 6.6 a2.4 2.4 0 1 0 0.1 0 M14.6 14 c3 -0.4 5.4 1 5.7 5" fill="none" stroke="#9a8f74" stroke-width="2.15" stroke-linecap="round" stroke-linejoin="round"/></g><text x="52" y="344" text-anchor="start" font-family="'Plus Jakarta Sans', Helvetica, Arial, sans-serif" font-weight="500" font-size="13" letter-spacing="0" fill="#6b6450">Team</text><g transform="translate(24 362) scale(0.792)"><path d="M3 7 H9 L11 9 H21 V19 H3 Z" fill="none" stroke="#9a8f74" stroke-width="2.15" stroke-linecap="round" stroke-linejoin="round"/></g><text x="52" y="378" text-anchor="start" font-family="'Plus Jakarta Sans', Helvetica, Arial, sans-serif" font-weight="500" font-size="13" letter-spacing="0" fill="#6b6450">Files</text><circle cx="33.5" cy="405.5" r="2.9" fill="none" stroke="#9a8f74" stroke-width="1.7"/><line x1="37.8" y1="405.5" x2="41.2" y2="405.5" stroke="#9a8f74" stroke-width="1.7" stroke-linecap="round"/><line x1="36.5" y1="408.5" x2="38.9" y2="410.9" stroke="#9a8f74" stroke-width="1.7" stroke-linecap="round"/><line x1="33.5" y1="409.8" x2="33.5" y2="413.2" stroke="#9a8f74" stroke-width="1.7" stroke-linecap="round"/><line x1="30.5" y1="408.5" x2="28.1" y2="410.9" stroke="#9a8f74" stroke-width="1.7" stroke-linecap="round"/><line x1="29.2" y1="405.5" x2="25.8" y2="405.5" stroke="#9a8f74" stroke-width="1.7" stroke-linecap="round"/><line x1="30.5" y1="402.5" x2="28.1" y2="400.1" stroke="#9a8f74" stroke-width="1.7" stroke-linecap="round"/><line x1="33.5" y1="401.2" x2="33.5" y2="397.8" stroke="#9a8f74" stroke-width="1.7" stroke-linecap="round"/><line x1="36.5" y1="402.5" x2="38.9" y2="400.1" stroke="#9a8f74" stroke-width="1.7" stroke-linecap="round"/><text x="52" y="412" text-anchor="start" font-family="'Plus Jakarta Sans', Helvetica, Arial, sans-serif" font-weight="500" font-size="13" letter-spacing="0" fill="#6b6450">Settings</text><line x1="14" y1="422" x2="218" y2="422" stroke="#ddd2ba" stroke-width="1"/><circle cx="30" cy="450" r="14" fill="#d8cdb2"/><text x="30" y="455" text-anchor="middle" font-family="'Plus Jakarta Sans', Helvetica, Arial, sans-serif" font-weight="700" font-size="12" letter-spacing="0" fill="#5a5240">AR</text><text x="52" y="447" text-anchor="start" font-family="'Plus Jakarta Sans', Helvetica, Arial, sans-serif" font-weight="600" font-size="12.5" letter-spacing="0" fill="#2b2a26">Anatoly R.</text><text x="52" y="461" text-anchor="start" font-family="'Plus Jakarta Sans', Helvetica, Arial, sans-serif" font-weight="400" font-size="10" letter-spacing="0" fill="#8a8168">Admin</text><g transform="translate(198 441) scale(0.750)"><path d="M9 6 L15 12 L9 18" fill="none" stroke="#8a8168" stroke-width="2.40" stroke-linecap="round" stroke-linejoin="round"/></g></svg>