<svg xmlns="http://www.w3.org/2000/svg" width="560" height="540" viewBox="0 0 560 540"><defs><clipPath id="us"><path d="M52.4 111.0 L56.4 165.0 L58.0 191.0 L70.8 217.0 L85.2 250.0 L113.2 270.0 L132.4 268.0 L162.0 282.0 L184.4 282.0 L198.0 277.0 L226.0 305.0 L254.0 320.0 L270.8 336.0 L290.0 305.0 L299.6 298.0 L330.0 303.0 L346.0 292.0 L375.6 295.0 L387.6 317.0 L401.2 343.0 L409.2 337.0 L405.2 311.0 L398.8 288.0 L416.4 263.0 L442.8 226.0 L446.0 211.0 L458.0 190.0 L481.2 180.0 L490.0 178.0 L483.6 164.0 L514.0 146.0 L496.4 121.0 L478.0 145.0 L438.0 159.0 L418.0 162.0 L390.0 178.0 L386.0 172.0 L390.0 145.0 L372.4 136.0 L354.0 144.0 L346.0 126.0 L322.8 127.0 L288.4 105.0 L218.0 105.0 L122.0 105.0 L66.0 105.0 Z"/></clipPath><linearGradient id="day" x1="0" y1="0" x2="1" y2="0"><stop offset="0" stop-color="#5a86a0"/><stop offset="1" stop-color="#2f5468"/></linearGradient><linearGradient id="sky" x1="0" y1="0" x2="0" y2="1"><stop offset="0" stop-color="#0a0e1c"/><stop offset="1" stop-color="#10152a"/></linearGradient><filter id="soft"><feGaussianBlur stdDeviation="4"/></filter></defs><rect width="560" height="540" fill="url(#sky)"/><rect width="560" height="56" fill="#0d1324"/><circle cx="34" cy="28" r="9" fill="#f4c95d"/><line x1="46.0" y1="28.0" x2="49.0" y2="28.0" stroke="#f4c95d" stroke-width="1.6"/><line x1="42.5" y1="36.5" x2="44.6" y2="38.6" stroke="#f4c95d" stroke-width="1.6"/><line x1="34.0" y1="40.0" x2="34.0" y2="43.0" stroke="#f4c95d" stroke-width="1.6"/><line x1="25.5" y1="36.5" x2="23.4" y2="38.6" stroke="#f4c95d" stroke-width="1.6"/><line x1="22.0" y1="28.0" x2="19.0" y2="28.0" stroke="#f4c95d" stroke-width="1.6"/><line x1="25.5" y1="19.5" x2="23.4" y2="17.4" stroke="#f4c95d" stroke-width="1.6"/><line x1="34.0" y1="16.0" x2="34.0" y2="13.0" stroke="#f4c95d" stroke-width="1.6"/><line x1="42.5" y1="19.5" x2="44.6" y2="17.4" stroke="#f4c95d" stroke-width="1.6"/><text x="52" y="33" font-family="Georgia, serif" font-weight="700" font-size="17" letter-spacing="2" fill="#e8eef7">DAYLIGHT</text><text x="176" y="33" font-family="Helvetica, Arial, sans-serif" font-size="12" letter-spacing="0.5" fill="#e8eef7" font-weight="700">Map</text><rect x="176" y="40" width="24" height="2" fill="#f4c95d"/><text x="219.6" y="33" font-family="Helvetica, Arial, sans-serif" font-size="12" letter-spacing="0.5" fill="#8c98b0" font-weight="400">Sunset</text><text x="284.8" y="33" font-family="Helvetica, Arial, sans-serif" font-size="12" letter-spacing="0.5" fill="#8c98b0" font-weight="400">Zones</text><text x="342.8" y="33" font-family="Helvetica, Arial, sans-serif" font-size="12" letter-spacing="0.5" fill="#8c98b0" font-weight="400">Data</text><rect x="404" y="14" width="144" height="28" rx="14" fill="#1a2340" stroke="#3a4a6a" stroke-width="1"/><circle cx="418" cy="28" r="3.2" fill="#f4c95d"/><text x="430" y="32" font-family="ui-monospace, monospace" font-size="10" letter-spacing="0.3" fill="#e8eef7">JUL 1 · 9:00 PM ET</text><text x="50" y="82" font-family="Georgia, serif" font-weight="700" font-size="19" fill="#e8eef7">Where the sun is right now</text><path d="M52.4 111.0 L56.4 165.0 L58.0 191.0 L70.8 217.0 L85.2 250.0 L113.2 270.0 L132.4 268.0 L162.0 282.0 L184.4 282.0 L198.0 277.0 L226.0 305.0 L254.0 320.0 L270.8 336.0 L290.0 305.0 L299.6 298.0 L330.0 303.0 L346.0 292.0 L375.6 295.0 L387.6 317.0 L401.2 343.0 L409.2 337.0 L405.2 311.0 L398.8 288.0 L416.4 263.0 L442.8 226.0 L446.0 211.0 L458.0 190.0 L481.2 180.0 L490.0 178.0 L483.6 164.0 L514.0 146.0 L496.4 121.0 L478.0 145.0 L438.0 159.0 L418.0 162.0 L390.0 178.0 L386.0 172.0 L390.0 145.0 L372.4 136.0 L354.0 144.0 L346.0 126.0 L322.8 127.0 L288.4 105.0 L218.0 105.0 L122.0 105.0 L66.0 105.0 Z" fill="url(#day)"/><g clip-path="url(#us)"><rect x="50.0" y="90" width="84.0" height="270" fill="#3f6f7a" opacity="0.34"/><rect x="134.0" y="90" width="104.0" height="270" fill="#4a5f86" opacity="0.34"/><rect x="238.0" y="90" width="132.0" height="270" fill="#6a5a86" opacity="0.34"/><rect x="370.0" y="90" width="148.0" height="270" fill="#86566f" opacity="0.34"/><line x1="134.0" y1="90" x2="134.0" y2="360" stroke="#e8eef7" stroke-width="0.8" stroke-dasharray="3 4" opacity="0.4"/><line x1="238.0" y1="90" x2="238.0" y2="360" stroke="#e8eef7" stroke-width="0.8" stroke-dasharray="3 4" opacity="0.4"/><line x1="370.0" y1="90" x2="370.0" y2="360" stroke="#e8eef7" stroke-width="0.8" stroke-dasharray="3 4" opacity="0.4"/><polygon points="307.4,350.0 309.6,345.0 311.7,340.0 313.8,335.0 316.0,330.0 318.2,325.0 320.4,320.0 322.6,315.0 324.9,310.0 327.1,305.0 329.4,300.0 331.8,295.0 334.1,290.0 336.5,285.0 338.9,280.0 341.3,275.0 343.8,270.0 346.3,265.0 348.9,260.0 351.4,255.0 354.0,250.0 356.7,245.0 359.3,240.0 362.1,235.0 364.8,230.0 367.6,225.0 370.4,220.0 373.3,215.0 376.3,210.0 379.2,205.0 382.3,200.0 385.3,195.0 388.5,190.0 391.7,185.0 394.9,180.0 398.2,175.0 401.6,170.0 405.0,165.0 408.5,160.0 412.1,155.0 415.7,150.0 419.4,145.0 423.2,140.0 427.1,135.0 431.1,130.0 435.2,125.0 439.3,120.0 443.6,115.0 447.9,110.0 452.4,105.0 457.0,100.0 570.0,100.0 570.0,350.0" fill="#0b1020" opacity="0.9"/><circle cx="326" cy="330" r="0.7" fill="#cdd6ee" opacity="0.5"/><circle cx="244" cy="328" r="0.7" fill="#cdd6ee" opacity="0.5"/><circle cx="338" cy="314" r="0.7" fill="#cdd6ee" opacity="0.5"/><circle cx="352" cy="288" r="0.7" fill="#cdd6ee" opacity="0.5"/><circle cx="350" cy="242" r="0.7" fill="#cdd6ee" opacity="0.5"/><circle cx="204" cy="152" r="0.7" fill="#cdd6ee" opacity="0.5"/><circle cx="362" cy="166" r="0.7" fill="#cdd6ee" opacity="0.5"/><circle cx="248" cy="140" r="0.7" fill="#cdd6ee" opacity="0.5"/><circle cx="246" cy="322" r="0.7" fill="#cdd6ee" opacity="0.5"/><circle cx="420" cy="116" r="0.7" fill="#cdd6ee" opacity="0.5"/><circle cx="322" cy="170" r="0.7" fill="#cdd6ee" opacity="0.5"/><circle cx="464" cy="288" r="0.7" fill="#cdd6ee" opacity="0.5"/><circle cx="270" cy="102" r="0.7" fill="#cdd6ee" opacity="0.5"/><circle cx="316" cy="260" r="0.7" fill="#cdd6ee" opacity="0.5"/><circle cx="474" cy="230" r="0.7" fill="#cdd6ee" opacity="0.5"/><circle cx="360" cy="148" r="0.7" fill="#cdd6ee" opacity="0.5"/><circle cx="294" cy="138" r="0.7" fill="#cdd6ee" opacity="0.5"/><circle cx="276" cy="344" r="0.7" fill="#cdd6ee" opacity="0.5"/><circle cx="434" cy="142" r="0.7" fill="#cdd6ee" opacity="0.5"/><circle cx="256" cy="184" r="0.7" fill="#cdd6ee" opacity="0.5"/><circle cx="382" cy="106" r="0.7" fill="#cdd6ee" opacity="0.5"/><circle cx="236" cy="104" r="0.7" fill="#cdd6ee" opacity="0.5"/><circle cx="202" cy="294" r="0.7" fill="#cdd6ee" opacity="0.5"/><circle cx="472" cy="156" r="0.7" fill="#cdd6ee" opacity="0.5"/><circle cx="470" cy="142" r="0.7" fill="#cdd6ee" opacity="0.5"/><circle cx="388" cy="272" r="0.7" fill="#cdd6ee" opacity="0.5"/><circle cx="482" cy="122" r="0.7" fill="#cdd6ee" opacity="0.5"/><circle cx="432" cy="180" r="0.7" fill="#cdd6ee" opacity="0.5"/><circle cx="366" cy="198" r="0.7" fill="#cdd6ee" opacity="0.5"/><circle cx="348" cy="332" r="0.7" fill="#cdd6ee" opacity="0.5"/><circle cx="250" cy="330" r="0.7" fill="#cdd6ee" opacity="0.5"/><circle cx="392" cy="232" r="0.7" fill="#cdd6ee" opacity="0.5"/><circle cx="390" cy="174" r="0.7" fill="#cdd6ee" opacity="0.5"/><circle cx="436" cy="152" r="0.7" fill="#cdd6ee" opacity="0.5"/><circle cx="210" cy="282" r="0.7" fill="#cdd6ee" opacity="0.5"/><circle cx="480" cy="292" r="0.7" fill="#cdd6ee" opacity="0.5"/><circle cx="286" cy="166" r="0.7" fill="#cdd6ee" opacity="0.5"/><circle cx="460" cy="172" r="0.7" fill="#cdd6ee" opacity="0.5"/><circle cx="490" cy="186" r="0.7" fill="#cdd6ee" opacity="0.5"/><circle cx="376" cy="312" r="0.7" fill="#cdd6ee" opacity="0.5"/><circle cx="310" cy="170" r="0.7" fill="#cdd6ee" opacity="0.5"/><circle cx="484" cy="160" r="0.7" fill="#cdd6ee" opacity="0.5"/><circle cx="514" cy="278" r="0.7" fill="#cdd6ee" opacity="0.5"/><circle cx="272" cy="336" r="0.7" fill="#cdd6ee" opacity="0.5"/><circle cx="270" cy="290" r="0.7" fill="#cdd6ee" opacity="0.5"/><circle cx="444" cy="136" r="0.7" fill="#cdd6ee" opacity="0.5"/><circle cx="282" cy="230" r="0.7" fill="#cdd6ee" opacity="0.5"/><circle cx="360" cy="180" r="0.7" fill="#cdd6ee" opacity="0.5"/><circle cx="230" cy="158" r="0.7" fill="#cdd6ee" opacity="0.5"/><circle cx="212" cy="132" r="0.7" fill="#cdd6ee" opacity="0.5"/><circle cx="306" cy="138" r="0.7" fill="#cdd6ee" opacity="0.5"/><circle cx="256" cy="296" r="0.7" fill="#cdd6ee" opacity="0.5"/><circle cx="510" cy="278" r="0.7" fill="#cdd6ee" opacity="0.5"/><circle cx="428" cy="316" r="0.7" fill="#cdd6ee" opacity="0.5"/><circle cx="458" cy="150" r="0.7" fill="#cdd6ee" opacity="0.5"/><circle cx="216" cy="116" r="0.7" fill="#cdd6ee" opacity="0.5"/><circle cx="406" cy="106" r="0.7" fill="#cdd6ee" opacity="0.5"/><circle cx="516" cy="320" r="0.7" fill="#cdd6ee" opacity="0.5"/><circle cx="290" cy="250" r="0.7" fill="#cdd6ee" opacity="0.5"/><circle cx="496" cy="312" r="0.7" fill="#cdd6ee" opacity="0.5"/></g><g clip-path="url(#us)"><path d="M307.4 350.0 L309.6 345.0 L311.7 340.0 L313.8 335.0 L316.0 330.0 L318.2 325.0 L320.4 320.0 L322.6 315.0 L324.9 310.0 L327.1 305.0 L329.4 300.0 L331.8 295.0 L334.1 290.0 L336.5 285.0 L338.9 280.0 L341.3 275.0 L343.8 270.0 L346.3 265.0 L348.9 260.0 L351.4 255.0 L354.0 250.0 L356.7 245.0 L359.3 240.0 L362.1 235.0 L364.8 230.0 L367.6 225.0 L370.4 220.0 L373.3 215.0 L376.3 210.0 L379.2 205.0 L382.3 200.0 L385.3 195.0 L388.5 190.0 L391.7 185.0 L394.9 180.0 L398.2 175.0 L401.6 170.0 L405.0 165.0 L408.5 160.0 L412.1 155.0 L415.7 150.0 L419.4 145.0 L423.2 140.0 L427.1 135.0 L431.1 130.0 L435.2 125.0 L439.3 120.0 L443.6 115.0 L447.9 110.0 L452.4 105.0 L457.0 100.0" fill="none" stroke="#e2673a" stroke-width="12" opacity="0.5" filter="url(#soft)"/><path d="M307.4 350.0 L309.6 345.0 L311.7 340.0 L313.8 335.0 L316.0 330.0 L318.2 325.0 L320.4 320.0 L322.6 315.0 L324.9 310.0 L327.1 305.0 L329.4 300.0 L331.8 295.0 L334.1 290.0 L336.5 285.0 L338.9 280.0 L341.3 275.0 L343.8 270.0 L346.3 265.0 L348.9 260.0 L351.4 255.0 L354.0 250.0 L356.7 245.0 L359.3 240.0 L362.1 235.0 L364.8 230.0 L367.6 225.0 L370.4 220.0 L373.3 215.0 L376.3 210.0 L379.2 205.0 L382.3 200.0 L385.3 195.0 L388.5 190.0 L391.7 185.0 L394.9 180.0 L398.2 175.0 L401.6 170.0 L405.0 165.0 L408.5 160.0 L412.1 155.0 L415.7 150.0 L419.4 145.0 L423.2 140.0 L427.1 135.0 L431.1 130.0 L435.2 125.0 L439.3 120.0 L443.6 115.0 L447.9 110.0 L452.4 105.0 L457.0 100.0" fill="none" stroke="#f0a24e" stroke-width="2.4" opacity="0.95"/></g><path d="M52.4 111.0 L56.4 165.0 L58.0 191.0 L70.8 217.0 L85.2 250.0 L113.2 270.0 L132.4 268.0 L162.0 282.0 L184.4 282.0 L198.0 277.0 L226.0 305.0 L254.0 320.0 L270.8 336.0 L290.0 305.0 L299.6 298.0 L330.0 303.0 L346.0 292.0 L375.6 295.0 L387.6 317.0 L401.2 343.0 L409.2 337.0 L405.2 311.0 L398.8 288.0 L416.4 263.0 L442.8 226.0 L446.0 211.0 L458.0 190.0 L481.2 180.0 L490.0 178.0 L483.6 164.0 L514.0 146.0 L496.4 121.0 L478.0 145.0 L438.0 159.0 L418.0 162.0 L390.0 178.0 L386.0 172.0 L390.0 145.0 L372.4 136.0 L354.0 144.0 L346.0 126.0 L322.8 127.0 L288.4 105.0 L218.0 105.0 L122.0 105.0 L66.0 105.0 Z" fill="none" stroke="#9fb4cf" stroke-width="1.2" opacity="0.8"/><text x="92" y="108" text-anchor="middle" font-family="Helvetica, Arial, sans-serif" font-weight="700" font-size="11" letter-spacing="1" fill="#e8eef7">PT</text><text x="92" y="120" text-anchor="middle" font-family="ui-monospace, monospace" font-size="8.5" fill="#f4c95d">6:00 PM</text><text x="186" y="108" text-anchor="middle" font-family="Helvetica, Arial, sans-serif" font-weight="700" font-size="11" letter-spacing="1" fill="#e8eef7">MT</text><text x="186" y="120" text-anchor="middle" font-family="ui-monospace, monospace" font-size="8.5" fill="#f4c95d">7:00 PM</text><text x="304" y="108" text-anchor="middle" font-family="Helvetica, Arial, sans-serif" font-weight="700" font-size="11" letter-spacing="1" fill="#e8eef7">CT</text><text x="304" y="120" text-anchor="middle" font-family="ui-monospace, monospace" font-size="8.5" fill="#f4c95d">8:00 PM</text><text x="444" y="108" text-anchor="middle" font-family="Helvetica, Arial, sans-serif" font-weight="700" font-size="11" letter-spacing="1" fill="#e8eef7">ET</text><text x="444" y="120" text-anchor="middle" font-family="ui-monospace, monospace" font-size="8.5" fill="#f4c95d">9:00 PM</text><circle cx="71.4" cy="118.9" r="2.6" fill="#f4c95d" stroke="#0b1020" stroke-width="0.8"/><text x="64.4" y="121.9" text-anchor="end" font-family="Helvetica, Arial, sans-serif" font-size="8.5" fill="#e8eef7">Seattle</text><text x="64.4" y="130.9" text-anchor="end" font-family="ui-monospace, monospace" font-size="8" fill="#f4c95d">↓ 9:11p</text><circle cx="70.6" cy="217.3" r="2.6" fill="#f4c95d" stroke="#0b1020" stroke-width="0.8"/><text x="63.6" y="220.3" text-anchor="end" font-family="Helvetica, Arial, sans-serif" font-size="8.5" fill="#e8eef7">San Francisco</text><text x="63.6" y="229.3" text-anchor="end" font-family="ui-monospace, monospace" font-size="8" fill="#f4c95d">↓ 8:36p</text><circle cx="104.1" cy="254.5" r="2.6" fill="#f4c95d" stroke="#0b1020" stroke-width="0.8"/><text x="97.1" y="257.5" text-anchor="end" font-family="Helvetica, Arial, sans-serif" font-size="8.5" fill="#e8eef7">Los Angeles</text><text x="97.1" y="266.5" text-anchor="end" font-family="ui-monospace, monospace" font-size="8" fill="#f4c95d">↓ 8:08p</text><circle cx="153.4" cy="260.5" r="2.6" fill="#f4c95d" stroke="#0b1020" stroke-width="0.8"/><text x="153.4" y="254.5" text-anchor="middle" font-family="Helvetica, Arial, sans-serif" font-size="8.5" fill="#e8eef7">Phoenix</text><text x="153.4" y="263.5" text-anchor="middle" font-family="ui-monospace, monospace" font-size="8" fill="#f4c95d">↓ 7:42p</text><circle cx="210.1" cy="197.6" r="2.6" fill="#f4c95d" stroke="#0b1020" stroke-width="0.8"/><text x="217.1" y="200.6" text-anchor="start" font-family="Helvetica, Arial, sans-serif" font-size="8.5" fill="#e8eef7">Denver</text><text x="217.1" y="209.6" text-anchor="start" font-family="ui-monospace, monospace" font-size="8" fill="#f4c95d">↓ 8:32p</text><circle cx="154.9" cy="187.4" r="2.6" fill="#f4c95d" stroke="#0b1020" stroke-width="0.8"/><text x="147.9" y="190.4" text-anchor="end" font-family="Helvetica, Arial, sans-serif" font-size="8.5" fill="#e8eef7">Salt Lake City</text><text x="147.9" y="199.4" text-anchor="end" font-family="ui-monospace, monospace" font-size="8" fill="#f4c95d">↓ 9:03p</text><circle cx="275.6" cy="267.2" r="2.6" fill="#f4c95d" stroke="#0b1020" stroke-width="0.8"/><text x="275.6" y="261.2" text-anchor="middle" font-family="Helvetica, Arial, sans-serif" font-size="8.5" fill="#e8eef7">Dallas</text><text x="275.6" y="270.2" text-anchor="middle" font-family="ui-monospace, monospace" font-size="8" fill="#f4c95d">↓ 8:39p</text><circle cx="349.0" cy="176.2" r="2.6" fill="#f4c95d" stroke="#0b1020" stroke-width="0.8"/><text x="356.0" y="179.2" text-anchor="start" font-family="Helvetica, Arial, sans-serif" font-size="8.5" fill="#e8eef7">Chicago</text><text x="356.0" y="188.2" text-anchor="start" font-family="ui-monospace, monospace" font-size="8" fill="#f4c95d">↓ 8:30p</text><circle cx="303.8" cy="145.2" r="2.6" fill="#f4c95d" stroke="#0b1020" stroke-width="0.8"/><text x="310.8" y="148.2" text-anchor="start" font-family="Helvetica, Arial, sans-serif" font-size="8.5" fill="#e8eef7">Minneapolis</text><text x="310.8" y="157.2" text-anchor="start" font-family="ui-monospace, monospace" font-size="8" fill="#f4c95d">↓ 9:04p</text><circle cx="329.4" cy="295.5" r="2.6" fill="#f4c95d" stroke="#0b1020" stroke-width="0.8"/><text x="329.4" y="289.5" text-anchor="middle" font-family="Helvetica, Arial, sans-serif" font-size="8.5" fill="#e8eef7">New Orleans</text><text x="329.4" y="298.5" text-anchor="middle" font-family="ui-monospace, monospace" font-size="8" fill="#f4c95d">↓ 8:05p</text><circle cx="408.5" cy="337.4" r="2.6" fill="#6f7fa8" stroke="#0b1020" stroke-width="0.8"/><text x="415.5" y="340.4" text-anchor="start" font-family="Helvetica, Arial, sans-serif" font-size="8.5" fill="#e8eef7">Miami</text><text x="415.5" y="349.4" text-anchor="start" font-family="ui-monospace, monospace" font-size="8" fill="#f4c95d">↓ 8:16p</text><circle cx="374.9" cy="257.5" r="2.6" fill="#6f7fa8" stroke="#0b1020" stroke-width="0.8"/><text x="381.9" y="260.5" text-anchor="start" font-family="Helvetica, Arial, sans-serif" font-size="8.5" fill="#e8eef7">Atlanta</text><text x="381.9" y="269.5" text-anchor="start" font-family="ui-monospace, monospace" font-size="8" fill="#f4c95d">↓ 8:52p</text><circle cx="457.9" cy="187.9" r="2.6" fill="#6f7fa8" stroke="#0b1020" stroke-width="0.8"/><text x="464.9" y="190.9" text-anchor="start" font-family="Helvetica, Arial, sans-serif" font-size="8.5" fill="#e8eef7">New York</text><text x="464.9" y="199.9" text-anchor="start" font-family="ui-monospace, monospace" font-size="8" fill="#f4c95d">↓ 8:31p</text><circle cx="481.5" cy="171.4" r="2.6" fill="#6f7fa8" stroke="#0b1020" stroke-width="0.8"/><text x="488.5" y="174.4" text-anchor="start" font-family="Helvetica, Arial, sans-serif" font-size="8.5" fill="#e8eef7">Boston</text><text x="488.5" y="183.4" text-anchor="start" font-family="ui-monospace, monospace" font-size="8" fill="#f4c95d">↓ 8:25p</text><rect x="50" y="380" width="468" height="1" fill="#3a4a6a"/><rect x="50" y="396" width="14" height="12" rx="2" fill="#2f5468" opacity="1.0"/><text x="70" y="406" font-family="Helvetica, Arial, sans-serif" font-size="10" fill="#e8eef7">daylight now</text><rect x="164.0" y="396" width="14" height="12" rx="2" fill="#0b1020" opacity="0.95"/><text x="184.0" y="406" font-family="Helvetica, Arial, sans-serif" font-size="10" fill="#e8eef7">night now</text><line x1="260.0" y1="402" x2="276.0" y2="402" stroke="#f0a24e" stroke-width="2.4"/><text x="282.0" y="406" font-family="Helvetica, Arial, sans-serif" font-size="10" fill="#e8eef7">sunset line (now)</text><text x="406.0" y="406" font-family="ui-monospace, monospace" font-size="9.5" fill="#f4c95d">↓ = today's sunset</text><text x="50" y="432" font-family="Helvetica, Arial, sans-serif" font-size="10" fill="#8c98b0">Time zones:</text><rect x="124" y="422" width="12" height="12" rx="2" fill="#3f6f7a"/><text x="141" y="432" font-family="Helvetica, Arial, sans-serif" font-size="10" fill="#e8eef7">PT</text><rect x="188" y="422" width="12" height="12" rx="2" fill="#4a5f86"/><text x="205" y="432" font-family="Helvetica, Arial, sans-serif" font-size="10" fill="#e8eef7">MT</text><rect x="252" y="422" width="12" height="12" rx="2" fill="#6a5a86"/><text x="269" y="432" font-family="Helvetica, Arial, sans-serif" font-size="10" fill="#e8eef7">CT</text><rect x="316" y="422" width="12" height="12" rx="2" fill="#86566f"/><text x="333" y="432" font-family="Helvetica, Arial, sans-serif" font-size="10" fill="#e8eef7">ET</text><text x="50" y="460" font-family="Helvetica, Arial, sans-serif" font-size="8" fill="#8c98b0">At 9 PM EDT the East is dark; the terminator sits near the Great Lakes; the West is still lit.</text><text x="50" y="474" font-family="Helvetica, Arial, sans-serif" font-size="8" fill="#8c98b0">Sunset times: NOAA solar equations, 2026-07-01 (±1 min). Daylight at 01:00 UTC, Jul 2.</text><text x="50" y="488" font-family="Helvetica, Arial, sans-serif" font-size="8" fill="#8c98b0">Zone bands approximate. Arizona keeps MST, so Phoenix reads as Pacific in summer.</text></svg>