<svg xmlns="http://www.w3.org/2000/svg" width="300" height="420" viewBox="0 0 300 420"><defs><linearGradient id="v1sky" x1="0" y1="0" x2="0" y2="1"><stop offset="0" stop-color="#33465e"/><stop offset="0.55" stop-color="#c9713f"/><stop offset="1" stop-color="#f0cf94"/></linearGradient></defs><rect width="300" height="255" fill="url(#v1sky)"/><polygon points="244.0,145.0 334.0,150.0 244.0,155.0" fill="#f0b84e" opacity="0.32"/><polygon points="242.5,160.7 317.9,210.0 237.5,169.3" fill="#f0b84e" opacity="0.32"/><polygon points="233.3,173.5 274.0,253.9 224.7,178.5" fill="#f0b84e" opacity="0.32"/><polygon points="219.0,180.0 214.0,270.0 209.0,180.0" fill="#f0b84e" opacity="0.32"/><polygon points="203.3,178.5 154.0,253.9 194.7,173.5" fill="#f0b84e" opacity="0.32"/><polygon points="190.5,169.3 110.1,210.0 185.5,160.7" fill="#f0b84e" opacity="0.32"/><polygon points="184.0,155.0 94.0,150.0 184.0,145.0" fill="#f0b84e" opacity="0.32"/><polygon points="185.5,139.3 110.1,90.0 190.5,130.7" fill="#f0b84e" opacity="0.32"/><polygon points="194.7,126.5 154.0,46.1 203.3,121.5" fill="#f0b84e" opacity="0.32"/><polygon points="209.0,120.0 214.0,30.0 219.0,120.0" fill="#f0b84e" opacity="0.32"/><polygon points="224.7,121.5 274.0,46.1 233.3,126.5" fill="#f0b84e" opacity="0.32"/><polygon points="237.5,130.7 317.9,90.0 242.5,139.3" fill="#f0b84e" opacity="0.32"/><circle cx="214" cy="150" r="34" fill="#f4c95d"/><ellipse cx="70.0" cy="84.0" rx="14.2" ry="10.4" fill="#f3ddb4" opacity="0.9"/><ellipse cx="55.8" cy="85.5" rx="10.3" ry="7.5" fill="#f3ddb4" opacity="0.9"/><ellipse cx="84.2" cy="85.2" rx="11.1" ry="8.2" fill="#f3ddb4" opacity="0.9"/><ellipse cx="63.8" cy="78.8" rx="9.4" ry="6.9" fill="#f3ddb4" opacity="0.9"/><ellipse cx="76.8" cy="79.6" rx="8.5" ry="6.3" fill="#f3ddb4" opacity="0.9"/><rect x="49.1" y="84.0" width="41.8" height="10.4" fill="#f3ddb4" opacity="0.9"/><ellipse cx="126.0" cy="120.0" rx="9.0" ry="6.6" fill="#f3ddb4" opacity="0.9"/><ellipse cx="117.0" cy="120.9" rx="6.5" ry="4.8" fill="#f3ddb4" opacity="0.9"/><ellipse cx="135.0" cy="120.8" rx="7.0" ry="5.1" fill="#f3ddb4" opacity="0.9"/><ellipse cx="122.1" cy="116.7" rx="5.9" ry="4.4" fill="#f3ddb4" opacity="0.9"/><ellipse cx="130.3" cy="117.2" rx="5.4" ry="4.0" fill="#f3ddb4" opacity="0.9"/><rect x="112.8" y="120.0" width="26.4" height="6.6" fill="#f3ddb4" opacity="0.9"/><path d="M0 232 C 55 214 105 244 150 232 S 250 210 300 234 L300 300 L0 300 Z" fill="#8a9257"/><path d="M0 256 C 70 240 120 266 175 254 S 260 240 300 258 L300 320 L0 320 Z" fill="#657045"/><rect x="124" y="208" width="20" height="52" fill="#d9c9a8"/><path d="M124 208 Q134 194 144 208 Z" fill="#b7a785"/><rect x="52" y="214" width="66" height="46" fill="#a6432b"/><polygon points="48,214 66,198 85,190 104,198 122,214" fill="#83341f"/><rect x="77" y="232" width="16" height="28" fill="#f0e9db"/><path d="M77 232 L93 260 M93 232 L77 260" stroke="#a6432b" stroke-width="1.6"/><rect x="52" y="214" width="66" height="3" fill="#f0e9db"/><rect x="234" y="250" width="4" height="16" fill="#83341f"/><circle cx="236" cy="244" r="13" fill="#3f4c30"/><circle cx="227" cy="251" r="9" fill="#3f4c30"/><circle cx="245" cy="251" r="9" fill="#3f4c30"/><rect x="256" y="256" width="4" height="12" fill="#83341f"/><circle cx="258" cy="252" r="9" fill="#3f4c30"/><circle cx="252" cy="257" r="6" fill="#3f4c30"/><circle cx="264" cy="257" r="6" fill="#3f4c30"/><path d="M0 300 C 80 286 220 286 300 300 L300 345 L0 345 Z" fill="#c9a24b"/><path d="M-80 346 L150 300" stroke="#a9863a" stroke-width="1.6" opacity="0.7"/><path d="M-40 346 L150 300" stroke="#a9863a" stroke-width="1.6" opacity="0.7"/><path d="M0 346 L150 300" stroke="#a9863a" stroke-width="1.6" opacity="0.7"/><path d="M40 346 L150 300" stroke="#a9863a" stroke-width="1.6" opacity="0.7"/><path d="M80 346 L150 300" stroke="#a9863a" stroke-width="1.6" opacity="0.7"/><path d="M120 346 L150 300" stroke="#a9863a" stroke-width="1.6" opacity="0.7"/><path d="M160 346 L150 300" stroke="#a9863a" stroke-width="1.6" opacity="0.7"/><path d="M200 346 L150 300" stroke="#a9863a" stroke-width="1.6" opacity="0.7"/><path d="M240 346 L150 300" stroke="#a9863a" stroke-width="1.6" opacity="0.7"/><path d="M280 346 L150 300" stroke="#a9863a" stroke-width="1.6" opacity="0.7"/><path d="M320 346 L150 300" stroke="#a9863a" stroke-width="1.6" opacity="0.7"/><path d="M360 346 L150 300" stroke="#a9863a" stroke-width="1.6" opacity="0.7"/><path d="M14 343 l0 -8 M14 338 q-4 -1 -5 -5 M14 340 q4 -1 5 -5" stroke="#4e5c38" stroke-width="1.3" fill="none" stroke-linecap="round"/><path d="M36 343 l0 -8 M36 338 q-4 -1 -5 -5 M36 340 q4 -1 5 -5" stroke="#4e5c38" stroke-width="1.3" fill="none" stroke-linecap="round"/><path d="M59 343 l0 -8 M59 338 q-4 -1 -5 -5 M59 340 q4 -1 5 -5" stroke="#4e5c38" stroke-width="1.3" fill="none" stroke-linecap="round"/><path d="M81 343 l0 -8 M81 338 q-4 -1 -5 -5 M81 340 q4 -1 5 -5" stroke="#4e5c38" stroke-width="1.3" fill="none" stroke-linecap="round"/><path d="M103 343 l0 -8 M103 338 q-4 -1 -5 -5 M103 340 q4 -1 5 -5" stroke="#4e5c38" stroke-width="1.3" fill="none" stroke-linecap="round"/><path d="M126 343 l0 -8 M126 338 q-4 -1 -5 -5 M126 340 q4 -1 5 -5" stroke="#4e5c38" stroke-width="1.3" fill="none" stroke-linecap="round"/><path d="M148 343 l0 -8 M148 338 q-4 -1 -5 -5 M148 340 q4 -1 5 -5" stroke="#4e5c38" stroke-width="1.3" fill="none" stroke-linecap="round"/><path d="M170 343 l0 -8 M170 338 q-4 -1 -5 -5 M170 340 q4 -1 5 -5" stroke="#4e5c38" stroke-width="1.3" fill="none" stroke-linecap="round"/><path d="M192 343 l0 -8 M192 338 q-4 -1 -5 -5 M192 340 q4 -1 5 -5" stroke="#4e5c38" stroke-width="1.3" fill="none" stroke-linecap="round"/><path d="M215 343 l0 -8 M215 338 q-4 -1 -5 -5 M215 340 q4 -1 5 -5" stroke="#4e5c38" stroke-width="1.3" fill="none" stroke-linecap="round"/><path d="M237 343 l0 -8 M237 338 q-4 -1 -5 -5 M237 340 q4 -1 5 -5" stroke="#4e5c38" stroke-width="1.3" fill="none" stroke-linecap="round"/><path d="M259 343 l0 -8 M259 338 q-4 -1 -5 -5 M259 340 q4 -1 5 -5" stroke="#4e5c38" stroke-width="1.3" fill="none" stroke-linecap="round"/><path d="M282 343 l0 -8 M282 338 q-4 -1 -5 -5 M282 340 q4 -1 5 -5" stroke="#4e5c38" stroke-width="1.3" fill="none" stroke-linecap="round"/><rect y="345" width="300" height="75" fill="#26281f"/><rect x="24" y="356" width="252" height="2" fill="#f4c95d"/><text x="150" y="392" text-anchor="middle" font-family="Georgia, serif" font-weight="700" font-size="46" letter-spacing="4" fill="#f0e9db">INDIANA</text><text x="150" y="410" text-anchor="middle" font-family="Georgia, serif" font-weight="400" font-size="11" letter-spacing="5" fill="#f4c95d">CROSSROADS OF AMERICA</text></svg>