<svg xmlns="http://www.w3.org/2000/svg" width="300" height="420" viewBox="0 0 300 420"><rect width="300" height="420" fill="#123b3a"/><rect x="14" y="14" width="272" height="392" fill="none" stroke="#d8a94b" stroke-width="2"/><rect x="20" y="20" width="260" height="380" fill="none" stroke="#b98a35" stroke-width="1"/><path d="M0 232 A 150 150 0 0 1 300 232 Z" fill="#d8a94b" opacity="0.9"/><path d="M22 232 A 128 128 0 0 1 278 232 Z" fill="#b98a35" opacity="0.9"/><path d="M44 232 A 106 106 0 0 1 256 232 Z" fill="#d8a94b" opacity="0.9"/><path d="M66 232 A 84 84 0 0 1 234 232 Z" fill="#b98a35" opacity="0.9"/><path d="M88 232 A 62 62 0 0 1 212 232 Z" fill="#d8a94b" opacity="0.9"/><path d="M110 232 A 40 40 0 0 1 190 232 Z" fill="#efe2c4"/><line x1="150" y1="230" x2="45.8" y2="176.6" stroke="#d8a94b" stroke-width="2.2" opacity="0.7"/><line x1="150" y1="230" x2="74.2" y2="141.6" stroke="#d8a94b" stroke-width="2.2" opacity="0.7"/><line x1="150" y1="230" x2="109.6" y2="121.1" stroke="#d8a94b" stroke-width="2.2" opacity="0.7"/><line x1="150" y1="230" x2="150.0" y2="114.0" stroke="#d8a94b" stroke-width="2.2" opacity="0.7"/><line x1="150" y1="230" x2="190.4" y2="121.1" stroke="#d8a94b" stroke-width="2.2" opacity="0.7"/><line x1="150" y1="230" x2="225.8" y2="141.6" stroke="#d8a94b" stroke-width="2.2" opacity="0.7"/><line x1="150" y1="230" x2="254.2" y2="176.6" stroke="#d8a94b" stroke-width="2.2" opacity="0.7"/><g transform="rotate(-16 120 232) "><rect x="118.6" y="180" width="2.8" height="52" fill="#b98a35"/><ellipse cx="120" cy="188" rx="4" ry="2.4" fill="#d8a94b"/><ellipse cx="120" cy="195" rx="4" ry="2.4" fill="#d8a94b"/><ellipse cx="120" cy="202" rx="4" ry="2.4" fill="#d8a94b"/><ellipse cx="120" cy="209" rx="4" ry="2.4" fill="#d8a94b"/></g><g transform="rotate(-8 135 232) "><rect x="133.6" y="172" width="2.8" height="60" fill="#b98a35"/><ellipse cx="135" cy="180" rx="4" ry="2.4" fill="#d8a94b"/><ellipse cx="135" cy="187" rx="4" ry="2.4" fill="#d8a94b"/><ellipse cx="135" cy="194" rx="4" ry="2.4" fill="#d8a94b"/><ellipse cx="135" cy="201" rx="4" ry="2.4" fill="#d8a94b"/></g><g transform="rotate(0 150 232) "><rect x="148.6" y="166" width="2.8" height="66" fill="#b98a35"/><ellipse cx="150" cy="174" rx="4" ry="2.4" fill="#d8a94b"/><ellipse cx="150" cy="181" rx="4" ry="2.4" fill="#d8a94b"/><ellipse cx="150" cy="188" rx="4" ry="2.4" fill="#d8a94b"/><ellipse cx="150" cy="195" rx="4" ry="2.4" fill="#d8a94b"/></g><g transform="rotate(8 165 232) "><rect x="163.6" y="172" width="2.8" height="60" fill="#b98a35"/><ellipse cx="165" cy="180" rx="4" ry="2.4" fill="#d8a94b"/><ellipse cx="165" cy="187" rx="4" ry="2.4" fill="#d8a94b"/><ellipse cx="165" cy="194" rx="4" ry="2.4" fill="#d8a94b"/><ellipse cx="165" cy="201" rx="4" ry="2.4" fill="#d8a94b"/></g><g transform="rotate(16 180 232) "><rect x="178.6" y="180" width="2.8" height="52" fill="#b98a35"/><ellipse cx="180" cy="188" rx="4" ry="2.4" fill="#d8a94b"/><ellipse cx="180" cy="195" rx="4" ry="2.4" fill="#d8a94b"/><ellipse cx="180" cy="202" rx="4" ry="2.4" fill="#d8a94b"/><ellipse cx="180" cy="209" rx="4" ry="2.4" fill="#d8a94b"/></g><rect x="20" y="232" width="260" height="148" fill="#0d2a29"/><text x="150" y="300" text-anchor="middle" font-family="Georgia, serif" font-weight="700" font-size="15" letter-spacing="0" fill="#d8a94b">◆</text><text x="150" y="352" text-anchor="middle" font-family="Georgia, serif" font-weight="700" font-size="40" letter-spacing="8" fill="#efe2c4">INDIANA</text><text x="150" y="376" text-anchor="middle" font-family="Georgia, serif" font-weight="400" font-size="10" letter-spacing="6" fill="#d8a94b">CROSSROADS OF AMERICA</text></svg>