<svg xmlns="http://www.w3.org/2000/svg" width="300" height="420" viewBox="0 0 300 420"><rect width="300" height="420" fill="#e7ddc7"/><polygon points="150.0,30.0 241.8,83.0 150.0,136.0 58.2,83.0" fill="#c9a24b" stroke="none" stroke-width="0"/><line x1="134.7" y1="38.8" x2="226.5" y2="91.8" stroke="#a9863a" stroke-width="1" opacity="0.6"/><line x1="119.4" y1="47.7" x2="211.2" y2="100.7" stroke="#a9863a" stroke-width="1" opacity="0.6"/><line x1="104.1" y1="56.5" x2="195.9" y2="109.5" stroke="#a9863a" stroke-width="1" opacity="0.6"/><line x1="88.8" y1="65.3" x2="180.6" y2="118.3" stroke="#a9863a" stroke-width="1" opacity="0.6"/><line x1="73.5" y1="74.2" x2="165.3" y2="127.2" stroke="#a9863a" stroke-width="1" opacity="0.6"/><polygon points="266.0,97.0 357.8,150.0 266.0,203.0 174.2,150.0" fill="#7d8a4f" stroke="none" stroke-width="0"/><line x1="250.7" y1="105.8" x2="342.5" y2="158.8" stroke="#657045" stroke-width="1" opacity="0.6"/><line x1="235.4" y1="114.7" x2="327.2" y2="167.7" stroke="#657045" stroke-width="1" opacity="0.6"/><line x1="220.1" y1="123.5" x2="311.9" y2="176.5" stroke="#657045" stroke-width="1" opacity="0.6"/><line x1="204.8" y1="132.3" x2="296.6" y2="185.3" stroke="#657045" stroke-width="1" opacity="0.6"/><line x1="189.5" y1="141.2" x2="281.3" y2="194.2" stroke="#657045" stroke-width="1" opacity="0.6"/><polygon points="34.0,97.0 125.8,150.0 34.0,203.0 -57.8,150.0" fill="#7d8a4f" stroke="none" stroke-width="0"/><line x1="18.7" y1="105.8" x2="110.5" y2="158.8" stroke="#657045" stroke-width="1" opacity="0.6"/><line x1="3.4" y1="114.7" x2="95.2" y2="167.7" stroke="#657045" stroke-width="1" opacity="0.6"/><line x1="-11.9" y1="123.5" x2="79.9" y2="176.5" stroke="#657045" stroke-width="1" opacity="0.6"/><line x1="-27.2" y1="132.3" x2="64.6" y2="185.3" stroke="#657045" stroke-width="1" opacity="0.6"/><line x1="-42.5" y1="141.2" x2="49.3" y2="194.2" stroke="#657045" stroke-width="1" opacity="0.6"/><polygon points="150.0,164.0 241.8,217.0 150.0,270.0 58.2,217.0" fill="#c9a24b" stroke="none" stroke-width="0"/><line x1="134.7" y1="172.8" x2="226.5" y2="225.8" stroke="#a9863a" stroke-width="1" opacity="0.6"/><line x1="119.4" y1="181.7" x2="211.2" y2="234.7" stroke="#a9863a" stroke-width="1" opacity="0.6"/><line x1="104.1" y1="190.5" x2="195.9" y2="243.5" stroke="#a9863a" stroke-width="1" opacity="0.6"/><line x1="88.8" y1="199.3" x2="180.6" y2="252.3" stroke="#a9863a" stroke-width="1" opacity="0.6"/><line x1="73.5" y1="208.2" x2="165.3" y2="261.2" stroke="#a9863a" stroke-width="1" opacity="0.6"/><polygon points="58.2,83.0 266.0,203.0 241.8,217.0 34.0,97.0" fill="#6d6a63" stroke="none" stroke-width="0"/><polygon points="241.8,83.0 266.0,97.0 58.2,217.0 34.0,203.0" fill="#6d6a63" stroke="none" stroke-width="0"/><line x1="54.7" y1="95.0" x2="59.6" y2="97.8" stroke="#efe7d6" stroke-width="1.2"/><line x1="245.3" y1="95.0" x2="240.4" y2="97.8" stroke="#efe7d6" stroke-width="1.2"/><line x1="63.4" y1="100.0" x2="68.2" y2="102.8" stroke="#efe7d6" stroke-width="1.2"/><line x1="236.6" y1="100.0" x2="231.8" y2="102.8" stroke="#efe7d6" stroke-width="1.2"/><line x1="72.1" y1="105.0" x2="76.9" y2="107.8" stroke="#efe7d6" stroke-width="1.2"/><line x1="227.9" y1="105.0" x2="223.1" y2="107.8" stroke="#efe7d6" stroke-width="1.2"/><line x1="80.7" y1="110.0" x2="85.6" y2="112.8" stroke="#efe7d6" stroke-width="1.2"/><line x1="219.3" y1="110.0" x2="214.4" y2="112.8" stroke="#efe7d6" stroke-width="1.2"/><line x1="89.4" y1="115.0" x2="94.2" y2="117.8" stroke="#efe7d6" stroke-width="1.2"/><line x1="210.6" y1="115.0" x2="205.8" y2="117.8" stroke="#efe7d6" stroke-width="1.2"/><line x1="98.0" y1="120.0" x2="102.9" y2="122.8" stroke="#efe7d6" stroke-width="1.2"/><line x1="202.0" y1="120.0" x2="197.1" y2="122.8" stroke="#efe7d6" stroke-width="1.2"/><line x1="106.7" y1="125.0" x2="111.5" y2="127.8" stroke="#efe7d6" stroke-width="1.2"/><line x1="193.3" y1="125.0" x2="188.5" y2="127.8" stroke="#efe7d6" stroke-width="1.2"/><line x1="115.4" y1="130.0" x2="120.2" y2="132.8" stroke="#efe7d6" stroke-width="1.2"/><line x1="184.6" y1="130.0" x2="179.8" y2="132.8" stroke="#efe7d6" stroke-width="1.2"/><line x1="124.0" y1="135.0" x2="128.9" y2="137.8" stroke="#efe7d6" stroke-width="1.2"/><line x1="176.0" y1="135.0" x2="171.1" y2="137.8" stroke="#efe7d6" stroke-width="1.2"/><line x1="132.7" y1="140.0" x2="137.5" y2="142.8" stroke="#efe7d6" stroke-width="1.2"/><line x1="167.3" y1="140.0" x2="162.5" y2="142.8" stroke="#efe7d6" stroke-width="1.2"/><line x1="141.3" y1="145.0" x2="146.2" y2="147.8" stroke="#efe7d6" stroke-width="1.2"/><line x1="158.7" y1="145.0" x2="153.8" y2="147.8" stroke="#efe7d6" stroke-width="1.2"/><line x1="150.0" y1="150.0" x2="154.8" y2="152.8" stroke="#efe7d6" stroke-width="1.2"/><line x1="150.0" y1="150.0" x2="145.2" y2="152.8" stroke="#efe7d6" stroke-width="1.2"/><line x1="158.7" y1="155.0" x2="163.5" y2="157.8" stroke="#efe7d6" stroke-width="1.2"/><line x1="141.3" y1="155.0" x2="136.5" y2="157.8" stroke="#efe7d6" stroke-width="1.2"/><line x1="167.3" y1="160.0" x2="172.2" y2="162.8" stroke="#efe7d6" stroke-width="1.2"/><line x1="132.7" y1="160.0" x2="127.8" y2="162.8" stroke="#efe7d6" stroke-width="1.2"/><line x1="176.0" y1="165.0" x2="180.8" y2="167.8" stroke="#efe7d6" stroke-width="1.2"/><line x1="124.0" y1="165.0" x2="119.2" y2="167.8" stroke="#efe7d6" stroke-width="1.2"/><line x1="184.6" y1="170.0" x2="189.5" y2="172.8" stroke="#efe7d6" stroke-width="1.2"/><line x1="115.4" y1="170.0" x2="110.5" y2="172.8" stroke="#efe7d6" stroke-width="1.2"/><line x1="193.3" y1="175.0" x2="198.2" y2="177.8" stroke="#efe7d6" stroke-width="1.2"/><line x1="106.7" y1="175.0" x2="101.8" y2="177.8" stroke="#efe7d6" stroke-width="1.2"/><line x1="202.0" y1="180.0" x2="206.8" y2="182.8" stroke="#efe7d6" stroke-width="1.2"/><line x1="98.0" y1="180.0" x2="93.2" y2="182.8" stroke="#efe7d6" stroke-width="1.2"/><line x1="210.6" y1="185.0" x2="215.5" y2="187.8" stroke="#efe7d6" stroke-width="1.2"/><line x1="89.4" y1="185.0" x2="84.5" y2="187.8" stroke="#efe7d6" stroke-width="1.2"/><line x1="219.3" y1="190.0" x2="224.1" y2="192.8" stroke="#efe7d6" stroke-width="1.2"/><line x1="80.7" y1="190.0" x2="75.9" y2="192.8" stroke="#efe7d6" stroke-width="1.2"/><line x1="227.9" y1="195.0" x2="232.8" y2="197.8" stroke="#efe7d6" stroke-width="1.2"/><line x1="72.1" y1="195.0" x2="67.2" y2="197.8" stroke="#efe7d6" stroke-width="1.2"/><line x1="236.6" y1="200.0" x2="241.5" y2="202.8" stroke="#efe7d6" stroke-width="1.2"/><line x1="63.4" y1="200.0" x2="58.5" y2="202.8" stroke="#efe7d6" stroke-width="1.2"/><line x1="245.3" y1="205.0" x2="250.1" y2="207.8" stroke="#efe7d6" stroke-width="1.2"/><line x1="54.7" y1="205.0" x2="49.9" y2="207.8" stroke="#efe7d6" stroke-width="1.2"/><polygon points="150.0,30.0 188.1,52.0 163.9,66.0 125.8,44.0" fill="#d45537" stroke="none" stroke-width="0"/><polygon points="150.0,62.0 125.8,76.0 125.8,44.0 150.0,30.0" fill="#77301e" stroke="none" stroke-width="0"/><polygon points="150.0,62.0 188.1,84.0 188.1,52.0 150.0,30.0" fill="#983d27" stroke="none" stroke-width="0"/><polygon points="137.9,37.0 176.0,45.0 188.1,38.0 150.0,30.0" fill="#83341f" stroke="none" stroke-width="0"/><polygon points="188.1,48.0 202.0,56.0 188.1,64.0 174.2,56.0" fill="#ffffd7" stroke="none" stroke-width="0"/><polygon points="188.1,88.0 174.2,96.0 174.2,56.0 188.1,48.0" fill="#9c9078" stroke="none" stroke-width="0"/><polygon points="188.1,88.0 202.0,96.0 202.0,56.0 188.1,48.0" fill="#c7b89a" stroke="none" stroke-width="0"/><rect y="345" width="300" height="75" fill="#26281f"/><rect x="24" y="356" width="252" height="2" fill="#c9a24b"/><text x="150" y="392" text-anchor="middle" font-family="Georgia, serif" font-weight="700" font-size="42" letter-spacing="4" fill="#efe7d6">INDIANA</text><text x="150" y="410" text-anchor="middle" font-family="Georgia, serif" font-weight="400" font-size="10.5" letter-spacing="5" fill="#c9a24b">CROSSROADS OF AMERICA</text></svg>