<svg xmlns="http://www.w3.org/2000/svg" width="300" height="420" viewBox="0 0 300 420"><defs><filter id="v5g" x="0" y="0" width="100%" height="100%"><feTurbulence type="fractalNoise" baseFrequency="0.85" numOctaves="2" stitchTiles="stitch" result="n"/><feColorMatrix in="n" type="matrix" values="0 0 0 0 0  0 0 0 0 0  0 0 0 0 0  0 0 0 0.6 0"/></filter></defs><rect width="300" height="420" fill="#f2e4ba"/><rect width="300" height="252" fill="#1c2b46"/><polygon points="198.0,117.6 290.0,113.0 290.0,127.0 198.0,122.4" fill="#f2e4ba"/><polygon points="194.3,138.7 279.2,174.4 273.1,187.1 192.2,143.0" fill="#f2e4ba"/><polygon points="181.8,156.0 242.8,225.1 231.8,233.8 178.1,159.0" fill="#f2e4ba"/><polygon points="163.0,166.3 188.0,254.9 174.3,258.0 158.3,167.3" fill="#f2e4ba"/><polygon points="141.7,167.3 125.7,258.0 112.0,254.9 137.0,166.3" fill="#f2e4ba"/><polygon points="121.9,159.0 68.2,233.8 57.2,225.1 118.2,156.0" fill="#f2e4ba"/><polygon points="107.8,143.0 26.9,187.1 20.8,174.4 105.7,138.7" fill="#f2e4ba"/><polygon points="102.0,122.4 10.0,127.0 10.0,113.0 102.0,117.6" fill="#f2e4ba"/><polygon points="105.7,101.3 20.8,65.6 26.9,52.9 107.8,97.0" fill="#f2e4ba"/><polygon points="118.2,84.0 57.2,14.9 68.2,6.2 121.9,81.0" fill="#f2e4ba"/><polygon points="137.0,73.7 112.0,-14.9 125.7,-18.0 141.7,72.7" fill="#f2e4ba"/><polygon points="158.3,72.7 174.3,-18.0 188.0,-14.9 163.0,73.7" fill="#f2e4ba"/><polygon points="178.1,81.0 231.8,6.2 242.8,14.9 181.8,84.0" fill="#f2e4ba"/><polygon points="192.2,97.0 273.1,52.9 279.2,65.6 194.3,101.3" fill="#f2e4ba"/><circle cx="150" cy="120" r="46" fill="#f2e4ba"/><circle cx="150" cy="120" r="38" fill="none" stroke="#1c2b46" stroke-width="2.4"/><circle cx="150" cy="120" r="29" fill="none" stroke="#1c2b46" stroke-width="2.4"/><circle cx="150" cy="120" r="20" fill="none" stroke="#1c2b46" stroke-width="2.4"/><path d="M0 252 C 80 238 220 238 300 252 L300 300 L0 300 Z" fill="#1c2b46"/><path d="M22 344 L22 300 M22 300 l-4 -8 M22 300 l4 -8 M22 300 l0 -9" stroke="#1c2b46" stroke-width="2.2" fill="none" stroke-linecap="round"/><path d="M22 316 q-13 2 -16 14 M22 324 q13 2 16 14 M22 332 q-12 2 -14 12" stroke="#1c2b46" stroke-width="2.4" fill="none" stroke-linecap="round"/><ellipse cx="27" cy="322" rx="3.2" ry="6" fill="#1c2b46"/><path d="M54 344 L54 300 M54 300 l-4 -8 M54 300 l4 -8 M54 300 l0 -9" stroke="#1c2b46" stroke-width="2.2" fill="none" stroke-linecap="round"/><path d="M54 316 q-13 2 -16 14 M54 324 q13 2 16 14 M54 332 q-12 2 -14 12" stroke="#1c2b46" stroke-width="2.4" fill="none" stroke-linecap="round"/><ellipse cx="59" cy="322" rx="3.2" ry="6" fill="#1c2b46"/><path d="M86 344 L86 300 M86 300 l-4 -8 M86 300 l4 -8 M86 300 l0 -9" stroke="#1c2b46" stroke-width="2.2" fill="none" stroke-linecap="round"/><path d="M86 316 q-13 2 -16 14 M86 324 q13 2 16 14 M86 332 q-12 2 -14 12" stroke="#1c2b46" stroke-width="2.4" fill="none" stroke-linecap="round"/><ellipse cx="91" cy="322" rx="3.2" ry="6" fill="#1c2b46"/><path d="M118 344 L118 300 M118 300 l-4 -8 M118 300 l4 -8 M118 300 l0 -9" stroke="#1c2b46" stroke-width="2.2" fill="none" stroke-linecap="round"/><path d="M118 316 q-13 2 -16 14 M118 324 q13 2 16 14 M118 332 q-12 2 -14 12" stroke="#1c2b46" stroke-width="2.4" fill="none" stroke-linecap="round"/><ellipse cx="123" cy="322" rx="3.2" ry="6" fill="#1c2b46"/><path d="M150 344 L150 300 M150 300 l-4 -8 M150 300 l4 -8 M150 300 l0 -9" stroke="#1c2b46" stroke-width="2.2" fill="none" stroke-linecap="round"/><path d="M150 316 q-13 2 -16 14 M150 324 q13 2 16 14 M150 332 q-12 2 -14 12" stroke="#1c2b46" stroke-width="2.4" fill="none" stroke-linecap="round"/><ellipse cx="155" cy="322" rx="3.2" ry="6" fill="#1c2b46"/><path d="M182 344 L182 300 M182 300 l-4 -8 M182 300 l4 -8 M182 300 l0 -9" stroke="#1c2b46" stroke-width="2.2" fill="none" stroke-linecap="round"/><path d="M182 316 q-13 2 -16 14 M182 324 q13 2 16 14 M182 332 q-12 2 -14 12" stroke="#1c2b46" stroke-width="2.4" fill="none" stroke-linecap="round"/><ellipse cx="187" cy="322" rx="3.2" ry="6" fill="#1c2b46"/><path d="M214 344 L214 300 M214 300 l-4 -8 M214 300 l4 -8 M214 300 l0 -9" stroke="#1c2b46" stroke-width="2.2" fill="none" stroke-linecap="round"/><path d="M214 316 q-13 2 -16 14 M214 324 q13 2 16 14 M214 332 q-12 2 -14 12" stroke="#1c2b46" stroke-width="2.4" fill="none" stroke-linecap="round"/><ellipse cx="219" cy="322" rx="3.2" ry="6" fill="#1c2b46"/><path d="M246 344 L246 300 M246 300 l-4 -8 M246 300 l4 -8 M246 300 l0 -9" stroke="#1c2b46" stroke-width="2.2" fill="none" stroke-linecap="round"/><path d="M246 316 q-13 2 -16 14 M246 324 q13 2 16 14 M246 332 q-12 2 -14 12" stroke="#1c2b46" stroke-width="2.4" fill="none" stroke-linecap="round"/><ellipse cx="251" cy="322" rx="3.2" ry="6" fill="#1c2b46"/><path d="M278 344 L278 300 M278 300 l-4 -8 M278 300 l4 -8 M278 300 l0 -9" stroke="#1c2b46" stroke-width="2.2" fill="none" stroke-linecap="round"/><path d="M278 316 q-13 2 -16 14 M278 324 q13 2 16 14 M278 332 q-12 2 -14 12" stroke="#1c2b46" stroke-width="2.4" fill="none" stroke-linecap="round"/><ellipse cx="283" cy="322" rx="3.2" ry="6" fill="#1c2b46"/><rect y="344" width="300" height="76" fill="#1c2b46"/><rect x="24" y="355" width="252" height="2" fill="#e0cf9e"/><text x="150" y="390" text-anchor="middle" font-family="Georgia, serif" font-weight="700" font-size="44" letter-spacing="3" fill="#f2e4ba">INDIANA</text><text x="150" y="409" text-anchor="middle" font-family="Georgia, serif" font-weight="400" font-size="10.5" letter-spacing="5" fill="#e0cf9e">CROSSROADS OF AMERICA</text><rect width="300" height="252" filter="url(#v5g)" opacity="0.12"/></svg>