<svg xmlns="http://www.w3.org/2000/svg" width="360" height="330" viewBox="0 0 360 330"><rect x="0.0" y="0.0" width="360.0" height="330.0" rx="0" fill="#efe7d6" stroke="none" stroke-width="0" opacity="1.0"/><rect x="46.0" y="44.0" width="268.0" height="196.0" rx="10" fill="none" stroke="#26241f" stroke-width="1.4" opacity="1.0"/><circle cx="62" cy="58" r="2.6" fill="#26241f"/><circle cx="72" cy="58" r="2.6" fill="#26241f"/><circle cx="82" cy="58" r="2.6" fill="#26241f"/><circle cx="66" cy="86" r="5" fill="#26241f"/><rect x="150.0" y="84.0" width="18.0" height="3.5" rx="0" fill="#26241f" stroke="none" stroke-width="0" opacity="1.0"/><rect x="180.0" y="84.0" width="18.0" height="3.5" rx="0" fill="#26241f" stroke="none" stroke-width="0" opacity="1.0"/><rect x="210.0" y="84.0" width="18.0" height="3.5" rx="0" fill="#26241f" stroke="none" stroke-width="0" opacity="1.0"/><rect x="272.0" y="79.0" width="30.0" height="14.0" rx="7" fill="#c2622f" stroke="none" stroke-width="0" opacity="1.0"/><rect x="66.0" y="120.0" width="150.0" height="20.0" rx="0" fill="#c2622f" stroke="none" stroke-width="0" opacity="1.0"/><rect x="66.0" y="152.0" width="120.0" height="5.0" rx="0" fill="#575247" stroke="none" stroke-width="0" opacity="1.0"/><rect x="66.0" y="164.0" width="84.0" height="5.0" rx="0" fill="#575247" stroke="none" stroke-width="0" opacity="1.0"/><text x="180" y="300" text-anchor="middle" font-family="Helvetica, Arial, sans-serif" font-weight="700" font-size="15" letter-spacing="2" fill="#26241f">SWISS · SUBTRACTIVE</text></svg>