<svg xmlns="http://www.w3.org/2000/svg" width="360" height="330" viewBox="0 0 360 330"><defs><filter id="wg" x="0" y="0" width="100%" height="100%"><feTurbulence type="fractalNoise" baseFrequency="0.8" numOctaves="2" stitchTiles="stitch" result="n"/><feColorMatrix in="n" type="matrix" values="0 0 0 0 0 0 0 0 0 0 0 0 0 0 0 0 0 0 0.5 0"/></filter></defs><rect x="0.0" y="0.0" width="360.0" height="330.0" rx="0" fill="#f0e2c0" stroke="none" stroke-width="0" opacity="1.0"/><rect x="44.0" y="42.0" width="272.0" height="200.0" rx="10" fill="#1b2740" stroke="none" stroke-width="0" opacity="1.0"/><rect x="44.0" y="42.0" width="272.0" height="26.0" rx="10" fill="#233253" stroke="none" stroke-width="0" opacity="1.0"/><circle cx="62" cy="55" r="3" fill="#e59a5c"/><circle cx="73" cy="55" r="3" fill="#e59a5c"/><circle cx="84" cy="55" r="3" fill="#e59a5c"/><rect x="58.0" y="80.0" width="30.0" height="12.0" rx="2" fill="#e59a5c" stroke="none" stroke-width="0" opacity="1.0"/><rect x="150.0" y="83.0" width="20.0" height="5.0" rx="0" fill="#e59a5c" stroke="none" stroke-width="0" opacity="1.0"/><rect x="180.0" y="83.0" width="20.0" height="5.0" rx="0" fill="#e59a5c" stroke="none" stroke-width="0" opacity="1.0"/><rect x="210.0" y="83.0" width="20.0" height="5.0" rx="0" fill="#e59a5c" stroke="none" stroke-width="0" opacity="1.0"/><rect x="272.0" y="78.0" width="34.0" height="15.0" rx="3" fill="#e59a5c" stroke="none" stroke-width="0" opacity="1.0"/><rect x="58.0" y="110.0" width="150.0" height="16.0" rx="0" fill="#e59a5c" stroke="none" stroke-width="0" opacity="1.0"/><rect x="58.0" y="134.0" width="110.0" height="6.0" rx="0" fill="#c97e42" stroke="none" stroke-width="0" opacity="1.0"/><rect x="58.0" y="146.0" width="84.0" height="6.0" rx="0" fill="#c97e42" stroke="none" stroke-width="0" opacity="1.0"/><rect x="214.0" y="108.0" width="90.0" height="58.0" rx="0" fill="#e59a5c" stroke="none" stroke-width="0" opacity="1.0"/><circle cx="234" cy="130" r="9" fill="#1b2740"/><path d="M214 166 L246 138 L268 158 L286 146 L304 166 Z" fill="#1b2740"/><rect x="58.0" y="180.0" width="78.0" height="50.0" rx="2" fill="#e59a5c" stroke="none" stroke-width="0" opacity="1.0"/><rect x="146.0" y="180.0" width="78.0" height="50.0" rx="2" fill="#e59a5c" stroke="none" stroke-width="0" opacity="1.0"/><rect x="234.0" y="180.0" width="78.0" height="50.0" rx="2" fill="#e59a5c" stroke="none" stroke-width="0" opacity="1.0"/><rect x="0.0" y="0.0" width="360.0" height="330.0" rx="0" fill="transparent" stroke="none" stroke-width="0" opacity="1.0"/><rect x="44" y="42" width="272" height="200" rx="10" filter="url(#wg)" opacity="0.1"/><text x="180" y="300" text-anchor="middle" font-family="Georgia, serif" font-weight="700" font-size="15" letter-spacing="2" fill="#1b2740">DUOTONE · blockprint</text></svg>