<svg xmlns="http://www.w3.org/2000/svg" width="360" height="330" viewBox="0 0 360 330"><defs><linearGradient id="isk" x1="0" y1="0" x2="0" y2="1"><stop offset="0" stop-color="#e7eef4"/><stop offset="1" stop-color="#f3eee6"/></linearGradient></defs><rect x="0.0" y="0.0" width="360.0" height="330.0" rx="0" fill="url(#isk)" stroke="none" stroke-width="0" opacity="1.0"/><polygon points="63.2,185.1 224.3,278.1 224.3,288.9 63.2,195.9" fill="#9ca1a6"/><polygon points="337.1,213.0 224.3,278.1 224.3,288.9 337.1,223.9" fill="#bdc3ca"/><polygon points="176.0,120.0 337.1,213.0 224.3,278.1 63.2,185.1" fill="#ffffff"/><polygon points="176.0,120.0 337.1,213.0 316.9,224.6 155.9,131.6" fill="#dfe6ee"/><polygon points="174.7,128.5 178.7,130.8 174.7,133.2 170.6,130.8" fill="#a0a5ab"/><polygon points="181.4,132.4 185.4,134.7 181.4,137.1 177.3,134.7" fill="#a0a5ab"/><polygon points="188.1,136.3 192.1,138.6 188.1,140.9 184.1,138.6" fill="#a0a5ab"/><polygon points="158.5,139.4 185.4,154.9 174.7,161.1 147.8,145.6" fill="#6d5efc"/><polygon points="206.9,170.4 221.6,178.9 216.3,182.0 201.5,173.5" fill="#c3ccd8"/><polygon points="228.4,182.8 243.1,191.3 237.7,194.4 223.0,185.9" fill="#c3ccd8"/><polygon points="249.8,195.2 264.6,203.7 259.2,206.8 244.5,198.3" fill="#c3ccd8"/><polygon points="279.4,209.1 303.5,223.1 292.8,229.3 268.6,215.3" fill="#f2775f"/><polygon points="138.4,151.0 200.2,186.6 188.1,193.6 126.3,158.0" fill="#6e79a1"/><polygon points="122.3,160.3 167.9,186.6 163.2,189.4 117.6,163.0" fill="#c3ccd8"/><polygon points="114.9,164.6 149.8,184.7 145.1,187.4 110.2,167.3" fill="#c3ccd8"/><polygon points="104.9,170.4 134.4,187.4 125.0,192.9 95.5,175.8" fill="#6d5efc"/><polygon points="219.0,197.5 283.4,234.7 243.1,257.9 178.7,220.8" fill="#3fb6b0"/><polygon points="90.1,178.9 135.7,205.2 121.0,213.8 75.3,187.4" fill="#e3eaf2"/><polygon points="142.4,209.1 188.1,235.5 173.3,244.0 127.7,217.6" fill="#e3eaf2"/><polygon points="194.8,239.4 240.4,265.7 225.7,274.2 180.0,247.9" fill="#e3eaf2"/><polygon points="205.5,146.3 240.4,166.5 231.0,171.9 196.1,151.8" fill="#ffffff"/><polygon points="206.9,150.2 231.0,164.2 227.0,166.5 202.8,152.6" fill="#c3ccd8"/><polygon points="205.5,132.4 240.4,152.6 231.0,158.0 196.1,137.8" fill="#ffffff"/><polygon points="206.9,136.3 231.0,150.2 227.0,152.6 202.8,138.6" fill="#c3ccd8"/><polygon points="205.5,118.5 240.4,138.6 231.0,144.0 196.1,123.9" fill="#ffffff"/><polygon points="206.9,122.3 231.0,136.3 227.0,138.6 202.8,124.6" fill="#c3ccd8"/><text x="180" y="300" text-anchor="middle" font-family="Helvetica, Arial, sans-serif" font-weight="700" font-size="15" letter-spacing="3" fill="#3a4055">ISOMETRIC</text></svg>