<svg xmlns="http://www.w3.org/2000/svg" width="360" height="330" viewBox="0 0 360 330"><rect x="0.0" y="0.0" width="360.0" height="330.0" rx="0" fill="#eef2f8" stroke="none" stroke-width="0" opacity="1.0"/><rect x="40" y="46" width="280" height="200" rx="14" fill="#ffffff"/><path d="M40 60 q0 -14 14 -14 h252 q14 0 14 14 v6 h-280 Z" fill="#eaf0f6"/><circle cx="58" cy="57" r="3.4" fill="#f47560"/><circle cx="70" cy="57" r="3.4" fill="#f2c14e"/><circle cx="82" cy="57" r="3.4" fill="#33b8a4"/><rect x="96.0" y="52.0" width="150.0" height="10.0" rx="5" fill="#d2d8dd" stroke="none" stroke-width="0" opacity="1.0"/><circle cx="62" cy="86" r="7" fill="#5b6cf0"/><rect x="74.0" y="82.0" width="20.0" height="8.0" rx="2" fill="#2b3350" stroke="none" stroke-width="0" opacity="1.0"/><rect x="150.0" y="84.0" width="22.0" height="5.0" rx="2.5" fill="#cdd6e2" stroke="none" stroke-width="0" opacity="1.0"/><rect x="180.0" y="84.0" width="22.0" height="5.0" rx="2.5" fill="#cdd6e2" stroke="none" stroke-width="0" opacity="1.0"/><rect x="210.0" y="84.0" width="22.0" height="5.0" rx="2.5" fill="#cdd6e2" stroke="none" stroke-width="0" opacity="1.0"/><rect x="268.0" y="78.0" width="42.0" height="17.0" rx="8" fill="#f47560" stroke="none" stroke-width="0" opacity="1.0"/><rect x="58.0" y="116.0" width="140.0" height="15.0" rx="3" fill="#2b3350" stroke="none" stroke-width="0" opacity="1.0"/><rect x="58.0" y="138.0" width="150.0" height="7.0" rx="3" fill="#cdd6e2" stroke="none" stroke-width="0" opacity="1.0"/><rect x="58.0" y="150.0" width="110.0" height="7.0" rx="3" fill="#cdd6e2" stroke="none" stroke-width="0" opacity="1.0"/><rect x="58.0" y="168.0" width="66.0" height="20.0" rx="9" fill="#5b6cf0" stroke="none" stroke-width="0" opacity="1.0"/><rect x="214.0" y="112.0" width="96.0" height="64.0" rx="8" fill="#33b8a4" stroke="none" stroke-width="0" opacity="1.0"/><circle cx="236" cy="134" r="9" fill="#fff" opacity="0.9"/><path d="M214 176 L244 148 L266 168 L284 156 L310 176 Z" fill="#fff" opacity="0.85"/><rect x="58.0" y="200.0" width="78.0" height="44.0" rx="8" fill="#f5f9ff" stroke="none" stroke-width="0" opacity="1.0"/><rect x="68.0" y="210.0" width="24.0" height="24.0" rx="6" fill="#f47560" stroke="none" stroke-width="0" opacity="1.0"/><rect x="100.0" y="212.0" width="26.0" height="5.0" rx="2" fill="#cdd6e2" stroke="none" stroke-width="0" opacity="1.0"/><rect x="100.0" y="222.0" width="20.0" height="5.0" rx="2" fill="#cdd6e2" stroke="none" stroke-width="0" opacity="1.0"/><rect x="146.0" y="200.0" width="78.0" height="44.0" rx="8" fill="#f5f9ff" stroke="none" stroke-width="0" opacity="1.0"/><rect x="156.0" y="210.0" width="24.0" height="24.0" rx="6" fill="#33b8a4" stroke="none" stroke-width="0" opacity="1.0"/><rect x="188.0" y="212.0" width="26.0" height="5.0" rx="2" fill="#cdd6e2" stroke="none" stroke-width="0" opacity="1.0"/><rect x="188.0" y="222.0" width="20.0" height="5.0" rx="2" fill="#cdd6e2" stroke="none" stroke-width="0" opacity="1.0"/><rect x="234.0" y="200.0" width="78.0" height="44.0" rx="8" fill="#f5f9ff" stroke="none" stroke-width="0" opacity="1.0"/><rect x="244.0" y="210.0" width="24.0" height="24.0" rx="6" fill="#f2c14e" stroke="none" stroke-width="0" opacity="1.0"/><rect x="276.0" y="212.0" width="26.0" height="5.0" rx="2" fill="#cdd6e2" stroke="none" stroke-width="0" opacity="1.0"/><rect x="276.0" y="222.0" width="20.0" height="5.0" rx="2" fill="#cdd6e2" stroke="none" stroke-width="0" opacity="1.0"/><text x="180" y="300" text-anchor="middle" font-family="Helvetica, Arial, sans-serif" font-weight="700" font-size="15" letter-spacing="2" fill="#2b3350">FLAT VECTOR · friendly</text></svg>