<svg xmlns="http://www.w3.org/2000/svg" width="360" height="330" viewBox="0 0 360 330"><rect x="0.0" y="0.0" width="360.0" height="330.0" rx="0" fill="#0e2947" stroke="none" stroke-width="0" opacity="1.0"/><line x1="0" y1="0" x2="0" y2="270" stroke="#173a5e" stroke-width="0.5"/><line x1="20" y1="0" x2="20" y2="270" stroke="#173a5e" stroke-width="0.5"/><line x1="40" y1="0" x2="40" y2="270" stroke="#173a5e" stroke-width="0.5"/><line x1="60" y1="0" x2="60" y2="270" stroke="#173a5e" stroke-width="0.5"/><line x1="80" y1="0" x2="80" y2="270" stroke="#173a5e" stroke-width="0.5"/><line x1="100" y1="0" x2="100" y2="270" stroke="#173a5e" stroke-width="0.5"/><line x1="120" y1="0" x2="120" y2="270" stroke="#173a5e" stroke-width="0.5"/><line x1="140" y1="0" x2="140" y2="270" stroke="#173a5e" stroke-width="0.5"/><line x1="160" y1="0" x2="160" y2="270" stroke="#173a5e" stroke-width="0.5"/><line x1="180" y1="0" x2="180" y2="270" stroke="#173a5e" stroke-width="0.5"/><line x1="200" y1="0" x2="200" y2="270" stroke="#173a5e" stroke-width="0.5"/><line x1="220" y1="0" x2="220" y2="270" stroke="#173a5e" stroke-width="0.5"/><line x1="240" y1="0" x2="240" y2="270" stroke="#173a5e" stroke-width="0.5"/><line x1="260" y1="0" x2="260" y2="270" stroke="#173a5e" stroke-width="0.5"/><line x1="280" y1="0" x2="280" y2="270" stroke="#173a5e" stroke-width="0.5"/><line x1="300" y1="0" x2="300" y2="270" stroke="#173a5e" stroke-width="0.5"/><line x1="320" y1="0" x2="320" y2="270" stroke="#173a5e" stroke-width="0.5"/><line x1="340" y1="0" x2="340" y2="270" stroke="#173a5e" stroke-width="0.5"/><line x1="360" y1="0" x2="360" y2="270" stroke="#173a5e" stroke-width="0.5"/><line x1="0" y1="0" x2="360" y2="0" stroke="#173a5e" stroke-width="0.5"/><line x1="0" y1="20" x2="360" y2="20" stroke="#173a5e" stroke-width="0.5"/><line x1="0" y1="40" x2="360" y2="40" stroke="#173a5e" stroke-width="0.5"/><line x1="0" y1="60" x2="360" y2="60" stroke="#173a5e" stroke-width="0.5"/><line x1="0" y1="80" x2="360" y2="80" stroke="#173a5e" stroke-width="0.5"/><line x1="0" y1="100" x2="360" y2="100" stroke="#173a5e" stroke-width="0.5"/><line x1="0" y1="120" x2="360" y2="120" stroke="#173a5e" stroke-width="0.5"/><line x1="0" y1="140" x2="360" y2="140" stroke="#173a5e" stroke-width="0.5"/><line x1="0" y1="160" x2="360" y2="160" stroke="#173a5e" stroke-width="0.5"/><line x1="0" y1="180" x2="360" y2="180" stroke="#173a5e" stroke-width="0.5"/><line x1="0" y1="200" x2="360" y2="200" stroke="#173a5e" stroke-width="0.5"/><line x1="0" y1="220" x2="360" y2="220" stroke="#173a5e" stroke-width="0.5"/><line x1="0" y1="240" x2="360" y2="240" stroke="#173a5e" stroke-width="0.5"/><line x1="0" y1="260" x2="360" y2="260" stroke="#173a5e" stroke-width="0.5"/><rect x="44" y="44" width="272" height="200" fill="none" stroke="#cfe6ff" stroke-width="1.1"/><line x1="44" y1="70" x2="316" y2="70" stroke="#cfe6ff" stroke-width="1.1"/><circle cx="58" cy="57" r="3" fill="none" stroke="#7fd0e0" stroke-width="1"/><circle cx="69" cy="57" r="3" fill="none" stroke="#7fd0e0" stroke-width="1"/><circle cx="80" cy="57" r="3" fill="none" stroke="#7fd0e0" stroke-width="1"/><rect x="56" y="78" width="34" height="14" fill="none" stroke="#cfe6ff" stroke-width="1.1"/><text x="60" y="89" text-anchor="start" font-family="ui-monospace, 'DejaVu Sans Mono', monospace" font-weight="400" font-size="7.5" letter-spacing="0.5" fill="#5f86ab">LOGO</text><line x1="150" y1="86" x2="170" y2="86" stroke="#7fd0e0" stroke-width="1.4"/><line x1="180" y1="86" x2="200" y2="86" stroke="#7fd0e0" stroke-width="1.4"/><line x1="210" y1="86" x2="230" y2="86" stroke="#7fd0e0" stroke-width="1.4"/><text x="150" y="74" text-anchor="start" font-family="ui-monospace, 'DejaVu Sans Mono', monospace" font-weight="400" font-size="7" letter-spacing="0.5" fill="#5f86ab">NAV MENU</text><rect x="272" y="78" width="34" height="15" fill="none" stroke="#cfe6ff" stroke-width="1.1" stroke-dasharray="4 3"/><text x="289" y="101" text-anchor="middle" font-family="ui-monospace, 'DejaVu Sans Mono', monospace" font-weight="400" font-size="7" letter-spacing="0.5" fill="#7fd0e0">CTA</text><rect x="56" y="108" width="148" height="60" fill="none" stroke="#cfe6ff" stroke-width="1.1"/><text x="60" y="119" text-anchor="start" font-family="ui-monospace, 'DejaVu Sans Mono', monospace" font-weight="400" font-size="7.5" letter-spacing="0.5" fill="#5f86ab">HERO</text><line x1="64" y1="150" x2="150" y2="150" stroke="#7fd0e0" stroke-width="1"/><line x1="64" y1="158" x2="120" y2="158" stroke="#7fd0e0" stroke-width="1"/><rect x="214" y="108" width="92" height="60" fill="none" stroke="#cfe6ff" stroke-width="1.1"/><line x1="214" y1="168" x2="306" y2="108" stroke="#5f86ab" stroke-width="0.8"/><line x1="306" y1="168" x2="214" y2="108" stroke="#5f86ab" stroke-width="0.8"/><text x="260" y="142" text-anchor="middle" font-family="ui-monospace, 'DejaVu Sans Mono', monospace" font-weight="400" font-size="7" letter-spacing="0.5" fill="#5f86ab">IMG</text><rect x="56" y="180" width="78" height="50" fill="none" stroke="#cfe6ff" stroke-width="1.1"/><text x="60" y="191" text-anchor="start" font-family="ui-monospace, 'DejaVu Sans Mono', monospace" font-weight="400" font-size="7.5" letter-spacing="0.5" fill="#5f86ab">CARD</text><rect x="144" y="180" width="78" height="50" fill="none" stroke="#cfe6ff" stroke-width="1.1"/><text x="148" y="191" text-anchor="start" font-family="ui-monospace, 'DejaVu Sans Mono', monospace" font-weight="400" font-size="7.5" letter-spacing="0.5" fill="#5f86ab">CARD</text><rect x="232" y="180" width="78" height="50" fill="none" stroke="#cfe6ff" stroke-width="1.1"/><text x="236" y="191" text-anchor="start" font-family="ui-monospace, 'DejaVu Sans Mono', monospace" font-weight="400" font-size="7.5" letter-spacing="0.5" fill="#5f86ab">CARD</text><text x="20" y="26" text-anchor="start" font-family="ui-monospace, 'DejaVu Sans Mono', monospace" font-weight="400" font-size="8" letter-spacing="0.5" fill="#5f86ab">FIG. — WEB PAGE / NAV</text><text x="180" y="300" text-anchor="middle" font-family="ui-monospace, 'DejaVu Sans Mono', monospace" font-weight="700" font-size="15" letter-spacing="1" fill="#cfe6ff">BLUEPRINT · wireframe</text></svg>